<svg width="119" height="142" viewBox="0 0 119 142" fill="none" xmlns="http://www.w3.org/2000/svg">
<path d="M45.6418 0.429642C44.8728 0.85936 43.7419 0.904602 43.1765 0.542725C43.0408 0.452255 42.8372 0.520111 42.7468 0.655807C42.6337 0.85936 42.4301 0.85936 41.9552 0.633194C41.4576 0.407013 41.2993 0.407013 41.2088 0.633194C41.1635 0.76889 40.96 0.904602 40.7338 0.904602C40.5303 0.904602 40.2136 1.0403 40.0779 1.17601C39.8517 1.40218 39.6934 1.40218 39.3542 1.17601C38.7435 0.814133 38.1102 0.836746 35.0569 1.33434C32.5011 1.76405 30.9857 2.28426 30.9857 2.75922C30.9857 2.87231 30.8274 2.94016 30.6465 2.87231C30.4655 2.78185 30.262 2.82707 30.1941 2.94016C30.1037 3.07587 29.9001 3.16634 29.7192 3.16634C29.5382 3.16634 29.1311 3.41513 28.8145 3.73177C28.4978 4.04842 28.136 4.2972 27.9776 4.31982C27.4122 4.36505 26.5754 4.25197 26.3944 4.09364C26.304 4.00317 25.6481 4.00317 24.9243 4.09364C23.4994 4.2972 22.6626 3.95795 22.459 3.14372C22.3233 2.69138 22.0067 2.60091 21.5769 2.89493C21.4412 2.9854 21.0794 3.61868 20.7853 4.2972C20.0163 6.12921 19.4961 6.73987 18.0939 7.39578C16.7368 8.05168 15.3798 9.2504 15.3798 9.81583C15.3798 10.0194 15.1536 10.517 14.8822 10.8788C14.4751 11.4217 14.362 11.874 14.362 13.0049C14.362 13.8643 14.2489 14.5655 14.0906 14.7238C13.9323 14.8821 13.7966 15.1309 13.7966 15.2666C13.7966 15.3797 13.4347 15.8094 12.9824 16.1713C12.53 16.5558 11.9646 17.0308 11.7158 17.2569C11.1956 17.7319 9.90639 18.3199 9.38619 18.3199C8.88861 18.3199 8.57197 18.6818 7.98392 19.9484C7.68989 20.5591 7.37325 21.034 7.28278 21.034C6.67211 21.034 5.42816 22.8886 5.42816 23.816C5.42816 24.3588 4.84011 25.2635 3.93542 26.1229C3.66401 26.3717 3.21166 27.1859 2.91764 27.9323C2.64623 28.6787 2.23912 29.4251 2.01294 29.5608C1.80939 29.7191 1.5606 30.2167 1.47013 30.6916C1.40227 31.1666 1.26657 31.7999 1.19872 32.0939C1.10825 32.4784 1.15348 32.5915 1.37966 32.5236C1.53798 32.4784 1.92247 32.682 2.19388 32.976C2.71408 33.5414 2.8724 34.1521 2.51052 34.1521C2.12603 34.1521 2.01294 35.283 2.37482 35.8031C2.84978 36.4817 2.80455 38.4268 2.26173 39.8064C2.01294 40.4397 1.80939 41.2087 1.80939 41.548C1.80939 42.2265 0.701137 44.1037 0.294025 44.1037C0.135704 44.1037 0 44.1942 0 44.3299C0 44.443 0.158321 44.5561 0.33926 44.5561C0.542816 44.5561 0.791607 44.8275 0.927311 45.1667C1.06301 45.5286 1.26657 45.9809 1.37966 46.1845C1.49274 46.4107 1.49274 46.6142 1.35704 46.7047C1.22134 46.7726 1.13087 47.3154 1.13087 47.9034C1.15348 48.7855 1.26657 49.0795 1.80939 49.6223C2.55576 50.3461 2.69146 50.7306 2.12603 50.5044C1.832 50.3913 1.78677 50.4592 1.92247 50.9115C2.17126 51.7031 2.32959 51.7936 2.82717 51.4091C3.14381 51.1603 3.18904 51.0246 3.00811 50.9568C2.66885 50.8437 2.60099 50.2104 2.91764 50.2104C3.03072 50.2104 3.23428 50.5044 3.36998 50.8889C3.48307 51.2508 3.70924 51.5674 3.82233 51.5674C3.95803 51.5674 4.07112 51.7258 4.07112 51.9067C4.07112 52.0876 4.22944 52.2459 4.41038 52.2459C4.59132 52.2459 4.74964 52.3138 4.74964 52.4269C4.74964 52.5174 5.26984 53.128 5.88051 53.8065C6.60426 54.5982 7.01137 55.2314 7.03399 55.6159C7.05661 56.5659 7.19231 57.0634 7.48634 57.2218C7.62204 57.3122 7.66728 57.5158 7.59942 57.6515C7.50896 57.7872 7.53157 57.9003 7.66728 57.9003C7.80298 57.9003 7.84822 58.036 7.80298 58.1717C7.73513 58.3526 8.07439 58.624 8.63982 58.8728C9.58975 59.2573 10.3814 59.8906 13.0954 62.3333C15.8321 64.7986 16.5107 65.0021 18.5688 64.007C20.7401 62.9666 24.1553 62.8761 26.0552 63.8034C26.304 63.9165 26.6885 63.8713 27.0729 63.6677C29.1537 62.6273 30.7143 61.9714 31.1667 61.9714C31.4381 61.9714 31.7321 61.8131 31.8 61.6548C31.9583 61.225 33.7903 60.8405 35.8937 60.7953C37.2281 60.7501 37.59 60.8179 37.9971 61.1798C38.5626 61.7 39.3542 63.1475 39.3542 63.6451C39.3542 63.826 39.5803 64.2105 39.8744 64.4593C40.2589 64.8438 40.5529 64.9117 41.1635 64.7986C41.5933 64.7307 42.3623 64.6176 42.8598 64.5724C43.3574 64.5045 44.0812 64.4367 44.4883 64.3915C45.0763 64.301 45.2347 64.3915 45.3251 64.8212C45.393 65.0926 45.6644 65.4092 45.9132 65.4771C46.162 65.5449 46.3655 65.7485 46.3655 65.9068C46.3655 66.0878 46.5012 66.3365 46.6822 66.4723C47.1119 66.8341 46.9084 69.028 46.3429 70.1589C46.0489 70.7243 46.0037 71.0183 46.1846 71.0636C46.3429 71.1314 46.3882 71.3124 46.2524 71.6064C46.162 71.8326 46.0263 72.4885 45.981 73.0539C45.868 74.0264 45.5739 74.5014 45.1894 74.2752C44.8954 74.0943 44.9859 74.7276 45.3251 75.4513C45.5061 75.8132 45.8227 76.5144 46.0489 77.0119C46.2751 77.5095 46.8405 78.2785 47.2702 78.7082C48.8761 80.2688 50.889 83.2543 50.889 84.0912C50.889 84.3626 51.0021 84.634 51.1152 84.7018C51.2509 84.7923 51.2961 84.928 51.2283 85.0411C51.1604 85.1542 51.3414 85.7875 51.658 86.4434C51.952 87.0993 52.3817 88.1849 52.6305 88.8408C53.0377 90.0169 53.0377 90.0621 52.6079 90.3562C52.2008 90.6728 52.2008 90.7407 52.9246 92.55C53.4221 93.8166 53.6483 94.7665 53.6257 95.4451C53.5805 96.6212 53.2186 97.7068 52.8341 97.7068C52.4044 97.7294 51.364 99.6067 51.2056 100.67C51.0247 102.027 50.4367 104.04 50.2557 104.04C49.9617 104.04 50.0974 108.201 50.414 108.948C50.5724 109.355 50.7985 109.694 50.8664 109.694C51.0926 109.694 52.0651 111.707 53.0377 114.104C53.2412 114.602 53.6709 115.461 54.0102 116.027C54.4852 116.841 54.6209 117.361 54.6435 118.628C54.6661 119.487 54.7792 120.709 54.9149 121.342C55.0506 121.953 55.322 123.377 55.5256 124.486C55.9553 126.815 56.2719 127.539 57.448 128.828C57.9908 129.416 58.4658 130.298 58.8051 131.316C59.3479 132.99 60.0943 134.618 60.4109 134.822C60.524 134.89 60.6823 135.41 60.7502 135.998C60.8859 136.88 60.8406 137.061 60.5466 137.061C60.3657 137.061 60.1621 137.197 60.0943 137.332C60.0038 137.649 60.3657 138.418 60.7049 138.667C60.818 138.757 60.8632 139.074 60.7954 139.391C60.6371 140.16 60.9763 140.702 61.293 140.227C61.4287 140.001 61.5191 139.979 61.5191 140.16C61.5191 140.318 61.6549 140.454 61.8132 140.454C61.9941 140.454 62.3108 140.657 62.5369 140.906C63.0345 141.471 63.4869 141.471 64.0523 140.974C64.3237 140.725 64.8213 140.589 65.4093 140.612C65.9295 140.634 66.5628 140.499 66.8795 140.295C67.5354 139.866 69.1638 139.752 70.4078 140.046C70.9958 140.182 71.3803 140.182 71.5839 140.001C71.7648 139.866 72.1267 139.775 72.4207 139.82C72.7147 139.866 72.9183 139.775 72.8957 139.639C72.8731 139.481 73.2802 139.323 73.823 139.277C75.0217 139.142 77.306 137.649 78.5952 136.201C78.844 135.907 79.4321 135.297 79.9297 134.844C80.7665 134.03 82.3271 131.814 82.3271 131.429C82.3271 131.135 83.8425 129.597 84.1365 129.597C84.3853 129.597 84.7924 128.76 85.3578 126.996C85.7649 125.73 85.8554 124.056 85.4935 124.282C85.0864 124.531 85.2673 123.988 85.7876 123.377C86.059 123.061 87.0089 122.518 87.8683 122.156C89.0218 121.704 89.5873 121.319 89.9718 120.776C90.2884 120.302 90.4015 119.94 90.2658 119.804C90.1301 119.668 90.1301 119.374 90.2884 118.99C90.5824 118.266 90.5372 116.457 90.2432 116.163C90.1075 116.027 90.017 115.823 90.017 115.71C90.017 115.574 90.1301 115.62 90.2432 115.801C90.4241 116.072 90.4693 116.049 90.4693 115.62C90.4693 115.348 90.3563 115.145 90.1979 115.167C90.0396 115.213 89.9265 114.919 89.9039 114.444C89.8813 114.014 89.7456 113.629 89.5873 113.584C89.4516 113.539 89.3385 113.268 89.3385 112.996C89.3385 112.408 91.374 110.146 91.9168 110.146C92.1204 110.146 92.2787 110.056 92.2787 109.965C92.2787 109.875 92.4597 109.536 92.6858 109.242C93.5001 108.133 94.3369 107.477 95.6035 106.957C96.3272 106.686 96.9605 106.369 97.0284 106.301C97.0962 106.211 97.2998 106.053 97.5033 105.94C98.0914 105.623 99.6067 103.565 99.9234 102.637C100.15 101.981 100.15 101.574 99.9686 100.828C99.8103 100.285 99.7198 98.5889 99.7424 96.9152C99.8103 93.1381 99.8329 93.2964 99.2222 93.025C98.7925 92.8214 98.589 92.437 98.3176 91.2156C97.82 89.2479 97.8426 88.9539 98.3854 88.8182C98.6342 88.7503 98.8378 88.5694 98.8378 88.4337C98.8378 88.2754 98.6794 88.2075 98.4985 88.298C98.0461 88.4563 97.7747 87.823 98.0914 87.3254C98.2723 87.0314 98.1818 86.76 97.6843 86.1493C97.3224 85.7422 97.0284 85.222 97.0284 85.0411C97.0284 84.5661 97.7747 82.4627 98.0009 82.3044C98.2271 82.1461 99.2675 79.7486 99.4484 78.9796C99.5163 78.7082 99.7877 78.369 100.036 78.2333C100.738 77.8488 101.914 76.5822 102.366 75.7454C103.339 73.8229 106.392 70.5434 108.247 69.3673C109.468 68.5983 113.064 64.6629 113.087 64.0748C113.087 63.9843 113.449 63.3284 113.878 62.6499C114.308 61.9714 114.67 61.2477 114.67 61.0215C114.67 60.5691 116.05 57.6063 116.321 57.4932C116.411 57.4479 116.479 57.3122 116.479 57.1765C116.479 57.0634 116.728 56.4528 117.045 55.8195C117.361 55.2088 117.61 54.3494 117.61 53.897C117.61 53.309 117.723 53.0828 118.062 52.9923C118.537 52.8566 118.673 52.5626 118.289 52.4269C118.085 52.359 117.972 51.1603 118.108 50.3461C118.221 49.7128 117.271 49.4414 116.773 49.9616C116.276 50.4592 114.331 51.1377 113.856 50.9568C113.675 50.8889 113.268 50.9568 112.974 51.1151C112.68 51.2734 112.205 51.3413 111.933 51.2734C111.639 51.1829 111.209 51.3186 110.825 51.6127C110.373 51.9293 109.965 52.0424 109.445 51.9745C108.948 51.9067 108.45 51.9972 107.998 52.2686C106.822 52.9923 105.962 52.6983 105.058 51.2734C104.831 50.9341 104.424 50.5949 104.108 50.527L103.565 50.3913L104.085 50.1199C104.944 49.6902 104.854 49.0343 103.768 47.9034C103.226 47.338 102.637 46.6595 102.457 46.3881C102.276 46.1393 102.027 45.9131 101.891 45.9131C101.778 45.9131 101.484 45.5965 101.28 45.2346C101.054 44.8501 100.715 44.4882 100.489 44.3977C100.263 44.3073 99.946 44.1037 99.7877 43.9454C99.6294 43.8097 99.3579 43.7192 99.1996 43.7871C98.9961 43.8549 98.8604 43.6966 98.7925 43.3347C98.702 42.9276 98.7699 42.7467 98.9961 42.7467C99.2675 42.7467 99.2675 42.7014 98.9735 42.4074C98.5437 41.9551 98.4533 41.9777 98.2949 42.5657C98.1592 43.0859 98.1366 43.0859 97.82 42.6336C97.6164 42.3848 97.3676 41.7741 97.2545 41.2765C96.6213 38.6756 96.3046 38.0196 95.1964 37.1602C93.9298 36.165 93.6131 35.4413 93.5453 33.2474C93.5001 32.3879 93.3417 31.5285 93.206 31.3475C93.0477 31.144 92.8894 30.7369 92.8668 30.4202C92.8668 30.1036 92.7989 29.8548 92.7311 29.8548C92.6632 29.8548 92.1883 29.4703 91.6454 28.9953C90.5824 28.0454 89.9491 26.4622 90.6503 26.4622C90.8991 26.4622 90.8312 26.3039 90.4015 25.9194C90.0848 25.6254 89.542 24.7885 89.1575 24.0648C88.7957 23.3184 88.2755 22.3458 88.0041 21.8709C87.7553 21.3959 87.5291 20.8983 87.5291 20.74C87.5291 20.5817 87.3481 20.1972 87.1446 19.9032C86.9184 19.5865 86.7149 19.1568 86.6922 18.9306C86.647 18.6818 86.2625 18.0938 85.8328 17.5736C85.4031 17.076 85.0412 16.4201 85.0412 16.1487C85.0412 15.8547 84.9507 15.5833 84.8376 15.4928C84.7019 15.4249 84.5436 14.6559 84.4531 13.7965C84.3853 12.937 84.1817 12.0549 84.0234 11.8288C83.4353 11.0372 80.7439 11.3086 79.7487 12.2585C79.4773 12.5073 79.0928 12.643 78.8214 12.5751C78.5726 12.5299 77.9167 12.349 77.3513 12.2359C76.7859 12.1002 76.13 11.8966 75.8812 11.7835C75.0669 11.4217 73.5516 11.1276 72.9861 11.2407C72.5564 11.3312 72.3755 11.2407 72.2624 10.8788C72.1493 10.517 71.9231 10.4039 71.4029 10.4039C70.1816 10.4039 69.0507 9.97415 68.915 9.49919C68.8472 9.22778 68.5984 9.04684 68.3496 9.04684C68.0782 9.04684 67.8068 8.93376 67.7389 8.82066C67.3997 8.27785 65.251 8.77544 64.2332 9.63489C63.5321 10.2456 63.3285 11.2633 63.7583 11.9645C64.1201 12.5525 63.2155 13.7739 62.4012 13.7965C62.2203 13.7965 61.6549 13.5025 61.1573 13.1632C60.23 12.4847 58.8051 11.9871 57.8778 11.9871C57.0862 11.9871 56.385 11.4217 56.2041 10.6074C56.091 10.1551 55.8422 9.83846 55.4577 9.68013C55.1184 9.54442 54.553 9.29564 54.1911 9.09207C53.784 8.88852 53.015 8.75282 52.3365 8.77544C51.5901 8.79805 50.8438 8.63972 50.2331 8.36832C49.3284 7.91597 48.7177 7.21484 49.0118 6.92081C49.0796 6.85297 48.9891 6.78511 48.7856 6.78511C48.582 6.78511 48.4011 6.87558 48.4011 7.01128C48.4011 7.39578 47.7452 7.26007 47.4964 6.80772C47.3155 6.44585 47.4059 6.26491 47.9487 5.78995C48.3332 5.4733 48.7856 5.26974 48.9665 5.3376C49.1475 5.42807 49.3058 5.36021 49.3058 5.20189C49.3058 5.06619 49.1927 5.02095 49.0796 5.08881C48.9213 5.17928 48.8987 4.93048 48.9891 4.34244C49.1022 3.57344 49.057 3.3925 48.6499 3.18895C48.0845 2.87231 48.0392 2.37473 48.5368 1.87715C48.7177 1.67358 48.8308 1.37956 48.763 1.19862C48.6951 1.01768 48.7404 0.949829 48.8534 1.01768C48.9891 1.08554 49.0796 1.06293 49.0796 0.949829C49.0796 0.520111 48.763 0.474869 48.3559 0.836746C47.9487 1.19862 47.9261 1.19862 47.813 0.746277C47.7 0.361786 47.1571 0.022522 46.5917 -9.15527e-05C46.5239 -9.15527e-05 46.0941 0.203461 45.6418 0.429642ZM88.7957 73.461C88.9766 73.7098 88.9992 73.936 88.8409 74.1169C88.7278 74.2752 88.6826 74.4788 88.7504 74.5919C88.8861 74.8407 88.4112 75.9941 88.1624 75.9941C88.0493 75.9941 87.9814 76.1072 87.9814 76.2429C87.9814 76.4013 87.8005 76.6501 87.5969 76.8084C87.2124 77.1024 87.2124 77.1476 87.5969 77.4417C88.1624 77.894 87.8231 78.0297 86.6244 77.8035C86.0137 77.6905 85.4935 77.7131 85.3352 77.8262C84.9055 78.188 84.7924 77.6905 84.9281 76.062C85.1543 73.642 85.1769 73.5741 86.1042 73.2801C86.5792 73.1217 87.0541 72.9182 87.1672 72.8277C87.416 72.5789 88.4338 72.9634 88.7957 73.461ZM80.9701 82.1461C80.9701 82.4853 81.0831 82.8246 81.2188 82.8924C81.3546 82.9829 81.3998 83.2091 81.3319 83.39C81.2641 83.571 81.3093 83.9328 81.445 84.2042C81.6486 84.5661 81.6486 84.7018 81.445 84.7697C80.9927 84.928 81.1736 85.7196 81.739 85.9232C82.2819 86.1493 82.5533 86.6017 82.5533 87.3254C82.5533 87.5742 82.8021 88.2754 83.1187 88.886C83.8198 90.2657 83.8198 90.2883 83.1187 89.9717C82.7568 89.8133 82.5759 89.5872 82.6664 89.3836C82.7342 89.2253 82.6211 88.8634 82.4402 88.592C82.2592 88.3206 82.1009 87.9587 82.1009 87.8004C82.1009 87.6195 81.8069 87.1219 81.4224 86.6922C81.0605 86.285 80.7213 85.7648 80.6986 85.5387C80.6986 85.3351 80.6534 84.8375 80.6082 84.4757C80.5629 84.0912 80.4951 82.9829 80.4499 81.9877C80.382 80.3593 80.4046 80.2462 80.6534 80.8569C80.8117 81.2188 80.9474 81.8068 80.9701 82.1461ZM89.1123 92.5048C89.248 92.7536 89.3837 93.4321 89.4289 93.9749C89.4516 94.5404 89.6099 95.1284 89.7456 95.2641C90.0848 95.6034 90.1075 96.5081 89.7908 96.689C89.4742 96.8926 89.6551 100.036 89.9944 100.149C90.1301 100.195 90.2432 100.33 90.2432 100.443C90.2432 100.579 90.1527 100.602 90.017 100.534C89.9039 100.466 89.7908 100.511 89.7908 100.624C89.7908 100.76 89.6777 100.873 89.542 100.873C89.4063 100.873 89.3611 100.67 89.4516 100.421C89.542 100.149 89.4968 99.8328 89.3837 99.6745C89.1575 99.3805 88.8183 97.6389 88.8635 96.9152C89.0218 94.2237 88.9766 93.4547 88.7278 92.9572C88.5695 92.6405 88.4338 92.3239 88.4338 92.2108C88.4338 91.8715 88.8861 92.0751 89.1123 92.5048Z" fill="black"/>
<path d="M114.218 97.0734C114.037 97.3675 113.878 97.9329 113.833 98.3626C113.765 99.3126 113.629 99.4483 113.087 99.109C112.725 98.8828 112.634 98.8828 112.634 99.1542C112.634 99.3352 112.77 99.5387 112.928 99.6066C113.064 99.6744 112.974 99.6744 112.702 99.6066C112.182 99.4935 112.091 99.6292 112.159 100.466C112.182 100.67 112.091 100.896 111.956 100.986C111.843 101.054 111.73 101.325 111.73 101.552C111.73 101.846 111.617 101.936 111.39 101.868C111.187 101.778 111.051 101.868 111.051 102.072C111.051 102.524 109.445 103.655 108.224 104.062C107.726 104.221 107.229 104.447 107.116 104.537C106.98 104.628 106.663 104.718 106.369 104.718C105.962 104.718 105.849 104.831 105.849 105.329C105.849 105.691 105.646 106.256 105.419 106.618C104.967 107.296 104.967 107.839 105.419 110.44C105.691 111.956 105.691 112.001 105.035 113.267C104.673 113.969 104.289 114.624 104.198 114.692C103.406 115.258 103.112 117.316 103.678 118.379C103.859 118.741 103.949 119.374 103.881 119.962C103.814 120.55 103.859 121.003 104.017 121.093C104.153 121.184 104.266 121.432 104.266 121.658C104.266 122.156 104.944 122.812 105.465 122.812C105.668 122.812 105.849 122.902 105.849 123.038C105.849 123.377 107.025 123.287 107.523 122.925C107.772 122.744 108.247 122.586 108.586 122.586C109.264 122.586 110.146 121.681 110.146 121.025C110.146 120.822 110.282 120.46 110.463 120.211C110.621 119.962 110.893 119.193 111.051 118.515C111.232 117.836 111.549 116.909 111.752 116.456C111.978 116.004 112.295 115.145 112.431 114.534C112.589 113.923 113.087 112.453 113.562 111.232C114.037 110.033 114.489 108.654 114.557 108.179C114.828 106.55 114.896 106.301 115.19 106.369C115.461 106.414 115.484 106.211 115.213 104.492L115.054 103.474L115.507 104.017L115.959 104.582L116.344 103.859C116.615 103.316 116.66 103.022 116.479 102.705C116.366 102.456 116.253 101.8 116.253 101.258C116.253 100.715 116.14 99.9232 116.004 99.4935C115.688 98.4983 114.806 96.5985 114.67 96.5759C114.602 96.5759 114.398 96.802 114.218 97.0734Z" fill="black"/>
</svg>
