<svg width="141" height="115" viewBox="0 0 141 115" fill="none" xmlns="http://www.w3.org/2000/svg">
<path d="M42.9304 0.112226C41.897 0.370569 41.821 0.400962 42.1706 0.537732C42.4593 0.659305 42.4593 0.674502 42.1402 0.674502C41.6387 0.689698 41.5627 0.978434 41.9578 1.38874C42.3377 1.78386 42.6417 1.85984 42.748 1.55591C42.8088 1.40394 42.8392 1.40394 42.8392 1.55591C42.8544 1.66228 42.9608 1.75346 43.0824 1.75346C43.2039 1.75346 43.3103 1.66228 43.3103 1.55591C43.3103 1.43433 43.3559 1.43433 43.4471 1.5863C43.5231 1.70787 43.6902 1.75346 43.827 1.70787C43.9638 1.64709 44.3741 1.70787 44.7236 1.82945C45.4227 2.0574 47.5654 2.36133 48.5836 2.36133C49.2674 2.36133 49.6169 2.08779 49.1002 1.95102C48.9179 1.90543 48.7811 1.75346 48.7811 1.6015C48.7811 1.25197 48.4164 1.1304 47.2311 1.05442C46.0305 0.978434 45.681 0.872058 45.8785 0.628912C46.0001 0.492142 45.8026 0.400962 45.0883 0.248996C43.5991 -0.0549369 43.5687 -0.0549369 42.9304 0.112226Z" fill="black"/>
<path d="M52.7931 3.41038C52.3828 3.59274 52.2156 4.00305 52.4436 4.27659C52.5804 4.45895 52.4892 4.48934 51.9269 4.48934C51.547 4.48934 51.2127 4.55013 51.1823 4.62611C51.1671 4.7021 50.8783 4.80847 50.5592 4.85406C50.1337 4.91485 50.0121 4.89965 50.0881 4.77808C50.2401 4.51974 47.2919 4.73249 47.0336 5.00603C46.9272 5.1124 46.3649 5.24918 45.8027 5.29476C45.2404 5.35555 44.6173 5.50751 44.4198 5.64429C44.1918 5.78105 43.9031 5.84184 43.6751 5.79625C43.4624 5.73547 43.3104 5.76586 43.3104 5.85704C43.3104 5.93302 43.204 6.009 43.0825 6.009C42.9609 6.009 42.8545 6.13058 42.8393 6.26735C42.8393 6.43451 42.7937 6.4649 42.7481 6.34333C42.6418 6.06979 42.1403 6.11538 42.0339 6.40411C41.9731 6.54089 41.9883 6.70805 42.0339 6.75364C42.0947 6.79923 42.1707 6.75364 42.2011 6.66246C42.2466 6.52569 42.353 6.52569 42.6266 6.70805C42.8241 6.82962 43.0977 6.9208 43.2496 6.89041C43.3864 6.86002 43.5384 6.936 43.5688 7.02718C43.6599 7.27032 42.4594 7.30072 42.3226 7.07277C42.277 6.98159 42.1099 6.9208 41.9731 6.9208C41.7604 6.9208 41.7604 6.95119 41.9275 7.05757C42.2466 7.25513 41.7755 7.3615 40.2863 7.4071L39.0098 7.43748L39.4505 7.78701C39.6936 7.98457 40.0431 8.2885 40.2103 8.45567C40.4079 8.65322 40.8182 8.80518 41.2437 8.85078C41.6236 8.89636 41.9427 8.98754 41.9427 9.06353C41.9427 9.12431 42.0643 9.21549 42.2163 9.24589C42.353 9.29148 42.2466 9.32187 41.9731 9.33707C41.6844 9.33707 41.2741 9.26109 41.0613 9.13951C40.6966 8.94196 39.7544 8.7292 38.2043 8.48605C37.9004 8.44047 37.6725 8.50125 37.5509 8.65322C37.3685 8.86597 37.3989 8.89636 37.7029 8.91156C38.098 8.92676 38.0068 8.97235 37.3229 9.12431C36.8974 9.21549 36.8974 9.23069 37.1862 9.42825C37.3381 9.53462 37.718 9.70179 38.0068 9.79297C38.5083 9.96013 38.5083 9.96013 37.794 9.89935C37.0494 9.83855 36.6391 9.53462 36.6239 9.03313C36.6239 8.7596 36.0008 8.13654 35.7425 8.13654C35.6361 8.13654 35.4234 8.04536 35.2562 7.95417C35.0434 7.81741 34.9219 7.80221 34.7851 7.93898C34.6635 8.06055 34.7547 8.15173 35.1042 8.2733C35.3778 8.36449 35.6665 8.39487 35.7577 8.33409C35.8337 8.2885 35.8641 8.31889 35.8033 8.41007C35.7577 8.50125 35.7729 8.60763 35.8641 8.66842C36.1376 8.83558 36.016 9.01794 35.5601 9.12431C35.317 9.1851 35.1042 9.32187 35.1042 9.42825C35.1042 9.53462 35.0282 9.6562 34.9219 9.68659C34.8307 9.71698 35.1346 9.94493 35.6209 10.1881C36.4415 10.5984 36.4719 10.644 36.3807 11.1151C36.3048 11.5102 36.3503 11.647 36.6087 11.8141C36.7911 11.9205 36.9278 12.1029 36.9278 12.2244C36.9278 12.3916 37.1558 12.4068 38.0372 12.346C38.9794 12.27 39.0554 12.2852 38.5539 12.422C37.7788 12.6347 37.6877 12.9387 38.2347 13.3794C38.5843 13.6681 38.645 13.7745 38.4931 13.9265C38.3867 14.0328 38.2955 14.276 38.2955 14.4583C38.2955 14.7167 38.1739 14.8231 37.8396 14.899C37.5661 14.9598 37.3837 15.0966 37.3837 15.2334C37.3837 15.4157 37.2773 15.4461 36.8974 15.3701C36.6239 15.3245 36.3352 15.203 36.244 15.1118C36.1376 15.0054 36.168 14.9902 36.3352 15.051C36.5023 15.1118 36.6543 14.975 36.8518 14.5191C37.0038 14.1848 37.171 13.9113 37.2318 13.9113C37.3077 13.9113 37.3381 13.6833 37.3229 13.4098C37.3077 12.9843 37.2166 12.8779 36.6695 12.6347C36.3048 12.4828 36.016 12.27 36.016 12.1788C36.016 12.0877 35.8641 11.7685 35.6817 11.4798C35.4993 11.1911 35.3322 10.8263 35.3018 10.6744C35.241 10.2945 34.9067 9.99052 34.4204 9.86895C34.1316 9.79297 34.0709 9.71698 34.1772 9.6106C34.4052 9.38266 34.3748 8.88117 34.1316 8.54684C33.9797 8.34929 33.5998 8.22771 32.8703 8.15173C32.2473 8.07574 32.0497 8.01496 32.3688 7.99976C32.8703 7.96937 32.8855 7.96937 32.612 7.75661C32.2321 7.46788 31.0923 7.43748 31.1835 7.71103C31.2291 7.81741 31.1683 7.99976 31.0467 8.10614C30.9403 8.21252 30.8492 8.57723 30.8492 8.89636C30.8492 9.41305 30.7884 9.53462 30.3933 9.73218C29.831 10.0209 29.8006 10.3704 30.3173 10.568C30.606 10.6744 30.6972 10.8263 30.6972 11.1607C30.6972 11.647 31.0315 12.0117 31.3507 11.8901C31.4722 11.8445 31.761 11.9509 32.0041 12.1029C32.2473 12.27 32.5968 12.4676 32.7943 12.5436C33.1287 12.6803 33.235 12.9235 33.0223 13.045C32.9463 13.0906 32.4296 12.9235 31.8369 12.6803C30.3021 12.0573 30.0437 12.0877 30.7428 12.8171C31.0467 13.1362 31.3051 13.4554 31.3051 13.5313C31.2747 14.0632 29.6182 15.2334 28.0834 15.8108C27.6883 15.9628 27.2932 16.1604 27.202 16.2667C27.0956 16.3883 27.3084 17.0114 27.901 18.3335C28.7672 20.2483 29.1623 21.9503 29.1775 23.6675C29.1775 24.5793 29.3903 25.1264 29.9526 25.6431C30.7428 26.3725 30.3781 27.5882 29.3599 27.5882C29.1168 27.5882 28.7976 27.725 28.6457 27.8922C28.3873 28.1657 28.3873 28.1961 28.7368 28.6368C28.9344 28.8799 29.2687 29.3358 29.4815 29.6246C29.9982 30.354 30.4996 30.354 31.1379 29.6398C31.7306 28.9559 32.2017 28.9407 32.5816 29.579C32.8247 29.9741 32.8247 30.1413 32.6728 30.7491C32.5208 31.4026 32.5208 31.4786 32.8095 31.6913C33.8125 32.436 33.8125 32.436 33.615 32.5727C33.3566 32.7551 33.6757 33.0286 34.4508 33.287C35.4689 33.6365 35.2258 34.5179 34.1468 34.3811C33.7365 34.3203 33.539 34.3659 33.4782 34.5179C33.3718 34.7914 33.0071 34.7914 32.7336 34.5027C32.5968 34.3811 32.3688 34.2747 32.2017 34.2747C32.0497 34.2747 31.9129 34.1988 31.9129 34.1076C31.9129 33.986 31.685 33.9556 31.1835 34.0316C30.6364 34.1076 30.2413 34.0468 29.5575 33.7885C28.5697 33.4389 26.7005 33.3477 26.3966 33.6517C26.3054 33.7429 25.8799 33.8188 25.4696 33.8188C25.0441 33.8188 24.4362 33.8948 24.1171 33.986C23.5548 34.138 23.5548 34.138 23.646 34.7762C23.7675 35.5817 23.9195 35.8704 24.573 36.5998C24.9833 37.0557 25.0744 37.2837 25.0441 37.7092C25.0137 38.1499 25.0896 38.3171 25.424 38.5602C25.6519 38.7274 25.8343 38.9553 25.8343 39.0617C25.8343 39.3352 26.351 39.4872 26.898 39.3656C27.2476 39.2896 27.3843 39.3352 27.5819 39.6544C27.825 40.0039 28.0226 41.4628 27.8098 41.3412C27.7643 41.3108 27.3691 41.25 26.9436 41.2044C26.2446 41.1436 26.1534 41.174 26.0014 41.5235C25.9103 41.7211 25.8647 41.9642 25.9103 42.0402C25.971 42.1162 25.7887 42.177 25.5303 42.177C25.1048 42.177 25.0744 42.2074 25.2264 42.4809C25.3176 42.6481 25.4848 42.7849 25.6063 42.7849C25.7279 42.7849 25.9407 42.9824 26.0926 43.2408C26.2294 43.4839 26.4118 43.6967 26.4725 43.6967C26.5333 43.6967 26.5941 43.8334 26.5941 44.0158C26.5941 44.2133 26.6549 44.2893 26.7765 44.2133C26.8676 44.1526 27.0196 44.2133 27.1108 44.3349C27.2172 44.4717 27.4603 44.6085 27.6579 44.6389C28.1746 44.6996 28.2505 44.8516 28.1594 45.5354C28.1138 45.8698 28.129 46.1281 28.2201 46.1281C28.4633 46.1281 28.904 47.0551 28.8128 47.3894C28.7064 47.8301 29.056 48.4988 29.3447 48.438C29.5271 48.4076 29.5575 48.514 29.5119 48.8939C29.4511 49.2738 29.4815 49.3498 29.679 49.2738C30.0589 49.1371 30.3477 49.6385 30.5148 50.6871C30.606 51.2342 30.7124 51.7813 30.758 51.9028C30.834 52.1004 30.6364 52.1916 29.8158 52.4043C28.5697 52.6931 27.9922 52.5867 27.126 51.9028C26.8069 51.6445 26.3966 51.4469 26.2142 51.4469C25.7583 51.4469 25.3784 50.991 25.272 50.3072C25.2112 49.9121 25.2416 49.6993 25.3936 49.6233C25.5152 49.5322 25.5911 49.1978 25.6063 48.7571C25.6063 48.0581 25.6215 48.0277 26.0318 48.0277C26.2598 48.0429 26.4421 47.9669 26.4421 47.8757C26.4421 47.7694 26.2294 47.739 25.9407 47.7694C25.2112 47.8453 22.1263 46.2649 20.8194 45.1403L19.8316 44.2741L19.011 44.3653C18.2816 44.4565 18.1144 44.4109 17.4913 44.0158C17.1114 43.7726 16.5491 43.5295 16.2604 43.4687C15.9717 43.4079 15.5006 43.2408 15.227 43.0736C14.8471 42.8608 14.6496 42.8304 14.3304 42.952L13.9353 43.104L14.2848 43.4687C14.4672 43.6663 15.0143 44.0158 15.4854 44.2437C16.1388 44.5629 16.4276 44.806 16.6251 45.2163C17.1418 46.2801 16.4732 46.736 14.3608 46.812C13.5554 46.8424 12.9171 46.7968 12.9171 46.7208C12.9171 46.6448 12.7196 46.584 12.4764 46.584C12.2181 46.584 11.9749 46.508 11.9294 46.4321C11.8686 46.3409 11.7014 46.3105 11.5494 46.3561C11.3519 46.4169 11.2151 46.3409 11.0935 46.1281C10.972 45.9002 10.8352 45.8394 10.6073 45.9154C10.3793 45.9762 10.2121 45.9154 10.045 45.7178C9.81703 45.4443 9.69545 45.4291 8.55571 45.5203C7.33997 45.6418 6.42818 45.9913 5.98747 46.5232C5.8659 46.6752 5.56197 46.6904 4.72615 46.5992C3.6016 46.4928 3.1457 46.6296 3.52562 47.0095C3.89034 47.3742 3.31287 47.587 1.89958 47.6174C1.15494 47.6326 0.516686 47.7086 0.486292 47.7846C0.455899 47.8757 0.334326 47.8909 0.212753 47.8453C0.0911798 47.7997 0 47.8453 0 47.9365C0 48.0277 0.106376 48.1037 0.22795 48.1037C0.364719 48.1037 0.455899 48.2405 0.455899 48.4836C0.455899 48.8331 0.577472 48.9243 1.01817 48.8787C1.10935 48.8635 1.17014 48.9699 1.13975 49.1219C1.12455 49.2738 1.13975 49.4562 1.20053 49.5474C1.24612 49.6233 1.29171 49.8361 1.32211 50.0033C1.3373 50.1704 1.30691 50.216 1.27652 50.1096C1.13975 49.8057 0.805422 49.9121 0.835815 50.2616C0.851012 50.4896 1.01817 50.6567 1.38289 50.7783C1.67163 50.8847 1.8084 50.9758 1.70202 50.9758C1.55006 50.991 1.55006 51.0518 1.70202 51.3254C1.8084 51.5229 1.96037 51.7205 2.03635 51.7661C2.09714 51.8269 2.03635 51.9484 1.88438 52.0396C1.58045 52.2068 1.64124 52.2372 2.35548 52.2524C2.59862 52.2524 2.61382 52.2676 2.40107 52.3131C2.2491 52.3587 2.12753 52.4499 2.12753 52.5411C2.12753 52.6171 2.23391 52.6627 2.35548 52.6019C2.47705 52.5563 2.58343 52.5867 2.58343 52.6627C2.58343 52.7539 2.6898 52.8146 2.81138 52.8146C2.93295 52.8146 3.03933 52.7387 3.03933 52.6475C3.03933 52.4043 3.75357 52.6171 4.10309 52.9666C4.33104 53.1946 4.57419 53.2705 5.01489 53.2401C5.60756 53.1946 5.69874 53.0882 5.63795 52.5411C5.57716 52.1004 6.80809 52.4955 7.50714 53.149C7.96304 53.5593 9.22436 53.4073 9.61947 52.8754C9.9386 52.4651 10.1969 52.4195 10.6376 52.6931C10.8656 52.845 10.9872 52.8298 11.2455 52.5867C11.6254 52.2524 11.8382 52.3891 11.4887 52.7539C11.3063 52.921 11.2759 53.0578 11.3823 53.1642C11.4735 53.2553 11.4735 53.4377 11.3975 53.6505C11.3215 53.8328 11.3215 54.0456 11.3823 54.1215C11.5646 54.3191 11.7014 55.3373 11.5646 55.4892C11.3671 55.7172 10.82 57.3888 10.6376 58.3006C10.4553 59.2428 10.121 59.6683 9.55868 59.6683C9.36113 59.6835 8.96601 59.7139 8.70767 59.7443C8.26697 59.8051 8.20618 59.8811 8.20618 60.2762C8.20618 61.0056 8.51012 62.0238 8.82924 62.3733C8.98121 62.5405 9.11798 62.7836 9.11798 62.89C9.11798 63.118 10.2121 64.3641 10.4097 64.3641C10.4553 64.3641 10.6073 64.2577 10.7288 64.1361C10.8656 64.0146 11.0935 63.9082 11.2607 63.9082C11.4127 63.9082 11.5494 64.0146 11.5494 64.1361C11.5494 64.2577 11.6254 64.3641 11.7014 64.3641C11.7926 64.3641 11.8534 64.4401 11.8534 64.516C11.8534 64.6072 11.9749 64.8048 12.1269 64.9719C12.2637 65.1239 12.522 65.519 12.6892 65.8382C12.8564 66.1573 13.1147 66.5524 13.2667 66.7196C13.6314 67.1147 14.0265 67.8593 13.9201 67.9657C13.7833 68.1025 14.3304 68.9231 14.5432 68.9231C14.6648 68.9231 14.7863 69.0294 14.8319 69.151C14.8927 69.2726 14.9991 69.3334 15.0903 69.2726C15.1662 69.227 15.1966 69.2574 15.151 69.3334C15.0903 69.4246 15.1814 69.6677 15.3486 69.8805C15.5158 70.0932 15.6525 70.3668 15.6525 70.4883C15.6525 70.6251 15.7285 70.7771 15.8197 70.8378C15.9261 70.8986 15.9565 71.157 15.8957 71.5065C15.8349 71.932 15.8653 72.1296 16.0476 72.2815C16.1692 72.3879 16.2452 72.6007 16.2148 72.7526C16.154 72.935 16.2604 73.1173 16.4883 73.2693C16.7011 73.4061 16.8987 73.6188 16.9442 73.7556C16.9746 73.9076 17.2178 74.1507 17.4609 74.3179C17.7041 74.4698 17.8864 74.6522 17.856 74.713C17.8105 74.7586 17.9624 74.8802 18.16 74.9713C18.4487 75.1081 18.5399 75.2601 18.5399 75.6248C18.5399 75.9135 18.6463 76.1871 18.8134 76.3086C18.9502 76.415 19.0718 76.567 19.0718 76.643C19.0718 76.7189 19.3301 77.0381 19.6492 77.342C19.9532 77.6611 20.2115 78.0107 20.2115 78.1322C20.2115 78.2538 20.2723 78.345 20.3483 78.345C20.4243 78.345 20.561 78.5577 20.6522 78.8313C20.8194 79.3024 20.8194 79.3024 20.5155 79.0288C20.3483 78.8769 20.2571 78.6945 20.3027 78.6337C20.3483 78.5577 20.2723 78.5425 20.1355 78.5881C19.9836 78.6489 19.9076 78.6185 19.938 78.4818C19.9684 78.3754 19.862 78.2538 19.7252 78.2234C19.5277 78.193 19.4821 78.2386 19.5429 78.4514C19.6189 78.7097 19.6189 78.7097 19.4061 78.4514C19.2845 78.2994 19.1326 78.2386 19.1022 78.3146C18.9958 78.4666 19.8164 79.7431 19.938 79.6215C20.0748 79.4999 20.713 80.1838 20.7434 80.4573C20.7434 80.5941 20.8042 80.7764 20.8498 80.8524C20.9714 81.0652 21.488 82.7824 21.5032 83.0559C21.5488 83.7854 21.7616 84.0893 22.2935 84.1957C22.5974 84.2413 22.9013 84.2261 22.9925 84.1349C23.0685 84.0589 23.2205 84.0285 23.3268 84.0589C23.4332 84.1045 23.7523 83.9221 24.0259 83.679C24.3602 83.3599 24.6945 83.2079 25.0137 83.2079C25.5303 83.2079 26.5181 82.8432 26.6701 82.6C26.7157 82.5241 26.9892 82.4481 27.278 82.4481C27.6427 82.4481 27.8706 82.3417 28.0986 82.053C28.2961 81.7946 28.8432 81.5059 29.6638 81.2171C31.1379 80.6853 31.8521 80.2902 31.7914 80.0166C31.7002 79.6063 31.9433 79.2872 32.5664 79.0288C33.7517 78.5425 33.9037 78.497 34.4052 78.497C34.9675 78.497 35.1954 78.2994 35.2866 77.7371C35.317 77.4484 35.4386 77.342 35.7881 77.3116C36.3503 77.2356 36.6239 77.0229 36.6239 76.6582C36.6239 76.3238 37.171 75.9135 37.6269 75.9135C37.9156 75.9135 37.946 75.8375 37.9308 74.9865C37.9156 73.9987 38.0828 73.7404 38.4779 74.1507C38.6754 74.3483 38.7362 74.3331 38.9338 74.1051C39.1617 73.8316 39.1313 73.4213 38.8882 73.5732C38.6298 73.7252 38.7514 73.3453 39.1161 72.9198C39.5568 72.3879 39.9671 71.5977 39.9671 71.2785C39.9671 71.1418 39.8304 71.0506 39.648 71.0506C39.4657 71.0506 39.2985 70.929 39.2529 70.7467C39.2073 70.5795 39.1161 70.4427 39.0402 70.4427C38.9642 70.4427 38.9034 70.3668 38.9034 70.2756C38.9034 69.9564 38.4171 69.6373 37.718 69.5157C36.3503 69.2574 35.6817 68.4064 35.6817 66.9323C35.6817 65.9901 35.4993 65.8078 35.1802 66.446C34.8611 67.0539 33.0679 68.8775 32.8551 68.8015C32.7487 68.7711 32.6728 68.8015 32.6728 68.8775C32.6728 68.9535 32.4296 68.9839 32.1409 68.9535C31.8521 68.9231 31.609 68.8319 31.609 68.7559C31.609 68.6799 31.5482 68.6191 31.457 68.6191C31.3811 68.6191 31.3051 68.7103 31.3051 68.8319C31.3051 69.1814 31.0011 69.2726 30.7124 69.0143C30.5604 68.8775 30.3629 68.7711 30.2565 68.7711C30.1349 68.7711 30.1045 68.6647 30.1957 68.4216C30.3629 67.9353 30.2565 66.598 30.0437 66.4612C29.679 66.2333 29.4967 66.3548 29.3143 66.9475L29.1319 67.5554L28.8432 67.1451C28.5393 66.6588 28.4937 66.4916 28.7216 66.4916C28.8128 66.4916 28.8736 66.598 28.8736 66.7348C28.8736 66.8563 28.9496 66.9171 29.0256 66.8715C29.2839 66.7044 29.1927 66.3092 28.8736 66.2333C28.7064 66.1877 28.5545 66.0965 28.5545 66.0205C28.5393 65.9445 28.5241 65.823 28.5089 65.7318C28.5089 65.6558 28.3569 65.4886 28.1898 65.3671C28.0226 65.2455 27.8858 65.0631 27.8858 64.9416C27.8706 64.8352 27.7946 64.7592 27.6883 64.7744C27.5819 64.8048 27.5059 64.7592 27.5059 64.6832C27.5059 64.6072 27.3691 64.4857 27.202 64.4401C27.0348 64.3945 26.898 64.2425 26.898 64.1209C26.898 63.9994 26.8373 63.9082 26.7765 63.9082C26.5637 63.9082 25.971 62.4493 26.0774 62.1454C26.1382 61.963 26.123 61.9174 26.0318 62.039C25.9407 62.1606 25.8191 62.1758 25.6823 62.0846C25.4848 61.963 25.4848 61.9326 25.6823 61.9326C25.8191 61.9326 26.0318 61.811 26.1686 61.6591C26.6701 61.1424 26.8373 61.0512 27.1108 61.2032C27.2476 61.2792 27.4755 61.3096 27.6275 61.264C27.8098 61.2032 27.9922 61.34 28.2353 61.6743C28.4177 61.9478 28.5697 62.2517 28.5697 62.3429C28.5697 62.4341 28.6305 62.5405 28.7064 62.5709C28.7824 62.5861 29.0408 62.9508 29.2687 63.3611C29.5878 63.893 29.8614 64.1361 30.2413 64.2729C30.53 64.3793 30.9707 64.6376 31.2139 64.8656C31.457 65.0935 31.761 65.2759 31.8977 65.2759C32.0953 65.2759 32.0953 65.3063 31.9433 65.4126C31.7914 65.5038 31.8977 65.5646 32.2777 65.6406C32.5816 65.7014 32.7943 65.8078 32.7487 65.8989C32.688 65.9749 32.7336 66.0357 32.8095 66.0357C32.9007 66.0357 32.9767 65.9597 32.9767 65.8837C32.9767 65.7774 33.0831 65.7774 33.2806 65.8837C33.4478 65.9749 33.6605 66.0053 33.7517 65.9597C33.8277 65.8989 34.1468 65.823 34.4508 65.7926C35.0586 65.7166 35.4537 65.4734 35.317 65.2607C35.1954 65.0479 35.8337 65.1087 35.9704 65.3063C36.0312 65.4126 36.168 65.7774 36.244 66.1117C36.4415 66.8563 37.019 67.1755 38.4323 67.3274C39.572 67.449 40.0431 67.525 40.575 67.6466C41.2285 67.8137 42.5506 67.8441 42.5506 67.7073C42.5506 67.6466 42.8241 67.6162 43.1584 67.6618C43.5232 67.7225 43.7663 67.6921 43.7663 67.5858C43.7663 67.4946 43.9639 67.4794 44.3134 67.5554C44.6173 67.6314 45.286 67.6162 45.8482 67.525C46.9728 67.3578 47.2615 67.4186 47.2615 67.8593C47.2615 68.0569 47.3679 68.1632 47.5503 68.1632C47.7326 68.1632 47.8694 68.3152 47.9454 68.5735C48.067 69.0902 48.4469 69.5309 48.7508 69.5309C48.8724 69.5309 49.1763 69.7285 49.4043 69.9868C50.0273 70.6251 50.6504 70.9138 51.243 70.8075C51.7141 70.7315 51.7293 70.7315 51.4558 70.9594C51.1519 71.2026 50.9087 71.2634 50.4224 71.2178C50.2705 71.2026 50.1489 71.2634 50.1489 71.3697C50.1489 71.6585 52.246 73.634 52.5348 73.634C53.325 73.6036 54.4647 72.5703 54.1152 72.2207C53.9632 72.0688 54.0696 71.5065 54.252 71.5065C54.3128 71.5065 54.328 71.6737 54.2824 71.8864C54.252 72.1144 54.2824 72.2663 54.3888 72.2663C54.4951 72.2663 54.5255 72.3423 54.4799 72.4183C54.4191 72.5095 54.4951 72.783 54.6167 73.0566C54.7839 73.3757 54.8295 73.71 54.7687 74.0595C54.7079 74.3483 54.7383 74.8194 54.8295 75.1233C55.2246 76.5062 55.5133 77.57 55.6957 78.3754C55.802 78.8465 56.1516 79.7279 56.4555 80.3509C56.7746 80.9588 57.1545 81.7034 57.2913 81.9922C57.4433 82.2809 57.6712 82.9192 57.7928 83.4207C57.9296 83.907 58.2639 84.6516 58.5526 85.0923C59.1149 85.9281 59.8747 87.7213 59.8747 88.1772C59.8747 88.5723 60.6954 89.8336 61.0905 90.0464C61.5312 90.2743 62.0783 89.9248 62.1998 89.317C62.3062 88.8307 62.8381 88.5875 63.4004 88.7699C63.6283 88.8307 63.6891 88.8003 63.6435 88.6635C63.5979 88.5419 63.4763 88.4507 63.3548 88.4507C63.1116 88.4507 63.1116 88.3292 63.2788 87.7213C63.37 87.4174 63.5067 87.311 63.7803 87.311C64.1146 87.311 64.145 87.2654 64.0538 86.8703C63.9018 86.1257 63.917 84.9099 64.0994 84.6972C64.3426 84.4084 64.3577 83.1623 64.1298 81.9922C63.8411 80.3661 63.917 79.9254 64.5249 80.0774C64.8136 80.1534 64.9048 80.1078 64.9808 79.7887C65.0264 79.5759 65.1632 79.4087 65.2847 79.4087C65.8014 79.4087 66.2573 79.044 66.2573 78.6185C66.2573 78.3906 66.3181 78.193 66.3941 78.193C66.6372 78.193 68.1569 76.6582 68.6432 75.9135C68.9015 75.5184 69.3726 75.0777 69.707 74.9257C70.0261 74.7586 70.4364 74.4698 70.634 74.2875C70.9835 73.9684 71.0139 73.786 70.9379 73.0414C70.9075 72.8438 70.9987 72.6311 71.1202 72.5703C71.2418 72.5095 71.5002 72.3879 71.6977 72.2815C71.9713 72.1448 72.0624 72.1448 72.1232 72.3271C72.2144 72.5551 72.7919 72.5247 73.6125 72.2663C73.8556 72.1752 74.2356 72.1144 74.4483 72.1144C74.9802 72.0992 75.6033 71.6129 75.4817 71.3089C75.4361 71.1722 75.4513 71.0202 75.5121 70.9746C75.5881 70.9442 75.6792 71.0506 75.7248 71.2178C75.7704 71.4001 75.8768 71.4913 75.9528 71.4457C76.1199 71.3393 76.2871 71.6889 76.2871 72.1296C76.2871 72.4943 76.6214 73.0566 77.3053 73.8316C77.5788 74.1355 77.8068 74.4698 77.8068 74.561C77.8068 74.6522 77.9283 74.6978 78.0803 74.6674C78.3842 74.5762 78.7794 74.9257 78.673 75.1993C78.6426 75.3057 78.673 75.5032 78.749 75.64C78.8401 75.8375 78.8249 75.9135 78.6882 75.9135C78.5514 75.9135 78.5514 75.9591 78.6882 76.0959C78.8401 76.2478 78.9161 76.2478 78.9921 76.1111C79.1745 75.8375 79.4328 76.0807 79.7671 76.8405C80.0255 77.4028 80.0559 77.7219 79.9951 78.6793L79.9039 79.8191L80.3294 79.9406C81.1804 80.1686 81.454 80.1534 81.6667 79.8343C81.7883 79.6671 82.1226 79.3632 82.4265 79.1656C82.7761 78.9225 82.9736 78.6641 82.9736 78.4514C82.9888 77.9803 83.9918 80.0926 84.1286 80.8524C84.1742 81.1868 84.3261 81.6427 84.4325 81.8706C84.5541 82.0986 84.6453 82.4481 84.6453 82.676C84.6453 82.904 84.7364 83.0559 84.858 83.0559C84.9796 83.0559 85.1467 83.2687 85.2379 83.527C85.4659 84.1653 85.4507 84.2717 85.1771 84.1805C85.01 84.1045 84.9796 84.1501 85.0404 84.3325C85.086 84.4692 85.1923 84.5756 85.2683 84.5756C85.3291 84.5756 85.3139 84.7884 85.2227 85.0467C85.1012 85.3962 85.0252 85.457 84.934 85.305C84.858 85.1987 84.7972 85.1683 84.7972 85.2595C84.7972 85.5482 85.0404 85.7761 85.3291 85.7457C85.6634 85.7154 85.8306 86.1864 85.5723 86.4448C85.4659 86.5512 85.3443 86.536 85.1771 86.3992C85.0404 86.2776 84.9492 86.2776 84.9492 86.3688C84.9492 86.46 85.0708 86.5968 85.2075 86.6879C85.4963 86.8399 85.5723 87.8733 85.3595 88.7547C85.2075 89.3929 85.4051 90.715 85.6026 90.5175C85.9066 90.2136 86.3169 90.3199 86.3169 90.6847C86.3169 90.9734 86.3473 90.9886 86.4688 90.8062C86.5752 90.6239 86.6208 90.6239 86.6208 90.791C86.6208 90.8974 86.8336 91.2469 87.0767 91.5661C87.487 92.0827 87.5174 92.1739 87.3047 92.2955C87.0767 92.4171 87.0767 92.4475 87.2895 92.6146C87.5022 92.7818 87.5326 92.7818 87.5326 92.5386C87.5326 92.2803 87.5478 92.2803 87.7606 92.569C87.8821 92.7514 87.9581 93.1769 87.9429 93.5264C87.9277 93.8759 87.9885 94.2103 88.0797 94.2711C88.1709 94.3318 88.2924 94.6662 88.3532 95.0157C88.3988 95.3804 88.6116 95.8363 88.8243 96.0643C89.0371 96.2922 89.2042 96.6265 89.2042 96.8089C89.2042 97.052 89.493 97.3408 90.3136 97.8879C91.5141 98.6933 91.7877 98.9516 91.7269 99.21C91.6965 99.3163 91.7117 99.3467 91.7421 99.2708C91.8789 99.0428 92.274 99.1644 92.1828 99.4075C92.122 99.5899 92.1524 99.6355 92.3196 99.5595C92.4715 99.4987 92.5475 99.5747 92.5475 99.7722C92.5475 99.9394 92.6235 100.076 92.7147 100.076C92.821 100.076 92.8514 99.9394 92.8058 99.757C92.7451 99.5139 92.7603 99.4835 92.9274 99.6203C93.0642 99.7418 93.1554 99.7418 93.2314 99.6203C93.3833 99.3771 93.1706 99.1644 92.7299 99.1492C92.4715 99.134 92.4107 99.1036 92.5931 99.058C92.7299 99.0276 92.8514 98.8908 92.8514 98.7693C92.8514 98.6477 92.8058 98.5717 92.7451 98.6021C92.6691 98.6477 92.6083 98.5109 92.6083 98.3134C92.5931 98.1158 92.3955 97.7055 92.1676 97.4016C91.8029 96.9305 91.7573 96.7329 91.7573 95.7755C91.7725 95.1677 91.6965 94.4686 91.5901 94.2255C91.423 93.7848 90.2224 92.4779 89.9945 92.4779C89.9337 92.4779 89.7513 92.2651 89.5994 92.0068C89.4018 91.6876 89.2346 91.5661 89.0523 91.6116C88.5812 91.7332 88.1861 91.3077 87.9733 90.4719C87.8821 90.0312 87.6998 89.5905 87.6086 89.5145C87.3806 89.3322 87.1831 88.3748 87.3654 88.3748C87.5174 88.3748 87.5022 87.9797 87.3351 87.8277C87.2743 87.7669 87.2287 87.8733 87.2287 88.0556C87.2287 88.4507 86.8032 88.6635 86.6056 88.3596C86.4081 88.0708 86.5296 86.7943 86.8336 85.7913C86.9855 85.3354 87.1071 84.5452 87.1223 84.0437C87.1527 83.1623 87.1679 83.1319 87.5782 83.0863C87.9581 83.0407 87.9885 83.0711 87.9885 83.6334C87.9885 84.1957 88.0037 84.2261 88.5204 84.2413C89.1739 84.2717 89.6601 84.5148 89.6601 84.8188C89.6601 84.9555 89.7665 85.0315 89.9337 85.0011C90.1008 84.9707 90.268 85.1227 90.4504 85.4874C90.6023 85.7761 90.7087 86.1105 90.7239 86.2016C90.7239 86.4448 91.271 87.0071 91.4989 87.0071C91.5749 87.0071 91.6053 86.9159 91.5445 86.8095C91.4837 86.7031 91.4989 86.6727 91.5749 86.7487C91.7117 86.8855 91.7269 86.9463 91.7725 87.387C91.8029 87.7517 92.0916 87.6605 92.0916 87.2806C92.0916 86.9919 92.122 86.9767 92.3651 87.1894C92.5019 87.311 92.7603 87.463 92.9274 87.5238C93.1402 87.5997 93.1706 87.6605 93.0338 87.7517C92.7603 87.9189 92.821 89.5905 93.1098 89.5905C93.2162 89.5905 93.3833 89.4537 93.4897 89.2866C93.5961 89.1042 93.976 88.8003 94.3255 88.5875C94.9182 88.2532 95.1613 87.8733 95.2069 87.235C95.2221 87.1438 95.2981 87.0982 95.4045 87.1286C95.6628 87.1742 96.453 86.7487 96.9393 86.308C97.1521 86.1105 97.4104 85.9433 97.5168 85.9433C97.7296 85.9433 97.8967 85.1531 97.8055 84.5452C97.7751 84.3173 97.8207 84.1653 97.8815 84.2109C97.9575 84.2565 98.0183 84.1501 98.0183 83.9829C98.0183 83.8158 97.9575 83.6486 97.8815 83.603C97.8207 83.5574 97.7144 83.1927 97.6688 82.7976C97.6232 82.4025 97.4712 81.8554 97.3496 81.6123C97.2129 81.3539 97.1065 81.05 97.1065 80.9132C97.1065 80.7916 96.9089 80.4877 96.6506 80.2446C96.4074 80.0014 96.1947 79.7279 96.1947 79.6215C96.1947 79.5151 96.0731 79.3936 95.906 79.3328C95.5564 79.2264 93.7632 77.5092 93.7632 77.2964C93.7632 77.2052 93.5353 76.9013 93.2466 76.5974C92.8058 76.1567 92.7299 75.9591 92.7299 75.3664C92.7299 74.9257 92.8058 74.6522 92.9274 74.6066C93.0338 74.561 93.2466 74.2875 93.3833 73.9987C93.5201 73.71 93.6872 73.5125 93.7632 73.558C93.824 73.6036 93.9304 73.5277 93.976 73.4061C94.0216 73.2845 94.1432 73.1933 94.2495 73.2085C94.3559 73.2389 94.4319 73.1477 94.4319 73.011C94.4015 72.6918 95.4349 72.3271 95.8452 72.4943C95.9971 72.5551 96.2859 72.6007 96.4834 72.5855C96.7722 72.5551 96.8178 72.6007 96.7418 72.7982C96.605 73.1781 97.1217 74.2267 97.456 74.2419C97.8055 74.2419 97.9271 73.8924 97.7144 73.4821C97.5928 73.2541 97.5928 73.1781 97.6992 73.2389C97.8055 73.2997 97.8663 73.2237 97.8663 73.0414C97.8663 72.859 97.9575 72.707 98.0639 72.707C98.1551 72.6918 98.3222 72.6766 98.3982 72.6462C98.4894 72.6311 98.6414 72.6007 98.7477 72.6007C98.8541 72.5855 98.8997 72.4943 98.8389 72.3879C98.7781 72.2967 98.7933 72.2663 98.8997 72.3271C98.9909 72.3727 99.0973 72.3575 99.158 72.2815C99.2188 72.1752 99.386 72.1752 99.6291 72.2663C100.176 72.4791 100.343 72.4487 100.237 72.1752C100.191 72.0536 100.207 71.9928 100.298 72.0384C100.389 72.084 100.45 72.0536 100.45 71.9624C100.45 71.8712 100.526 71.8408 100.617 71.9016C100.86 72.0384 101.058 71.6585 100.982 71.2026C100.921 70.8378 100.921 70.8378 101.088 71.233C101.255 71.6281 101.817 71.8408 101.817 71.5217C101.817 71.4457 102.091 71.233 102.441 71.0658C102.775 70.8834 103.018 70.8075 102.957 70.8986C102.912 70.9746 102.942 71.0506 103.018 71.0506C103.109 71.0506 103.185 70.9746 103.185 70.8986C103.185 70.8075 103.231 70.7619 103.307 70.7619C103.839 70.853 104.143 70.7011 104.295 70.306C104.386 70.0476 104.598 69.8197 104.766 69.7741C104.948 69.7285 105.221 69.4853 105.389 69.227C105.556 68.9839 105.769 68.7711 105.875 68.7711C106.118 68.7711 106.422 68.2088 106.285 67.9809C106.224 67.8897 106.24 67.8441 106.316 67.8897C106.483 67.9961 106.848 67.6314 106.726 67.4946C106.665 67.449 106.772 67.4034 106.954 67.4034C107.151 67.4034 107.288 67.3122 107.288 67.1603C107.288 67.0387 107.227 66.9627 107.151 67.0083C106.954 67.1299 106.817 66.4612 106.984 66.2637C107.075 66.1573 107.091 66.0357 107.03 65.9901C106.984 65.9293 107.015 65.8837 107.106 65.8837C107.212 65.8837 107.288 65.747 107.288 65.595C107.288 65.4278 107.364 65.2455 107.44 65.1999C107.531 65.1543 107.592 64.9416 107.592 64.744C107.592 64.2273 107.744 63.9082 107.987 63.9082C108.109 63.9082 108.215 63.817 108.215 63.7106C108.291 63.1635 108.276 62.89 108.154 62.6469C108.078 62.4797 108.094 62.4037 108.215 62.4189C108.322 62.4493 108.398 62.1454 108.428 61.5071C108.443 60.9904 108.398 60.5649 108.322 60.5649C108.261 60.5649 108.185 60.6257 108.185 60.7169C108.17 60.7929 108.154 60.9296 108.139 61.0056C108.109 61.3096 107.896 61.3551 107.653 61.0968C107.486 60.9448 107.273 60.8841 107.045 60.9296C106.528 61.0664 106.726 60.6409 107.303 60.3826C107.759 60.1698 107.851 60.033 107.592 59.8811C107.501 59.8203 107.471 59.7291 107.516 59.6683C107.547 59.5923 107.395 59.5012 107.151 59.4556C106.665 59.3492 106.422 58.9693 106.772 58.8325C106.878 58.7869 106.969 58.8325 106.939 58.9237C106.924 59.0149 107 59.1212 107.106 59.1516C107.197 59.1972 107.288 59.1212 107.288 59.0149C107.288 58.8325 106.772 58.3766 105.997 57.8599C105.921 57.7991 105.738 57.5712 105.617 57.3584C105.009 56.2947 104.34 55.5956 103.641 55.2613C102.957 54.9422 102.896 54.8662 102.988 54.5167C103.033 54.3039 103.276 53.9392 103.519 53.696C103.96 53.2553 104.082 53.0274 103.763 53.2098C103.656 53.2705 103.793 53.1034 104.067 52.8298C104.401 52.5259 104.72 52.3587 105.024 52.3587C105.389 52.3587 105.465 52.298 105.465 51.994C105.465 51.5229 105.373 51.4773 104.522 51.3862C104.143 51.3558 103.687 51.2494 103.519 51.1582C103.2 50.991 102.365 51.0822 102.486 51.2798C102.516 51.3254 102.456 51.5077 102.334 51.6597C102.152 51.9028 102.061 51.9332 101.741 51.7813C101.529 51.6901 101.362 51.4773 101.362 51.3406C101.346 50.8847 101.012 50.5807 100.48 50.5655C99.7811 50.5503 99.234 50.1704 99.234 49.6841C99.234 49.3802 99.2948 49.3042 99.4772 49.3802C99.9331 49.5474 100.465 49.3042 100.541 48.8787C100.587 48.6508 100.83 48.3316 101.073 48.1797C101.316 48.0125 101.514 47.7846 101.514 47.6782C101.514 47.3287 101.893 47.0703 102.319 47.1463C102.927 47.2679 103.124 47.5718 102.881 48.0733C102.592 48.6356 102.608 48.7571 102.927 49.0003C103.185 49.1826 103.185 49.2282 102.972 49.4562C102.744 49.7145 102.79 49.9273 103.048 49.9273C103.124 49.9273 103.443 49.6385 103.778 49.3042C104.264 48.8027 104.507 48.666 105.07 48.6052C105.449 48.5596 105.875 48.5748 106.027 48.6356C106.179 48.7115 106.361 48.7419 106.422 48.7267C106.483 48.7267 106.68 48.7723 106.832 48.8635C107.091 49.0003 107.136 49.1826 107.136 50.0489C107.136 50.7631 107.182 51.0062 107.288 50.8391C107.364 50.7175 107.44 50.6719 107.44 50.7631C107.44 50.9758 108.185 51.295 108.291 51.1278C108.337 51.0518 108.489 51.0518 108.671 51.143C108.823 51.2342 108.96 51.2646 108.96 51.219C108.96 51.1734 109.127 51.2494 109.34 51.3862C109.72 51.6293 109.856 52.0548 109.568 52.0548C109.309 52.0548 109.401 52.3131 109.841 52.7842C110.48 53.4833 110.616 53.6808 110.525 53.7872C110.358 53.9544 110.373 54.7142 110.54 54.8206C110.632 54.8814 110.707 55.0789 110.707 55.2765C110.707 55.5956 110.768 55.626 111.391 55.5804C111.771 55.5652 112.106 55.474 112.121 55.3981C112.151 55.3069 112.303 55.2461 112.47 55.2461C112.622 55.2461 112.759 55.1853 112.759 55.0941C112.759 55.0182 112.85 54.9878 112.972 55.0333C113.276 55.1549 113.823 54.5623 113.823 54.1367C113.823 53.5289 112.926 51.9484 112.197 51.2646C111.817 50.8999 111.361 50.4592 111.179 50.2616C111.011 50.064 110.601 49.7601 110.282 49.5778C109.978 49.4106 109.613 49.1067 109.492 48.9091C109.264 48.5748 109.279 48.5444 109.674 48.3012C109.902 48.1797 110.282 47.8149 110.495 47.4958C110.859 46.9791 110.875 46.9031 110.677 46.5232C110.419 46.0369 110.464 45.2771 110.753 45.3227C110.844 45.3531 110.935 45.2315 110.935 45.0492C110.935 44.882 110.996 44.7756 111.072 44.8212C111.148 44.882 111.285 44.73 111.361 44.5021C111.452 44.2589 111.528 44.1678 111.528 44.2893C111.543 44.4565 111.604 44.4413 111.771 44.2133C111.954 43.9854 111.984 43.9702 111.999 44.1678C111.999 44.5021 113.063 44.806 113.549 44.6237C114.036 44.4413 114.887 43.4535 114.887 43.0888C114.887 42.6785 115.312 41.1132 115.479 40.9005C115.555 40.8093 115.616 40.1103 115.616 39.3656C115.616 38.6058 115.677 37.8308 115.768 37.618C115.874 37.3141 115.829 37.0557 115.54 36.4023C115.342 35.9464 115.099 35.5209 114.993 35.4601C114.902 35.3993 114.871 35.3081 114.932 35.2473C114.993 35.1865 114.887 35.0346 114.719 34.913C114.157 34.5331 113.564 32.9071 113.975 32.9071C114.279 32.9071 115.464 33.8948 115.555 34.1988C115.601 34.3659 115.874 34.7458 116.148 35.0346C116.421 35.3233 116.801 35.8856 116.984 36.2655C117.166 36.6454 117.516 37.1469 117.759 37.3597C118.002 37.5724 118.275 37.9827 118.382 38.2867C118.473 38.5906 118.61 38.8337 118.686 38.8337C118.762 38.8337 118.883 39.0617 118.974 39.3352C119.081 39.624 119.354 40.0495 119.613 40.2926L120.084 40.7333L119.977 40.1862C119.871 39.6392 119.886 39.6392 120.297 39.7151C120.54 39.7607 120.844 39.9431 120.996 40.1103C121.208 40.3686 121.254 40.3838 121.269 40.1862C121.269 39.8975 120.768 39.2896 120.54 39.2896C120.449 39.2896 120.205 39.1377 120.008 38.9401C119.795 38.7578 119.461 38.4842 119.248 38.3474C119.035 38.1955 118.762 37.7852 118.64 37.4356C118.519 37.0709 118.367 36.6606 118.306 36.5087C118.139 36.1135 118.868 36.1743 119.598 36.6302C120.236 37.0405 120.357 37.0709 120.357 36.8886C120.357 36.8278 120.129 36.6454 119.871 36.4783C119.598 36.3263 119.096 35.916 118.746 35.5817C118.412 35.2321 117.531 34.4115 116.801 33.7429C116.072 33.0742 115.373 32.3448 115.251 32.1168C114.978 31.6001 114.37 30.9315 114.172 30.9315C114.081 30.9315 113.853 30.7491 113.656 30.506C113.109 29.8829 112.82 29.7006 112.546 29.8069C112.334 29.8829 112.379 29.9589 112.774 30.202C113.245 30.4908 113.245 30.4908 112.972 30.7947C112.713 31.0835 112.713 31.129 112.926 31.281C113.245 31.5242 113.732 32.284 113.64 32.3904C113.519 32.5119 112.759 31.6457 112.759 31.3874C112.759 31.3114 112.334 31.0227 111.817 30.7643C111.285 30.5212 110.662 30.202 110.434 30.0805C109.932 29.8069 108.595 29.6854 108.793 29.9285C108.945 30.1261 108.732 30.7795 108.504 30.7795C108.428 30.7795 108.352 30.6427 108.352 30.4756C108.352 30.3084 108.246 30.1717 108.124 30.1717C108.002 30.1717 107.896 30.0349 107.896 29.8677C107.896 29.7006 107.82 29.5638 107.729 29.5638C107.638 29.5638 107.592 29.4726 107.638 29.351C107.759 29.0319 107.212 28.5912 106.878 28.728C106.726 28.804 106.528 28.8344 106.422 28.8192C106.331 28.804 106.209 28.8647 106.148 28.9559C106.057 29.0927 106.483 29.1687 107.212 29.1383C107.379 29.1383 107.425 29.1687 107.319 29.2143C107.167 29.2751 107.182 29.351 107.379 29.579C107.516 29.7309 107.562 29.8677 107.471 29.8677C107.395 29.8677 107.349 30.0197 107.395 30.202C107.44 30.43 107.364 30.3692 107.167 30.0197C106.908 29.5486 106.787 29.4726 106.088 29.3966C104.781 29.2295 104.766 29.1991 105.343 28.4696C105.997 27.6338 106.24 27.1627 106.042 27.1019C105.875 27.0411 106.513 25.6127 106.711 25.6127C106.772 25.6127 106.756 25.4455 106.68 25.2327C106.559 24.9288 106.589 24.8224 106.756 24.7617C106.878 24.7009 106.984 24.5033 106.984 24.3058C106.984 24.0626 107.106 23.8954 107.303 23.8195C107.805 23.6219 109.978 23.5915 110.1 23.7739C110.145 23.8651 110.328 23.941 110.495 23.941C110.662 23.941 110.768 23.8954 110.723 23.8195C110.692 23.7587 111.209 23.7283 111.878 23.7435C113.033 23.7891 113.093 23.7739 113.017 23.4699C112.957 23.242 113.002 23.1812 113.185 23.242C113.792 23.4091 114.522 23.5459 114.643 23.5003C114.735 23.4851 114.963 23.5003 115.16 23.5611C115.449 23.6371 115.479 23.6979 115.342 23.8651C115.145 24.1082 115.312 24.245 115.829 24.245C117.029 24.245 117.318 24.2146 117.318 24.0778C117.318 23.9866 117.485 23.9562 117.744 24.017C117.987 24.0626 118.382 24.0322 118.61 23.941C119.142 23.7435 118.974 23.5763 117.987 23.318C117.318 23.1508 117.227 22.9381 117.5 22.239C117.576 22.0263 117.652 21.616 117.668 21.3424C117.698 20.8713 117.744 20.8409 118.306 20.7801C118.64 20.7497 119.05 20.7345 119.218 20.7345C119.385 20.7497 119.704 20.7497 119.947 20.7649C120.205 20.7649 120.357 20.8409 120.357 20.9777C120.357 21.2816 120.935 21.8439 121.132 21.7375C121.208 21.6767 121.406 21.7983 121.573 21.9959C121.771 22.2238 121.862 22.2694 121.877 22.1326C121.877 22.0111 121.923 21.9655 121.983 22.0263C122.044 22.0718 122.166 21.9047 122.242 21.6311C122.378 21.2512 122.5 21.1145 122.834 21.0841C123.199 21.0385 123.442 20.7497 123.093 20.7497C123.017 20.7497 122.774 20.5674 122.546 20.3394C122.151 19.9443 122.151 19.9291 122.47 19.8227C122.834 19.686 123.29 19.8075 123.154 20.0051C123.062 20.1723 123.868 21.2056 124.096 21.2056C124.384 21.2056 124.263 21.7071 123.898 22.0415C123.655 22.2542 123.579 22.467 123.625 22.7101C123.655 22.9229 123.625 23.166 123.533 23.2876C123.427 23.394 123.397 23.6979 123.457 23.941C123.564 24.5033 123.336 25.1568 123.017 25.1568C122.895 25.1568 122.789 25.2176 122.789 25.3087C122.789 25.3847 122.637 25.4607 122.454 25.4607C122.105 25.4607 122.105 25.4607 122.5 25.8254C122.789 26.099 122.88 26.3117 122.834 26.5701C122.713 27.2083 123.503 28.2417 125.266 29.7613C125.676 30.1109 126.299 30.6579 126.634 30.9923C126.983 31.3114 127.576 31.8281 127.956 32.132C128.32 32.436 128.791 32.8615 128.989 33.0894C129.187 33.3174 129.551 33.6517 129.779 33.8188L130.22 34.138L130.463 33.6669C130.737 33.135 130.661 32.436 130.296 32.132C130.022 31.9041 130.022 31.4482 130.296 31.3418C130.418 31.2962 130.676 31.2962 130.873 31.3418C131.162 31.4026 131.101 31.2962 130.554 30.8251C130.022 30.3388 129.916 30.1565 130.007 29.8829C130.098 29.5942 130.174 29.5638 130.645 29.655C131.101 29.7461 131.177 29.7158 131.117 29.4726C131.086 29.3206 130.797 29.0167 130.478 28.804C129.551 28.1657 129.187 27.2387 130.007 27.6186C130.22 27.7098 130.433 27.7402 130.493 27.6946C130.63 27.5426 129.931 26.8284 129.642 26.8284C129.308 26.8132 128.564 26.1445 128.564 25.8558C128.564 25.5367 128.001 25.2631 127.561 25.3695C127.013 25.5063 126.406 24.868 126.527 24.2754C126.603 23.9258 126.527 23.7435 126.223 23.4243C125.843 23.0596 125.843 22.9533 126.178 23.014C126.238 23.0292 126.436 22.9533 126.618 22.8621C126.786 22.7709 126.892 22.7557 126.831 22.8469C126.786 22.9229 126.846 23.0292 126.968 23.09C127.211 23.1812 127.409 22.9533 127.287 22.7405C127.089 22.4214 127.652 22.4822 127.956 22.8013C128.336 23.1964 128.564 23.1812 128.564 22.7405C128.564 22.163 129.977 22.1174 131.132 22.6493C132.013 23.0596 132.18 23.0596 131.937 22.6341C131.831 22.4366 131.876 22.2846 132.15 22.0111C132.347 21.8135 132.56 21.4792 132.606 21.2816C132.651 21.0689 132.864 20.8561 133.138 20.7649C133.381 20.689 133.578 20.537 133.578 20.461C133.578 20.3698 133.67 20.2938 133.791 20.2938C133.898 20.2938 134.095 20.1875 134.201 20.0507C134.399 19.8075 134.992 19.8227 136.207 20.0811C136.557 20.1571 136.618 20.1267 136.618 19.8683C136.618 19.6708 136.481 19.5188 136.283 19.4428C136.086 19.3972 135.828 19.2605 135.706 19.1541C135.584 19.0477 135.311 18.9109 135.098 18.835C134.505 18.6222 132.819 17.6496 132.819 17.5129C132.819 17.4521 132.955 17.2545 133.107 17.0722C133.502 16.6618 133.274 16.2819 132.484 16.054C132.165 15.9476 131.937 15.8108 131.983 15.7348C132.028 15.6437 132.469 15.7804 132.94 16.0236C133.67 16.3883 133.989 16.4643 134.87 16.4491C135.752 16.4491 136.071 16.5099 136.694 16.8442C137.104 17.0722 137.606 17.2545 137.788 17.2545C137.955 17.2545 138.533 17.3913 139.034 17.5433C139.9 17.8168 139.976 17.8168 140.128 17.5736C140.265 17.3609 140.28 17.3609 140.204 17.5888C140.113 17.8928 140.493 17.9536 140.873 17.7104C141.07 17.5888 141.04 17.5433 140.766 17.4673C140.569 17.4065 140.462 17.3153 140.508 17.2393C140.554 17.1633 140.508 17.1025 140.432 17.1025C140.341 17.1025 140.128 16.9658 139.976 16.8138C139.672 16.5099 139.672 16.5099 140.067 16.4643C140.295 16.4339 140.508 16.3275 140.538 16.2059C140.584 16.054 140.538 16.0236 140.371 16.0844C140.219 16.1452 140.159 16.1148 140.204 15.9932C140.235 15.8868 140.083 15.6893 139.839 15.5525C139.125 15.127 136.527 14.5191 135.432 14.5191C134.673 14.5191 134.232 14.4279 133.654 14.1544C132.834 13.7441 126.01 12.0421 123.777 11.6774C123.032 11.5558 121.831 11.4342 121.117 11.4038C119.172 11.3126 117.424 11.1759 117.09 11.0695C116.847 11.0087 116.862 11.0543 117.212 11.3886C117.44 11.6014 117.698 11.7837 117.774 11.7837C117.85 11.7837 118.169 11.9357 118.488 12.118L119.066 12.4676L118.64 12.5132C118.397 12.5436 118.123 12.498 118.017 12.4068C117.911 12.3156 117.5 12.194 117.105 12.1484C116.71 12.0877 116.361 11.9965 116.33 11.9357C116.285 11.8597 116.391 11.8445 116.558 11.8901C116.725 11.9357 116.862 11.8901 116.862 11.7989C116.862 11.7077 116.817 11.647 116.756 11.647C116.68 11.6622 116.391 11.647 116.102 11.6318L115.57 11.5862L116.102 11.4798L116.634 11.3734L116.148 11.3278C115.206 11.2366 115.115 11.2518 115.115 11.4798C115.115 11.647 114.947 11.7077 114.431 11.6925C113.2 11.647 110.404 11.6318 110.176 11.6622C109.644 11.7381 108.352 11.4494 108.352 11.2366C108.352 10.9479 107.638 10.6136 106.422 10.3249C105.586 10.1273 104.918 10.0969 103.018 10.1729C101.118 10.2489 100.556 10.2337 100.115 10.0513C99.8267 9.92973 99.2644 9.79297 98.8541 9.73218C97.8055 9.6106 97.3952 9.48904 97.5016 9.33707C97.7448 8.94196 94.7206 8.54684 94.2647 8.91156C94.128 9.03313 94.052 9.04833 94.1128 8.94196C94.2799 8.68361 93.9456 8.62283 91.1038 8.36449C88.0189 8.09094 88.1253 8.09094 88.5964 8.36449L88.9763 8.57723L88.414 8.59243C87.9733 8.59243 87.8669 8.63802 87.9277 8.82038C87.9885 8.94196 88.2013 9.04833 88.414 9.04833C88.6268 9.04833 88.7483 9.09392 88.6876 9.15471C88.642 9.21549 88.7787 9.35226 89.0067 9.45864L89.4322 9.6562L88.9763 9.56502C88.7331 9.50423 88.3836 9.47384 88.2165 9.47384C88.0493 9.48904 87.487 9.50423 86.9551 9.50423C86.4385 9.50423 85.8458 9.58022 85.6634 9.641C85.4507 9.71698 85.0252 9.71698 84.6301 9.6258C84.2653 9.54982 83.8094 9.47384 83.6271 9.45864C83.4599 9.44344 83.3383 9.38266 83.3839 9.30667C83.4143 9.24589 83.3687 9.20029 83.2624 9.20029C83.1712 9.20029 83.1256 9.32187 83.1712 9.45864C83.4903 10.4768 83.5055 10.416 82.9584 10.3249C82.1682 10.1729 80.9829 9.59541 80.4206 9.06353C80.147 8.80518 79.8127 8.59243 79.6912 8.59243C79.5696 8.59243 79.4784 8.50125 79.4784 8.39487C79.4784 7.96937 76.7278 7.19434 76.4999 7.55906C76.4543 7.61985 76.3327 7.63505 76.2415 7.57426C76.1351 7.51347 75.892 7.43748 75.6792 7.42229C75.4665 7.3919 74.9954 7.30072 74.6155 7.20954C74.1292 7.10316 73.9164 7.10316 73.886 7.20954C73.8556 7.30072 73.7645 7.34631 73.6885 7.28552C73.6125 7.23993 73.5517 7.28552 73.5517 7.3615C73.5517 7.45268 73.6885 7.60465 73.8556 7.71103C74.0228 7.81741 74.1596 7.93898 74.1596 7.98457C74.1596 8.06055 72.8679 8.04536 71.4242 7.92378C70.9683 7.89339 70.4516 7.86299 70.2844 7.84779C70.0565 7.8326 70.0261 7.80221 70.1933 7.69583C70.3148 7.61985 70.33 7.52867 70.2388 7.46788C70.0261 7.34631 66.3485 7.30072 66.1509 7.42229C65.923 7.55906 64.8896 6.95119 64.8896 6.67766C64.8896 6.52569 64.6921 6.4649 64.1906 6.4649C63.6283 6.4649 63.4763 6.52569 63.4156 6.75364C63.37 6.95119 63.2484 7.01199 63.0508 6.96639C62.8989 6.9208 62.6557 6.936 62.519 6.98159C62.3214 7.05757 62.3062 7.11836 62.4582 7.28552C62.5949 7.46788 62.5341 7.54386 62.0479 7.66544C61.3184 7.87819 60.589 7.87819 60.7106 7.68063C60.7561 7.58945 60.9689 7.52867 61.1665 7.52867C61.364 7.52867 61.592 7.43748 61.6527 7.33111C61.8047 7.10316 62.1998 6.86002 63.0964 6.41931C63.4915 6.23695 63.8563 5.9938 63.9018 5.87224C64.0386 5.52271 63.37 4.93005 62.9141 4.99083C62.7013 5.02122 62.6253 5.02122 62.7317 4.99083C62.8837 4.93005 62.8685 4.86926 62.6557 4.7021C62.3366 4.45895 62.0934 4.42856 62.2302 4.6413C62.3822 4.88445 62.1238 4.82367 61.8199 4.53493C61.592 4.33737 61.1968 4.27659 59.6772 4.27659C58.659 4.26139 57.656 4.32218 57.4585 4.39816C57.1849 4.48934 57.1241 4.47414 57.1697 4.32218C57.2761 4.01824 57.0178 3.57755 56.7442 3.57755C56.6227 3.57755 56.5619 3.63833 56.6075 3.72951C56.7594 3.95746 56.106 3.91187 55.7109 3.65353C55.3006 3.37999 53.249 3.21282 52.7931 3.41038ZM64.5857 7.07277C64.7529 7.17915 64.6921 7.22474 64.3274 7.22474C64.0538 7.22474 63.8259 7.14875 63.8259 7.07277C63.8259 6.87521 64.2818 6.87521 64.5857 7.07277ZM40.6662 12.8627C41.0309 13.273 40.8486 13.3642 40.423 12.9995C40.2255 12.8323 39.9823 12.6955 39.876 12.6955C39.7696 12.6955 39.648 12.6347 39.6024 12.574C39.4505 12.3156 40.4079 12.5891 40.6662 12.8627ZM135.478 14.975C135.524 15.0662 135.463 15.0814 135.341 15.0358C135.068 14.9294 135.022 14.8231 135.235 14.8231C135.326 14.8231 135.432 14.8838 135.478 14.975ZM132.591 17.5584C132.712 17.756 132.363 17.756 132.059 17.5584C131.876 17.4369 131.892 17.4065 132.165 17.4065C132.347 17.4065 132.545 17.4673 132.591 17.5584ZM79.7367 28.6064C80.3446 30.0197 80.4206 30.3084 80.2382 30.582C80.0863 30.8251 80.0711 30.8251 80.147 30.582C80.1926 30.4452 80.1622 30.3236 80.0863 30.3236C79.9951 30.3236 79.9343 30.4604 79.9343 30.6276C79.9343 30.8099 80.0407 30.9315 80.2078 30.9315C80.3598 30.9315 80.4054 30.9771 80.299 31.0531C80.2078 31.1138 80.0863 31.2962 80.0255 31.4634C79.9799 31.6609 79.676 31.8737 79.2808 32.0104C78.7338 32.2232 78.6426 32.2992 78.6882 32.6487C78.7338 32.983 78.6578 33.059 78.1259 33.2262C77.67 33.3629 77.4117 33.3629 77.1685 33.2414C76.8342 33.0894 76.8342 33.0742 77.2597 33.0742C77.6852 33.059 78.2627 32.6943 78.2627 32.4208C78.2627 32.36 78.3994 32.1624 78.5818 31.98C78.749 31.8129 78.8553 31.5697 78.8097 31.4482C78.7642 31.3418 78.8097 31.1898 78.9161 31.129C79.4176 30.8099 79.5544 29.6094 79.2353 28.4544C79.0985 28.0289 79.5392 28.1505 79.7367 28.6064ZM50.5136 39.5784C50.5592 39.6544 50.4984 39.7455 50.3768 39.8063C50.2553 39.8519 50.1489 39.9887 50.1489 40.1255C50.1489 40.247 50.0425 40.3534 49.9209 40.3534C49.769 40.3534 49.693 40.5054 49.693 40.8245C49.693 41.2348 49.6626 41.2804 49.465 41.1132C49.1915 40.8853 49.1611 40.2014 49.4195 40.2014C49.5106 40.2014 49.5562 40.1558 49.5106 40.1103C49.3739 39.9735 49.8906 39.472 50.1793 39.4568C50.3161 39.4416 50.468 39.5024 50.5136 39.5784ZM51.4102 39.548C51.3038 39.5784 51.1215 39.5784 51.0303 39.548C50.9239 39.5024 50.9999 39.472 51.2127 39.472C51.4254 39.472 51.5014 39.5024 51.4102 39.548ZM53.4922 39.7455C53.6593 39.8671 53.5985 39.8823 53.2642 39.8063C52.7019 39.6847 52.5804 39.5936 52.9755 39.5936C53.1274 39.5936 53.3706 39.6695 53.4922 39.7455ZM54.4039 39.7303C54.4039 39.8215 54.2672 39.8671 54.1 39.8519C53.9329 39.8367 53.7961 39.7759 53.7961 39.7151C53.7961 39.6544 53.9329 39.5936 54.1 39.5936C54.2672 39.5936 54.4039 39.6544 54.4039 39.7303ZM36.1224 39.9887C36.0768 40.0343 35.94 40.0495 35.8337 40.0039C35.7121 39.9583 35.7577 39.9127 35.9248 39.9127C36.092 39.8975 36.1832 39.9431 36.1224 39.9887ZM34.9523 40.6573C34.9523 40.7333 34.8763 40.8093 34.7851 40.8093C34.7091 40.8093 34.6787 40.8853 34.7243 40.9613C34.7851 41.0524 34.9523 41.0828 35.1194 41.0372C35.3322 40.9613 35.4234 41.0372 35.4993 41.326C35.5449 41.5387 35.6817 41.7819 35.8033 41.8883C35.9704 42.025 35.9704 42.1314 35.7729 42.5113C35.6209 42.8153 35.4689 42.9368 35.317 42.876C35.1802 42.8304 34.9827 42.7849 34.8611 42.7849C34.7091 42.7849 34.6483 42.5721 34.6483 41.9642C34.6483 41.5083 34.5875 41.0828 34.4964 41.0372C34.4052 40.9765 34.4204 40.8701 34.542 40.7333C34.7547 40.475 34.9523 40.4446 34.9523 40.6573ZM34.4204 41.4172C34.5723 41.9187 34.3292 42.0858 34.1012 41.6451C33.8429 41.1284 33.8429 41.1132 34.1012 41.1132C34.2228 41.1132 34.3596 41.25 34.4204 41.4172ZM33.9645 42.6025C33.8733 42.6937 33.5846 41.9187 33.5998 41.5995C33.5998 41.4628 33.7061 41.6147 33.8277 41.9338C33.9493 42.2682 34.0101 42.5569 33.9645 42.6025ZM29.8006 46.0065C29.8918 46.2041 30.1805 46.5536 30.4541 46.7816C30.7124 47.0247 30.834 47.1767 30.7276 47.1159C30.606 47.0551 30.4237 47.1311 30.3021 47.2831C30.1349 47.4958 30.0437 47.511 29.9982 47.3742C29.9526 47.2831 29.7702 47.1919 29.603 47.1919C29.2079 47.1919 28.8888 46.7816 28.8736 46.2497C28.8736 45.6266 29.5119 45.4595 29.8006 46.0065ZM10.9416 63.3763C10.9416 63.4979 10.8808 63.6042 10.7896 63.6042C10.7136 63.6042 10.6832 63.4979 10.7288 63.3763C10.7896 63.2547 10.8504 63.1483 10.8808 63.1483C10.9112 63.1483 10.9416 63.2547 10.9416 63.3763ZM69.4486 74.8498C69.4486 74.9257 69.4182 75.0017 69.3878 75.0017C69.3422 75.0017 69.2663 74.9257 69.2207 74.8498C69.1751 74.7586 69.2055 74.6978 69.2815 74.6978C69.3726 74.6978 69.4486 74.7586 69.4486 74.8498ZM20.1203 79.0744C20.1659 79.1504 20.1051 79.2112 19.9836 79.2112C19.862 79.2112 19.8012 79.1504 19.8468 79.0744C19.8924 79.0136 19.9532 78.9529 19.9836 78.9529C20.014 78.9529 20.0748 79.0136 20.1203 79.0744ZM91.4078 86.384C91.4533 86.46 91.423 86.5664 91.3318 86.6272C91.2558 86.6727 91.1798 86.612 91.1798 86.4904C91.1798 86.2168 91.271 86.1713 91.4078 86.384ZM94.5991 87.7669C94.751 87.9341 94.7966 88.0708 94.7054 88.0708C94.6142 88.0708 94.4623 87.9341 94.3711 87.7669C94.2799 87.5997 94.2343 87.463 94.2647 87.463C94.2951 87.463 94.4471 87.5997 94.5991 87.7669Z" fill="black"/>
<path d="M86.1649 6.75341C86.1649 7.01176 86.6056 7.2549 86.8944 7.16372C87.0919 7.10294 87.2287 7.14853 87.2895 7.30049C87.3503 7.45246 87.2743 7.52844 87.0615 7.52844C86.8792 7.52844 86.8032 7.58923 86.864 7.6956C86.9096 7.78678 87.1071 7.81718 87.3047 7.77159C87.487 7.726 88.2165 7.75639 88.9003 7.84757C90.1464 7.99954 90.5415 7.93875 90.116 7.68041C89.7361 7.43726 88.3532 7.07254 87.8062 7.07254C87.5326 7.07254 87.1679 6.96617 87.0159 6.84459C86.6816 6.60145 86.1649 6.54066 86.1649 6.75341Z" fill="black"/>
<path d="M119.902 41.204C119.902 41.3256 119.841 41.3863 119.75 41.3408C119.674 41.2952 119.598 41.3256 119.598 41.4167C119.598 41.5231 119.689 41.5687 119.81 41.5231C120.19 41.3711 121.193 42.8452 121.026 43.3163C120.98 43.4227 121.011 43.5595 121.102 43.6202C121.436 43.8178 121.254 43.9698 120.829 43.8482C120.266 43.6962 120.129 43.8178 120.449 44.1673C120.661 44.4105 120.677 44.4561 120.479 44.532C120.342 44.5928 120.251 44.8208 120.251 45.1095C120.251 45.3831 120.281 45.5046 120.312 45.4135C120.418 45.1247 121.072 45.611 121.178 46.0669C121.284 46.4772 121.68 46.5532 121.816 46.2037C121.877 46.0821 121.999 45.9757 122.12 45.9757C122.531 45.9757 122.333 45.687 121.725 45.4286C121.391 45.2767 121.117 45.1095 121.117 45.0335C121.117 44.8664 121.33 44.8816 121.528 45.0791C121.649 45.2007 121.771 45.1855 121.999 45.0487C122.242 44.8968 122.439 44.912 123.138 45.2007C123.61 45.3983 124.065 45.5046 124.172 45.4286C124.293 45.3679 124.309 45.3831 124.248 45.4894C124.187 45.5958 124.217 45.6718 124.309 45.6718C124.43 45.6718 124.461 45.535 124.4 45.3071C124.263 44.7296 124.445 44.4561 124.977 44.4561C125.479 44.4409 125.98 44.1521 125.98 43.8786C125.98 43.7874 125.874 43.7418 125.737 43.8026C125.555 43.8786 125.509 43.7722 125.539 43.1947C125.57 42.7084 125.631 42.5261 125.783 42.5869C125.889 42.6325 125.98 42.6021 125.98 42.5109C125.98 42.4349 125.843 42.3285 125.676 42.2829C125.418 42.2222 125.357 42.2981 125.281 42.7996C125.175 43.4227 124.916 43.4683 124.916 42.8452C124.916 42.4045 124.673 42.3589 124.537 42.7844C124.445 43.0732 124.415 43.0732 123.351 42.6781C122.363 42.3285 121.634 41.9638 121.421 41.7207C121.269 41.5383 120.236 40.9608 120.069 40.9608C119.978 40.9608 119.902 41.0672 119.902 41.204Z" fill="black"/>
<path d="M122.181 46.3557C122.181 46.4925 122.105 46.5533 122.014 46.4925C121.892 46.4165 121.862 46.5077 121.938 46.7812C121.983 47.0092 121.953 47.2219 121.862 47.2675C121.755 47.3435 121.786 47.4651 121.953 47.6474C122.075 47.7842 122.151 48.0122 122.09 48.1641C122.029 48.3313 122.075 48.4073 122.242 48.4073C122.363 48.4073 122.546 48.544 122.637 48.7112C122.88 49.1823 122.926 50.5804 122.698 50.8387C122.5 51.0667 122.485 51.1275 122.485 51.5226C122.485 51.6594 122.302 51.8417 122.075 51.9481C121.831 52.0393 121.603 52.1912 121.543 52.2824C121.375 52.4952 121.102 52.0393 121.208 51.7201C121.315 51.3858 121.102 51.2794 120.783 51.5074C120.57 51.6594 120.57 51.7353 120.752 52.0545C120.859 52.2672 120.95 52.3432 120.965 52.2216C120.965 52.1001 120.996 52.0393 121.041 52.0849C121.132 52.176 120.768 52.9663 120.631 52.9663C120.449 52.9663 120.479 53.5437 120.661 53.6045C120.752 53.6349 120.752 53.7413 120.661 53.8629C120.555 54.0452 120.494 54.0452 120.297 53.8933C120.114 53.7413 119.901 53.7261 119.309 53.8781C118.898 53.9692 118.397 54.0452 118.199 54.03C117.561 53.9692 117.318 54.03 117.318 54.2124C117.318 54.4707 116.558 55.3217 116.224 55.4433C116.072 55.4889 115.95 55.6713 115.95 55.8384C115.95 56.0056 115.859 56.2183 115.768 56.3095C115.662 56.4007 115.418 56.5983 115.221 56.7502L114.871 57.0542L115.282 57.5101C115.51 57.7684 115.753 57.9356 115.844 57.8748C115.935 57.8292 115.95 57.8444 115.905 57.9356C115.844 58.0115 115.996 58.3611 116.224 58.6802C116.452 58.9993 116.634 59.3792 116.634 59.5008C116.634 59.6224 116.786 59.744 116.984 59.7744C117.166 59.8047 117.318 59.9111 117.318 60.0023C117.318 60.1087 117.47 60.0175 117.668 59.8047C117.956 59.4856 118.002 59.2729 117.971 58.4371C117.956 57.8748 117.941 57.3733 117.911 57.2973C117.85 56.9174 117.956 56.9326 118.397 57.3581C118.898 57.8596 119.385 57.9963 119.233 57.586C119.111 57.2821 119.4 56.7654 119.673 56.7654C119.795 56.7654 119.901 56.8262 119.901 56.9174C119.901 57.2061 120.129 57.0694 120.312 56.6742C120.403 56.4615 120.464 56.2031 120.418 56.0816C120.373 55.9752 120.403 55.8384 120.494 55.7776C120.585 55.732 120.661 55.7776 120.661 55.8992C120.661 56.1728 121.269 56.7198 121.634 56.7958C121.862 56.8262 121.953 56.7198 122.059 56.3399C122.135 56.0664 122.287 55.8536 122.409 55.8536C122.743 55.8536 122.682 55.4281 122.333 55.3217C122.166 55.2761 122.029 55.1698 122.029 55.0938C122.029 55.033 122.166 55.0026 122.333 55.0482C122.5 55.0938 122.637 55.1698 122.637 55.2306C122.637 55.2761 122.941 55.3217 123.321 55.3217C123.944 55.3217 124.005 55.2913 124.005 54.9418L124.02 54.5619L124.248 54.9874C124.506 55.4737 124.825 55.3825 124.719 54.8506C124.643 54.4251 124.932 54.3644 125.281 54.7291C125.509 54.9418 125.539 54.9418 125.767 54.7291C125.889 54.5923 125.95 54.4099 125.904 54.334C125.843 54.2428 125.874 54.0756 125.965 53.9692C126.086 53.8173 126.056 53.6805 125.828 53.4222C125.661 53.2246 125.509 52.9359 125.509 52.7535C125.494 52.5711 125.463 52.328 125.448 52.2064C125.433 52.0849 125.403 51.8721 125.387 51.7353C125.387 51.5986 125.235 51.3402 125.068 51.1427C124.901 50.9451 124.764 50.702 124.764 50.5804C124.764 50.4284 124.856 50.398 125.068 50.4588C125.235 50.5196 125.372 50.4892 125.372 50.398C125.372 50.3069 125.311 50.2309 125.22 50.2309C125.144 50.2309 125.068 49.8965 125.068 49.4862C125.068 48.772 125.023 48.6808 124.08 47.7082C123.533 47.146 123.093 46.5837 123.093 46.4773C123.093 46.3709 123.002 46.2797 122.88 46.2797C122.758 46.2797 122.561 46.2342 122.424 46.1886C122.257 46.1278 122.181 46.1734 122.181 46.3557ZM122.941 46.7964C122.941 46.8268 122.834 46.8876 122.713 46.9484C122.591 46.994 122.485 46.9636 122.485 46.8876C122.485 46.7964 122.591 46.7356 122.713 46.7356C122.834 46.7356 122.941 46.766 122.941 46.7964ZM120.16 55.3217C120.281 55.6561 120.16 55.732 119.689 55.6105C119.37 55.5345 119.324 55.4737 119.461 55.3065C119.689 55.0178 120.038 55.033 120.16 55.3217ZM119.05 55.7776C118.944 56.036 118.595 56.0816 118.458 55.8688C118.397 55.7472 118.595 55.6409 119.02 55.5649C119.081 55.5649 119.096 55.6561 119.05 55.7776ZM117.728 56.036C117.683 56.1576 117.637 56.112 117.637 55.9448C117.622 55.7776 117.668 55.6865 117.713 55.7472C117.759 55.7928 117.774 55.9296 117.728 56.036ZM118.169 56.112C118.063 56.5223 117.698 56.9174 117.44 56.9174C117.379 56.9174 117.333 56.8262 117.364 56.7198C117.379 56.6135 117.196 56.5223 116.908 56.4919C116.634 56.4615 116.406 56.3703 116.406 56.2791C116.406 56.1728 116.665 56.1576 117.151 56.2183C117.819 56.3095 117.911 56.2791 118.002 56.0056C118.154 55.5497 118.275 55.6409 118.169 56.112Z" fill="black"/>
<path d="M9.63469 53.9543C9.48272 54.0759 9.08761 54.1822 8.78367 54.1822C8.46454 54.1822 8.2062 54.243 8.2062 54.3342C8.2062 54.4102 8.06943 54.4862 7.88707 54.4862C7.43117 54.4862 7.58314 54.9725 8.11502 55.2156C8.49494 55.4132 8.58612 55.398 8.98123 55.1092C9.20918 54.9269 9.48272 54.7901 9.5587 54.7901C9.64988 54.7901 9.68028 54.6989 9.63469 54.5774C9.5891 54.4406 9.68028 54.2734 9.86263 54.1519C10.1818 53.9543 10.2881 53.7264 10.0602 53.7264C9.98421 53.7264 9.80185 53.8327 9.63469 53.9543Z" fill="black"/>
<path d="M109.765 76.3998C109.629 76.6125 109.659 78.8008 109.796 79.3175C109.887 79.6063 109.872 79.6215 109.674 79.3631C109.188 78.7705 109.127 79.2567 109.522 80.4877C109.781 81.2779 110.176 81.8402 110.48 81.8402C110.571 81.8402 110.632 81.7186 110.632 81.5818C110.632 81.4451 110.677 81.3843 110.738 81.4299C110.783 81.4906 110.753 81.7034 110.632 81.901C110.419 82.2961 110.525 82.828 110.783 82.676C110.859 82.6304 110.935 82.6608 110.935 82.7368C110.935 82.9951 110.48 82.9343 110.388 82.676C110.328 82.5544 110.191 82.448 110.069 82.448C109.917 82.448 109.978 82.6152 110.297 83.0103C110.54 83.3294 110.859 83.8005 110.996 84.0741C111.315 84.7123 111.543 84.8339 111.786 84.4996C112.045 84.1653 111.908 83.527 111.543 83.1927C111.27 82.9495 111.27 82.9343 111.619 82.752C111.999 82.5392 112.501 82.6912 112.136 82.9039C111.984 83.0103 111.984 83.0863 112.151 83.2839C112.349 83.527 112.379 83.527 112.546 83.2839C112.713 83.0559 112.744 83.0559 112.881 83.3142C112.972 83.4662 113.093 83.527 113.154 83.4662C113.23 83.4054 113.185 83.2079 113.078 83.0407C112.729 82.4632 113.002 82.6 113.701 83.3446C114.34 84.0285 114.446 84.2716 114.096 84.2716C114.036 84.2716 113.99 84.226 114.005 84.1501C114.051 83.9981 113.625 83.3598 113.488 83.3598C113.276 83.3598 113.367 83.8309 113.595 83.9069C113.747 83.9677 113.823 84.2108 113.823 84.6364C113.823 85.0467 113.868 85.1834 113.96 85.0467C114.066 84.8795 114.157 84.8795 114.446 85.0923C114.978 85.457 115.069 85.3962 114.795 84.8643C114.659 84.5756 114.613 84.3476 114.704 84.2868C114.78 84.2412 114.871 84.0133 114.917 83.7853C114.978 83.451 114.917 83.3446 114.567 83.1927C114.096 83.0103 113.975 82.752 114.355 82.752C114.476 82.752 114.583 82.8128 114.583 82.9039C114.583 83.0863 114.735 83.1015 115.023 82.9191C115.175 82.8128 115.191 82.7216 115.054 82.4632C114.841 82.0985 114.583 82.0377 114.583 82.3721C114.583 82.5848 114.537 82.5848 114.127 82.3721C113.868 82.2353 113.61 82.1745 113.534 82.2201C113.458 82.2505 113.352 82.1897 113.306 82.0529C113.23 81.8554 113.078 81.825 112.546 81.901C112.03 81.9769 111.862 81.9617 111.802 81.7642C111.71 81.5514 111.878 81.4755 112.425 81.4906C112.516 81.5058 112.607 81.4603 112.607 81.4147C112.607 81.2627 112.075 80.9436 111.817 80.9284C111.513 80.9284 111.437 80.7156 111.513 80.1381C111.559 79.8646 111.665 79.7126 111.847 79.7126C112.227 79.7126 112.394 78.4361 112.06 77.9346C111.938 77.7371 111.817 77.2964 111.817 76.9621C111.817 76.3694 111.802 76.3694 111.315 76.4606C111.027 76.5062 110.783 76.4758 110.723 76.3846C110.571 76.1566 109.917 76.1718 109.765 76.3998Z" fill="black"/>
<path d="M115.038 84.4383C115.038 84.5903 115.236 84.8638 115.479 85.0462C115.737 85.2286 115.889 85.4565 115.844 85.5933C115.783 85.7605 115.722 85.7453 115.57 85.5325C115.282 85.1526 115.16 85.3653 115.266 86.0036C115.327 86.3227 115.464 86.5507 115.585 86.5507C115.722 86.5507 115.798 86.7178 115.798 86.9914C115.798 87.3257 115.905 87.4625 116.224 87.5992C116.467 87.7056 116.664 87.8576 116.664 87.964C116.664 88.0703 116.71 88.2983 116.771 88.4655C116.847 88.739 116.816 88.7846 116.482 88.7846C116.269 88.7846 116.102 88.739 116.102 88.663C116.102 88.587 116.041 88.5262 115.95 88.5262C115.874 88.5262 115.844 88.7238 115.905 89.0125C115.981 89.3621 115.95 89.4532 115.813 89.3773C115.692 89.3013 115.601 89.3773 115.54 89.5748C115.434 89.9699 115.373 89.9699 115.038 89.5596C114.81 89.2557 114.719 89.2405 114.37 89.4076C114.157 89.4988 113.975 89.6812 113.975 89.818C113.975 89.9547 113.838 90.0459 113.595 90.0459C113.382 90.0459 113.184 90.1371 113.154 90.2283C113.124 90.3346 113.048 90.6386 112.956 90.8817C112.88 91.1401 112.835 91.4288 112.88 91.5352C112.972 91.8087 113.367 91.7479 113.367 91.444C113.367 91.3072 113.473 91.0489 113.595 90.8969C113.823 90.6082 113.823 90.6082 113.823 90.9273C113.823 91.2768 114.035 91.3832 114.203 91.1097C114.248 91.0337 114.385 91.0033 114.507 91.0641C114.659 91.1097 114.734 91.0337 114.734 90.8209C114.734 90.5474 114.78 90.517 115.023 90.6538C115.266 90.7753 115.327 90.9577 115.312 91.596C115.297 92.2798 115.342 92.4166 115.722 92.7205C115.965 92.9181 116.3 93.0852 116.482 93.1156C116.664 93.146 116.801 93.298 116.832 93.5107C116.892 93.8755 117.227 93.8907 117.257 93.5259C117.257 93.4044 117.318 93.1916 117.379 93.0396C117.455 92.8725 117.424 92.5989 117.303 92.3558C117.029 91.8087 117.044 91.6719 117.364 91.6264C117.515 91.6112 117.622 91.6871 117.622 91.8543C117.622 91.9911 117.728 92.2494 117.85 92.4166C118.047 92.6901 118.063 92.6749 118.078 92.143C118.078 91.8391 118.154 91.5352 118.23 91.4896C118.321 91.444 118.382 91.2616 118.382 91.0793C118.382 90.517 117.728 88.3743 117.591 88.4655C117.5 88.5262 117.5 88.3135 117.561 87.9792C117.652 87.4777 117.637 87.4321 117.394 87.5081C117.212 87.584 117.12 87.5233 117.06 87.3105C116.968 86.961 116.71 86.9002 116.71 87.2345C116.71 87.3561 116.604 87.4625 116.467 87.4625C116.285 87.4625 116.254 87.4017 116.376 87.2649C116.452 87.1585 116.467 86.9458 116.391 86.7786C116.193 86.2771 116.239 86.2164 116.71 86.2771L117.151 86.3379L116.862 85.8668C116.695 85.5933 116.558 85.2134 116.558 85.0158C116.558 84.4383 116.315 84.2104 115.661 84.18C115.145 84.1496 115.038 84.1952 115.038 84.4383Z" fill="black"/>
<path d="M112.303 85.1679C112.303 85.2591 112.379 85.3655 112.455 85.4111C112.561 85.4719 112.592 85.867 112.561 86.3381C112.501 87.1891 112.561 87.2955 112.896 86.9611C113.048 86.8244 113.124 86.8244 113.169 86.9611C113.2 87.0675 113.336 87.0979 113.458 87.0523C113.777 86.9308 113.716 87.3563 113.367 87.6602C113.109 87.8729 113.093 87.9641 113.245 88.2225C113.352 88.3896 113.519 88.5264 113.61 88.5264C113.716 88.5264 113.823 88.6328 113.884 88.7543C114.02 89.1343 114.248 89.0127 114.431 88.4504C114.522 88.1617 114.674 87.9185 114.75 87.9185C114.841 87.9185 114.856 87.9793 114.811 88.0705C114.704 88.2377 115.175 88.2681 115.555 88.1313C115.92 87.9945 115.844 87.5386 115.418 87.3107C115.114 87.1435 115.038 86.9915 115.038 86.5204C115.038 86.0493 114.993 85.943 114.735 85.943C114.567 85.943 114.431 86.0038 114.431 86.0949C114.431 86.1709 114.309 86.2469 114.142 86.2469C113.929 86.2469 113.884 86.1557 113.944 85.867C114.005 85.5479 113.944 85.4871 113.656 85.4871C113.458 85.4719 113.124 85.3807 112.911 85.2591C112.455 85.0008 112.303 84.9856 112.303 85.1679ZM114.689 86.5812C114.643 86.7028 114.598 86.6572 114.598 86.49C114.583 86.3229 114.628 86.2317 114.674 86.2925C114.719 86.3381 114.735 86.4749 114.689 86.5812ZM114.583 87.6906C114.583 87.7666 114.507 87.7362 114.431 87.6146C114.355 87.493 114.279 87.3107 114.279 87.2347C114.279 87.1435 114.355 87.1891 114.431 87.3107C114.507 87.4322 114.583 87.5994 114.583 87.6906ZM114.841 87.645C114.795 87.7666 114.75 87.721 114.75 87.5538C114.735 87.3867 114.78 87.2955 114.826 87.3563C114.871 87.4018 114.887 87.5386 114.841 87.645ZM114.233 87.9489C114.187 88.0705 114.142 88.0249 114.142 87.8577C114.127 87.6906 114.172 87.5994 114.218 87.6602C114.263 87.7058 114.279 87.8426 114.233 87.9489Z" fill="black"/>
<path d="M109.477 86.2463C109.416 86.535 109.249 86.9606 109.081 87.1885C108.914 87.4316 108.838 87.69 108.884 87.766C108.945 87.8572 108.929 87.9027 108.853 87.8875C108.671 87.8268 107.486 89.0425 107.364 89.4224C107.303 89.62 107.334 89.8479 107.425 89.9391C107.547 90.0607 107.592 90.0607 107.592 89.9391C107.592 89.8631 107.942 89.4376 108.352 89.0121C108.777 88.5866 109.112 88.1763 109.112 88.0851C109.112 87.842 109.765 87.2037 110.084 87.1429C110.495 87.0669 110.555 86.763 110.176 86.6566C109.963 86.611 109.872 86.4591 109.872 86.1703C109.872 85.9424 109.932 85.8056 110.024 85.8664C110.115 85.912 110.176 85.8968 110.176 85.8056C110.176 85.7296 110.039 85.6688 109.872 85.684C109.659 85.6992 109.537 85.8512 109.477 86.2463Z" fill="black"/>
<path d="M64.0386 87.9488C63.9778 88.04 64.0082 88.1616 64.0993 88.1919C64.2057 88.2223 64.2817 88.3743 64.2817 88.5415C64.2817 88.7238 64.2057 88.7846 64.0538 88.739C63.9322 88.6782 63.8258 88.7238 63.8258 88.815C63.8258 88.9062 63.9018 88.9822 63.9778 88.9822C64.1753 88.9822 64.1753 89.6356 63.993 89.818C63.8714 89.9548 64.1449 92.0367 64.3577 92.599C64.4945 92.9485 65.0871 93.0701 65.5734 92.8269C66.3636 92.4318 66.5612 92.1735 66.5612 91.52C66.5612 90.8969 65.9533 89.4533 65.5582 89.1189C65.4366 89.0278 65.3455 88.8606 65.3455 88.7694C65.3455 88.5415 64.5552 87.7664 64.3273 87.7664C64.2209 87.7664 64.0993 87.8424 64.0386 87.9488Z" fill="black"/>
<path d="M107.182 91.0793C107.106 91.14 106.939 91.444 106.817 91.7479C106.711 92.067 106.559 92.3254 106.483 92.3254C106.422 92.3254 106.285 92.5229 106.209 92.7661C106.118 93.0092 105.875 93.3284 105.677 93.4651C105.373 93.6627 105.328 93.7539 105.48 93.9362C105.617 94.1186 105.586 94.149 105.252 94.149C105.024 94.149 104.735 94.2554 104.614 94.3769C104.477 94.4985 104.249 94.6049 104.082 94.6049C103.884 94.6049 103.793 94.7113 103.793 94.924C103.793 95.1064 103.52 95.5775 103.185 95.9726C102.684 96.5804 102.471 96.7172 101.893 96.7932C101.529 96.854 101.179 96.9604 101.134 97.0515C101.073 97.1275 100.966 97.1579 100.89 97.1123C100.769 97.0363 100.678 97.5986 100.739 97.9937C100.754 98.0545 100.693 98.2521 100.602 98.4192C100.465 98.6624 100.389 98.6928 100.1 98.5256C99.9179 98.4192 99.6444 98.3584 99.4924 98.3888C99.3556 98.404 99.1885 98.3129 99.1429 98.1913C99.0061 97.857 98.5806 98.1305 98.2919 98.7232C98.0335 99.2247 98.0487 99.7869 98.2919 101.094C98.5046 102.173 98.7022 102.492 99.0821 102.401C99.3404 102.325 99.386 102.386 99.3708 102.826C99.3708 103.115 99.4164 103.662 99.462 104.057C99.5836 104.817 99.5684 104.802 100.723 104.787C101.255 104.787 101.362 104.832 101.362 105.075C101.362 105.425 101.605 105.622 101.741 105.394C101.802 105.303 101.954 105.273 102.106 105.319C102.258 105.364 102.517 105.258 102.699 105.091C102.881 104.908 103.033 104.847 103.033 104.939C103.033 105.015 103.14 105.091 103.261 105.091C103.383 105.091 103.489 105.167 103.489 105.258C103.489 105.364 103.626 105.394 103.808 105.349C104.31 105.212 104.553 105.394 104.553 105.866C104.553 106.397 104.644 106.413 105.48 105.926L106.149 105.562L106.331 105.896C106.498 106.23 106.513 106.23 106.68 105.79C106.772 105.546 106.802 105.227 106.756 105.075C106.696 104.923 106.787 104.543 106.924 104.224C107.106 103.86 107.136 103.647 107.03 103.616C106.741 103.51 107 102.902 107.547 102.386C107.835 102.127 108.124 101.899 108.215 101.899C108.291 101.899 108.322 101.565 108.261 101.094C108.154 100.076 108.398 99.6957 109.157 99.7413C109.978 99.8021 110.024 99.4982 109.279 98.8447C108.762 98.404 108.641 98.2217 108.732 97.9633C108.793 97.7506 108.717 97.4922 108.519 97.2035C108.246 96.8236 108.215 96.702 108.382 96.3525C108.504 96.0638 108.504 95.9118 108.382 95.7902C108.17 95.5775 108.458 95.2735 109.021 95.1216C109.568 94.9848 109.659 94.7872 109.188 94.6657C108.732 94.5593 108.686 94.3009 109.127 94.3009C109.507 94.3009 110.024 94.0426 110.024 93.8298C110.024 93.7539 109.872 93.6171 109.689 93.5411C109.249 93.3436 108.762 93.0396 108.641 92.8877C108.595 92.8269 108.458 92.7813 108.337 92.8117C108.2 92.8421 108.139 92.7509 108.17 92.5533C108.185 92.371 108.048 92.0974 107.82 91.8999C107.623 91.7175 107.486 91.4744 107.531 91.3528C107.623 91.0945 107.425 90.9273 107.182 91.0793Z" fill="black"/>
<path d="M82.1379 93.3892C81.8339 93.8755 82.305 94.5441 84.083 96.2157C84.5997 96.702 84.9492 97.1731 84.9492 97.3859C84.9492 97.4922 85.2532 97.7962 85.6331 98.0697C86.013 98.3281 86.3017 98.6016 86.2865 98.6624C86.2106 98.9815 86.8032 100.516 87.0464 100.608C87.4719 100.744 88.5964 102.765 88.6876 103.525C88.718 103.89 89.1739 104.559 89.8578 105.243C90.0857 105.47 90.2681 105.714 90.2681 105.79C90.2681 105.85 90.8759 106.504 91.6206 107.233C92.9579 108.555 92.9883 108.571 93.4594 108.403C93.8393 108.282 93.9912 108.282 94.1584 108.464C94.3408 108.647 94.356 108.768 94.204 109.087C94.0064 109.513 93.7633 109.634 93.7633 109.315C93.7633 109.087 93.5657 109.3 93.5201 109.574C93.4898 109.741 93.6417 109.802 94.0672 109.802C94.5839 109.802 95.131 110.136 95.0094 110.394C94.9942 110.44 95.2222 110.531 95.5413 110.607C95.8604 110.668 96.2555 110.774 96.4227 110.85C96.9546 111.093 97.2281 111.154 97.3193 111.048C97.5017 110.865 98.687 111.048 99.2493 111.321C99.8267 111.625 102.106 111.975 102.501 111.838C102.623 111.777 102.729 111.823 102.729 111.929C102.729 112.02 102.82 112.081 102.927 112.035C103.018 112.005 103.322 112.066 103.596 112.187C104.264 112.461 104.431 112.446 104.325 112.096C104.249 111.853 104.295 111.823 104.553 111.883C104.735 111.929 104.857 112.096 104.857 112.294C104.872 112.613 104.872 112.613 105.085 112.324C105.206 112.157 105.313 112.096 105.313 112.203C105.313 112.294 105.571 112.415 105.89 112.461C106.194 112.522 106.604 112.613 106.772 112.689C106.984 112.765 107.379 112.75 107.835 112.613C108.246 112.507 108.489 112.4 108.367 112.4C108.246 112.385 108.2 112.339 108.246 112.294C108.306 112.233 108.428 112.248 108.534 112.339C108.838 112.567 109.37 112.537 109.583 112.294C109.72 112.127 109.811 112.127 109.963 112.248C110.312 112.537 112.44 112.552 113.367 112.279C113.823 112.142 114.294 112.051 114.4 112.066C114.522 112.081 114.689 112.035 114.795 111.944C114.887 111.868 115.069 111.853 115.175 111.914C115.373 112.035 116.345 111.899 116.513 111.716C116.756 111.473 116.361 111.428 114.963 111.519C114.552 111.549 114.157 111.488 114.081 111.412C114.005 111.306 113.853 111.397 113.656 111.671C113.489 111.899 113.276 112.035 113.185 111.99C112.987 111.868 112.106 111.747 111.194 111.716C110.692 111.716 110.419 111.777 110.328 111.929C110.221 112.096 110.176 112.111 110.176 111.959C110.176 111.823 110.069 111.792 109.887 111.853C109.72 111.899 109.553 111.868 109.492 111.777C109.446 111.701 109.477 111.625 109.568 111.625C109.659 111.625 109.689 111.549 109.629 111.458C109.553 111.336 109.507 111.336 109.431 111.458C109.309 111.64 108.747 111.61 108.565 111.428C108.367 111.23 107.729 111.321 107.638 111.564C107.592 111.686 107.471 111.762 107.349 111.716C107.243 111.671 107.136 111.716 107.091 111.823C107.06 111.944 106.954 111.914 106.772 111.731C106.437 111.397 106.194 111.458 105.997 111.899C105.921 112.081 105.769 112.233 105.662 112.233C105.419 112.233 105.404 111.99 105.632 111.853C105.86 111.701 105.206 111.276 104.933 111.382C104.614 111.504 104.249 111.336 104.249 111.078C104.249 110.85 104.219 110.835 103.185 110.804C102.684 110.789 102.501 110.729 102.456 110.531C102.425 110.333 102.486 110.288 102.714 110.333C103.14 110.409 103.975 110.121 103.899 109.908C103.869 109.817 103.428 109.771 102.775 109.786C102.045 109.817 101.544 109.741 101.24 109.589C100.997 109.467 100.754 109.406 100.693 109.452C100.647 109.513 100.511 109.422 100.389 109.27C100.191 108.996 100.176 109.011 99.9331 109.391C99.7356 109.68 99.5684 109.771 99.2645 109.726C99.0365 109.71 98.5806 109.68 98.2463 109.665C97.7752 109.65 97.5928 109.574 97.4865 109.315C97.3953 109.133 97.1825 108.966 96.985 108.935C96.7874 108.905 96.4227 108.783 96.1492 108.647C95.8604 108.479 95.6629 108.449 95.6173 108.555C95.5869 108.662 95.4045 108.662 95.1006 108.571C94.8423 108.51 94.5687 108.479 94.4927 108.525C94.4167 108.586 94.3864 108.403 94.4471 108.099C94.4927 107.826 94.5535 107.081 94.5991 106.458C94.6751 104.908 94.7815 104.604 95.1462 104.802C95.4805 104.969 96.0428 104.741 96.0428 104.437C96.0428 104.316 95.9972 104.316 95.906 104.468C95.8148 104.604 95.7389 104.619 95.6781 104.498C95.6173 104.407 95.6021 104.27 95.6477 104.194C95.6933 104.118 95.6021 104.027 95.4349 103.981C95.131 103.905 95.0702 103.814 94.9182 103.069C94.7967 102.568 94.5079 102.553 94.0064 103.009C93.5961 103.389 93.6265 103.571 94.0976 103.571C94.2496 103.571 94.3712 103.647 94.3712 103.738C94.3712 103.844 94.2344 103.875 94.0368 103.814C93.8393 103.768 93.6417 103.723 93.5809 103.723C93.5049 103.723 93.4594 103.647 93.4594 103.556C93.4594 103.465 93.353 103.297 93.2314 103.176C93.1098 103.039 93.0035 102.735 93.0035 102.492C93.0035 102.127 92.9427 102.051 92.6539 102.051C92.4564 102.051 92.1676 101.96 92.0157 101.838C91.7573 101.656 91.7421 101.595 91.9397 101.367C92.2436 101.003 92.2892 100.456 92.0309 100.243C91.9093 100.136 91.8485 99.9389 91.8941 99.8173C91.9701 99.635 91.9245 99.5894 91.7421 99.6654C91.575 99.7262 91.4838 99.6806 91.4838 99.5438C91.4838 99.4222 91.3166 99.2855 91.1039 99.2247C90.8911 99.1791 90.724 99.0423 90.724 98.9207C90.724 98.7232 90.648 98.6776 90.1161 98.6472C89.9945 98.632 89.8881 98.4952 89.8881 98.3281C89.8881 98.1457 89.7666 98.0089 89.5842 97.9785C89.4171 97.9481 89.2043 97.857 89.1131 97.781C89.0371 97.7202 88.8244 97.6898 88.642 97.7354C88.4141 97.7962 88.2925 97.7354 88.2165 97.5074C88.1709 97.3251 88.0494 97.1883 87.9734 97.1883C87.8974 97.1883 87.8366 97.1123 87.8366 97.0212C87.8366 96.8236 87.6087 96.5956 86.9248 96.1246C86.6361 95.927 86.3017 95.6687 86.1954 95.5623C86.089 95.4559 85.9218 95.3647 85.8458 95.3647C85.7699 95.3647 85.7091 95.2583 85.7091 95.1368C85.7091 95 85.6331 94.8176 85.5571 94.7113C85.4659 94.6049 85.2684 94.3617 85.1012 94.1642C84.8581 93.8755 84.6605 93.8147 84.0526 93.8147C83.5208 93.8147 83.1864 93.7235 82.9585 93.5259C82.5938 93.2068 82.2746 93.1612 82.1379 93.3892ZM108.352 112.02C108.352 112.051 108.246 112.081 108.124 112.081C108.003 112.081 107.896 112.02 107.896 111.929C107.896 111.853 108.003 111.823 108.124 111.868C108.246 111.929 108.352 111.99 108.352 112.02Z" fill="black"/>
<path d="M55.9235 95.6535C55.9235 95.9118 55.9843 96.1398 56.0755 96.2005C56.1515 96.2461 56.1819 96.3829 56.1363 96.4893C56.0907 96.6109 56.1211 96.7476 56.2123 96.8084C56.3034 96.854 56.3794 96.9908 56.3794 97.082C56.3794 97.1883 56.3186 97.1731 56.2123 97.0364C56.0755 96.854 56.0603 96.854 56.1363 97.082C56.1819 97.2339 56.2275 97.4923 56.2275 97.6594C56.2275 98.0089 56.577 98.0393 56.8353 97.705C57.0025 97.5075 56.9873 97.4619 56.7137 97.3859C56.5314 97.3403 56.425 97.2339 56.4706 97.1579C56.6226 96.9148 56.3794 95.9574 56.1971 96.0638C56.0907 96.1398 56.0603 96.003 56.1059 95.6839C56.1363 95.4255 56.1211 95.2128 56.0451 95.2128C55.9843 95.2128 55.9235 95.4103 55.9235 95.6535ZM56.6834 97.6442C56.6834 97.7202 56.6226 97.7962 56.5314 97.7962C56.4554 97.7962 56.3794 97.7202 56.3794 97.6442C56.3794 97.553 56.4554 97.4923 56.5314 97.4923C56.6226 97.4923 56.6834 97.553 56.6834 97.6442Z" fill="black"/>
<path d="M119.901 98.1915C119.78 98.4043 119.689 98.845 119.674 99.1793C119.674 99.4985 119.613 99.772 119.522 99.772C119.446 99.772 119.476 99.848 119.598 99.9392C119.749 100.046 119.765 100.122 119.658 100.167C119.552 100.213 119.522 100.395 119.567 100.562C119.643 100.881 119.658 100.881 119.765 100.593C119.856 100.349 119.886 100.38 119.886 100.745C119.901 101.109 119.856 101.155 119.598 101.094C119.233 101.003 119.081 101.185 119.218 101.58C119.324 101.96 120.205 102.112 120.205 101.763C120.221 101.565 120.236 101.565 120.373 101.793C120.676 102.31 120.768 101.9 120.494 101.322C120.099 100.532 120.221 100.198 120.828 100.41C121.436 100.623 121.512 100.501 121.056 100.061C120.692 99.7112 120.692 99.696 120.98 99.4985C121.254 99.3009 121.391 98.5563 121.148 98.5563C121.087 98.5563 120.874 98.6626 120.692 98.7994C120.357 99.0274 120.357 99.0122 120.357 98.4195C120.357 97.7053 120.19 97.6293 119.901 98.1915Z" fill="black"/>
<path d="M116.193 99.0123C115.844 99.377 115.51 99.605 115.358 99.5594C115.221 99.5138 114.583 99.4378 113.944 99.377C113.291 99.3314 112.759 99.2251 112.759 99.1643C112.759 99.0123 112.212 98.8755 112.045 98.9971C111.969 99.0427 111.862 99.2099 111.802 99.3618C111.741 99.5138 111.619 99.5898 111.543 99.5442C111.331 99.4074 110.783 100.03 110.783 100.41C110.783 100.562 110.723 100.684 110.662 100.684C110.586 100.684 110.556 100.881 110.601 101.125C110.632 101.383 110.556 101.717 110.419 101.93C110.282 102.112 110.176 102.492 110.176 102.751C110.176 103.267 109.78 104.179 109.553 104.179C109.477 104.179 109.431 104.362 109.477 104.589C109.507 104.833 109.553 105.121 109.553 105.258C109.568 105.425 109.674 105.486 109.917 105.44C110.221 105.38 110.267 105.44 110.297 105.942C110.328 106.261 110.267 106.854 110.16 107.264C109.948 108.145 110.069 108.313 110.799 108.191C111.285 108.1 111.331 108.054 111.346 107.553C111.376 105.167 111.467 104.483 111.741 104.392C112.151 104.255 112.242 104.438 112.03 104.969C111.862 105.41 111.893 105.486 112.288 105.836C112.607 106.14 112.683 106.307 112.607 106.535C112.485 106.854 112.683 107.218 112.972 107.218C113.063 107.218 113.261 107.082 113.412 106.915C113.549 106.747 113.747 106.611 113.838 106.611C113.96 106.611 113.944 106.702 113.792 106.869C113.412 107.31 113.367 107.781 113.686 108.069C113.96 108.313 113.99 108.313 114.279 108.054C114.461 107.887 114.552 107.674 114.507 107.507C114.461 107.37 114.476 107.203 114.537 107.173C114.598 107.127 114.659 106.839 114.659 106.504C114.643 106.033 114.598 105.942 114.37 105.972C114.036 106.033 113.686 105.592 113.777 105.228C113.823 105.076 113.64 104.605 113.382 104.164C113.002 103.556 112.941 103.343 113.078 103.176C113.169 103.055 113.352 102.963 113.458 102.963C113.564 102.963 113.823 102.751 114.005 102.492C114.264 102.143 114.431 102.052 114.689 102.128C114.963 102.188 115.039 102.143 115.039 101.9C115.039 101.489 114.659 101.353 114.188 101.596C113.99 101.702 113.58 101.808 113.276 101.808C112.896 101.824 112.637 101.945 112.44 102.188C112.166 102.523 111.695 102.538 111.695 102.204C111.695 102.128 111.559 101.915 111.376 101.733C111.133 101.489 111.072 101.307 111.148 100.942C111.3 100.167 111.437 100.122 113.367 100.258C115.95 100.426 116.406 100.41 116.406 100.061C116.406 99.9697 116.573 99.681 116.786 99.4074C117.014 99.1035 117.136 98.7995 117.075 98.6476C116.938 98.2981 116.862 98.3285 116.193 99.0123Z" fill="black"/>
<path d="M120.889 104.453C120.646 104.483 120.388 104.589 120.327 104.68C120.236 104.817 120.205 104.817 120.205 104.68C120.205 104.544 120.099 104.574 119.901 104.741C119.537 105.045 119.506 105.319 119.825 105.182C119.993 105.121 120.053 105.197 120.053 105.455C120.053 105.805 120.084 105.82 120.585 105.653C120.874 105.562 121.117 105.395 121.117 105.288C121.117 105.121 121.178 105.121 121.421 105.243C121.603 105.334 121.862 105.364 122.014 105.319C122.181 105.273 122.53 105.364 122.819 105.547C123.457 105.942 123.549 105.927 123.549 105.501C123.549 104.726 122.409 104.285 120.889 104.453Z" fill="black"/>
<path d="M118.519 111.686C118.488 111.716 118.047 111.792 117.546 111.853C116.908 111.914 116.558 112.035 116.406 112.233C116.285 112.4 115.859 112.659 115.464 112.841C115.023 113.038 114.719 113.282 114.643 113.494C114.598 113.677 114.446 113.935 114.324 114.087C114.157 114.269 114.157 114.361 114.279 114.437C114.598 114.634 115.601 114.178 116.148 113.616C116.452 113.297 116.968 112.962 117.348 112.841C118.199 112.567 119.172 111.959 119.066 111.777C118.974 111.625 118.64 111.58 118.519 111.686Z" fill="black"/>
</svg>
