<svg width="159" height="107" viewBox="0 0 159 107" fill="none" xmlns="http://www.w3.org/2000/svg">
<path d="M123.296 0.264025C123.179 0.41077 122.562 0.616212 121.858 0.733608C120.625 0.93905 118.131 1.99561 117.808 2.4652C117.69 2.61194 117.455 2.61194 117.279 2.52389C117.103 2.4065 116.957 2.4652 116.957 2.61194C116.957 2.78803 117.133 2.96413 117.338 2.96413C117.514 2.99348 118.013 3.05217 118.365 3.08152C118.776 3.11087 119.334 2.87608 119.657 2.52389C120.009 2.20105 120.185 2.05431 120.097 2.2304C119.979 2.43585 120.185 2.64129 120.566 2.75868C121.476 2.99348 121.711 2.96413 121.506 2.64129C121.418 2.4652 121.535 2.43585 121.77 2.52389C122.034 2.61194 122.151 2.84673 122.034 3.02282C121.917 3.22827 122.621 3.25762 124.323 3.14022C125.791 3.05217 126.554 3.08152 126.201 3.22827C125.732 3.43371 125.879 3.49241 126.818 3.49241C127.669 3.52176 128.109 3.37501 128.227 3.08152C128.315 2.84673 128.637 2.64129 128.96 2.64129C129.723 2.64129 130.457 2.3478 130.457 2.02496C130.457 1.87822 130.193 1.76082 129.899 1.76082C129.577 1.76082 129.283 1.64342 129.224 1.46733C129.136 1.23254 127.229 0.93905 125.35 0.880352C124.91 0.880352 124.881 0.792306 125.174 0.440119C125.497 0.0585823 125.38 -0.000115395 124.499 -0.000115395C123.912 -0.000115395 123.384 0.11728 123.296 0.264025ZM126.788 1.76082C126.495 2.08366 125.908 2.3478 125.497 2.31845L124.734 2.2891L125.468 2.05431C125.879 1.93691 125.996 1.79017 125.761 1.76082C125.526 1.73147 125.644 1.58473 126.055 1.46733C127.229 1.0858 127.346 1.14449 126.788 1.76082ZM119.304 2.17171C119.304 2.25975 119.187 2.4065 119.011 2.49454C118.864 2.58259 118.717 2.52389 118.717 2.37715C118.717 2.20105 118.864 2.05431 119.011 2.05431C119.187 2.05431 119.304 2.11301 119.304 2.17171Z" fill="black"/>
<path d="M113.2 1.58445C112.672 1.76055 112.32 2.02469 112.437 2.14208C112.554 2.25948 112.496 2.34753 112.32 2.34753C112.114 2.34753 111.967 2.20078 111.967 2.05404C111.967 1.70185 109.854 1.70185 107.712 2.05404C106.244 2.25948 106.655 2.43557 108.651 2.43557C109.179 2.43557 109.531 2.55297 109.443 2.69971C109.355 2.81711 109.326 2.93451 109.385 2.96385C110.94 3.228 112.877 3.228 112.731 2.96385C112.584 2.75841 112.789 2.64102 113.2 2.64102C113.67 2.64102 113.758 2.72906 113.494 2.90516C113.024 3.1693 114.374 3.52148 115.9 3.52148C116.605 3.52148 116.722 3.43344 116.37 3.228C116.135 3.0519 115.548 3.02255 115.049 3.1106C114.257 3.28669 114.227 3.25734 114.58 2.81711C114.785 2.55297 115.225 2.34753 115.548 2.34753C115.842 2.34753 116.018 2.20078 115.93 2.05404C115.842 1.87794 115.489 1.76055 115.166 1.76055C114.873 1.76055 114.609 1.6138 114.609 1.46706C114.609 1.11487 114.433 1.11487 113.2 1.58445Z" fill="black"/>
<path d="M69.4113 2.87606C69.1472 3.16955 68.6776 3.22825 67.8852 3.11085C67.0047 2.96411 66.7112 3.02281 66.5645 3.40434C66.4764 3.66848 66.5645 3.99132 66.7992 4.13806C67.034 4.28481 67.0634 4.4022 66.8873 4.4022C66.7112 4.4022 66.3884 4.19676 66.1536 3.93262C65.9481 3.66848 65.5079 3.52174 65.097 3.60978C64.7155 3.66848 64.3633 3.63913 64.2752 3.52174C64.2165 3.40434 63.3948 3.37499 62.4556 3.40434C61.5164 3.46304 60.4012 3.49239 59.9609 3.52174C59.3153 3.52174 59.1979 3.63913 59.3446 4.02067C59.462 4.31416 59.8729 4.87179 60.2838 5.25332L61.0469 5.9577L60.2544 5.48812C59.7849 5.19463 59.4033 5.10658 59.2859 5.28267C59.1979 5.42942 59.6675 5.81095 60.3718 6.16314C61.8393 6.86752 61.9567 6.89686 61.4871 6.30989C60.7827 5.45877 62.9839 6.83817 63.7763 7.68929C64.1578 8.15887 64.6861 8.51106 64.9503 8.51106C65.2438 8.54041 65.9775 8.7752 66.6232 9.09803C68.3547 9.94915 69.0298 9.86111 69.2646 8.80455C69.382 8.30561 69.6461 7.92408 69.8515 7.92408C70.2918 7.92408 71.994 6.45663 71.5831 6.45663C71.4364 6.45663 71.5538 6.30989 71.8473 6.13379C72.4342 5.78161 73.3734 6.0164 74.3419 6.77947C74.9583 7.24905 74.9876 7.30775 74.4887 7.60124C73.9017 7.95343 74.1071 8.01212 75.4572 7.92408C75.9855 7.89473 76.4844 8.01212 76.6018 8.18822C76.8072 8.54041 78.1573 8.33496 78.6562 7.89473C78.803 7.74798 79.1551 7.63059 79.478 7.63059C79.7715 7.63059 79.9182 7.48384 79.8302 7.3371C79.7421 7.16101 79.2725 7.04361 78.803 7.04361C78.3334 7.04361 77.9225 6.83817 77.8051 6.57403C77.6877 6.25119 77.3942 6.13379 76.8953 6.22184C76.4844 6.30989 76.1616 6.25119 76.1616 6.13379C76.1616 5.72291 73.4908 4.637 72.9919 4.84244C72.6103 4.98918 72.581 4.93049 72.8451 4.66635C73.0799 4.43155 73.7549 4.4022 75.0463 4.5196C78.1866 4.87179 80.8867 4.69569 81.0922 4.10872C81.1509 3.93262 81.4444 3.81523 81.7379 3.81523C82.5009 3.81523 82.7357 3.31629 82.1194 2.99346C81.2683 2.55322 77.6877 2.37713 77.4823 2.75866C77.3942 2.99346 77.2768 2.96411 77.1594 2.69997C76.8953 2.17169 75.5746 2.25973 75.5746 2.81736C75.5746 3.1989 75.4865 3.22825 75.1343 2.93476C74.518 2.40648 69.9102 2.37713 69.4113 2.87606ZM71.994 4.34351C72.0821 4.60765 71.9353 4.72504 71.5831 4.637C71.319 4.60765 71.0255 4.37286 70.9374 4.16741C70.8494 3.90327 70.9961 3.78588 71.3483 3.87392C71.6125 3.90327 71.906 4.13806 71.994 4.34351ZM66.1829 6.30989C66.1829 6.39793 65.9481 6.45663 65.6546 6.45663C65.3612 6.45663 65.097 6.25119 65.097 6.04575C65.097 5.72291 65.2438 5.66421 65.6546 5.899C65.9481 6.04575 66.1829 6.25119 66.1829 6.30989ZM64.1285 7.04361C64.1285 7.19035 64.0111 7.3371 63.835 7.3371C63.6883 7.3371 63.5415 7.19035 63.5415 7.04361C63.5415 6.86752 63.6883 6.75012 63.835 6.75012C64.0111 6.75012 64.1285 6.86752 64.1285 7.04361Z" fill="black"/>
<path d="M141.933 8.71675C141.522 8.8048 140.905 9.06894 140.524 9.30373C140.054 9.62657 138.616 9.83201 136.151 10.0081C132.629 10.2429 131.367 10.4483 131.044 10.8299C130.721 11.2408 128.52 12.1212 128.021 12.0625C127.64 12.0038 127.493 12.1506 127.552 12.5321C127.698 13.4713 127.229 14.2637 126.26 14.7333L125.321 15.2029L126.055 15.4964C126.495 15.7018 126.613 15.8192 126.319 15.8192C126.055 15.8485 125.468 16.1714 124.998 16.5823C124.323 17.1399 124.265 17.316 124.675 17.316C125.409 17.316 125.292 17.8736 124.441 18.1965C124.03 18.3432 123.707 18.666 123.707 18.9008C123.707 19.5172 124.499 20.0454 125.174 19.8693C125.497 19.7813 125.703 19.84 125.585 19.9867C125.497 20.1335 125.791 20.3976 126.231 20.5444C126.847 20.7792 127.082 20.7792 127.288 20.4857C127.464 20.1922 127.522 20.2215 127.522 20.5737C127.522 21.2194 128.139 21.4248 130.457 21.6303C133.979 21.8944 134.361 21.8944 134.507 21.4542C134.595 21.1607 134.507 21.102 134.155 21.2194C133.891 21.3368 133.715 21.3074 133.803 21.1607C133.891 21.0433 133.421 20.7498 132.805 20.5444C132.159 20.3389 131.631 20.0748 131.631 19.9867C131.631 19.8693 131.279 19.5759 130.809 19.3117C130.017 18.8421 129.518 17.316 130.164 17.316C130.34 17.316 130.457 17.1692 130.457 17.0225C130.457 16.6116 133.539 13.5006 133.95 13.5006C134.126 13.5006 134.507 13.2658 134.801 12.9723C135.476 12.2973 136.738 11.9158 140.583 11.1527C145.689 10.1255 146.717 9.47982 144.31 8.8048C143.195 8.51131 143.107 8.51131 141.933 8.71675ZM126.847 15.1442C126.759 15.2322 126.495 15.2616 126.29 15.1735C126.055 15.0855 126.143 14.9974 126.466 14.9974C126.789 14.9681 126.965 15.0561 126.847 15.1442Z" fill="black"/>
<path d="M83.0587 20.5734C82.9413 20.7495 82.6478 20.8082 82.3836 20.6908C82.1488 20.6027 81.6206 20.8082 81.2097 21.1897C80.7988 21.5712 80.564 21.6886 80.6814 21.4832C80.8281 21.2484 80.6227 21.131 79.9183 21.131C78.6563 21.131 77.5998 21.4245 77.7758 21.718C77.9519 22.0115 76.5138 22.4223 75.604 22.3343C75.1051 22.2756 74.9877 22.3636 75.1344 22.6571C75.3105 22.9506 75.2812 22.98 74.9584 22.6571C74.254 22.0115 72.3463 22.3049 72.3463 23.068C72.3463 23.5083 72.3169 23.5083 71.2604 23.6256C70.0571 23.743 69.6462 24.0365 69.7929 24.6529C69.881 24.9757 69.7929 25.3279 69.6462 25.4453C69.4408 25.5627 69.4114 25.4746 69.5581 25.2398C69.7342 24.9464 69.6168 24.917 68.9712 25.0638C68.2374 25.2398 68.1787 25.2105 68.5016 24.829C69.0592 24.1833 68.5016 24.2126 66.9461 24.9757C65.9776 25.4159 65.6841 25.7094 65.8015 26.0323C65.9189 26.3551 65.8602 26.4431 65.6547 26.2964C65.2439 26.0616 63.2481 26.854 63.2481 27.2649C63.2481 27.6758 63.3655 27.6758 64.5688 27.1769C65.1265 26.9421 65.596 26.7953 65.596 26.854C65.596 26.9127 66.0069 26.854 66.4765 26.7073C67.0048 26.5605 67.357 26.5605 67.357 26.7366C67.357 26.8834 67.1515 27.0008 66.9167 27.0008C66.6819 27.0008 66.4765 27.2649 66.4765 27.5584C66.4765 27.8812 65.8895 28.5563 65.0091 29.1726C64.2166 29.7596 63.5416 30.3466 63.5416 30.4933C63.5416 30.64 63.2775 30.8161 62.9546 30.9042C62.5438 30.9922 62.3677 31.3151 62.3677 31.814C62.3677 32.8119 61.3991 33.751 60.4013 33.751C59.7263 33.751 59.6676 33.8097 60.0197 34.0739C60.3719 34.338 60.4013 34.3967 60.0491 34.5435C59.8436 34.6315 59.1393 35.2185 58.5229 35.8348C57.4957 36.862 57.3196 36.9501 56.762 36.6272C56.2631 36.3044 56.1163 36.3337 55.8228 36.7153C55.6174 36.9794 55.2946 37.1262 55.0598 37.0381C54.7663 36.9501 54.7076 37.0381 54.825 37.361C54.9424 37.6838 54.7663 37.8599 54.1206 38.0066C53.651 38.124 53.2695 38.3295 53.2695 38.4762C53.2695 38.623 52.9466 38.799 52.5358 38.9165C52.1249 39.0045 51.802 39.2099 51.802 39.386C51.802 39.5328 51.6846 39.5915 51.5672 39.5034C51.4205 39.4154 50.9216 39.5915 50.4226 39.9143C49.5422 40.4426 49.5128 40.5306 49.4835 42.6731C49.4541 44.5221 49.5422 44.8449 49.8944 44.7275C50.3639 44.5514 50.5107 45.0504 50.0998 45.3145C49.7476 45.52 49.7183 47.2515 50.0705 47.2515C50.2172 47.2515 50.3346 47.5157 50.3346 47.8385C50.3346 48.1907 50.7748 48.6896 51.5085 49.1592C53.0347 50.1277 54.6195 50.1277 55.9402 49.1592C56.4979 48.7777 57.4957 48.1614 58.2001 47.8092C58.8751 47.457 59.4328 46.9581 59.4621 46.6939C59.4621 46.3124 59.5208 46.283 59.6382 46.6646C59.7263 46.8994 59.9904 47.2222 60.1958 47.3396C60.4306 47.457 60.6067 47.9266 60.6067 48.3668C60.6067 48.807 60.8709 49.4821 61.1937 49.8929C61.5165 50.3038 61.7807 50.7441 61.7807 50.8615C61.7807 51.0082 62.2503 51.5952 62.8079 52.1822C63.3655 52.7691 63.6884 53.2974 63.5416 53.3561C63.3655 53.4148 63.2481 53.6496 63.2481 53.8844C63.2481 54.1192 63.1601 54.2659 63.0427 54.2659C62.5731 54.1779 60.9002 54.6768 60.9002 54.8823C60.9002 55.1758 59.1686 55.5866 58.9338 55.3812C58.8751 55.2931 58.9338 54.9703 59.1099 54.6768C59.4034 54.1779 59.4034 54.1779 59.4328 54.6768C59.4328 54.9703 59.5795 55.1171 59.7263 55.029C59.9023 54.9116 59.961 54.7355 59.873 54.5888C59.785 54.442 59.8436 54.2659 60.0197 54.1485C60.548 53.8257 60.3426 53.1213 59.7263 53.1213C59.1393 53.1213 58.9045 52.417 59.4034 52.0941C59.7556 51.8887 59.7263 50.1864 59.3741 50.1864C59.2567 50.1864 59.1393 50.3038 59.1393 50.4799C59.1393 50.6267 58.9632 50.7734 58.7284 50.7734C58.5229 50.7734 58.1708 50.9789 57.9653 51.2136C57.7599 51.4484 57.2316 51.6539 56.762 51.6539C55.1772 51.6539 54.0913 54.7942 55.2652 55.9975C55.6761 56.4671 55.7054 56.8486 55.3239 57.0834C55.1772 57.1715 55.1185 57.4356 55.2359 57.6998C55.3533 58.0226 55.5 58.0519 55.7935 57.7878C56.1163 57.5237 56.2044 57.553 56.2044 57.9346C56.2044 58.1987 56.0576 58.4041 55.8815 58.4041C55.6468 58.4041 55.6468 58.5509 55.9109 58.8444C56.5566 59.6074 55.7641 60.1944 54.4141 59.989C53.651 59.8422 53.064 59.9303 52.6238 60.2238C52.2129 60.4879 51.5672 60.6053 51.039 60.5466C49.6596 60.3412 48.3976 61.1042 48.1628 62.3075C47.8693 63.863 45.9323 65.624 43.7311 66.3577C42.4397 66.7686 42.2343 66.9447 42.0288 67.8838C41.7941 68.823 41.618 68.9991 40.6201 69.2632C39.9744 69.4393 39.2994 69.8502 39.094 70.1437C38.6831 70.8187 37.6559 70.9068 37.0689 70.3492C36.8634 70.1144 36.3058 69.8502 35.8362 69.7328C35.0731 69.5567 35.0144 69.5861 35.2199 70.2024C35.8362 72.1981 35.7775 72.3449 34.5742 72.3449C33.9579 72.3449 33.3122 72.2275 33.1068 72.1101C32.7252 71.8753 30.4947 72.1394 29.7903 72.521C29.2327 72.7851 29.174 74.2526 29.7023 74.2526C29.9077 74.2526 30.0838 74.37 30.0838 74.5461C30.0838 74.6928 30.2599 74.7515 30.4654 74.6634C31.1404 74.3993 32.4317 75.0743 32.2556 75.5733C32.1676 75.8081 32.2263 76.0135 32.4317 76.0135C32.6078 76.0135 32.6665 75.8668 32.5785 75.72C32.2556 75.1917 33.3122 75.4265 33.9579 76.0135C34.3394 76.3363 34.4275 76.6005 34.222 76.6005C33.9579 76.6005 33.9872 76.7472 34.3101 77.0701C34.5742 77.3049 34.7797 77.657 34.7797 77.8038C34.7797 77.9505 34.9851 78.0679 35.2492 78.0679C35.484 78.0679 35.6014 78.1853 35.5134 78.3614C35.4253 78.5082 35.4547 78.6549 35.6014 78.6549C35.7482 78.6549 35.8656 78.831 35.8656 79.0071C35.8656 79.2125 35.9243 79.506 35.983 79.6821C36.1004 80.093 35.6895 83.0279 35.3373 84.1725C34.9851 85.2291 34.1633 85.816 33.3122 85.5519C32.8133 85.4052 28.8805 85.1117 25.1826 84.9943C24.3314 84.9649 23.5684 84.8475 23.451 84.7301C23.0401 84.3192 21.9542 84.5247 21.4259 85.1117C21.1324 85.4345 20.6628 85.6986 20.3987 85.6986C19.5769 85.6986 19.166 86.403 19.4889 87.2541C19.6356 87.6357 19.8117 88.8683 19.841 89.9836C19.9291 92.1261 19.2541 94.5914 18.3736 95.2958C18.1388 95.5012 18.0214 95.6773 18.1095 95.6773C18.2269 95.6773 18.1975 96.0588 18.0508 96.5578C17.904 97.086 17.904 97.4382 18.0801 97.4382C18.2269 97.4382 18.3443 97.6437 18.3443 97.8785C18.3443 98.1132 18.5203 98.2893 18.7258 98.2306C19.1073 98.1719 19.166 99.6687 18.8138 100.96C18.6084 101.664 18.6671 101.694 19.8704 101.664C20.5748 101.664 21.4259 101.547 21.8074 101.43C22.864 101.077 23.6271 101.518 24.126 102.75C24.6249 104.042 25.7402 104.57 26.3565 103.807C27.0022 103.015 28.7338 102.457 30.5241 102.428C31.4926 102.428 32.5198 102.428 32.8133 102.398C33.0774 102.398 33.5177 101.987 33.7524 101.518C34.0753 100.931 34.5155 100.579 35.1025 100.461C35.7775 100.344 36.1004 100.021 36.4525 99.1698C36.6873 98.5241 37.0689 98.0252 37.2743 98.0252C37.4798 98.0252 37.8026 97.8198 38.008 97.585C38.3309 97.2034 38.3015 97.0567 37.9493 96.7632C37.245 96.2056 37.1569 95.5305 37.6559 94.7381C38.7124 93.1826 40.5027 91.2749 40.9136 91.2749C41.1484 91.2749 42.0288 90.9228 42.88 90.4825C44.4648 89.6901 45.3453 88.5161 44.7583 87.9292C44.6115 87.7824 44.4648 87.3422 44.4648 86.99C44.4648 85.5519 47.5758 85.0236 49.3661 86.1682C50.3346 86.7846 51.0096 86.6672 52.0662 85.728C52.6238 85.2291 53.4162 84.7595 53.8858 84.6714C54.3554 84.554 54.8837 84.2312 55.0304 83.9377C55.1772 83.6442 55.5 83.3507 55.7348 83.2627C56.3511 83.0279 58.8458 84.1725 58.8458 84.7008C58.8458 84.9356 59.0219 85.3758 59.2273 85.728C59.5208 86.2269 59.4915 86.3737 59.0512 86.7259C58.6697 86.99 58.611 87.1661 58.8751 87.3128C59.0512 87.4302 59.3154 87.3715 59.4328 87.1367C59.6382 86.8433 59.7556 86.8433 60.1371 87.1367C60.4013 87.3715 60.6067 87.7237 60.6067 87.9292C60.6067 88.164 60.8709 88.3401 61.1937 88.3401C61.5165 88.3401 61.7807 88.4281 61.7807 88.5748C61.7807 89.0151 64.7156 91.0989 65.3906 91.1282C65.7721 91.1282 66.4178 91.4804 66.8287 91.9206C67.2396 92.3902 67.7972 92.7424 68.0613 92.7424C68.3255 92.7424 68.5309 92.9478 68.5309 93.212C68.5309 93.4761 68.9125 93.8283 69.4114 94.0044C70.0571 94.2392 70.3799 94.6501 70.7321 95.6773C71.0256 96.4991 71.0843 97.0273 70.8788 97.086C70.7321 97.1447 70.5854 97.4382 70.5854 97.7024C70.5854 98.3774 67.8853 98.9937 65.7721 98.7883C64.0405 98.6415 63.5416 98.7883 63.5416 99.4926C63.5416 99.9916 66.183 101.547 67.0048 101.547C67.1809 101.547 67.445 101.723 67.5624 101.929C67.6798 102.163 68.0907 102.398 68.4722 102.516C69.206 102.692 69.8223 101.899 69.5288 101.136C69.4408 100.872 69.4408 100.314 69.5288 99.9035C69.6755 99.3166 69.8516 99.1992 70.3212 99.3459C71.0549 99.5807 72.3463 98.4948 72.3463 97.6437C72.3463 97.3502 72.6104 97.0273 72.9333 96.9393C73.755 96.7338 73.6963 95.6186 72.7865 95.0903C72.1409 94.6794 72.1115 94.562 72.4343 93.9164C72.7278 93.3294 72.992 93.212 73.667 93.2707C74.1659 93.3294 74.6062 93.5055 74.6355 93.6522C74.6942 93.799 74.9584 94.1511 75.2225 94.3859C75.6627 94.8262 75.7214 94.8262 75.9856 94.2392C76.3671 93.3587 75.4866 92.4783 72.9333 91.2456C71.2017 90.4238 70.9669 90.189 71.2017 89.7488C71.3484 89.4553 71.3778 89.2205 71.2604 89.1912C71.143 89.1912 70.468 89.1618 69.7929 89.1031C68.7951 89.0444 68.3255 88.8096 67.5037 87.9585C66.9461 87.3715 66.4765 86.6672 66.4765 86.3737C66.4472 85.64 65.9482 85.053 64.6569 84.2899C63.4536 83.5562 63.0133 82.6757 63.5416 82.03C63.7471 81.7659 63.7764 81.5898 63.5416 81.4431C62.9546 81.0909 63.2481 80.5332 64.2166 80.181C65.3906 79.7702 66.2417 79.7115 65.6547 80.0637C65.3906 80.2397 65.3612 80.5332 65.5667 81.0615C65.9189 82.03 66.4765 82.3822 66.7993 81.8539C66.9754 81.5311 67.0635 81.6191 67.0635 82.0887C67.0635 82.4409 67.2102 82.8225 67.357 82.9105C67.5331 82.9985 67.6505 82.8225 67.6505 82.4996C67.6505 82.1768 67.7972 81.8246 68.0027 81.7072C68.2374 81.5604 68.2668 81.6485 68.1494 82.0007C68.032 82.2942 68.12 82.7051 68.4135 82.9692C68.7364 83.3214 68.7657 83.4975 68.5309 83.6442C68.1494 83.879 69.5288 85.1117 70.1745 85.1117C70.4093 85.1117 70.8201 85.3758 71.0843 85.6986C71.3778 86.0215 71.9354 86.2856 72.3463 86.315L73.08 86.3443L72.3463 86.5791C71.6419 86.8139 71.6419 86.8139 72.5517 86.8433C73.0507 86.8726 73.5789 86.99 73.667 87.1661C73.755 87.3128 74.0779 87.4596 74.3714 87.4596C74.6355 87.4596 75.5453 87.9585 76.3671 88.5455L77.8932 89.6608L77.7172 91.4804C77.5704 93.1826 77.5998 93.3 78.3628 93.799C78.8324 94.0924 79.0085 94.3859 78.8031 94.5033C78.3922 94.7675 78.7444 95.6773 79.2433 95.6773C79.4781 95.6773 79.8596 95.8827 80.0944 96.1469C80.564 96.5871 80.564 97.1154 80.1238 98.1426C80.0064 98.4361 80.0064 98.7589 80.1825 98.8763C80.3292 98.9644 80.5346 99.2872 80.652 99.5513C80.8575 100.138 81.4445 100.256 81.4445 99.7274C81.4445 98.9937 82.5597 100.461 82.7652 101.459C82.9413 102.369 83.0293 102.457 83.675 102.31C84.1739 102.163 84.3794 102.251 84.3794 102.574C84.3794 102.809 84.5261 103.015 84.6728 103.015C84.8489 103.015 84.9663 102.868 84.9663 102.721C84.9663 102.545 85.1131 102.428 85.2598 102.428C85.4359 102.428 85.5533 102.75 85.5533 103.161C85.5533 103.572 85.7001 103.895 85.8468 103.895C86.4044 103.895 86.287 102.398 85.6414 101.107C85.3185 100.491 85.3185 100.344 85.5827 100.579C85.7881 100.784 86.199 100.96 86.5218 100.96C86.9327 100.96 87.0208 100.813 86.874 100.344C86.6979 99.8448 86.786 99.7568 87.3729 99.8448C87.9012 99.9035 88.0186 99.8155 87.9599 99.3753C87.8719 98.8763 87.9012 98.847 88.3121 99.1698C88.5763 99.4046 88.7817 99.4633 88.7817 99.3459C88.7817 99.2285 88.9871 99.2872 89.2219 99.4926C89.4567 99.6981 89.6622 100.109 89.6622 100.432C89.6622 100.96 89.6915 100.96 90.1318 100.549C90.5426 100.138 90.5133 100.021 89.985 99.434C89.6328 99.0818 89.3687 98.9057 89.3687 99.0231C89.3687 99.4633 88.4295 98.4948 88.1654 97.8198C88.0186 97.4089 87.6664 97.1447 87.3143 97.1447C86.9034 97.1447 86.6099 96.8512 86.4044 96.2643C86.2283 95.7653 85.9642 95.3838 85.8175 95.3838C85.4946 95.3838 84.6142 93.6816 84.7315 93.2707C84.7902 93.0946 85.2598 93.3 85.7588 93.7403C86.6686 94.5033 87.1969 94.7381 86.874 94.2098C86.7566 94.0337 86.9034 94.0044 87.1969 94.1218C87.6077 94.2685 87.6664 94.2098 87.4903 93.7403C87.3143 93.3 87.3436 93.2413 87.6371 93.5348C88.3415 94.2392 88.6056 93.9164 87.9306 93.212C87.2556 92.5076 87.2556 92.5076 87.8425 92.1848C88.2828 91.95 88.5176 91.95 88.6643 92.2141C88.7817 92.4196 88.7523 92.4489 88.5469 92.3315C88.3415 92.2141 88.1947 92.2728 88.1947 92.4196C88.1947 92.9772 88.9871 92.7717 89.1632 92.1848C89.2806 91.6565 89.398 91.6565 90.2785 91.9793C90.8361 92.1554 91.5698 92.4783 91.9514 92.6837C92.8612 93.1826 93.8004 93.0359 94.4167 92.2728C94.7982 91.8032 95.2385 91.6565 96.0015 91.6858C96.5592 91.7152 97.1755 91.5684 97.3516 91.3336C97.7038 90.9228 97.7038 90.9228 96.6766 90.4825C95.7667 90.101 94.5047 87.7824 94.945 87.3422C95.1211 87.1661 95.2385 86.7552 95.2385 86.403C95.2385 86.0215 95.4733 85.6986 95.7961 85.6106C96.2657 85.4932 96.3831 85.1704 96.4711 84.0551C96.5592 82.8225 96.6766 82.5583 97.3809 82.2355C97.9386 81.9713 98.1734 81.6191 98.1734 81.1202C98.1734 80.7093 98.5549 79.9756 99.0538 79.4473C99.5234 78.919 99.9343 78.3321 99.9343 78.1266C99.9343 77.9505 100.257 77.7744 100.668 77.7744C101.108 77.7744 101.402 77.9505 101.402 78.2147C101.402 78.6549 102.928 79.0658 104.542 79.0364C105.07 79.0071 105.423 79.1245 105.334 79.2712C105.246 79.418 105.041 79.5354 104.894 79.5354C104.513 79.5354 103.28 80.7093 103.632 80.7387C104.014 80.7974 104.395 80.8854 105.158 81.1496C105.687 81.3257 105.804 81.5604 105.745 82.1474C105.657 82.7931 105.775 82.9105 106.508 82.9985C107.066 83.0572 107.448 82.9398 107.624 82.6464C107.77 82.3822 108.211 82.1768 108.592 82.1768C108.974 82.1768 109.385 82.03 109.473 81.8833C109.561 81.7072 110.118 81.5898 110.676 81.5898C111.38 81.5898 111.674 81.4431 111.674 81.1496C111.674 80.6506 111.821 80.7387 113.171 81.942C113.464 82.2355 113.904 82.4703 114.11 82.4703C114.315 82.4703 114.756 82.6757 115.078 82.9105C115.372 83.1453 115.812 83.3507 116.047 83.3507C116.282 83.3507 116.693 83.5562 116.986 83.8203C117.426 84.2019 117.69 84.2312 118.424 83.9964C119.158 83.7323 119.481 83.7616 120.273 84.2019C120.772 84.5247 121.682 84.8475 122.239 84.9649C122.797 85.0823 123.883 85.5519 124.617 86.0215C125.82 86.7846 126.143 86.8726 127.552 86.6965L129.136 86.5204L131.044 88.1933C134.273 90.9815 142.05 94.5327 141.522 92.9478C141.463 92.7717 141.199 92.5956 140.935 92.5956C140.641 92.5956 139.174 91.2162 137.648 89.5434C135.241 86.9607 134.86 86.3737 134.86 85.5226C134.86 84.554 134.008 83.3507 133.011 82.9398C132.776 82.8518 132.746 82.7344 132.952 82.5583C133.128 82.4409 133.392 81.942 133.539 81.4724C133.832 80.5626 135.329 79.5354 135.975 79.7702C136.151 79.8289 136.327 79.7115 136.327 79.4767C136.327 78.8897 137.061 78.2734 138.968 77.3049C139.849 76.8353 140.641 76.4244 140.729 76.3657C140.817 76.307 140.495 75.9548 139.996 75.5733C139.291 74.9863 139.144 74.6634 139.203 73.8417C139.262 73.0199 139.056 72.5797 138.293 71.6992C137.031 70.2905 136.738 69.7328 136.503 68.1773C136.327 66.9447 136.327 66.9447 137.413 66.6512C138.029 66.4751 139.203 66.3284 140.025 66.3284C140.817 66.3284 141.639 66.1816 141.815 66.0055C142.402 65.4185 146.012 65.5946 147.92 66.2697C149.24 66.7686 150.004 66.886 151.06 66.7392C152.029 66.5925 152.469 66.6512 152.469 66.886C152.469 67.0621 152.733 67.2088 153.027 67.2088C153.349 67.2088 153.79 67.4143 154.054 67.6491C154.582 68.2067 155.286 68.2067 155.492 67.6784C155.609 67.3849 155.991 67.2969 156.783 67.4143C158.867 67.6784 159.337 65.9762 157.37 65.3011C155.873 64.8022 155.257 64.2739 155.756 63.9217C156.137 63.6576 155.932 63.4522 154.23 62.2195C153.643 61.8086 153.613 61.6912 153.936 60.3999C154.23 59.1966 154.23 58.9324 153.76 58.14C153.027 56.9073 152.117 56.9367 150.972 58.2574C149.739 59.6368 148.771 59.6368 147.773 58.228C147.362 57.6704 146.716 56.7899 146.335 56.3204C145.66 55.4692 145.66 55.4105 146.159 54.8823C146.452 54.5594 147.069 54.2953 147.538 54.2953C149.505 54.2953 150.209 51.9474 148.683 50.5386C147.597 49.5408 147.186 48.4842 147.186 46.7233C147.157 43.4068 146.394 40.1198 144.721 36.4218C143.576 33.8684 143.165 32.6651 143.371 32.4303C143.547 32.2249 144.31 31.8434 145.073 31.5499C148.067 30.4346 151.236 28.1747 151.295 27.1475C151.295 26.9714 150.737 26.2964 150.062 25.6214C148.624 24.242 146.834 23.6256 143.371 23.3322C140.26 23.0387 140.113 23.0093 138.411 22.2756C137.266 21.806 136.797 21.718 136.562 21.9528C136.298 22.2169 136.386 22.4517 136.855 22.8919C137.207 23.2441 137.618 23.4496 137.765 23.3615C138.059 23.1854 140.348 24.242 140.935 24.7996C141.492 25.3572 141.404 25.5333 140.583 25.5333C140.054 25.5333 139.908 25.6507 140.025 25.9736C140.172 26.2964 140.084 26.3551 139.731 26.2377C139.497 26.1497 139.291 25.9736 139.291 25.8855C139.379 25.2985 138.851 24.3887 138.352 24.2713C137.736 24.0952 137.56 24.5355 138.176 24.7409C138.352 24.7996 138 24.9757 137.354 25.0931C136.709 25.2105 136.063 25.4159 135.887 25.5333C135.74 25.6507 134.977 25.7388 134.185 25.7388C133.421 25.7681 132.6 25.9149 132.365 26.1203C132.159 26.2964 131.66 26.4138 131.279 26.3551C130.457 26.2377 130.222 25.3572 130.956 25.1518C131.25 25.0638 130.956 25.0051 130.31 24.9757C129.665 24.9757 128.843 25.1518 128.491 25.3866C128.168 25.6214 127.434 25.8562 126.906 25.8855C126.348 25.9149 125.38 26.2671 124.734 26.6192C124.088 27.0008 123.296 27.2943 122.973 27.2943C122.063 27.3236 121.183 27.9693 121.212 28.615C121.212 28.9378 121.007 29.29 120.772 29.4074C119.98 29.7596 118.512 29.6422 118.131 29.202C117.925 28.9672 117.573 28.7617 117.338 28.7617C116.516 28.7617 117.162 28.0573 118.277 27.7639L119.393 27.441L118.395 26.6779C117.602 26.0616 116.957 25.8855 115.254 25.7681C113.083 25.6214 112.143 25.9149 113.728 26.2671C114.55 26.4431 114.609 26.5605 114.609 27.7052C114.609 28.7617 114.726 29.0259 115.342 29.29C116.106 29.6422 116.252 30.0824 115.812 30.7868C115.636 31.0803 115.431 31.1096 114.961 30.8455C114.638 30.6694 114.08 30.5227 113.758 30.5227C113.405 30.5227 113.141 30.3172 113.141 30.0531C113.141 29.7596 112.848 29.877 112.202 30.4933C111.674 30.9922 111.028 31.4031 110.793 31.4031C110.559 31.4031 109.972 31.726 109.502 32.0781L108.651 32.7532L109.326 33.3988C110.412 34.3967 109.766 34.7489 107.77 34.2206C106.89 33.9858 105.863 33.6336 105.481 33.4575C105.012 33.1934 104.689 33.1934 104.19 33.4575C103.486 33.8391 103.515 34.6315 104.219 34.6315C104.454 34.6315 104.63 34.7489 104.63 34.925C104.63 35.0717 105.012 35.2185 105.481 35.2185C105.951 35.2185 106.391 35.3946 106.508 35.6587C106.773 36.4218 105.012 36.3044 103.486 35.4826C102.899 35.1891 102.194 34.925 101.93 34.925C101.637 34.925 101.402 34.7489 101.402 34.5435C101.402 34.3087 101.138 33.8978 100.815 33.6043C100.375 33.1934 100.316 32.9586 100.551 32.5184C100.903 31.8434 100.316 31.2564 98.9951 30.9629C98.5842 30.8748 98.1734 30.6107 98.0853 30.4053C97.9679 30.1411 98.4962 30.1705 100.345 30.5227C106.45 31.7847 108.152 31.7847 109.972 30.4933C110.911 29.8183 110.999 29.1726 110.265 28.2628C109.766 27.6465 107.594 26.5899 107.33 26.8247C107.272 26.9127 106.773 26.766 106.274 26.5018C105.775 26.2377 105.305 26.0323 105.217 26.0323C104.982 26.0616 104.307 25.7975 102.869 25.1811C102.135 24.8583 100.316 24.4768 98.8484 24.3007C97.0581 24.0952 96.1189 23.8604 96.1189 23.6256C96.1189 23.2148 94.0939 22.8039 93.6536 23.1267C93.4775 23.2441 92.7438 23.2735 92.0101 23.1854L90.6894 23.0387L91.6579 22.6865C92.2155 22.481 92.5677 22.2169 92.4797 22.0702C92.2449 21.6886 88.8404 20.7788 88.4882 20.9842C88.3121 21.0723 88.1947 21.0136 88.1947 20.8669C88.1947 20.6908 87.7545 20.544 87.1969 20.544C86.5218 20.544 86.0816 20.7495 85.7588 21.1897C85.4359 21.6593 85.2892 21.718 85.2598 21.4245C85.2598 21.1897 84.9076 20.8082 84.4674 20.6027C83.4989 20.1625 83.2934 20.1625 83.0587 20.5734ZM84.3794 21.131C84.3794 21.2777 84.2326 21.4245 84.0565 21.4245C83.9098 21.4245 83.8511 21.2777 83.9391 21.131C84.0272 20.9549 84.1739 20.8375 84.262 20.8375C84.3207 20.8375 84.3794 20.9549 84.3794 21.131ZM87.6077 20.9549C87.6077 21.219 86.7273 21.3658 86.5805 21.131C86.4631 20.9549 86.6686 20.8375 86.9914 20.8375C87.3436 20.8375 87.6077 20.8962 87.6077 20.9549ZM74.1072 23.7724C74.1072 23.9191 73.9018 23.9778 73.667 23.8898C73.4322 23.7724 73.2268 23.655 73.2268 23.5963C73.2268 23.5376 73.4322 23.4789 73.667 23.4789C73.9018 23.4789 74.1072 23.5963 74.1072 23.7724ZM71.1723 24.3594C71.1723 24.5061 70.9375 24.6529 70.6734 24.6529C70.2332 24.6529 70.2038 24.5942 70.5854 24.3594C71.143 24.0072 71.1723 24.0072 71.1723 24.3594ZM68.0613 26.2964C68.1494 26.5312 68.12 26.6486 67.944 26.5605C67.7679 26.4725 67.6505 26.2671 67.6505 26.091C67.6505 25.6801 67.8559 25.7681 68.0613 26.2964ZM70.3799 26.0323C70.1745 26.091 69.8223 26.091 69.6462 26.0323C69.4408 25.9442 69.5875 25.8855 69.9984 25.8855C70.4093 25.8855 70.556 25.9442 70.3799 26.0323ZM83.4695 32.4597C84.0859 32.5771 84.3794 32.8119 84.3794 33.1641C84.3794 33.5749 84.2326 33.663 83.763 33.5456C83.2934 33.4282 83.176 33.4869 83.2641 33.7804C83.4402 34.25 81.6206 36.0989 80.9749 36.0989C80.7401 36.0989 80.564 36.2163 80.564 36.3337C80.564 36.7446 78.8618 37.5664 78.4215 37.3903C78.1867 37.3023 77.8932 37.361 77.7758 37.537C77.6878 37.7131 77.8052 37.9479 78.04 38.036C78.4509 38.1827 78.4509 38.2708 78.0693 38.623C77.7465 38.9458 77.7172 39.2099 77.9226 39.6208C78.0987 39.9437 78.3335 40.4426 78.4509 40.7067C78.5976 41.0002 78.6563 41.91 78.627 42.7318C78.5683 43.9938 78.627 44.2286 79.0379 44.1993C79.302 44.1993 79.5074 44.3166 79.4781 44.4927C79.4487 44.6982 79.8596 44.933 80.4173 45.021C80.9455 45.1384 81.4445 45.3439 81.5032 45.52C81.5619 45.7254 82.3836 45.608 83.763 45.2558C84.9663 44.933 86.1403 44.7275 86.3457 44.8156C86.5805 44.9036 86.874 44.8449 86.9914 44.6688C87.0795 44.4927 88.1067 44.2873 89.2219 44.1993C90.9242 44.0819 91.3938 44.1406 92.0101 44.6101C92.8318 45.2265 92.7438 45.4613 91.6285 45.5493C91.1883 45.5787 90.8361 45.7841 90.8361 46.0189C90.8361 46.4004 89.3687 46.3711 86.4338 45.9895C85.0544 45.8134 81.6206 47.3689 82.5597 47.7505C83.0587 47.9559 83 48.4548 82.4717 48.2494C82.2369 48.132 82.0314 47.8972 82.0314 47.6624C82.0314 47.4276 81.8554 47.2515 81.6793 47.2809C81.1216 47.3102 80.0651 47.7798 80.5053 47.8092C81.0336 47.8385 80.9455 48.4255 80.3879 48.4255C80.0064 48.4255 79.9477 48.6016 80.1238 49.2179C80.3586 50.1864 80.5933 50.4506 80.7694 49.9516C80.8575 49.7756 81.151 49.5995 81.4738 49.5995C81.7673 49.5995 82.0314 49.4821 82.0314 49.3353C82.0314 48.9831 83.176 48.719 83.3815 49.0418C83.4695 49.1886 83.763 49.306 84.0272 49.306C85.025 49.306 84.7315 52.2115 83.763 52.2409C83.675 52.2409 83.1174 51.8006 82.501 51.243C81.5032 50.3625 81.2977 50.3038 80.564 50.568C79.4194 51.0082 78.6857 52.7691 78.8911 54.5888C79.0672 56.0856 78.5683 56.9367 77.5411 56.9367C77.2769 56.9367 77.0421 57.1421 77.0421 57.3769C77.0421 57.6411 76.7193 57.9639 76.3377 58.1693C75.5453 58.5215 74.5475 58.2867 74.841 57.8172C75.3692 56.966 71.2017 57.3476 70.4386 58.2574C70.2919 58.4335 69.3234 58.7563 68.3255 58.9911C66.4178 59.3727 65.596 59.1672 65.596 58.2574C65.596 57.4356 64.7743 57.553 61.9568 58.815C61.3404 59.0792 60.7535 59.2259 60.6361 59.1379C60.4013 58.8737 61.7807 57.7878 62.0742 57.9639C62.1916 58.0519 62.3677 57.9052 62.4851 57.6704C62.5731 57.4356 62.8666 57.2302 63.1014 57.2302C63.3655 57.2302 63.4829 57.0834 63.3949 56.9367C63.2775 56.7606 63.0427 56.7312 62.8666 56.8486C62.6318 56.9954 62.6318 56.9073 62.8666 56.5845C63.072 56.3497 63.1601 56.0562 63.0427 55.9682C62.9546 55.8508 63.0133 55.7627 63.1894 55.7627C63.3949 55.7627 63.5416 55.5279 63.571 55.2345C63.6003 54.9116 63.6884 54.9997 63.8058 55.4692C63.9818 56.1149 64.1873 56.203 65.3026 56.203C66.3885 56.203 66.6233 56.0856 66.7406 55.616C66.8874 54.7649 67.6505 54.3246 68.9125 54.2953C69.7342 54.2953 69.9984 54.1779 69.9984 53.767C69.9984 53.3561 70.0571 53.3268 70.2919 53.7083C70.4386 53.9431 70.6147 54.0605 70.6734 54.0018C71.0256 53.6203 71.73 51.5365 71.5832 51.3897C71.4658 51.3017 71.3191 51.3897 71.2604 51.5658C71.0256 52.2409 70.556 51.9767 70.7321 51.2723C70.8788 50.7441 71.0549 49.6875 71.143 48.6896C71.1723 48.5722 71.4658 48.3961 71.8474 48.2788C72.1996 48.1614 72.5517 48.044 72.6398 48.0146C72.7278 47.9853 73.08 47.8679 73.4616 47.7211C73.8137 47.6037 74.1072 47.3102 74.1072 47.0461C74.1072 46.782 74.3127 46.4298 74.5475 46.2537C74.8997 45.9895 74.8997 45.8134 74.6062 45.2265C74.254 44.4927 74.0192 44.346 72.493 43.671C71.5832 43.2601 71.2604 42.5851 71.6419 41.7339C71.7593 41.4698 71.8474 40.8828 71.8474 40.4719C71.8474 39.973 72.1115 39.5328 72.6691 39.1512C73.1387 38.8577 73.5203 38.4469 73.5203 38.3001C73.5203 38.0066 75.5747 36.9794 76.191 36.9794C76.3377 36.9794 76.9541 36.5098 77.5704 35.9229C78.3628 35.1598 78.5389 34.8369 78.2454 34.6609C77.9226 34.4554 77.9813 34.2206 78.5096 33.5162C78.8911 33.0173 79.302 32.6651 79.4487 32.7532C79.5661 32.8412 79.6835 32.7532 79.6835 32.6064C79.6835 32.2542 82.0021 32.1662 83.4695 32.4597ZM60.6067 35.2772C60.6067 35.6881 59.198 36.9794 58.7577 36.9794C58.611 36.9794 58.6403 36.774 58.8458 36.5392C59.0512 36.3044 59.1099 36.0989 58.9925 36.0989C58.8458 36.0989 59.0512 35.8348 59.4328 35.512C60.1958 34.8369 60.6067 34.7782 60.6067 35.2772ZM55.2359 38.623C55.1478 38.711 54.8837 38.7404 54.6782 38.6523C54.4434 38.5643 54.5315 38.4762 54.8543 38.4762C55.1772 38.4469 55.3533 38.5349 55.2359 38.623ZM61.4872 56.9367C61.4872 57.0541 61.2817 57.2595 61.0176 57.3476C60.7828 57.4356 60.6654 57.4063 60.7535 57.2302C60.8415 57.0541 60.7828 56.9367 60.6361 56.9367C60.46 56.9367 60.3132 56.8193 60.3132 56.6726C60.3132 56.5258 60.5774 56.4671 60.9002 56.5552C61.223 56.6432 61.4872 56.8193 61.4872 56.9367ZM79.1552 56.9954C78.9498 57.2008 78.8031 57.2302 78.8031 57.0541C78.8031 56.6432 79.1552 56.291 79.3607 56.4965C79.4194 56.5845 79.3313 56.8193 79.1552 56.9954ZM60.0197 57.4943C60.0197 57.3476 60.1958 57.3769 60.4306 57.5824C61.047 58.14 60.1665 58.5802 59.2567 58.14C58.2882 57.6998 58.3175 57.1715 59.286 57.5237C59.7556 57.6998 60.0197 57.6998 60.0197 57.4943ZM49.8944 62.7771C49.8063 62.9532 49.5715 63.1 49.4248 63.1C49.278 63.1 49.3074 62.9239 49.5128 62.6891C49.9237 62.2195 50.2172 62.3075 49.8944 62.7771ZM115.196 76.8646C114.638 77.1581 114.08 77.3636 113.963 77.2755C113.816 77.2168 113.728 77.3342 113.728 77.569C113.728 77.8038 114.022 78.0973 114.403 78.1853C114.961 78.3614 114.99 78.4201 114.579 78.6549C114.315 78.8016 113.992 79.2712 113.904 79.7115C113.699 80.4452 113.64 80.4745 111.967 80.3278C111.028 80.2691 110.118 80.3278 109.972 80.4745C109.796 80.6506 109.443 80.4452 109.091 79.9756L108.475 79.1832L109.267 78.3321C109.707 77.8625 110.471 77.4516 110.94 77.3636C111.439 77.3049 112.055 77.1581 112.378 77.0407C113.141 76.7179 114.638 76.3657 115.489 76.3363C116.135 76.307 116.106 76.3657 115.196 76.8646ZM82.0314 98.4067C82.1782 98.348 82.2369 98.5241 82.1488 98.7589C82.0314 98.9937 81.8554 99.1992 81.7086 99.1992C81.5619 99.1992 81.3564 99.2285 81.239 99.2579C81.1216 99.3166 81.0042 98.8763 80.9455 98.3187C80.8575 97.3208 80.8575 97.3208 81.3271 97.8785C81.5619 98.2013 81.8847 98.4361 82.0314 98.4067ZM87.6077 97.7317C87.9893 97.9665 87.9893 98.0252 87.549 98.0252C87.2849 98.0252 86.9621 97.8785 86.874 97.7317C86.6392 97.3502 87.0208 97.3502 87.6077 97.7317ZM85.7588 98.7883C85.6707 98.8763 85.4066 98.9057 85.2011 98.8176C84.9663 98.7296 85.0544 98.6415 85.3772 98.6415C85.7001 98.6122 85.8762 98.7002 85.7588 98.7883ZM86.3457 99.8448C86.2577 100.08 86.1696 99.9916 86.1696 99.6687C86.1403 99.3459 86.2283 99.1698 86.3164 99.2872C86.4044 99.3753 86.4338 99.6394 86.3457 99.8448Z" fill="black"/>
<path d="M2.96536 30.699C2.70122 30.9338 2.23164 31.1686 1.9088 31.1979C1.58596 31.2273 1.32182 31.4034 1.32182 31.6088C1.32182 31.8143 1.20443 31.9904 1.08703 31.9904C0.940287 31.9904 0.5881 32.1958 0.265262 32.4306C-0.23367 32.8708 -0.145623 32.8708 1.55661 32.7828C3.87518 32.636 4.10997 33.3111 1.82076 33.6339C0.441355 33.8394 0.0891682 34.0154 0.294611 34.3383C0.382658 34.485 0.617449 34.6318 0.764194 34.6318C0.940287 34.6318 0.998985 34.5144 0.910938 34.397C0.705496 34.0448 2.90667 34.3676 3.14146 34.7492C3.58169 35.3948 3.37625 35.8057 2.64253 35.8057C2.20229 35.8057 1.9088 35.9818 1.9088 36.2166C1.9088 36.5101 2.26099 36.5982 3.31755 36.5395C4.10997 36.4808 5.10784 36.6275 5.63612 36.8916C6.78073 37.4199 9.36343 37.508 10.5667 37.0677C12.2103 36.4514 13.5016 36.0405 14.8517 35.659C16.7007 35.1307 18.6377 33.8687 18.6377 33.1937C18.6377 32.8708 18.2855 32.5187 17.7572 32.2839C17.2876 32.0784 16.9648 31.8143 17.0529 31.6675C17.1409 31.5208 17.0235 31.4034 16.8181 31.4034C16.5833 31.374 16.6713 31.1979 17.0235 30.9338C17.5811 30.4936 17.5518 30.4642 16.5246 30.6403C15.9082 30.7577 15.38 30.699 15.2626 30.5229C14.9691 30.0533 13.9419 30.1707 13.9419 30.6697C13.9419 30.9338 13.6777 31.1099 13.2962 31.1099C12.9147 31.1099 11.7994 31.1099 10.8015 31.1099C9.39278 31.1099 8.9232 31.2273 8.68841 31.6382C8.42427 32.1078 8.39492 32.1078 8.21882 31.6088C7.92533 30.9045 7.19161 30.9925 7.19161 31.7262C7.19161 32.1371 7.04487 32.2839 6.75138 32.1958C6.51659 32.0784 6.25244 32.1371 6.1644 32.2839C5.84156 32.7828 5.48937 32.6067 5.63612 32.0197C5.72416 31.6382 5.46002 31.3153 4.69695 30.8458C3.43495 30.112 3.52299 30.112 2.96536 30.699Z" fill="black"/>
<path d="M28.2349 39.8261C27.9121 40.1196 28.0001 40.8533 28.2936 40.6478C28.4404 40.5598 28.6751 40.6478 28.7925 40.8239C28.8806 41 28.8219 41.2642 28.6458 41.3816C28.3817 41.5283 28.4404 41.7044 28.7925 41.9979C29.2621 42.3501 29.2915 42.3501 29.1154 41.9099C29.0273 41.6164 29.0567 41.3229 29.2328 41.2348C29.3795 41.1174 29.4382 40.9413 29.3502 40.7946C29.2621 40.6478 29.3208 40.4718 29.4969 40.3544C29.6437 40.2663 29.7904 40.0022 29.7904 39.8261C29.7904 39.5913 29.7024 39.5913 29.5263 39.8848C29.3502 40.1489 29.2034 40.1783 29.086 39.9435C28.8512 39.5913 28.5284 39.5326 28.2349 39.8261Z" fill="black"/>
<path d="M34.5154 47.0463C34.3394 47.2224 34.1926 47.5453 34.1926 47.7507C34.1926 48.1909 32.96 48.5431 31.9914 48.367C31.4632 48.2496 31.1403 48.3964 30.8175 48.9247C30.0544 50.0693 29.2033 50.803 28.8805 50.6269C28.7337 50.5095 28.4109 50.5975 28.1467 50.7736C27.8239 51.0671 27.7945 51.2432 28.088 51.5954C28.2935 51.8302 28.4402 52.0943 28.4109 52.153C28.3522 52.1824 28.3228 52.3291 28.3228 52.4465C28.3228 52.5933 28.4402 52.5052 28.587 52.2704C28.7337 52.0356 28.9098 52.0063 29.0272 52.1824C29.1152 52.3585 28.7631 52.652 28.1761 52.8281C27.6184 53.0042 27.1489 53.2976 27.1489 53.4444C27.1489 53.6205 27.3837 53.5911 27.7358 53.415C28.2054 53.1803 28.3228 53.1803 28.3228 53.5324C28.3228 53.7672 28.5576 54.002 28.8511 54.0901C29.2326 54.1781 29.1739 54.2662 28.5576 54.5303C28.088 54.7064 27.7358 54.9999 27.7358 55.1466C27.7358 55.6162 28.3228 55.8217 28.7337 55.4988C29.1446 55.176 29.4968 55.3521 29.4968 55.8804C29.4968 56.0564 29.35 55.9977 29.2033 55.763C28.9685 55.3814 28.9098 55.4108 28.9098 55.851C28.9098 56.2912 29.0565 56.3499 29.7903 56.2032C30.524 56.0564 30.6414 56.0858 30.4946 56.4673C30.4066 56.7315 30.2012 56.9369 30.0544 56.9369C29.8783 56.9369 29.9077 57.2304 30.1131 57.5532C30.2892 57.9054 30.524 58.0815 30.6414 57.9348C30.9349 57.5239 33.0187 57.5239 32.8426 57.9348C32.7839 58.1109 32.96 58.5511 33.2534 58.8446C33.7817 59.4609 33.7817 60.4588 33.1947 60.811C33.0187 60.9284 32.373 60.9577 31.786 60.8697C31.111 60.811 30.6707 60.8697 30.6707 61.0458C30.6707 61.2219 30.8175 61.2806 30.9642 61.1925C31.4925 60.8697 31.2871 61.3099 30.612 61.9262L29.937 62.5719L30.6707 62.4545C31.9621 62.2784 31.7566 63.2469 30.3772 63.8046C28.7337 64.4502 28.8511 65.2427 30.6414 65.3307C32.0501 65.3894 33.1067 66.0351 31.8153 66.0351C31.111 66.0351 29.7903 66.9743 29.7903 67.4732C29.7903 67.5906 29.3207 67.9428 28.7631 68.2363C28.2054 68.5591 27.8239 68.8526 27.9119 68.9406C28.2348 69.2635 29.0272 69.2048 29.7022 68.7645C30.1131 68.5004 30.7001 68.383 31.199 68.471C31.8153 68.5884 32.1675 68.471 32.5197 68.0895C32.9013 67.6199 33.3121 67.5612 35.0437 67.6493C36.1883 67.708 37.1275 67.6493 37.1275 67.5025C37.1275 67.3851 37.6851 67.2971 38.3895 67.3264C39.6809 67.4145 42.1168 66.5634 42.1168 66.0644C42.1168 65.8883 41.9114 65.7416 41.6766 65.7416C41.119 65.7416 41.0896 64.9785 41.6472 64.7731C42.469 64.4502 43.056 63.1882 42.7331 62.5426C42.3223 61.8088 40.7961 61.4567 40.1211 61.9849C39.6809 62.3078 39.6515 62.3078 40.0037 61.8969C40.2972 61.5153 40.2972 61.2512 40.0037 60.5762C39.8276 60.1066 39.6515 59.5783 39.6515 59.4316C39.6222 59.05 38.8004 58.2576 38.0373 57.8174C37.7145 57.6413 37.3329 57.1424 37.2449 56.7021C36.9514 55.5869 36.1883 54.6183 35.6014 54.589C34.897 54.589 34.9263 53.6498 35.6601 53.1216C35.9829 52.8868 36.247 52.5346 36.247 52.3585C36.247 52.153 36.4525 51.7715 36.7166 51.5367C37.421 50.803 36.9221 50.4801 35.0731 50.4801C34.1339 50.4801 33.2534 50.3334 33.1654 50.1867C33.0773 50.0106 33.136 49.8932 33.3121 49.8932C33.5176 49.8932 33.9872 49.629 34.3981 49.3062C34.8089 48.9834 35.0437 48.7192 34.9263 48.7192C34.7796 48.7192 34.9557 48.4257 35.2785 48.0442C35.6014 47.692 35.9535 47.2518 36.0416 47.0757C36.3057 46.6354 34.9263 46.6354 34.5154 47.0463ZM28.9098 51.0671C28.9098 51.2139 28.7631 51.3606 28.587 51.3606C28.4402 51.3606 28.3815 51.2139 28.4696 51.0671C28.5576 50.891 28.7044 50.7736 28.7924 50.7736C28.8511 50.7736 28.9098 50.891 28.9098 51.0671Z" fill="black"/>
<path d="M24.889 56.2916C24.1846 56.5264 22.8052 58.1113 23.3335 58.1113C23.5096 58.1113 23.5683 58.258 23.4803 58.4048C23.3922 58.5808 22.7172 58.6395 21.9835 58.5808C20.9563 58.4635 20.6334 58.5515 20.3986 58.9917C20.1932 59.3733 20.2225 59.5787 20.4867 59.6668C20.7508 59.7842 20.7508 59.8722 20.4867 60.195C19.929 60.7527 20.0171 60.9581 20.8389 61.1636C21.8661 61.4277 21.7487 61.9266 20.3986 62.9245C19.3127 63.7463 18.8138 64.8615 19.5475 64.8615C19.6943 64.8615 19.753 65.0083 19.6356 65.2137C19.4888 65.4485 19.5769 65.4778 19.8997 65.3605C20.1932 65.2724 20.3986 65.3018 20.3986 65.4778C20.3986 65.9768 22.6585 65.4778 24.1553 64.6854C24.889 64.3039 25.8869 63.9811 26.4152 63.9811C27.2369 63.9811 27.3837 63.8637 27.6772 62.8364C27.8826 62.2201 28.0294 61.1929 28.0294 60.5472C28.0294 59.5787 28.1467 59.3146 28.7631 59.0504C29.6142 58.6689 29.7022 57.9352 28.9685 57.0547C28.3815 56.3797 26.063 55.9394 24.889 56.2916Z" fill="black"/>
<path d="M57.261 86.638C57.1436 86.9021 56.7327 87.1956 56.3512 87.2837C55.9697 87.3717 55.6175 87.6946 55.5588 87.988C55.3827 88.7511 55.8229 90.1305 56.3806 90.5414C56.8501 90.8642 56.8208 90.9523 56.0871 91.4219C55.4707 91.8328 55.2359 91.8915 55.0599 91.598C54.8838 91.3338 54.7664 91.3925 54.6783 91.7741C54.5903 92.0969 54.7077 92.5958 54.9131 92.8893C55.1479 93.1828 55.2653 93.7111 55.1773 94.0339C54.737 96.3525 54.737 96.5286 55.3827 96.8808C55.911 97.1449 56.0871 97.1156 56.3806 96.7047C56.586 96.4112 56.9675 96.2644 57.2023 96.3525C57.76 96.5873 57.9361 96.0296 58.0241 93.535C58.1121 91.8621 58.0241 91.4512 57.5839 91.1284C57.1143 90.7762 57.0849 90.6001 57.3784 89.6022C57.76 88.3696 57.6719 85.7869 57.261 86.638Z" fill="black"/>
<path d="M87.2262 104.981C87.1088 105.069 87.0208 105.392 87.0208 105.656C87.0208 106.038 87.3729 106.214 88.2534 106.361C88.9284 106.478 89.5741 106.683 89.6622 106.859C89.7796 107.036 90.4546 107.036 91.4231 106.918C92.9199 106.683 93.4775 106.302 92.6264 106.008C92.3623 105.92 92.3036 106.008 92.4503 106.273C92.6264 106.566 92.509 106.537 92.1275 106.214C91.834 105.95 90.9242 105.715 90.1024 105.686C89.31 105.627 88.5762 105.48 88.5469 105.333C88.4882 105.187 88.3121 105.157 88.136 105.245C87.9599 105.363 87.7545 105.275 87.6371 105.099C87.5197 104.922 87.3436 104.864 87.2262 104.981Z" fill="black"/>
</svg>
