<svg width="156" height="94" viewBox="0 0 156 94" fill="none" xmlns="http://www.w3.org/2000/svg">
<path d="M138.7 0.0770931C137.569 0.138239 135.704 0.229958 134.573 0.275816C133.442 0.321674 132.31 0.413393 132.051 0.474537C131.806 0.520397 131.424 0.55097 131.21 0.535683L130.828 0.489824L131.21 0.810837C131.516 1.05542 131.546 1.11656 131.332 1.13185C131.195 1.13185 131.026 1.05542 130.965 0.963699C130.919 0.871983 130.736 0.826122 130.583 0.871983C130.415 0.917841 130.186 0.856695 130.079 0.734406C129.819 0.489824 129.62 0.443966 129.758 0.67326C129.819 0.764978 129.62 0.826122 129.299 0.826122C128.84 0.826122 128.749 0.871983 128.825 1.0707C128.902 1.26943 128.856 1.3 128.581 1.20828C127.725 0.963699 127.174 0.963699 126.976 1.22357C126.792 1.48343 126.777 1.48343 126.777 1.20828C126.777 0.948414 126.655 0.933126 125.049 1.02485C124.102 1.08599 122.879 1.16242 122.344 1.20828C121.793 1.25414 121.442 1.25414 121.549 1.193C121.916 1.00956 121.717 0.826122 121.151 0.826122C120.83 0.826122 120.494 0.749691 120.387 0.642687C120.265 0.520397 118.706 0.459251 114.976 0.443966C109.641 0.413393 107.913 0.50511 106.828 0.871983C106.4 1.02485 106.049 1.04013 105.575 0.948414C105.147 0.856695 104.642 0.856695 104.107 0.978987C103.649 1.0707 102.731 1.17771 102.074 1.20828C100.316 1.3 99.2614 1.45286 99.2614 1.60572C99.2614 1.68216 99.399 1.7433 99.5672 1.7433C99.7353 1.7433 99.8729 1.83502 99.8729 1.95731C99.8729 2.06431 100.102 2.23246 100.377 2.32418C100.714 2.43118 100.775 2.47704 100.561 2.49233C100.377 2.50762 100.148 2.59933 100.041 2.69105C99.8882 2.8592 99.8576 2.84392 99.9035 2.67577C99.934 2.55348 99.7965 2.44647 99.5824 2.4159C99.3684 2.37004 99.078 2.21718 98.9251 2.04903C98.7111 1.81973 98.436 1.7433 97.8857 1.7433C97.4729 1.7433 97.0908 1.80445 97.0449 1.89616C96.9991 1.9726 96.7086 2.04903 96.4182 2.04903C96.1277 2.04903 95.8984 2.11017 95.8984 2.20189C95.8984 2.27832 95.7456 2.35475 95.5622 2.37004C95.3634 2.37004 94.9048 2.49233 94.5227 2.64519C93.9877 2.87449 93.8501 2.99678 93.8501 3.28722C93.8348 3.57766 93.9418 3.66938 94.2934 3.71523C94.6297 3.74581 94.6755 3.79167 94.4921 3.8681C94.2475 3.95982 94.2475 3.99039 94.5227 4.34197C94.7978 4.70885 94.859 4.72413 96.8462 4.73942C98.9099 4.7547 99.9646 4.95343 99.3532 5.19801C99.1544 5.27444 99.0321 5.24387 98.9863 5.13686C98.9251 4.95343 97.794 4.877 97.3812 5.04514C97.2436 5.091 97.1825 5.24387 97.2436 5.44259C97.3048 5.71774 97.2742 5.74831 96.9991 5.67188C96.8156 5.62602 96.2806 5.68717 95.822 5.79417C95.3634 5.90118 94.966 5.94704 94.9201 5.91646C94.7978 5.79417 94.217 6.03875 94.217 6.19162C94.217 6.28333 94.2934 6.29862 94.4004 6.23748C94.5074 6.16105 94.5227 6.19162 94.4615 6.31391C94.3698 6.45148 94.2781 6.4362 94.0641 6.25276C93.8501 6.05404 93.6208 6.02347 93.1011 6.0999C92.6578 6.16105 92.3826 6.14576 92.3215 6.03875C92.2603 5.94704 92.0463 5.87061 91.8476 5.87061C91.6489 5.87061 91.4501 5.80946 91.4043 5.73303C91.3126 5.58016 89.9062 5.70246 89.7839 5.87061C89.7381 5.93175 89.6005 6.02347 89.4782 6.06933C89.2948 6.13047 89.2948 6.16105 89.5088 6.16105C89.7686 6.17633 90.0591 6.86421 89.8909 7.03236C89.8604 7.07822 89.3406 7.13937 88.775 7.16994L87.7203 7.24637L88.1636 6.84893C88.561 6.48206 88.561 6.42091 88.347 6.19162C88.1483 5.9929 88.0413 5.9929 87.7967 6.14576C87.4298 6.37505 87.2923 6.37505 87.4145 6.17633C87.5521 5.94704 86.4974 5.9929 85.5649 6.26805C85.0452 6.42091 84.7394 6.58906 84.7394 6.72664C84.7394 6.84893 84.663 6.91007 84.5866 6.86421C84.4949 6.80307 84.4643 6.71135 84.5101 6.63492C84.6324 6.4362 83.8681 6.02347 83.5777 6.13047C83.2108 6.26805 82.7064 6.78778 82.9357 6.78778C83.0274 6.78778 83.0579 6.83364 83.0121 6.89479C82.8134 7.07822 83.4554 7.38395 84.0668 7.39923C84.5866 7.39923 84.7089 7.4451 84.6783 7.6591C84.663 7.90368 84.8006 7.93426 85.7942 7.8884C86.6349 7.85782 86.9712 7.78139 87.1088 7.59796C87.2311 7.42981 87.384 7.38395 87.5827 7.47567C87.7814 7.5521 87.812 7.61324 87.6744 7.6591C87.5216 7.72025 87.5521 7.79668 87.7508 7.94954C87.919 8.07183 87.9496 8.14826 87.8426 8.16355C87.5674 8.16355 87.598 8.46928 87.8731 8.46928C87.9954 8.46928 88.1024 8.40813 88.1024 8.3317C88.1024 8.27056 88.4387 8.23998 88.8515 8.28584C89.5241 8.34699 89.6616 8.30113 90.0285 7.93426C90.3648 7.59796 90.3954 7.49095 90.2272 7.36866C90.0591 7.26166 90.0591 7.20051 90.2119 7.13937C90.3037 7.1088 90.3954 6.97122 90.3954 6.84893C90.3954 6.52792 91.71 6.55849 91.8323 6.8795C91.8934 7.01708 91.9087 7.15466 91.8934 7.15466C91.8629 7.16994 91.6641 7.26166 91.4501 7.35338C91.0833 7.50624 90.7317 8.13298 90.9763 8.17884C91.4501 8.27056 92.2144 8.31641 94.5685 8.40813C96.5252 8.48456 97.3354 8.45399 97.4882 8.3317C97.6564 8.19412 97.7328 8.19412 97.8092 8.3317C97.9315 8.51514 99.5977 8.42342 100.484 8.16355C100.974 8.02597 101.402 7.67439 101.402 7.41452C101.402 6.94065 99.292 6.83364 97.2131 7.18523C96.5405 7.29223 95.9443 7.35338 95.8679 7.30752C95.7914 7.26166 95.4246 7.20051 95.0424 7.18523C94.3545 7.13937 93.6819 6.78778 94.3087 6.78778C94.4921 6.78778 94.6755 6.74192 94.7367 6.66549C94.7978 6.60435 95.7303 6.5432 96.7851 6.5432C97.8551 6.52792 99.1391 6.51263 99.6436 6.49734C100.148 6.48206 100.698 6.46677 100.866 6.48206C101.172 6.49734 101.172 6.49734 100.866 6.65021C100.652 6.74192 100.836 6.7725 101.478 6.71135C102.151 6.66549 102.303 6.68078 102.059 6.78778C101.6 6.97122 101.616 7.09351 102.105 7.09351C102.365 7.09351 102.533 7.00179 102.579 6.78778C102.624 6.60435 102.793 6.48206 103.007 6.48206C103.572 6.48206 104.306 6.16105 104.306 5.91646C104.306 5.74831 104.199 5.70246 103.908 5.77889C103.649 5.85532 103.557 5.82475 103.618 5.71774C103.664 5.64131 103.863 5.56488 104.046 5.56488C104.229 5.56488 104.596 5.45787 104.841 5.3203C105.101 5.18272 105.651 5.04514 106.064 5.01457C107.134 4.92285 107.47 4.80056 107.195 4.63241C107.057 4.5407 107.149 4.52541 107.455 4.58656C107.745 4.6477 107.975 4.60184 108.036 4.51012C108.097 4.41841 108.265 4.34197 108.418 4.34197C108.571 4.34197 108.846 4.17382 109.029 3.9751C109.381 3.60823 109.778 3.50123 111.475 3.33308C111.934 3.30251 112.53 3.14964 112.805 3.02735C113.08 2.88977 113.386 2.76748 113.508 2.7522C116.703 2.17132 117.574 1.9726 117.406 1.86559C117.315 1.80445 117.483 1.78916 117.788 1.85031C118.109 1.89616 118.446 1.86559 118.553 1.77387C118.767 1.62101 120.968 1.22357 121.075 1.34586C121.106 1.37643 121.029 1.51401 120.892 1.65158C120.723 1.81973 120.357 1.89616 119.776 1.89616C118.614 1.91145 115.434 2.53819 115.343 2.78277C115.312 2.90506 115.495 2.96621 115.985 2.96621C116.367 2.96621 116.688 3.02735 116.688 3.11907C116.688 3.40951 115.969 3.62352 114.548 3.74581C112.316 3.92924 109.916 4.29611 109.457 4.5407L109.045 4.7547L109.442 4.92285C109.656 5.02986 109.947 5.10629 110.115 5.10629C110.268 5.10629 110.436 5.16743 110.482 5.22858C110.512 5.28972 110.176 5.33558 109.717 5.3203C109.259 5.30501 108.846 5.35087 108.8 5.4273C108.754 5.50373 108.892 5.56488 109.106 5.56488C109.366 5.56488 109.473 5.62602 109.412 5.7636C109.274 6.11518 110.482 6.81836 111.368 6.91007C111.903 6.95593 112.117 6.92536 112.041 6.81836C111.98 6.71135 112.087 6.69607 112.423 6.78778C112.698 6.86421 112.958 6.89479 113.034 6.84893C113.401 6.61963 115.633 6.68078 116.749 6.95593C117.957 7.24637 118.339 7.39923 117.865 7.39923C117.513 7.39923 117.697 7.81197 118.109 7.91897C118.43 8.01069 118.43 8.02597 118.171 8.2247C117.895 8.4387 117.895 8.4387 118.171 8.51514C118.385 8.57628 118.369 8.59157 118.094 8.60685C117.895 8.60685 117.773 8.68328 117.834 8.775C117.88 8.85143 118.033 8.88201 118.186 8.83615C118.354 8.775 118.323 8.86672 118.064 9.09602L117.681 9.43231L118.033 9.3406C118.385 9.26416 118.385 9.26416 118.125 9.55461C117.88 9.81447 117.88 9.8909 118.064 9.99791C118.247 10.1202 118.216 10.1508 117.957 10.1508C117.574 10.1508 117.483 10.3801 117.804 10.5176C117.926 10.5635 117.85 10.7164 117.559 10.9457C117.192 11.2667 117.162 11.3431 117.345 11.603C117.513 11.817 117.681 11.8628 118.109 11.7864C118.415 11.7405 118.706 11.7558 118.751 11.8476C118.797 11.924 118.736 11.9393 118.614 11.8934C118.476 11.8476 118.369 11.8781 118.369 11.9698C118.369 12.0616 118.507 12.138 118.69 12.138C118.904 12.138 118.981 12.0463 118.95 11.8628C118.935 11.7253 118.981 11.603 119.057 11.603C119.134 11.603 119.195 11.6947 119.164 11.7864C119.134 11.9087 119.271 11.9851 119.47 11.9851C119.73 11.9851 119.837 12.0768 119.852 12.2909C119.883 12.6119 119.684 12.7036 119.516 12.4437C119.394 12.245 117.651 12.245 117.544 12.4284C117.483 12.5049 117.544 12.6119 117.636 12.6577C117.743 12.7036 117.636 12.7189 117.406 12.673C117.162 12.6272 117.009 12.6424 117.055 12.7189C117.101 12.7953 117.009 13.0399 116.841 13.2386L116.55 13.6208L117.039 13.8959C117.483 14.1252 117.62 14.1252 118.354 13.9418C119.302 13.7125 119.47 13.4985 118.889 13.2233C118.66 13.1316 118.522 12.994 118.583 12.9482C118.629 12.887 118.767 12.9329 118.858 13.0246C118.965 13.1316 119.195 13.208 119.378 13.208C119.806 13.208 119.822 13.6972 119.409 14.3086C119.149 14.6908 119.057 14.7061 118.4 14.6297C117.712 14.5532 117.636 14.5838 117.269 15.0271C117.039 15.287 116.825 15.501 116.764 15.501C116.596 15.501 115.924 16.3112 115.924 16.5099C115.924 16.6322 116.046 16.7239 116.199 16.7392C116.397 16.7392 116.382 16.7697 116.122 16.8767C115.74 17.0296 115.388 17.5799 115.603 17.7022C115.679 17.7481 115.71 17.9468 115.648 18.1302C115.587 18.3901 115.618 18.436 115.847 18.3595C116.046 18.2831 116.092 18.3137 116.015 18.4818C115.969 18.6041 115.985 18.7111 116.061 18.7111C116.138 18.7111 116.107 18.971 116 19.2767C115.832 19.7811 115.832 19.8729 116.031 19.9952C116.199 20.0869 116.214 20.148 116.092 20.2244C115.862 20.362 116.138 21.1569 116.397 21.1569C116.504 21.1569 116.535 21.3251 116.489 21.6155C116.428 21.8601 116.443 22.0741 116.52 22.0741C116.581 22.0741 116.718 22.3492 116.825 22.6703C116.917 22.9913 117.101 23.3123 117.223 23.3581C117.345 23.404 117.452 23.5874 117.452 23.7556C117.452 24.0919 117.636 24.1377 118.033 23.9237C118.4 23.7403 119.745 24.153 119.745 24.4588C119.745 24.581 119.867 24.7186 120.02 24.7645C120.158 24.8103 120.433 24.9173 120.616 25.0091C121.044 25.2231 121.763 24.9785 121.962 24.5505C122.038 24.367 122.191 24.2142 122.298 24.2142C122.39 24.2142 122.512 24.0766 122.573 23.9084C122.619 23.7556 122.894 23.3887 123.169 23.1136C123.444 22.8384 123.72 22.4104 123.781 22.1811C123.842 21.9212 124.041 21.6919 124.27 21.6155C124.469 21.5391 124.835 21.2945 125.065 21.0805C125.294 20.8665 125.6 20.6525 125.753 20.6066C125.89 20.5607 126.012 20.4232 126.012 20.3162C126.012 20.1939 126.165 19.9646 126.333 19.7964C126.548 19.5977 126.639 19.3837 126.578 19.185C126.532 19.0168 126.548 18.8945 126.609 18.9098C126.807 18.971 127.694 18.5124 127.602 18.3901C127.556 18.3137 127.847 18.2525 128.229 18.2525C128.749 18.2525 128.902 18.2067 128.825 18.0538C128.733 17.9162 128.764 17.9162 128.932 18.0385C129.253 18.2831 129.987 18.436 129.987 18.2525C129.987 18.1761 130.094 18.0997 130.216 18.0997C130.339 18.0997 130.446 18.0232 130.446 17.9315C130.446 17.8551 130.522 17.8245 130.598 17.8704C130.69 17.9315 130.843 17.9162 130.95 17.8398C131.057 17.7634 131.516 17.5799 131.974 17.4271C132.479 17.2589 133.121 16.892 133.579 16.4793C134.007 16.1124 134.527 15.7761 134.756 15.715C135.001 15.6691 135.245 15.5163 135.337 15.3787C135.459 15.1647 135.505 15.1494 135.628 15.3328C135.719 15.4857 135.949 15.5163 136.438 15.4398C138.639 15.1035 140.917 14.5991 141.574 14.2781C141.926 14.1099 142.262 13.9723 142.323 13.9723C142.399 13.9723 142.919 13.7736 143.485 13.529L144.524 13.101L143.638 12.994C142.399 12.8564 141.299 12.6424 141.727 12.6119C142.002 12.5966 142.078 12.5201 142.033 12.245C142.002 11.9698 142.063 11.9087 142.43 11.9087C142.751 11.9087 142.889 11.9851 142.919 12.1839C142.934 12.352 142.996 12.5201 143.057 12.566C143.194 12.7189 144.799 12.8564 144.983 12.7342C145.075 12.673 145.182 12.3367 145.197 11.9698C145.227 11.3431 145.197 11.2972 144.677 11.0374C144.218 10.8234 144.188 10.7928 144.555 10.8692C145.044 10.9609 145.564 10.6399 145.243 10.4412C145.09 10.3342 145.12 10.3036 145.319 10.3036C145.518 10.3036 145.579 10.2272 145.503 10.0132C145.411 9.70747 145.747 9.53932 146.511 9.53932C147.138 9.53932 147.52 9.01958 147.001 8.88201C146.802 8.83615 146.832 8.80558 147.108 8.775C147.322 8.75972 147.551 8.74443 147.627 8.75972C147.857 8.80558 149.003 8.27056 149.187 8.02597C149.278 7.90368 149.462 7.85782 149.599 7.90368C149.737 7.94954 149.89 7.93426 149.936 7.85782C149.997 7.76611 149.92 7.70496 149.783 7.70496C149.645 7.70496 149.584 7.62853 149.63 7.5521C149.691 7.46038 149.538 7.39923 149.278 7.39923C148.835 7.39923 148.545 7.73553 148.728 8.02597C148.82 8.17884 148.132 8.2247 147.979 8.05655C147.918 8.01069 148.009 7.85782 148.178 7.75082C148.606 7.4451 148.529 6.68078 148.055 6.35977C147.612 6.06933 147.826 5.91646 148.545 5.9929C148.942 6.03875 149.049 6.11518 148.988 6.29862C148.927 6.4362 148.957 6.49734 149.049 6.4362C149.156 6.35977 149.187 6.4362 149.141 6.63492C149.018 7.1088 149.248 6.98651 149.416 6.48206C149.508 6.22219 149.691 6.02347 149.813 6.02347C149.936 6.02347 150.012 5.91646 149.981 5.74831C149.951 5.56488 149.767 5.48845 149.355 5.45787C149.034 5.45787 148.728 5.39673 148.667 5.33558C148.606 5.25915 148.713 5.24387 148.881 5.28972C149.064 5.33558 149.309 5.3203 149.416 5.24387C149.569 5.15215 149.508 5.091 149.217 4.96871C149.003 4.89228 148.774 4.73942 148.713 4.6477C148.636 4.52541 148.545 4.52541 148.392 4.66299C148.025 4.96871 147.948 4.66299 148.315 4.35726C148.59 4.11268 148.804 4.06682 149.294 4.14325C149.813 4.2044 149.89 4.18911 149.813 3.9751C149.752 3.80695 149.798 3.73052 149.981 3.71523C150.195 3.71523 150.195 3.68466 149.936 3.57766C149.553 3.4248 149.767 3.33308 150.761 3.22607C151.128 3.18021 151.479 3.07321 151.525 2.99678C151.571 2.90506 151.877 2.79806 152.183 2.73691C152.504 2.67577 152.718 2.56876 152.672 2.49233C152.626 2.4159 152.84 2.35475 153.13 2.35475C153.421 2.35475 153.696 2.29361 153.742 2.23246C153.788 2.15603 154.307 2.01846 154.904 1.91145C156.448 1.6363 156.081 1.42229 153.925 1.31528C152.657 1.26943 152.091 1.3 151.938 1.42229C151.678 1.6363 151.021 1.49872 151.158 1.26943C151.22 1.193 151.143 1.13185 151.021 1.13185C150.883 1.13185 150.792 1.20828 150.822 1.31528C150.837 1.407 150.73 1.52929 150.578 1.55987C150.425 1.59044 150.333 1.52929 150.348 1.42229C150.379 1.31528 150.257 1.193 150.088 1.16242C149.92 1.13185 149.829 1.14713 149.905 1.22357C149.966 1.28471 149.691 1.46815 149.294 1.62101C148.422 1.95731 148.33 1.95731 148.713 1.69744C148.866 1.57515 148.942 1.407 148.881 1.3C148.82 1.20828 148.881 1.10128 149.003 1.05542C149.141 1.00956 149.355 0.948414 149.492 0.902554C149.905 0.764978 149.691 0.703833 148.575 0.596828C147.994 0.535683 147.26 0.398106 146.955 0.291101C146.221 0.0312347 141.436 -0.0910549 138.7 0.0770931ZM132.693 1.20828C132.693 1.46815 132.693 1.46815 132.341 1.33057C132.096 1.23885 132.096 1.22357 132.372 1.11656C132.524 1.05542 132.662 0.994272 132.677 0.994272C132.677 0.978987 132.693 1.08599 132.693 1.20828ZM147.413 1.28471C147.291 1.36114 147.046 1.42229 146.878 1.42229C146.634 1.407 146.634 1.39172 146.955 1.28471C147.49 1.11656 147.688 1.11656 147.413 1.28471ZM101.203 1.52929C101.157 1.57515 101.019 1.59044 100.912 1.54458C100.79 1.49872 100.836 1.45286 101.004 1.45286C101.172 1.43757 101.264 1.48343 101.203 1.52929ZM101.967 2.62991C101.6 2.66048 101.325 2.78277 101.203 2.98149C100.958 3.37894 100.821 3.34836 100.897 2.90506C100.974 2.49233 101.432 2.35475 102.166 2.50762C102.472 2.56876 102.441 2.59933 101.967 2.62991ZM104.382 2.50762C104.428 2.58405 104.352 2.66048 104.214 2.66048C103.97 2.66048 103.97 2.67577 104.245 2.88977C104.52 3.10378 104.505 3.10378 104.122 2.95092C103.786 2.79806 103.74 2.72162 103.863 2.55348C104.077 2.3089 104.26 2.29361 104.382 2.50762ZM101.86 3.5318C101.86 3.66938 101.814 3.71523 101.753 3.6388C101.677 3.56237 101.57 3.45537 101.478 3.39422C101.386 3.33308 101.447 3.27193 101.6 3.27193C101.738 3.27193 101.86 3.37894 101.86 3.5318ZM101.554 3.79167C101.554 3.83753 101.493 3.91396 101.402 3.95982C101.325 4.00567 101.249 3.9751 101.249 3.89867C101.249 3.80695 101.325 3.73052 101.402 3.73052C101.493 3.73052 101.554 3.76109 101.554 3.79167ZM98.65 4.41841C98.543 4.5407 98.3901 4.6477 98.2984 4.6477C98.2067 4.6477 98.2678 4.5407 98.436 4.41841C98.8181 4.12797 98.8946 4.12797 98.65 4.41841ZM113.524 5.36616C113.417 5.39673 113.233 5.39673 113.141 5.36616C113.034 5.3203 113.111 5.28972 113.325 5.28972C113.539 5.28972 113.615 5.3203 113.524 5.36616ZM111.231 5.51902C111.124 5.54959 110.94 5.54959 110.848 5.51902C110.741 5.47316 110.818 5.44259 111.032 5.44259C111.246 5.44259 111.322 5.47316 111.231 5.51902ZM86.0388 6.49734C86.2069 6.75721 86.0235 6.81836 85.8095 6.55849C85.6872 6.42091 85.6872 6.32919 85.7789 6.32919C85.8706 6.32919 85.9929 6.40563 86.0388 6.49734ZM83.6235 6.72664C83.5777 6.7725 83.4401 6.78778 83.3331 6.74192C83.2108 6.69607 83.2567 6.65021 83.4248 6.65021C83.593 6.63492 83.6847 6.68078 83.6235 6.72664ZM144.127 9.38646C144.173 9.46289 144.142 9.53932 144.066 9.53932C143.974 9.53932 143.897 9.46289 143.897 9.38646C143.897 9.29474 143.928 9.23359 143.959 9.23359C144.004 9.23359 144.081 9.29474 144.127 9.38646ZM143.79 9.84505C143.347 10.0285 143.332 10.4106 143.76 10.5329C144.173 10.6705 144.066 10.7775 143.622 10.6552C143.424 10.6094 143.286 10.4565 143.286 10.2883C143.286 10.1355 143.164 9.93676 143.026 9.86033C142.812 9.73804 142.904 9.70747 143.439 9.70747C144.004 9.70747 144.066 9.73804 143.79 9.84505ZM145.166 9.79919C145.059 9.82976 144.845 9.82976 144.708 9.79919C144.555 9.75333 144.646 9.72275 144.891 9.72275C145.151 9.72275 145.258 9.75333 145.166 9.79919ZM145.227 10.0896C145.182 10.1355 145.044 10.1508 144.937 10.1049C144.815 10.0591 144.861 10.0132 145.029 10.0132C145.197 9.99791 145.289 10.0438 145.227 10.0896ZM116.459 19.7506C116.413 19.7964 116.29 19.7506 116.183 19.6436C116.046 19.4907 116.061 19.4754 116.275 19.5671C116.428 19.613 116.504 19.7047 116.459 19.7506Z" fill="black"/>
<path d="M86.8796 3.56253C86.4974 3.60839 86.1917 3.73068 86.1917 3.83768C86.1917 3.94469 86.0541 4.12812 85.8859 4.25041C85.7178 4.3727 85.6108 4.51028 85.6566 4.55614C85.7025 4.602 86.2528 4.66314 86.8643 4.709C87.4757 4.73957 88.0566 4.84658 88.1483 4.9383C88.24 5.03001 88.5763 5.10645 88.8821 5.10645C89.3712 5.10645 89.4935 5.03001 89.6769 4.64786C89.9062 4.20455 89.9062 4.18927 89.4324 3.97526C89.1572 3.85297 88.7751 3.73068 88.561 3.68482C88.347 3.63896 88.0413 3.57781 87.8732 3.53196C87.705 3.50138 87.2617 3.50138 86.8796 3.56253Z" fill="black"/>
<path d="M80.5053 4.25101C79.3129 4.43444 78.8849 4.64845 79.7104 4.64845C80.0008 4.64845 80.3066 4.7096 80.3983 4.77074C80.5053 4.83189 80.1078 4.87775 79.527 4.87775C78.7474 4.87775 78.4263 4.93889 78.3193 5.10704C78.1053 5.45863 78.5639 5.61149 79.5728 5.50449C80.5053 5.41277 81.2696 5.06118 80.8874 4.90832C80.7804 4.86246 80.918 4.86246 81.2084 4.90832C81.5753 4.96947 81.6976 4.95418 81.6212 4.83189C81.5447 4.7096 81.6365 4.64845 81.8658 4.64845C82.0645 4.64845 82.3243 4.57202 82.4466 4.49559C82.6454 4.35801 82.6454 4.32744 82.4466 4.18986C82.1715 4.02171 81.9575 4.02171 80.5053 4.25101Z" fill="black"/>
<path d="M74.039 5.39739C73.0301 5.4891 72.2964 5.65725 70.5843 6.19228C70.3245 6.26871 69.9423 6.32985 69.7283 6.32985C69.5143 6.32985 69.1321 6.40628 68.857 6.498C68.2761 6.71201 68.1997 7.07888 68.7805 6.97188C69.0251 6.92602 69.2239 6.98716 69.3003 7.10945C69.4073 7.2776 69.499 7.26232 69.7436 7.03302C69.9576 6.8343 70.0646 6.80373 70.0646 6.9413C70.0646 7.07888 70.2022 7.10945 70.5538 7.03302C71.0124 6.9413 71.0276 6.95659 70.7525 7.15531C70.462 7.38461 70.462 7.38461 70.8595 7.39989C71.0888 7.39989 71.4404 7.33875 71.6544 7.24703C71.8684 7.1706 72.0518 7.14003 72.0518 7.1706C72.0518 7.21646 71.8684 7.32346 71.6391 7.41518C71.2722 7.55276 71.2416 7.59862 71.4709 7.72091C71.6085 7.79734 72.0212 7.88906 72.3881 7.91963C72.7856 7.9502 73.0301 8.02663 72.9996 8.14892C72.9079 8.57694 73.7639 8.63808 75.6288 8.33236C76.653 8.16421 78.1052 7.99606 78.8542 7.9502C79.9701 7.88906 80.3981 7.79734 81.0402 7.46104C81.9879 6.97188 81.8962 6.71201 80.8262 6.77316L80.1077 6.80373L80.3523 6.43686C80.5816 6.06998 80.551 5.87126 80.2759 5.87126C80.1994 5.87126 80.1841 5.94769 80.2453 6.0547C80.3064 6.1617 80.2911 6.17699 80.1689 6.11584C80.0771 6.0547 79.7408 6.08527 79.4198 6.17699C78.3192 6.51329 78.3804 6.48272 78.6249 6.63558C78.8084 6.75787 78.7778 6.78844 78.5179 6.78844C78.1052 6.78844 78.0441 7.04831 78.4415 7.14003C78.5791 7.18589 78.3039 7.21646 77.8148 7.23174C77.3256 7.23174 76.9587 7.18589 77.0046 7.10945C77.188 6.81901 76.5001 6.48272 75.5524 6.37571C74.5893 6.28399 74.5741 6.26871 75.0327 6.08527C75.2925 5.97827 75.4301 5.87126 75.3384 5.85598C75.2619 5.84069 75.3842 5.79483 75.6288 5.73369C75.8887 5.68783 76.0874 5.56554 76.0874 5.4891C76.1027 5.29038 75.5065 5.2751 74.039 5.39739ZM73.718 6.80373L74.4212 6.92602L73.7027 6.88016C73.3206 6.84959 72.9079 6.88016 72.7856 6.95659C72.6327 7.06359 72.6633 7.09417 72.8926 7.10945C73.0607 7.10945 73.1219 7.15531 73.0301 7.18589C72.9384 7.23174 72.6938 7.18589 72.4951 7.10945C72.2353 7.00245 72.2047 6.95659 72.4034 6.95659C72.541 6.9413 72.6633 6.86487 72.6633 6.77316C72.6633 6.66615 72.4798 6.65086 72.1741 6.71201C71.6697 6.80373 71.6697 6.80373 72.0518 6.58972C72.3117 6.45214 72.5257 6.42157 72.7244 6.52857C72.8773 6.60501 73.3206 6.7273 73.718 6.80373ZM74.2683 6.48272C74.2225 6.55915 74.039 6.63558 73.8709 6.63558C73.7027 6.63558 73.611 6.55915 73.6569 6.48272C73.7027 6.391 73.8862 6.32985 74.0543 6.32985C74.2225 6.32985 74.3142 6.391 74.2683 6.48272ZM74.1155 7.85848C74.1766 7.9502 74.0085 8.01135 73.7027 7.99606C73.2289 7.98077 73.2136 7.98077 73.5805 7.85848C73.7945 7.79734 73.9779 7.73619 73.9932 7.72091C74.0085 7.70562 74.0696 7.76677 74.1155 7.85848Z" fill="black"/>
<path d="M64.8214 8.42369C64.5616 8.46955 64.3323 8.6377 64.2253 8.86699C64.1336 9.06571 63.9654 9.23386 63.8737 9.23386C63.7667 9.23386 63.3692 9.40202 62.9718 9.61602C62.5744 9.83003 62.1769 9.99818 62.0852 9.99818C61.9935 9.99818 61.7948 10.0899 61.6725 10.2122C61.5349 10.3192 61.1069 10.5332 60.7094 10.6861C60.312 10.8389 60.0215 11.0071 60.0674 11.0835C60.098 11.1447 60.2203 11.1752 60.3273 11.1447C60.6177 11.0377 61.0916 11.4809 60.9846 11.7561C60.847 12.1077 61.2139 12.1841 61.9782 11.9395C62.3451 11.8173 62.9259 11.7102 63.247 11.695C63.5833 11.6797 64.0266 11.5421 64.2406 11.3892C64.7603 11.0224 66.5182 10.4415 66.6252 10.6096C66.6711 10.6708 66.4724 10.7778 66.1972 10.8236C65.9373 10.8848 65.5705 11.0224 65.4176 11.1447C65.1272 11.3739 65.1272 11.3739 65.4023 11.5727C65.6622 11.7714 65.6469 11.802 65.2036 11.9548C64.638 12.1535 64.6227 12.1841 64.959 12.5051C65.1577 12.7191 65.4329 12.7344 66.5947 12.658C68.1691 12.5357 68.1386 12.5357 68.75 12.5663C68.9946 12.5816 69.1628 12.6427 69.1016 12.6886C69.0557 12.7344 68.2303 12.7956 67.2825 12.8261C64.9896 12.872 64.2559 13.0096 64.2559 13.3765C64.2559 13.8809 64.6839 14.1255 65.601 14.1255C66.2584 14.1255 66.4112 14.1713 66.2736 14.3089C66.1666 14.4159 66.0902 14.5994 66.0902 14.7369C66.0902 14.9662 66.2736 14.9815 67.4354 14.9509C68.1691 14.9204 69.1169 14.8287 69.5296 14.7369C69.9576 14.6452 70.5997 14.5382 70.9818 14.5076L71.6697 14.4465L71.0583 14.5688C69.8048 14.8287 69.5143 15.0274 69.6061 15.6388C69.6213 15.7917 69.4991 15.8223 69.0405 15.7305C68.4137 15.6235 68.2761 15.5471 68.4137 15.4095C68.4749 15.3637 68.643 15.3942 68.8112 15.486C69.178 15.6847 69.3615 15.5318 69.071 15.2567C68.9029 15.0885 68.7653 15.0732 68.429 15.2108C67.573 15.5471 65.6469 15.6847 65.1119 15.4401C64.8979 15.3331 64.852 15.3484 64.9284 15.4707C65.0049 15.6083 64.8367 15.6541 64.3323 15.6235C63.5221 15.593 63.6903 15.4095 64.6839 15.2567C65.4788 15.1344 65.6316 14.9204 65.1883 14.5688C64.9437 14.3701 64.6074 14.2936 63.9807 14.3089C63.5068 14.3242 62.7731 14.2172 62.3756 14.0796C61.9782 13.942 61.5502 13.8198 61.4432 13.8198C61.3209 13.8198 61.1527 13.7128 61.0457 13.5905C60.7859 13.2847 59.5477 13.2847 58.9362 13.6058C58.6611 13.728 58.3095 13.8045 58.1413 13.7433C57.8203 13.6363 57.7133 13.3612 57.9885 13.3612C58.0802 13.3612 58.1413 13.4223 58.1413 13.514C58.1413 13.5905 58.2178 13.6669 58.3095 13.6669C58.3859 13.6669 58.4318 13.6058 58.3859 13.5293C58.3401 13.4529 58.4012 13.3612 58.5235 13.3C58.6458 13.2542 58.7528 13.1472 58.7528 13.0554C58.7528 12.872 58.019 13.0096 57.6827 13.2694C57.4687 13.4529 56.6738 13.8198 56.521 13.8198C56.4904 13.8198 56.5057 13.5446 56.5516 13.2083C56.628 12.7191 56.5974 12.5816 56.3834 12.5051C56.2458 12.444 56.0777 12.4746 56.0012 12.5816C55.8484 12.8414 55.1146 13.2083 54.7631 13.2083C54.5643 13.2083 54.5032 13.1319 54.5796 12.9484C54.6561 12.7497 54.6255 12.7191 54.3809 12.8109C54.228 12.8873 53.9529 12.9637 53.7847 12.979C52.7453 13.1319 50.8956 13.5293 50.6816 13.6669C50.4829 13.7892 50.5287 13.8045 50.8803 13.7433C51.2778 13.6669 51.2931 13.6669 51.0485 13.8198C50.8345 13.9726 50.6816 13.9573 50.3606 13.8045C49.9326 13.5905 48.511 13.514 48.511 13.6975C48.511 13.7739 48.3734 13.8198 48.2205 13.8198C48.0524 13.8198 47.8078 13.942 47.6702 14.0796C47.2269 14.5229 45.5148 14.2631 45.6983 13.7739C45.7441 13.6363 45.5454 13.5752 44.9645 13.5446C43.9098 13.4987 43.3136 13.3765 43.3136 13.1777C43.3136 13.1013 42.855 13.0402 42.213 13.0554C41.6015 13.0554 40.6538 12.9943 40.1035 12.9026C39.5532 12.8109 38.529 12.6886 37.8105 12.6274C36.8475 12.551 36.5265 12.4746 36.5571 12.3217C36.5876 12.1535 36.4042 12.123 35.7469 12.1688C35.1507 12.1994 34.8909 12.1535 34.8297 12.0007C34.7839 11.8937 34.6463 11.8325 34.524 11.8937C34.4017 11.9395 34.2488 11.8784 34.1724 11.7408C34.0654 11.5574 33.9278 11.5727 33.1482 11.8478C32.6438 12.016 31.7877 12.1841 31.2374 12.2147C30.6871 12.2453 29.8311 12.3676 29.3266 12.5051C28.8375 12.6427 28.2107 12.7497 27.9356 12.7497C27.4006 12.7497 26.2388 13.1319 24.9548 13.728C24.435 13.9726 23.5637 14.2019 22.8147 14.2936C22.1115 14.3854 21.3319 14.5535 21.1026 14.6758C20.858 14.7981 20.537 14.8898 20.3689 14.8898C19.9867 14.8898 20.002 15.1497 20.3841 15.272C20.7969 15.4095 21.0873 15.9293 20.858 16.1586C20.5982 16.4184 20.6593 16.5713 20.9956 16.5713C21.2096 16.5713 21.2708 16.6477 21.1943 16.8312C21.0567 17.2133 20.537 17.6413 20.2466 17.626C19.8186 17.5955 19.0695 17.3662 19.3294 17.3509C19.467 17.3509 19.6657 17.2286 19.7727 17.1063C20.0173 16.8006 19.8491 16.8006 18.4734 17.1216C17.1587 17.412 16.425 17.5802 15.3397 17.7942C14.4072 17.9929 14.0862 18.1916 14.4683 18.3445C14.6976 18.4362 14.6976 18.4821 14.4225 18.8642C14.0098 19.4298 14.1779 19.5216 15.5384 19.5063C16.1346 19.491 16.7001 19.5521 16.7919 19.6286C16.9142 19.7356 17.1587 19.705 17.5256 19.5521C18.1676 19.2923 18.6109 19.2464 18.2441 19.4757C18.0606 19.598 18.0606 19.6286 18.2288 19.6286C18.5498 19.6286 17.6938 20.3776 17.2505 20.4846C17.0364 20.5304 16.6237 20.5304 16.3333 20.4846C16.0275 20.4234 15.7983 20.4387 15.7983 20.5304C15.7983 20.775 14.8505 21.0196 14.3002 20.9126C13.7805 20.8056 13.383 20.9432 12.5576 21.4935C12.3435 21.6463 12.0531 21.7686 11.9155 21.7686C11.6709 21.7686 10.5856 22.2272 10.448 22.3954C10.4022 22.4412 10.1729 22.533 9.9436 22.5941C9.51558 22.7011 9.13342 23.3278 9.31686 23.6183C9.36272 23.6947 9.22514 23.817 9.02642 23.8934C8.70541 24.0157 8.64426 24.138 8.65955 24.5813C8.67483 25.0705 8.72069 25.1316 9.05699 25.1316C9.28629 25.1316 9.7143 25.0705 10.02 24.994C10.5398 24.8718 10.5856 24.887 10.448 25.1316C10.3563 25.2845 10.1576 25.4526 10.0047 25.5138C9.83659 25.5596 9.6073 25.7737 9.46972 25.9724C9.33214 26.1864 9.10285 26.3545 8.96527 26.3545C8.78184 26.3545 8.75127 26.4004 8.87356 26.5227C8.99585 26.645 9.13342 26.645 9.378 26.5074C9.6073 26.3851 9.68373 26.3851 9.62259 26.4921C9.46972 26.7214 9.62259 26.7061 10.1423 26.431C10.6773 26.1558 11.4264 26.2781 11.3041 26.5991C11.1971 26.8895 11.6709 26.8743 11.885 26.5685C12.0225 26.4004 12.1601 26.3698 12.4353 26.4768C12.8021 26.6144 12.8021 26.6144 12.1295 27.1189C11.7474 27.394 11.1359 27.7456 10.7538 27.9137C10.3716 28.0819 9.92831 28.2653 9.76016 28.3418C9.59201 28.4182 8.9347 28.6475 8.30796 28.8462C6.91691 29.3048 6.32074 29.5647 6.32074 29.7481C6.32074 29.8245 6.18317 29.8092 6.0303 29.7328C5.73986 29.5647 5.2507 29.7022 3.49277 30.3748C2.46859 30.7723 2.28516 30.8181 1.70428 30.8793C0.970534 30.9557 -0.175939 31.5366 0.0227828 31.7353C0.114501 31.827 0.28265 31.827 0.481372 31.72C0.649521 31.6283 0.98582 31.5519 1.2304 31.5519C1.4597 31.5519 1.85714 31.4449 2.11701 31.3073C2.36159 31.185 2.71317 31.1086 2.88132 31.1544C3.04947 31.2003 3.32463 31.1239 3.47749 31.0169C3.63035 30.8946 3.81379 30.8334 3.89022 30.864C3.95136 30.9099 4.04308 30.8793 4.10423 30.7876C4.27238 30.4971 4.96026 30.6194 5.05198 30.9404C5.1437 31.292 5.26599 31.3226 5.52585 31.0627C5.64814 30.9404 5.75515 30.9404 5.9233 31.078C6.10673 31.2309 6.18317 31.2003 6.32074 30.9557C6.45832 30.6958 6.44303 30.6347 6.24431 30.6347C6.12202 30.6347 6.01502 30.5277 6.01502 30.3901C6.01502 30.2067 6.10673 30.1608 6.39717 30.2373C6.64175 30.2984 6.91691 30.2373 7.16149 30.0844C7.36021 29.9621 7.60479 29.8857 7.68122 29.9468C7.86466 30.0538 8.87356 29.6258 9.19457 29.3048C9.31686 29.1978 9.46972 29.1366 9.54615 29.1825C9.62259 29.2436 9.68373 29.1978 9.68373 29.1061C9.68373 29.0144 9.86717 28.9838 10.1576 29.0296C10.4328 29.0755 10.5856 29.0602 10.5398 28.9685C10.4939 28.8921 10.7232 28.7851 11.0595 28.7239C11.3958 28.6628 11.8238 28.5099 12.0072 28.357C12.2977 28.143 12.7104 27.9749 13.811 27.6539C13.8569 27.6386 14.0862 27.5469 14.3155 27.4551C14.5601 27.3481 14.8658 27.2717 15.0034 27.2717C15.1409 27.2717 15.5384 27.1036 15.8747 26.8895C16.211 26.6908 16.639 26.5074 16.8071 26.5074C17.2657 26.5074 17.6173 26.0794 17.3116 25.8807C17.1434 25.7737 17.1587 25.7431 17.4033 25.7278C17.5715 25.7125 17.7855 25.7125 17.8772 25.7278C17.9842 25.7431 18.0912 25.6514 18.1523 25.5138C18.1982 25.3915 18.4122 25.2845 18.6262 25.2845C18.8402 25.2845 19.0084 25.2081 19.0084 25.1316C19.0084 25.0399 19.1307 24.9788 19.2835 24.9788C19.4364 24.9788 19.681 24.887 19.8491 24.78C20.2771 24.4896 20.6899 24.352 20.6899 24.5049C20.6899 24.566 20.5064 24.7036 20.2924 24.7953C20.0784 24.9023 19.9561 25.0552 20.002 25.1316C20.0631 25.2233 19.895 25.3609 19.6351 25.4526C19.3752 25.5444 19.1612 25.6819 19.1612 25.7584C19.1612 26.0029 19.9714 25.8959 21.0415 25.5291C21.607 25.3304 22.0656 25.1928 22.0656 25.2386C22.0656 25.2845 22.1574 25.2539 22.2644 25.1622C22.4937 24.9635 23.4261 24.9023 23.7777 25.0552C23.9459 25.1163 24.3127 25.0246 24.7407 24.8259C25.3675 24.5202 25.6426 24.2144 25.2758 24.2144C25.1993 24.2144 25.1229 24.2756 25.1229 24.3673C25.1229 24.4437 25.0618 24.5202 24.9853 24.5202C24.9089 24.5202 24.863 24.3979 24.8936 24.245C24.9089 24.0769 25.0465 24.0004 25.2605 24.0157C25.4286 24.0463 25.5815 23.9852 25.5815 23.9087C25.5815 23.817 25.7496 23.7559 25.9636 23.7559C26.4069 23.7559 26.4222 24.0922 25.9789 24.2144C25.8108 24.2603 25.6579 24.3826 25.6273 24.4743C25.5815 24.6119 25.7038 24.6119 26.0859 24.4896C26.4528 24.3826 26.7432 24.3826 27.049 24.4896C27.477 24.6425 27.477 24.6578 27.156 24.7495C26.9573 24.8106 26.8044 24.9329 26.8044 25.0093C26.8044 25.1011 26.9114 25.1163 27.0795 25.0399C27.2171 24.9788 27.8286 24.9023 28.4247 24.8565C29.2502 24.8106 29.6324 24.8565 30.0145 25.0552C30.3202 25.2081 30.6565 25.2692 30.9164 25.2233C31.1763 25.1469 31.2527 25.1622 31.0998 25.2692C30.9317 25.3762 30.9623 25.4679 31.2833 25.7431C31.4973 25.9265 31.7113 26.2475 31.7572 26.4463C31.8183 26.645 31.9253 26.8131 32.0017 26.8131C32.2463 26.8131 31.9712 27.9443 31.6349 28.3265C31.4209 28.571 31.3903 28.6628 31.5432 28.6169C31.7113 28.5558 31.7724 28.6322 31.7724 28.8768C31.7724 29.0755 31.7266 29.1978 31.6654 29.1519C31.589 29.1214 31.5432 29.1978 31.5432 29.3201C31.5432 29.6717 31.7877 29.6258 32.0629 29.2284C32.2005 29.0449 32.338 28.9379 32.3839 28.9838C32.4298 29.0296 32.2616 29.2436 32.0017 29.4576C31.4514 29.9315 31.4361 30.0232 31.8947 30.0385H32.231L31.8947 30.1761C31.6043 30.2984 31.5584 30.4207 31.6043 30.8181C31.6502 31.2462 31.7113 31.3226 32.1087 31.3532C32.4145 31.3837 32.6743 31.292 32.8425 31.0933C33.1024 30.8028 33.1329 30.8028 33.3164 31.0627C33.4998 31.3073 33.5151 31.292 33.6832 30.9404L33.8361 30.5583L33.7597 30.971C33.7138 31.2003 33.7444 31.4296 33.8361 31.4754C33.9125 31.5213 33.989 31.6589 33.989 31.7506C33.989 31.8729 33.9431 31.8576 33.8514 31.72C33.7444 31.5519 33.6832 31.5672 33.5609 31.7965C33.4692 31.9493 33.3469 32.041 33.3011 31.9799C33.1482 31.827 32.7202 32.2703 32.8425 32.4538C32.8883 32.5302 32.8578 32.6372 32.7661 32.6984C32.5368 32.8512 32.5826 33.0347 32.9495 33.3862C33.1329 33.5544 33.1941 33.692 33.0871 33.692C32.9801 33.692 32.9189 33.8295 32.9495 34.0283C32.9801 34.227 33.0871 34.3646 33.2094 34.334C33.3469 34.3034 33.3164 34.4563 33.1024 34.8232C32.8883 35.1747 32.8425 35.404 32.9495 35.4652C33.0565 35.5263 33.0412 35.6028 32.9189 35.6792C32.7661 35.7709 32.8425 35.9085 33.1635 36.2295C33.4845 36.5352 33.5304 36.6116 33.3011 36.5199C32.9036 36.3671 32.6285 36.3671 32.2005 36.5046C31.9865 36.5658 31.8489 36.5505 31.8489 36.4588C31.8489 36.3824 32.0017 36.2754 32.2005 36.2448C32.4909 36.1989 32.4909 36.1836 32.1546 36.1989C31.8336 36.2142 31.7724 36.2906 31.803 36.6269C31.8183 36.8715 31.7572 37.055 31.6502 37.055C31.5432 37.055 31.6349 37.1467 31.8489 37.2537C32.0629 37.3607 32.2463 37.5288 32.2463 37.6358C32.2616 37.7428 32.2769 37.8804 32.2922 37.9568C32.2922 38.0333 32.445 38.1556 32.6132 38.2014C32.7813 38.2626 32.8883 38.3696 32.8425 38.446C32.7813 38.5224 32.8578 38.6294 32.9801 38.6753C33.1176 38.7212 33.1788 38.8282 33.1329 38.9046C33.0871 38.981 33.1482 39.0422 33.2552 39.0422C33.3622 39.0422 33.5762 39.1492 33.7444 39.2715C34.0042 39.4702 34.0042 39.4855 33.6068 39.4549C33.1482 39.4243 33.0871 39.5008 32.7049 40.6931C32.445 41.488 31.5737 43.1083 31.1916 43.5058C31.0846 43.6128 30.8247 43.9491 30.626 44.2395C30.4272 44.53 29.9839 45.065 29.6476 45.4319C28.8069 46.3337 28.5317 46.7923 28.2566 47.6789C28.1343 48.0917 27.7674 48.7796 27.4311 49.177C26.9114 49.7884 26.8503 49.9566 26.9878 50.2012C27.1254 50.4152 27.0948 50.5986 26.8961 51.0419C26.6668 51.5005 26.6515 51.684 26.7891 51.9897C26.8961 52.2037 26.9267 52.4941 26.8808 52.647C26.835 52.7999 26.8655 52.968 26.942 53.0139C27.0184 53.075 27.049 53.3502 27.0031 53.6559C26.942 54.038 26.9725 54.2521 27.1254 54.3438C27.3088 54.4661 27.3088 54.4966 27.1254 54.6189C26.9267 54.7412 26.9267 54.8941 27.1101 55.6584C27.2324 56.1476 27.3241 56.7896 27.3241 57.08C27.3394 57.5845 27.37 57.615 27.9203 57.6609C28.2872 57.6915 28.4859 57.7832 28.4859 57.9361C28.4859 58.1195 28.7763 58.2265 29.1585 58.1653C29.2349 58.1501 29.2502 58.2418 29.2043 58.3794C29.1432 58.5169 29.1891 58.6087 29.3113 58.6087C29.6935 58.6087 29.9992 59.1437 29.9992 59.8316C29.9992 60.5042 30.1215 62.3538 30.1674 62.3538C30.1827 62.3538 30.2132 62.7207 30.2438 63.1793C30.2897 63.7754 30.3814 64.0506 30.6107 64.2034C30.7788 64.3257 31.054 64.662 31.2374 64.9525C31.5584 65.4569 31.5584 65.5181 31.3291 65.8696C31.0846 66.2518 30.947 66.313 30.4425 66.2671C30.2897 66.2518 30.1674 66.2824 30.1674 66.3588C30.1674 66.6187 31.4209 67.9333 31.5737 67.8416C31.7572 67.7193 32.7661 68.774 32.7661 69.0645C32.7661 69.1868 32.6591 69.4772 32.5368 69.7065C32.4145 69.9511 32.3075 70.2568 32.3075 70.3791C32.3075 70.6848 32.5979 70.9906 32.8883 70.9906C33.2399 70.9906 34.2947 72.2135 34.2947 72.6262C34.2947 72.8708 34.3558 72.9778 34.4934 72.9166C34.5851 72.8708 34.7991 72.7791 34.9673 72.7332C35.1966 72.6415 35.2272 72.5192 35.1507 72.0759C35.1049 71.7702 35.059 71.4033 35.059 71.2504C35.059 71.1129 34.9826 70.9906 34.8909 70.9906C34.8144 70.9906 34.7839 71.0823 34.8297 71.174C34.8909 71.281 34.7991 71.2046 34.631 71.0058C34.3405 70.6543 34.3253 70.6543 34.2488 70.9294C34.203 71.1434 34.1724 71.1129 34.1571 70.8071C34.1571 70.5778 34.2183 70.3485 34.2947 70.3027C34.524 70.1651 34.4781 69.9205 34.2335 69.9205C34.0042 69.9205 33.8055 69.0339 34.0195 68.9116C34.0807 68.8658 34.1418 68.7588 34.1418 68.6823C34.1418 68.5906 34.0807 68.5753 33.989 68.6212C33.8972 68.667 33.8361 68.5448 33.8361 68.346C33.8361 67.9639 33.2552 66.6798 33.0412 66.5881C32.8578 66.4964 32.9036 65.7168 33.1024 65.5181C33.1941 65.4263 33.2246 65.2888 33.1635 65.2276C33.1024 65.1665 32.9954 65.2123 32.9189 65.3346C32.7966 65.5181 32.7661 65.4875 32.7661 65.2276C32.7661 65.0442 32.7049 64.8455 32.6132 64.7996C32.5368 64.7537 32.4603 64.6315 32.4603 64.5245C32.4603 64.4327 32.5673 64.4939 32.7049 64.662C32.9342 64.9372 32.9342 64.9372 32.8425 64.4939C32.7202 63.9283 32.6285 63.8366 32.4756 64.0964C32.3839 64.234 32.2769 64.1576 32.0476 63.806C31.7724 63.378 31.7724 63.2557 31.9406 62.4149C32.1546 61.3449 32.2005 61.2838 32.5673 61.4366C32.7202 61.5131 32.9036 61.5436 32.9648 61.5283C33.1788 61.4825 33.7291 62.1092 33.6527 62.3079C33.6068 62.4149 33.6221 62.8888 33.6832 63.3474C33.7597 63.9436 33.7444 64.3104 33.5915 64.5856C33.4081 64.9678 33.4387 65.1818 33.6985 65.1818C33.7597 65.1818 33.775 65.0289 33.7291 64.8302C33.6832 64.6315 33.775 64.7079 33.9278 65.0289C34.0807 65.3193 34.2947 65.6556 34.4017 65.7626C34.5087 65.8696 34.6004 66.0225 34.6004 66.0989C34.6004 66.1754 34.7227 66.2671 34.8909 66.3282C35.0896 66.3894 35.1507 66.5117 35.0896 66.8021C35.0437 67.1078 35.0896 67.1996 35.3494 67.276C35.5176 67.3218 35.6705 67.4747 35.6705 67.6276C35.6705 67.7804 35.8233 67.9333 36.0068 67.9792C36.3125 68.0709 36.3125 68.0862 36.0832 68.453C35.9303 68.667 35.8233 68.9269 35.8233 69.0186C35.8233 69.2174 36.4042 69.7677 36.6182 69.7677C36.6946 69.7677 36.8322 69.9511 36.9392 70.1804C37.0309 70.425 37.2908 70.7766 37.5201 70.9906C37.7341 71.2046 38.0398 71.6173 38.1927 71.9077C38.3303 72.1982 38.6207 72.6568 38.8041 72.9166C39.1404 73.3447 39.2016 73.681 39.2016 74.965C39.2016 75.9128 39.171 76.035 38.9417 76.035C38.6207 76.035 38.6819 76.7076 39.0793 77.3038C39.2627 77.5942 39.6602 77.9611 39.9506 78.114C40.2411 78.2668 40.5468 78.5573 40.6232 78.7407C40.7608 79.0464 41.6474 79.4439 42.1824 79.4439C42.32 79.4439 42.641 79.6579 42.9162 79.9331C43.3748 80.4069 44.9492 81.2324 45.3773 81.2324C45.4843 81.2324 45.683 81.3241 45.79 81.4158C46.111 81.7216 46.9212 82.1496 47.181 82.1496C47.3033 82.1496 47.5938 82.2413 47.8231 82.3636C48.2664 82.5929 48.725 82.5164 49.6116 82.0884C49.8714 81.9508 50.2077 81.8438 50.3453 81.8438C50.972 81.8438 51.7364 82.333 52.3172 83.1126C53.265 84.3814 53.7236 84.7482 54.5643 84.8858C54.9771 84.947 55.4509 85.0693 55.6191 85.161C56.4904 85.6196 57.0866 85.7877 57.7439 85.7419C58.3095 85.7113 58.4165 85.7419 58.233 85.8794C58.019 86.017 58.0649 86.1393 58.5693 86.6896C59.9604 88.2794 60.2356 88.7991 59.9298 89.3036C59.7311 89.6093 59.9604 90.0679 60.4343 90.3125C60.847 90.5112 60.9081 90.5112 61.0457 90.2819C61.1833 90.0373 61.1833 90.0373 61.1986 90.2819C61.1986 90.4195 61.4279 90.6488 61.7183 90.7863C62.2533 91.0462 62.5132 91.3978 62.2686 91.5506C62.0852 91.6577 62.2533 92.0857 62.4674 92.0857C62.5591 92.0857 62.7884 92.2385 62.9871 92.422C63.3081 92.7124 63.3387 92.7277 63.3387 92.4831C63.3387 92.2997 63.4151 92.2385 63.5833 92.2997C63.7208 92.3455 63.9501 92.3914 64.103 92.3914C64.424 92.3914 64.638 92.8347 64.4087 93.064C64.1947 93.278 64.2253 93.4614 64.4851 93.4614C64.6227 93.4614 64.6686 93.3697 64.6227 93.2321C64.4851 92.8653 64.959 93.1099 65.2342 93.5532C65.4788 93.9047 65.494 93.9047 66.0138 93.6602C66.5947 93.385 66.6558 93.2169 66.3195 92.7583C66.0138 92.3608 66.0291 92.3455 66.5488 92.1162C66.8087 91.994 67.0074 91.8105 67.0074 91.7035C67.0074 91.5965 67.1144 91.4742 67.2367 91.4131C67.4507 91.3366 67.573 90.4042 67.3743 90.4042C67.3284 90.4042 66.8392 90.6488 66.3042 90.9392C65.2036 91.5506 65.0813 91.5659 64.6839 91.2144C64.4851 91.0462 64.4087 91.0309 64.4087 91.1685C64.4087 91.3214 64.3629 91.3214 64.1947 91.1685C64.0724 91.0768 63.996 90.9086 64.0418 90.8016C64.0877 90.6946 63.9348 90.5265 63.7208 90.4347C63.5068 90.343 63.3387 90.1596 63.3387 90.022C63.3387 89.8997 63.2622 89.7927 63.1858 89.7927C63.0941 89.7927 62.9565 89.6093 62.8801 89.3647C62.7884 89.1354 62.6508 88.7991 62.5591 88.631C62.4368 88.3864 62.4368 88.2182 62.5591 87.9889C62.6508 87.8208 62.7272 87.4998 62.7272 87.2858C62.7272 87.0718 62.8036 86.8883 62.8801 86.8883C62.9718 86.8883 63.0329 86.5215 63.0329 86.0782C63.0329 85.5737 63.1399 85.0693 63.3234 84.733C63.4915 84.4272 63.5833 84.0298 63.5527 83.8616C63.5068 83.6935 63.5374 83.5101 63.6444 83.4489C63.7514 83.3878 63.6597 83.2196 63.3845 82.975C63.1552 82.7763 62.8495 82.5012 62.7119 82.3789C62.4062 82.0884 60.5871 81.8286 60.3273 82.0273C60.1133 82.1954 58.8445 82.226 58.5999 82.0731C58.5082 82.012 58.3401 82.0579 58.2178 82.1496C58.0343 82.3024 57.9426 82.3024 57.7592 82.1496C57.6369 82.0579 57.4534 82.0273 57.3464 82.0884C57.2394 82.1496 57.3464 81.9967 57.5757 81.7368C57.8203 81.477 58.0343 81.0337 58.0955 80.6821C58.1413 80.3611 58.2483 79.9942 58.3401 79.8872C58.4165 79.7955 58.4471 79.7038 58.4012 79.7038C58.3553 79.7038 58.4776 79.5356 58.6763 79.3216C58.8904 79.1229 59.0585 78.8477 59.0585 78.7254C59.0585 78.6031 59.1349 78.3127 59.2419 78.0681C59.3337 77.8388 59.4254 77.5178 59.4254 77.3802C59.4407 77.2427 59.4865 77.0745 59.563 77.0134C59.6241 76.9522 59.67 76.7841 59.67 76.6465C59.67 76.4936 59.777 76.2949 59.8993 76.1879C60.098 76.0198 60.1133 76.035 60.0368 76.2491C59.8993 76.6006 60.1744 76.5548 60.4037 76.1879C60.526 75.9892 60.526 75.8822 60.4343 75.8822C60.3273 75.8822 60.3273 75.7752 60.4343 75.5612C60.5413 75.393 60.5719 75.0873 60.526 74.8886C60.4343 74.5523 60.3731 74.537 59.4865 74.5828C58.9515 74.5981 58.0649 74.7357 57.5146 74.8733C56.7197 75.0873 56.4598 75.2096 56.3223 75.5153C56.2305 75.7293 56.1541 75.9739 56.1541 76.0503C56.1541 76.142 55.986 76.5701 55.7872 76.9981C55.4204 77.8235 54.7478 78.3127 53.8612 78.4197C53.0357 78.5114 51.8739 78.7713 51.5682 78.9394C51.2931 79.0923 51.1861 79.0617 50.865 78.7407C50.6663 78.5267 50.2995 78.328 50.0702 78.2821C49.6574 78.1904 49.4128 77.8235 49.1988 76.8758C49.153 76.6159 48.9848 76.2949 48.8473 76.142C48.7097 75.9892 48.5874 75.5765 48.5721 75.2249C48.5568 74.8733 48.4804 74.4147 48.4039 74.2007C48.3122 73.9867 48.2664 73.681 48.2969 73.5128C48.5415 71.9995 49.1224 70.2568 49.581 69.6148C49.795 69.3091 49.9173 68.8658 49.9632 68.2237C50.0549 66.8327 50.3912 66.42 52.3937 65.2276C54.6255 63.8824 55.4204 63.592 55.8025 63.9741C55.879 64.0506 56.307 64.1423 56.7503 64.1423C57.2853 64.1576 57.5299 64.234 57.5299 64.3716C57.5299 64.4786 57.6216 64.5856 57.7286 64.6009C58.3706 64.6773 58.8445 64.6467 58.9362 64.5092C59.0432 64.341 59.5477 64.234 59.456 64.3869C59.4254 64.448 59.4407 64.6162 59.5018 64.769C59.5935 65.0136 59.6241 65.0136 59.8993 64.7996C60.205 64.5703 60.205 64.5703 59.8534 64.2952C59.5171 64.0353 59.5171 64.02 59.8075 63.7754C59.9604 63.6531 60.1133 63.4544 60.1591 63.3474C60.2508 63.057 63.461 63.0111 63.9196 63.2863C64.103 63.4086 64.2559 63.6073 64.2559 63.7143C64.2559 64.0964 64.7603 64.1423 65.2036 63.806C65.7233 63.4238 66.0902 63.4544 66.3348 63.9283C66.4265 64.1117 66.6099 64.3869 66.7475 64.5397C67.0685 64.8913 67.0685 65.2276 66.7781 65.7779C66.6711 66.0072 66.5794 66.3741 66.6099 66.5728C66.7169 67.5053 66.9004 68.239 67.0227 68.239C67.0991 68.239 67.1602 68.346 67.1602 68.4683C67.1602 68.5906 67.2978 68.8199 67.466 68.9575C67.6341 69.1103 67.7717 69.4161 67.7717 69.6454C67.7717 69.9664 67.8328 70.0428 68.0163 69.9664C68.1539 69.9205 68.322 69.9664 68.3984 70.0887C68.5207 70.2721 68.5666 70.2721 68.6736 70.0734C68.75 69.9511 68.8265 69.7677 68.8417 69.6912C68.8417 69.5995 68.9487 69.4008 69.0557 69.2326C69.4685 68.56 69.6061 67.7193 69.4379 66.741C69.3615 66.2059 69.3309 65.7168 69.3768 65.6404C69.4226 65.5792 69.3462 65.0748 69.2086 64.555C68.7195 62.629 69.5602 60.9475 71.5168 59.9844C71.7614 59.8621 72.2506 59.4647 72.6022 59.0978C73.0149 58.6698 73.3512 58.4558 73.6264 58.4558C73.8404 58.4558 74.0697 58.3794 74.1155 58.3029C74.3142 57.9972 75.4149 57.3857 75.7817 57.3857C76.2403 57.3857 76.6378 56.9577 76.3473 56.7896C76.2097 56.6979 76.3473 56.5603 76.7753 56.3616C77.3562 56.0711 77.3868 56.0711 77.2339 56.331C77.1575 56.4991 76.9741 56.6214 76.8212 56.6367C76.6836 56.6367 76.6378 56.6826 76.7448 56.7132C76.8518 56.759 77.0658 56.7132 77.2339 56.6214C77.5091 56.4839 77.5549 56.3157 77.5549 55.4291C77.5549 54.8482 77.4785 54.3132 77.4021 54.2368C77.2798 54.1145 77.2951 53.931 77.4174 53.6253C77.5091 53.3807 77.6161 53.0444 77.6467 52.8916C77.7384 52.3718 77.9677 52.3107 77.9371 52.7999C77.9218 53.0597 77.8301 53.3502 77.7384 53.4419C77.6314 53.5489 77.5549 53.7629 77.5549 53.931C77.5549 54.2215 77.6008 54.1909 77.9218 53.7935C78.1205 53.5489 78.2581 53.2737 78.2122 53.1973C78.1511 53.1209 78.197 53.1056 78.2887 53.1667C78.3957 53.2279 78.6403 53.0903 78.8696 52.8457C79.1753 52.5094 79.2517 52.3107 79.1906 51.9285C79.1447 51.6534 79.1753 51.3935 79.2517 51.3477C79.3281 51.2865 79.3893 51.3629 79.3893 51.4852C79.3893 51.8368 79.481 51.791 80.2148 51.1948C80.5663 50.9044 80.9485 50.4305 81.0555 50.14C81.2542 49.6662 81.3612 49.605 82.1255 49.4522C83.1956 49.2229 84.0516 48.856 83.593 48.8254C83.4249 48.8101 83.6083 48.7031 84.021 48.5961C84.4185 48.4891 84.8771 48.428 85.0299 48.4738C85.1828 48.5197 85.3662 48.4738 85.4121 48.3821C85.4732 48.2904 85.6414 48.214 85.8095 48.214C86.1306 48.214 86.3446 47.7707 86.1153 47.5414C86.0083 47.4344 85.9624 47.4649 85.9624 47.6484C85.9624 48.0152 85.672 47.9694 85.5191 47.5566C85.4121 47.3274 85.4427 47.1745 85.5955 47.0522C85.7178 46.9605 85.8095 46.777 85.8095 46.6548C85.8095 46.1962 86.8032 45.5236 88.1025 45.0803C88.8209 44.8357 89.5547 44.5452 89.7381 44.4382C89.9216 44.316 90.2731 44.2089 90.533 44.2089C90.9763 44.1937 91.2209 43.9491 90.8235 43.9185C90.5483 43.9032 91.175 43.6739 91.7101 43.5822C91.9546 43.5364 92.3368 43.4293 92.5661 43.3376C92.8107 43.2459 93.0247 43.2306 93.0705 43.3223C93.1164 43.3988 92.6884 43.6892 92.1381 43.9644C91.2515 44.3924 91.0986 44.53 91.068 44.9121C91.0375 45.1567 91.1139 45.4471 91.2362 45.5541C91.4808 45.7987 91.9241 45.8446 91.9241 45.6153C91.9241 45.5236 92.0616 45.4624 92.2298 45.4624C92.3979 45.4624 92.5355 45.4013 92.5355 45.3248C92.5355 45.1108 93.7279 44.3618 93.896 44.4688C93.9877 44.5147 94.1406 44.5147 94.2476 44.4535C94.5839 44.2395 96.8768 43.4905 96.9533 43.5516C96.9838 43.5975 97.1061 43.4905 97.2284 43.3223C97.3507 43.1542 97.5494 43.0166 97.687 43.0166C98.0233 43.0166 98.8029 42.5275 98.8029 42.2982C98.8029 42.1912 98.6959 42.0994 98.5736 42.0994C98.2985 42.0994 98.2832 42.0383 98.5278 41.6408C98.6806 41.4116 98.6806 41.3045 98.5278 41.1517C98.3902 41.0141 98.1456 41.1823 97.4271 41.916C96.9227 42.4357 96.51 42.8026 96.51 42.7109C96.51 42.6192 96.3724 42.6192 96.1737 42.6956C95.7609 42.8332 94.4769 42.6039 94.5992 42.4052C94.7062 42.237 95.4399 42.2676 95.4399 42.4357C95.4399 42.4969 95.5775 42.558 95.7456 42.558C95.9138 42.558 96.0514 42.4969 96.0514 42.4052C96.0514 42.3287 96.2348 42.1606 96.4794 42.0383C96.8921 41.809 96.8768 41.809 96.0514 41.7937C95.0731 41.7937 94.7826 41.6561 94.9202 41.2587C94.9966 41.06 94.966 41.0141 94.8132 41.06C94.6909 41.1058 94.6145 41.2128 94.6297 41.3045C94.6603 41.3963 94.5686 41.4421 94.4463 41.3963C94.1559 41.274 94.1559 41.5491 94.4463 41.8549C94.752 42.1606 94.7367 42.237 94.3699 42.1453C94.0489 42.0536 93.8807 41.6256 93.9571 41.1211C93.9877 40.953 94.2476 40.5861 94.538 40.3109L95.0578 39.7912L94.645 39.8829C94.0183 40.0358 94.1253 39.8371 94.8285 39.5619C96.0514 39.0727 95.7151 38.1861 94.324 38.232C93.3916 38.2626 91.3738 38.8893 90.4566 39.4243C89.6005 39.9288 89.5088 39.9135 90.1203 39.3632C90.7165 38.8587 91.8476 38.2779 92.2757 38.2779C92.4438 38.2779 92.7648 38.0791 92.9941 37.8346C93.2081 37.5747 93.575 37.2995 93.8196 37.2078C94.0794 37.1161 95.5163 37.055 97.4577 37.0702C99.3838 37.0855 100.714 37.0244 100.775 36.9327C100.821 36.8562 101.019 36.7492 101.218 36.6881C101.402 36.6269 101.738 36.4129 101.982 36.2295C102.487 35.8168 103.267 35.5263 103.909 35.5263H104.382L103.695 36.1989C102.594 37.2537 101.86 38.0791 101.86 38.2626C101.86 38.3543 101.753 38.4307 101.631 38.4307C101.493 38.4307 101.356 38.5377 101.31 38.66C101.249 38.7823 101.157 38.8435 101.081 38.7976C100.943 38.7212 100.484 39.0727 100.484 39.2715C100.484 39.3173 100.637 39.3326 100.836 39.2715C101.019 39.2256 100.882 39.3632 100.515 39.5925C99.4449 40.2498 99.6742 40.4179 101.784 40.4944C105.682 40.6625 105.376 40.6167 105.131 40.8918C104.872 41.167 104.856 41.488 105.086 41.488C105.162 41.488 105.208 41.4268 105.147 41.3504C105.101 41.274 105.131 41.1517 105.223 41.1058C105.315 41.0447 105.376 41.06 105.361 41.1364C105.284 41.595 105.391 41.7478 105.758 41.6714C106.339 41.5644 107.256 40.1122 106.752 40.1122C106.675 40.1122 106.599 40.1734 106.599 40.2651C106.599 40.3415 106.538 40.4179 106.477 40.4179C106.4 40.4179 106.339 40.3109 106.339 40.1886C106.339 40.0664 106.4 40.0052 106.461 40.0358C106.507 40.0816 106.645 40.0052 106.752 39.8829C106.905 39.6995 106.889 39.6536 106.691 39.6536C106.553 39.6536 106.324 39.7912 106.186 39.9594C106.033 40.1275 105.85 40.2651 105.773 40.2651C105.697 40.2651 105.789 40.0969 105.972 39.8982C106.232 39.6231 106.263 39.516 106.11 39.4549C106.003 39.409 106.11 39.3938 106.37 39.3938C106.675 39.4243 106.828 39.3479 106.874 39.1645C106.905 38.981 106.844 38.9352 106.614 38.9963C106.232 39.088 106.156 38.6753 106.522 38.5224C106.859 38.4001 106.798 38.1403 106.415 37.9721C106.217 37.8957 106.156 37.8346 106.263 37.8346C106.37 37.8193 106.415 37.7428 106.354 37.6358C106.278 37.5288 106.186 37.5594 106.033 37.7428C105.926 37.911 105.835 37.9416 105.835 37.8498C105.835 37.7428 105.728 37.6664 105.605 37.6664C105.483 37.6664 105.376 37.7123 105.376 37.7887C105.376 37.8498 105.177 37.911 104.933 37.911C104.612 37.9263 104.505 37.8804 104.566 37.7276C104.612 37.6053 104.734 37.5135 104.856 37.5135C105.269 37.5135 105.07 37.2384 104.581 37.1467L104.077 37.0397L104.596 36.5964C104.948 36.3059 105.162 36.1989 105.238 36.3059C105.376 36.5505 105.559 36.2295 105.437 35.9238C105.391 35.7862 105.407 35.6792 105.498 35.6792C105.575 35.6792 105.682 35.5722 105.743 35.4499C105.804 35.2817 105.712 35.2206 105.407 35.2206C105.116 35.2206 105.055 35.2665 105.193 35.3582C105.33 35.4346 105.238 35.4805 104.933 35.4652C104.673 35.4499 104.459 35.4346 104.459 35.4193C104.459 35.3887 104.765 35.2359 105.147 35.0524C105.789 34.7467 105.896 34.6244 106.079 33.8143C106.324 32.8359 106.278 32.6372 105.804 32.5455C105.284 32.4232 104.979 31.8576 105.315 31.6589C105.666 31.4602 105.116 31.0169 104.581 31.078C104.306 31.0933 104.153 31.0474 104.184 30.9251C104.23 30.7111 103.481 30.4665 103.114 30.5888C102.961 30.6347 102.915 30.6041 103.007 30.5277C103.297 30.2984 103.251 29.9927 102.869 29.6411C102.502 29.3048 102.502 29.2742 102.762 29.1825C103.052 29.0908 103.16 28.4182 102.915 28.25C102.838 28.2042 102.884 28.0055 103.022 27.8067C103.236 27.4704 103.236 27.4399 102.961 27.287C102.747 27.18 102.655 26.966 102.655 26.6144C102.655 26.324 102.548 25.8959 102.426 25.6514C102.303 25.3915 102.227 24.9329 102.273 24.5508C102.303 24.1992 102.288 23.9087 102.227 23.9087C102.044 23.9087 101.692 24.3673 101.784 24.5202C101.83 24.5966 101.784 24.6272 101.661 24.5813C101.539 24.5355 101.065 24.8718 100.561 25.3609C100.072 25.8195 99.5825 26.2017 99.4908 26.2017C99.3991 26.2017 99.0322 26.3392 98.6653 26.5227C98.115 26.7825 97.9774 26.7978 97.7634 26.6297C97.2131 26.1864 96.9533 25.8654 96.9227 25.6055C96.9074 25.2998 97.366 24.2756 97.58 24.138C97.6717 24.0769 97.7023 23.9699 97.6412 23.8934C97.5953 23.817 97.6106 23.7711 97.687 23.7864C97.7482 23.817 97.8093 23.7711 97.8093 23.6947C97.8093 23.603 97.6106 23.5266 97.3507 23.496C97.1061 23.4807 96.724 23.4196 96.5405 23.3737C96.2348 23.2973 96.2042 23.2514 96.3724 23.0527C96.5252 22.854 96.5252 22.7928 96.3418 22.6858C95.8985 22.4107 95.3788 21.9827 95.1495 21.7228C95.0119 21.5852 94.8285 21.4629 94.7215 21.4629C94.4616 21.4629 94.4616 21.7686 94.7215 21.7686C94.8132 21.7686 94.7826 21.8451 94.6297 21.9368C94.3546 22.1049 94.11 22.0744 92.2909 21.7381C91.4043 21.5852 91.3432 21.5852 91.0222 21.9062C90.8387 22.0897 90.6553 22.4107 90.64 22.6094C90.5942 23.0985 90.2731 23.4501 89.677 23.71C89.0655 23.9546 89.0197 24.1074 89.57 23.9699C89.9369 23.8782 89.9674 23.8934 89.8604 24.2297C89.784 24.4285 89.7381 24.6883 89.7381 24.78C89.7381 24.887 89.6923 24.9788 89.6311 24.9788C89.57 24.9788 89.2184 25.2233 88.8515 25.5138C88.4846 25.8042 88.1178 26.0488 88.0566 26.0488C87.9038 26.0488 87.491 26.4463 87.491 26.5685C87.491 26.6144 87.5522 26.6603 87.6439 26.6603C87.9191 26.6603 88.5611 27.3176 88.5611 27.608C88.5611 27.9902 87.9955 29.1672 87.6745 29.4576C87.0936 29.9774 85.3051 30.8181 84.4338 30.971L83.5166 31.1239L83.593 31.7965C83.6389 32.1939 83.6083 32.4691 83.5166 32.4691C83.4402 32.4691 83.3637 32.6372 83.3637 32.8359C83.3637 33.0499 83.3026 33.2487 83.2414 33.2945C83.1803 33.3251 83.1039 33.585 83.0886 33.8754C83.058 34.227 82.9051 34.4869 82.5994 34.7314C82.3396 34.9302 82.1714 35.1595 82.2173 35.2359C82.2784 35.3123 82.2478 35.3735 82.1561 35.3735C82.0797 35.3735 81.988 35.2817 81.9421 35.1747C81.8962 35.0524 81.7587 35.0983 81.4835 35.3582C81.0708 35.7403 80.7651 35.6792 80.7651 35.2206C80.7651 35.0677 80.6428 34.8384 80.5052 34.7314C80.3523 34.6244 80.2148 34.4257 80.2148 34.3034C80.1995 34.1811 80.1383 33.9518 80.0772 33.8143C79.9855 33.585 80.0313 33.5697 80.4135 33.6767C81.2848 33.9365 81.3001 33.9365 81.3001 33.5391C81.3001 33.2028 81.2389 33.1569 80.8262 33.1722C80.4288 33.1875 80.3523 33.1569 80.4135 32.9124C80.4593 32.7442 80.5511 32.5761 80.6275 32.5302C80.7039 32.4843 80.7651 32.2856 80.7651 32.0716C80.7651 31.8729 80.8262 31.7047 80.8874 31.7047C81.0861 31.7047 81.5447 30.8181 81.3918 30.7264C81.3154 30.6806 80.7192 30.6041 80.0619 30.5583C79.3587 30.5124 78.7778 30.3901 78.6403 30.2678C78.5027 30.1455 78.1052 29.9621 77.7537 29.8398C77.3868 29.7328 77.0964 29.5494 77.0964 29.4576C77.0964 29.1825 76.5766 28.6933 76.1486 28.571C75.9652 28.5099 75.5677 28.3723 75.2926 28.25C74.9104 28.0666 74.6811 28.0513 74.2225 28.1736C73.9168 28.2653 73.6111 28.3418 73.5652 28.3418C73.4429 28.3418 73.6111 27.5469 73.8709 26.9201C74.1002 26.3545 73.9779 26.2017 73.3359 26.2017C73.0455 26.2017 72.8162 26.1558 72.8162 26.1099C72.8162 25.9724 74.2072 24.2144 74.3142 24.2144C74.3754 24.2144 74.834 23.9087 75.3231 23.5266C75.8276 23.1597 76.4238 22.8081 76.653 22.7622C76.8823 22.7011 77.1116 22.5788 77.1575 22.4565C77.2034 22.3342 77.4785 22.1967 77.7689 22.1355C78.0747 22.0897 78.3193 21.9827 78.3193 21.9062C78.3193 21.8298 78.411 21.7839 78.518 21.7992C78.6097 21.8298 78.6861 21.7533 78.6556 21.6311C78.6097 21.4323 78.7473 21.4323 79.4657 21.6922C79.6797 21.7686 79.7103 21.7533 79.5574 21.6463C79.4046 21.5393 79.481 21.4629 79.8785 21.3253C80.1536 21.2336 80.4899 21.0196 80.6122 20.8515C80.7345 20.6833 80.9485 20.5457 81.0708 20.5457C81.2084 20.5457 81.3918 20.4693 81.4835 20.3776C81.5905 20.2706 81.988 20.1789 82.4007 20.1483C83.2262 20.0719 84.8312 19.3381 85.4121 18.7572C85.7484 18.4209 86.742 17.7942 86.9407 17.7942C86.9866 17.7942 86.6044 18.1916 86.1 18.6655C85.6108 19.1547 85.1981 19.6133 85.1981 19.705C85.1981 19.7967 84.8924 19.9649 84.5102 20.0719C83.6847 20.3164 83.6695 20.6375 84.4949 20.5763C85.0147 20.5304 85.0605 20.5457 84.9688 20.8362C84.8465 21.2642 85.2287 21.2642 86.0083 20.8515C86.314 20.6833 86.6809 20.5457 86.8032 20.5457C86.9254 20.5457 87.1395 20.4082 87.2923 20.24C87.6133 19.919 88.2859 19.9649 88.1636 20.3164C88.0413 20.6222 89.2031 20.7597 89.8451 20.5304C90.2884 20.3776 90.3496 20.2859 90.2273 20.0719C90.1509 19.919 89.998 19.8273 89.8757 19.8731C89.7534 19.919 89.6311 19.812 89.5853 19.598C89.4935 19.277 88.9279 18.8337 88.2095 18.5279C88.0108 18.4362 87.9649 18.3139 88.0413 17.9929C88.1025 17.7483 88.1789 17.5343 88.2095 17.4885C88.3012 17.3815 88.5458 17.8401 88.4694 17.9776C88.3929 18.0846 88.4846 18.1152 89.0655 18.1611C89.1572 18.1764 89.249 18.0388 89.2643 17.8706C89.3101 16.9535 89.3101 16.9687 89.6158 17.3509C89.891 17.6872 89.9216 17.6872 90.0133 17.4426C90.0744 17.305 90.2426 17.1827 90.3801 17.1827C90.5177 17.1827 90.8235 17.0757 91.068 16.9535C91.2973 16.8312 91.5878 16.7242 91.6795 16.7242C91.7865 16.7242 92.0311 16.556 92.2298 16.342C92.505 16.0516 92.5355 15.9293 92.4132 15.7611C92.1992 15.5013 92.5508 15.1344 93.2387 14.8898C93.4833 14.7981 93.7584 14.5535 93.8654 14.3548C94.0183 14.0185 94.003 13.9726 93.7584 13.9726C93.2234 13.9726 93.2845 13.6822 93.8501 13.5293C94.2782 13.407 94.5075 13.4223 94.8438 13.5905C95.0883 13.728 95.4552 13.7739 95.7151 13.728C96.2807 13.621 96.5252 13.9268 95.9902 14.0643C95.5316 14.1713 95.1342 14.5841 95.4552 14.5841C95.5928 14.5994 95.5316 14.7064 95.3023 14.9051C95.1036 15.0732 94.9966 15.2567 95.0578 15.3178C95.1189 15.379 95.2106 15.3331 95.2412 15.2261C95.2871 15.1344 95.4093 15.0427 95.5316 15.0427C95.7304 15.0427 95.8068 14.8592 95.7609 14.5382C95.7609 14.4771 95.8221 14.4312 95.8985 14.4312C96.1431 14.4312 97.2743 13.6516 97.2743 13.4835C97.2743 13.3917 97.152 13.3765 97.0144 13.4376C96.4488 13.6669 96.2042 13.6975 96.2042 13.5293C96.2042 13.4376 96.3724 13.3612 96.5864 13.3612C96.8463 13.3612 97.0297 13.2542 97.1214 13.0096C97.1978 12.8261 97.259 12.765 97.259 12.8567C97.2743 12.9637 97.3813 13.0554 97.5036 13.0554C97.6412 13.0554 97.687 13.1472 97.6259 13.3153C97.5647 13.4835 97.58 13.5293 97.7023 13.4529C97.8093 13.3917 97.8857 13.407 97.8857 13.4682C97.8857 13.5446 98.0692 13.7128 98.3137 13.8503L98.7265 14.1102L98.2985 14.1255C98.0539 14.1255 97.901 14.0643 97.9622 13.9879C98.0997 13.7433 97.7329 13.621 97.4883 13.8198C97.3354 13.9726 97.3201 14.0643 97.4424 14.2172C97.5341 14.3242 97.5494 14.4924 97.4883 14.5994C97.4118 14.7369 97.5189 14.7522 97.9163 14.6758C98.329 14.5994 98.4513 14.6299 98.4513 14.8134C98.4513 14.9815 98.2832 15.0427 97.8093 15.0427C96.7851 15.0427 95.6692 15.7764 95.9749 16.2656C96.2042 16.6324 98.1915 16.1586 98.1915 15.7305C98.1915 15.6235 98.2832 15.4554 98.4055 15.3637C98.5736 15.2261 98.6195 15.2414 98.5889 15.4554C98.5736 15.6694 98.7112 15.7458 99.1545 15.7764C99.5672 15.807 99.7201 15.7611 99.7201 15.593C99.7201 15.4707 99.5672 15.3484 99.3838 15.3178C99.2003 15.2872 99.0169 15.165 98.9863 15.0427C98.9252 14.8439 98.9405 14.8439 99.1392 15.0121C99.3379 15.165 99.3991 15.165 99.4602 15.0121C99.5214 14.8592 99.5519 14.8592 99.5519 14.9968C99.5672 15.1038 99.7048 15.1955 99.8729 15.1955C100.102 15.1955 100.163 15.272 100.118 15.5318C100.072 15.7305 100.041 16.0057 100.041 16.1433C100.026 16.2961 99.9035 16.4184 99.7659 16.4184C99.6284 16.4184 99.3991 16.5101 99.2768 16.6171C99.1392 16.7394 98.6959 16.9535 98.2679 17.1063C97.3201 17.4426 97.152 17.5802 97.3966 17.8248C97.6564 18.0846 97.6259 18.2375 97.3201 18.2375C97.1673 18.2375 96.7851 18.2986 96.4794 18.3751C96.1278 18.4668 95.6234 18.4668 95.1189 18.3751C94.4616 18.2528 94.2323 18.2834 93.7737 18.5127C92.9635 18.9254 92.6272 19.2923 92.826 19.5368C93.0858 19.8426 93.7126 19.919 94.4157 19.7203C94.7673 19.6133 95.3023 19.5521 95.5928 19.5674C95.8832 19.5827 96.2807 19.598 96.4794 19.6133C96.6781 19.6133 96.7851 19.6897 96.7393 19.7814C96.6934 19.8578 96.7545 19.9343 96.8921 19.9343C97.045 19.9343 97.1214 20.0413 97.0908 20.1941C97.0603 20.347 97.1978 20.6375 97.3813 20.8515C97.58 21.0655 97.7329 21.3406 97.7329 21.4935C97.7329 21.8604 97.9622 21.9521 98.4055 21.7533C98.7265 21.6005 98.8488 21.6311 99.2003 21.9062C99.4296 22.0744 99.7659 22.2272 99.9647 22.2272C100.163 22.2272 100.668 22.3648 101.096 22.533C101.509 22.7011 101.86 22.8081 101.86 22.7622C101.86 22.7164 101.998 22.8234 102.181 23.0068C102.548 23.3737 102.945 23.175 102.823 22.6858C102.731 22.3648 102.319 22.2578 102.319 22.5482C102.319 22.64 102.227 22.6858 102.135 22.64C102.028 22.6094 101.952 22.4412 101.982 22.2884C101.998 22.1202 101.86 21.8451 101.631 21.6463C101.417 21.4629 101.249 21.2489 101.249 21.1725C101.249 21.096 101.111 21.0043 100.943 20.9585C100.775 20.9126 100.637 20.7597 100.637 20.6069C100.637 20.3623 100.653 20.3623 100.943 20.6222C101.111 20.775 101.295 20.8515 101.356 20.8056C101.402 20.7445 101.554 20.8362 101.677 21.0196C101.86 21.2795 101.921 21.2948 102.135 21.1266C102.273 21.0196 102.334 21.0043 102.273 21.096C102.212 21.203 102.319 21.3101 102.533 21.3712C102.731 21.4171 102.93 21.6005 102.976 21.7686C103.068 22.1049 103.45 22.1814 103.633 21.9062C103.679 21.8145 103.633 21.6769 103.526 21.6005C103.374 21.5088 103.358 21.4629 103.511 21.4629C103.603 21.4629 103.695 21.3253 103.695 21.1572C103.695 20.9737 103.771 20.8973 103.909 20.9432C104.016 20.989 104.23 20.9126 104.367 20.7597C104.596 20.5457 104.596 20.4693 104.398 20.1789C104.245 19.9343 104.23 19.7661 104.337 19.5674C104.505 19.2617 104.291 19.0171 103.832 19.0171C103.572 19.0171 103.389 18.742 103.297 18.2069C103.267 18.0541 103.328 17.9471 103.465 17.9471C103.74 17.9471 103.756 17.7789 103.511 17.5038C103.343 17.3356 103.358 17.3203 103.511 17.3968C103.618 17.4579 103.802 17.4426 103.893 17.3509C104.138 17.1522 104.81 17.7178 104.887 18.1764C104.948 18.5279 105.223 18.9101 105.345 18.8031C105.376 18.7572 105.544 18.7878 105.697 18.8642C106.049 19.063 106.446 18.8948 106.599 18.4974C106.706 18.2222 106.813 18.1764 107.272 18.2222C107.623 18.2681 107.822 18.2222 107.822 18.0999C107.822 17.8706 108.204 17.4885 108.464 17.4885C108.571 17.4885 108.831 17.3509 109.029 17.198L109.381 16.9229L108.953 16.6171C108.708 16.449 108.418 16.342 108.296 16.3879C108.173 16.4337 108.128 16.3879 108.189 16.2809C108.25 16.1891 108.204 16.1127 108.082 16.1127C107.975 16.1127 107.715 15.9446 107.516 15.7153C107.256 15.4554 107.042 15.3637 106.798 15.4248C106.614 15.4707 106.415 15.4248 106.354 15.3331C106.308 15.2414 106.018 15.0732 105.743 14.9509C105.452 14.8287 105.223 14.6758 105.223 14.6146C105.223 14.4159 105.942 14.0796 106.125 14.1866C106.415 14.3701 106.629 14.1255 106.415 13.8503C106.263 13.6669 106.263 13.6058 106.415 13.5599C106.92 13.3765 106.278 12.5357 105.452 12.3064C105.131 12.2147 104.81 12.1841 104.734 12.23C104.673 12.2758 104.612 12.1994 104.612 12.0618C104.612 11.9243 104.551 11.8478 104.474 11.8937C104.398 11.9395 104.306 11.8478 104.26 11.6797C104.199 11.4351 104.046 11.3739 103.511 11.3739C103.144 11.3739 102.747 11.4657 102.624 11.5574C102.441 11.7255 102.441 11.7102 102.609 11.4809C102.762 11.2975 102.762 11.2211 102.64 11.2211C102.533 11.2211 102.502 11.1447 102.548 11.0682C102.594 10.9765 102.533 10.9154 102.41 10.9154C102.273 10.9154 102.166 10.8084 102.166 10.6861C102.166 10.5638 102.013 10.4262 101.83 10.3956C101.631 10.3498 101.34 10.2886 101.172 10.258C100.958 10.2122 100.989 10.1816 101.295 10.1663C101.524 10.151 101.707 10.0593 101.707 9.95232C101.707 9.50902 101.172 9.27972 99.9494 9.188C98.9558 9.11157 98.6806 9.14214 98.4666 9.34087C98.2067 9.57016 98.1915 9.57016 98.1915 9.34087C98.1915 9.01986 97.4424 9.00457 96.0514 9.3103C94.8896 9.57016 94.5992 9.58545 95.1342 9.35616L95.5163 9.20329L95.1342 9.05043C94.0947 8.65298 91.1598 9.55488 89.9063 10.6708C89.7534 10.8084 89.5853 10.9154 89.5241 10.9154C89.3865 10.9306 88.8057 11.6797 88.8974 11.7408C88.9127 11.7714 89.3254 11.8631 89.784 11.9395L90.6247 12.1077L89.7228 12.0771C88.6987 12.0618 88.5152 12.2453 89.035 12.7344C89.2643 12.9484 89.4935 13.0249 89.677 12.9637C89.8757 12.9026 89.9369 12.9332 89.8757 13.0402C89.7534 13.2236 89.891 13.2542 90.7776 13.2389C91.1139 13.2236 91.282 13.2542 91.1598 13.3153C90.7929 13.4682 90.5483 13.7739 90.5024 14.1561C90.4719 14.3548 90.3496 14.5076 90.2273 14.5076C90.105 14.5076 89.7687 14.7064 89.463 14.9357C88.8974 15.3637 88.6222 15.4707 88.7904 15.1955C88.8362 15.1038 88.7904 15.0427 88.6681 15.0427C88.4082 15.0427 87.8579 15.6235 88.0108 15.7611C88.0566 15.8223 87.8885 15.9598 87.6133 16.0668C87.2312 16.235 87.1089 16.235 87.0019 16.0821C86.8032 15.7611 86.9407 15.4401 87.3688 15.2261C88.2554 14.7981 87.9496 13.7892 87.0172 14.1102C86.5891 14.2478 86.5586 14.2478 86.6503 13.9726C86.7267 13.728 86.6809 13.6669 86.4363 13.6669C86.0847 13.6669 85.9777 13.1319 86.2834 13.0249C86.421 12.979 86.421 12.872 86.2834 12.6121C86.1458 12.3523 86.1306 12.2147 86.2681 12.0618C86.4974 11.7867 86.314 11.2211 85.993 11.2058C85.8554 11.2058 86.0236 11.0835 86.3904 10.9306C86.7573 10.7931 87.1089 10.5943 87.1547 10.5026C87.2159 10.4109 87.6439 10.3039 88.1025 10.2733C89.142 10.1663 91.4808 9.12686 91.1445 8.91285C91.0222 8.83642 90.6553 8.77528 90.319 8.77528C89.9827 8.77528 89.4324 8.72942 89.0961 8.68356C88.3624 8.59184 87.2465 8.80585 87.2923 9.05043C87.3229 9.14214 87.2312 9.188 87.0936 9.12686C86.9713 9.081 86.7114 9.17272 86.528 9.34087C86.3446 9.50902 86.0694 9.69245 85.9013 9.7536C85.7178 9.81474 85.6414 9.95232 85.7025 10.1358C85.7943 10.4873 85.351 10.9306 84.6325 11.2211C84.3573 11.3281 84.1281 11.4504 84.1281 11.5115C84.1281 11.5727 83.9905 11.6185 83.807 11.6338C83.379 11.6644 82.7523 12.0924 82.7523 12.3523C82.7523 12.4593 82.5841 12.6427 82.3701 12.7497C82.1103 12.8873 81.988 13.0707 82.0185 13.2694C82.0491 13.514 81.9727 13.6058 81.6364 13.6363C81.3765 13.6669 81.0861 13.5905 80.9179 13.4376C80.6886 13.2389 80.5816 13.2236 80.2148 13.3917C79.9702 13.4987 79.7103 13.6669 79.6492 13.7739C79.588 13.8809 79.2517 14.0185 78.9307 14.0643C78.2734 14.1713 78.09 14.5229 78.6556 14.6146C78.839 14.6452 79.0071 14.7522 79.053 14.8745C79.0989 15.0121 79.0224 15.0427 78.7931 14.9662C78.5638 14.9051 78.3804 14.9815 78.1358 15.2261C77.8148 15.5624 77.6467 15.593 76.0569 15.6235C74.6505 15.6388 74.3142 15.6083 74.2378 15.4095C74.1919 15.272 74.0544 15.2261 73.8709 15.272C73.4582 15.4095 73.1372 15.1802 73.5194 15.0274C73.7945 14.9204 73.7945 14.9204 73.5194 14.8134C73.3512 14.7369 73.1983 14.7675 73.1219 14.8898C73.0302 15.0274 72.9843 14.9968 72.9385 14.7369C72.9232 14.5382 72.8009 14.3548 72.6786 14.3089C72.5563 14.2631 72.5105 14.3089 72.5563 14.3854C72.6022 14.4618 72.4493 14.5076 72.1894 14.4618L71.7309 14.4006L72.1436 14.1866C72.434 14.0338 72.6175 14.0185 72.7245 14.1255C72.9232 14.3242 73.1678 14.3242 73.0455 14.1255C72.9996 14.049 73.0455 14.0185 73.1831 14.0643C73.3053 14.1102 73.4429 14.2325 73.4735 14.3395C73.5194 14.4618 73.9015 14.5382 74.4977 14.5535C75.0327 14.5688 75.5524 14.6605 75.6747 14.7522C75.8429 14.8898 75.9652 14.8592 76.225 14.5994C76.4238 14.4312 76.6683 14.2783 76.76 14.2783C76.9741 14.2783 76.9893 14.1866 76.8059 13.835C76.6989 13.6363 76.7295 13.5752 76.9588 13.5599C77.1116 13.5446 77.2492 13.6363 77.2492 13.7586C77.2492 13.8809 77.2951 13.9726 77.3409 13.9726C77.5396 13.9726 78.3193 13.3306 78.3193 13.1624C78.3193 12.9943 77.6772 12.6427 76.9129 12.3981C76.546 12.2758 76.5613 12.0313 76.9435 11.8325C77.1116 11.7408 77.2492 11.5727 77.2492 11.4504C77.2492 10.9306 77.9218 10.2122 78.7167 9.8606C79.1753 9.66188 79.5422 9.44788 79.5422 9.38673C79.5422 9.21857 79.1294 9.081 78.625 9.081C78.09 9.081 77.2492 9.40202 77.5244 9.49373C77.6161 9.53959 77.7078 9.63131 77.7078 9.70774C77.7078 9.79945 77.5855 9.79945 77.4174 9.69245C76.8212 9.38673 76.1792 9.50902 75.69 10.0288C75.4301 10.3039 75.1703 10.6861 75.0938 10.8695C75.0174 11.0682 74.8951 11.2211 74.8187 11.2211C74.6505 11.2211 74.6811 10.9306 74.8645 10.6402C74.941 10.5179 74.8798 10.3192 74.7117 10.1358C74.3907 9.78417 73.7334 9.73831 73.7334 10.0746C73.7334 10.3651 73.5194 10.3651 72.7092 10.0593C72.1894 9.8606 71.9754 9.84531 71.5627 9.98289C71.1653 10.1205 71.1041 10.1205 71.257 9.96761C71.5168 9.70774 71.4863 9.53959 71.1653 9.53959C71.0124 9.53959 70.7831 9.37144 70.6761 9.15743C70.4315 8.69884 70.0952 8.57655 68.9946 8.53069C68.536 8.5154 67.4965 8.45426 66.7017 8.42369C65.9068 8.37783 65.0507 8.37783 64.8214 8.42369ZM94.2934 9.76888C94.0489 9.90646 93.7126 10.2275 93.5444 10.5026L93.2693 10.9918L93.1164 10.6096C93.04 10.4109 93.04 10.2122 93.1011 10.1969C93.1775 10.1663 93.468 10.0135 93.7584 9.84531C94.0489 9.69245 94.4005 9.55488 94.5227 9.55488C94.645 9.55488 94.5533 9.64659 94.2934 9.76888ZM98.543 10.0135C98.6195 10.3039 98.7112 10.3345 99.2921 10.258C99.8577 10.1816 99.8882 10.1816 99.5672 10.3345C99.3532 10.4109 98.8793 10.5026 98.4972 10.5179C97.8246 10.5485 97.8093 10.5332 98.0844 10.258C98.2373 10.1052 98.3137 9.92175 98.2679 9.84531C98.2067 9.7536 98.2373 9.69245 98.3137 9.69245C98.3902 9.69245 98.4972 9.84531 98.543 10.0135ZM92.8871 10.8695C92.7495 10.9154 92.7342 11.0224 92.8412 11.2364C93.0094 11.5421 92.7954 11.6644 92.612 11.3739C92.4744 11.1447 92.6425 10.7625 92.8718 10.7778C93.0247 10.7778 93.0247 10.8084 92.8871 10.8695ZM101.937 11.0682C101.891 11.1447 101.723 11.2211 101.585 11.2058C101.371 11.2058 101.386 11.1752 101.631 11.0682C102.044 10.9001 102.044 10.9001 101.937 11.0682ZM104.153 12.2911C104.031 12.3676 103.786 12.4287 103.618 12.4287C103.374 12.4134 103.374 12.3981 103.695 12.2911C104.23 12.123 104.428 12.123 104.153 12.2911ZM105.743 12.9332C105.666 13.0554 105.712 13.0707 105.911 12.9943C106.079 12.9332 106.247 12.9637 106.308 13.086C106.4 13.2389 106.171 13.3306 105.422 13.4682C104.23 13.6822 103.97 13.6363 104.994 13.3765C105.376 13.2847 105.666 13.1472 105.666 13.086C105.636 12.9026 105.682 12.7497 105.773 12.7497C105.819 12.7497 105.804 12.8261 105.743 12.9332ZM90.5024 12.9943C90.4566 13.0402 90.319 13.0554 90.212 13.0096C90.0897 12.9637 90.1356 12.9179 90.3037 12.9179C90.4719 12.9026 90.5636 12.9484 90.5024 12.9943ZM105.07 13.1166C105.07 13.1472 104.933 13.2083 104.765 13.2542C104.596 13.3 104.489 13.2694 104.551 13.193C104.627 13.0554 105.07 12.9943 105.07 13.1166ZM53.5096 13.3C53.4637 13.3459 53.3261 13.3612 53.2191 13.3153C53.0968 13.2694 53.1427 13.2236 53.3109 13.2236C53.479 13.2083 53.5707 13.2542 53.5096 13.3ZM93.2998 13.3612C93.2998 13.4376 93.147 13.514 92.9635 13.514C92.6731 13.514 92.6578 13.4835 92.8412 13.3612C93.1317 13.1624 93.2998 13.1624 93.2998 13.3612ZM95.5622 13.3153C95.4093 13.3459 95.1648 13.3459 95.0272 13.3153C94.8743 13.2694 94.9966 13.2389 95.2871 13.2389C95.5775 13.2389 95.6998 13.2694 95.5622 13.3153ZM52.3325 13.514C52.2102 13.5905 51.9962 13.6516 51.8739 13.6516C51.7211 13.6516 51.7517 13.6058 51.9504 13.514C52.3631 13.3306 52.6077 13.3306 52.3325 13.514ZM85.6567 13.514C85.6567 13.5905 85.5955 13.6669 85.5038 13.6669C85.4274 13.6669 85.351 13.5905 85.351 13.514C85.351 13.4223 85.4274 13.3612 85.5038 13.3612C85.5955 13.3612 85.6567 13.4223 85.6567 13.514ZM83.058 13.8503C83.058 13.9115 82.8899 14.0796 82.6758 14.2172C82.202 14.5229 82.1714 14.7981 82.6147 14.6911C82.7981 14.6452 82.8899 14.6605 82.8134 14.7216C82.6453 14.8592 81.4835 15.272 80.8721 15.4095C80.6122 15.4707 80.3982 15.6541 80.3065 15.8834C80.1995 16.1433 80.0925 16.235 79.909 16.1586C79.6645 16.0668 79.6645 16.0516 79.9243 15.8681C80.0772 15.7458 80.1383 15.593 80.0619 15.4707C80.0007 15.3637 80.0007 15.3178 80.0772 15.379C80.23 15.5165 80.7956 15.2261 80.6886 15.0579C80.6581 14.9815 80.9332 14.8439 81.3154 14.7522C81.6975 14.6605 81.9574 14.5076 81.9115 14.4312C81.8504 14.3395 81.7434 14.3242 81.6517 14.3701C81.56 14.4312 81.5294 14.3548 81.56 14.1866C81.5905 13.9879 81.7281 13.9115 81.9421 13.942C82.1255 13.9726 82.309 13.9268 82.3548 13.835C82.4618 13.6669 83.058 13.6669 83.058 13.8503ZM48.9695 14.049C48.2664 14.3242 47.8689 14.3242 48.3581 14.0643C48.5721 13.942 48.9084 13.8503 49.1224 13.8503C49.4587 13.8503 49.4281 13.8656 48.9695 14.049ZM106.293 13.942C106.293 14.0032 106.049 14.0338 105.758 14.0032C105.468 13.9726 105.223 13.9115 105.223 13.8809C105.223 13.8503 105.468 13.8198 105.758 13.8198C106.049 13.8198 106.293 13.8809 106.293 13.942ZM86.1764 14.4618C86.0847 14.7828 85.7943 15.0885 85.7025 14.9815C85.6261 14.9051 86.0388 14.1255 86.1611 14.1255C86.2376 14.1255 86.2376 14.2783 86.1764 14.4618ZM98.115 14.4312C98.0692 14.5076 97.9469 14.5841 97.8704 14.5841C97.7787 14.5841 97.7634 14.5076 97.8093 14.4312C97.8552 14.3395 97.9774 14.2783 98.0539 14.2783C98.1456 14.2783 98.1609 14.3395 98.115 14.4312ZM93.4527 14.5841C93.4527 14.6605 93.3763 14.7369 93.2845 14.7369C93.2081 14.7369 93.1775 14.6605 93.2234 14.5841C93.2693 14.4924 93.3457 14.4312 93.3916 14.4312C93.4221 14.4312 93.4527 14.4924 93.4527 14.5841ZM99.0628 14.5229C99.0169 14.5688 98.8793 14.5841 98.7723 14.5382C98.65 14.4924 98.6959 14.4465 98.8641 14.4465C99.0322 14.4312 99.1239 14.4771 99.0628 14.5229ZM88.4846 15.486C88.4388 15.5777 88.3165 15.6541 88.2248 15.6541C88.1331 15.6541 88.1331 15.5624 88.2554 15.4248C88.4694 15.165 88.6528 15.2261 88.4846 15.486ZM78.9307 15.5624C78.9307 15.593 78.8237 15.6541 78.7014 15.7153C78.5791 15.7611 78.4721 15.7305 78.4721 15.6541C78.4721 15.5624 78.5791 15.5013 78.7014 15.5013C78.8237 15.5013 78.9307 15.5318 78.9307 15.5624ZM99.3838 15.6083C99.2309 15.6388 98.9863 15.6388 98.8488 15.6083C98.6959 15.5624 98.8182 15.5318 99.1086 15.5318C99.3991 15.5318 99.5214 15.5624 99.3838 15.6083ZM69.1475 16.3573C69.1475 16.3879 69.0099 16.4184 68.8265 16.4184C68.6583 16.4184 68.5513 16.3573 68.6124 16.2656C68.6889 16.1433 69.1475 16.2197 69.1475 16.3573ZM79.802 16.5101C79.7562 16.556 79.6186 16.5713 79.5116 16.5254C79.3893 16.4796 79.4352 16.4337 79.6033 16.4337C79.7715 16.4184 79.8632 16.4643 79.802 16.5101ZM58.5235 16.7242C58.3553 16.7853 57.9885 16.9382 57.698 17.0452C57.1936 17.2286 57.1936 17.2439 57.5452 17.3815C57.7439 17.4579 58.2636 17.4732 58.6763 17.412L59.4407 17.3203L58.9515 17.626C58.6763 17.7942 58.2178 17.9318 57.8662 17.9165C57.1324 17.9165 56.5821 18.0694 56.6891 18.2681C56.7656 18.3904 56.4445 18.4821 56.1082 18.4209C56.0471 18.4056 55.7414 18.5127 55.4357 18.6349C55.1299 18.7572 54.8548 18.8337 54.8089 18.7878C54.6866 18.6655 55.8637 18.2222 56.093 18.3139C56.2 18.3598 56.3375 18.3139 56.3987 18.2222C56.5821 17.9318 55.2369 18.2222 54.7478 18.5891C54.3809 18.8337 54.228 18.8642 53.9682 18.742C53.693 18.6044 53.6777 18.5738 53.907 18.5738C54.0446 18.5585 54.1669 18.4821 54.1669 18.4056C54.1669 18.3139 54.3045 18.2528 54.4573 18.2528C54.6255 18.2528 54.8548 18.1458 54.9924 18.0235C55.1146 17.9012 55.3439 17.8095 55.4968 17.8248C55.6497 17.8248 55.8942 17.8248 56.0624 17.8248C56.628 17.7636 56.0012 17.3356 55.4051 17.3662L54.8548 17.3815L55.3592 17.4426C55.6191 17.4732 55.8484 17.5649 55.8484 17.6566C55.8484 17.7331 55.8331 17.7942 55.8178 17.7942C55.7872 17.7789 55.3898 17.6872 54.9312 17.5802L54.0905 17.3968L55.3134 17.198C55.986 17.091 56.9796 16.9076 57.5299 16.8006C58.6916 16.556 58.9515 16.5407 58.5235 16.7242ZM101.096 16.7089C101.096 16.7853 101.279 16.8923 101.493 16.9382C102.028 17.0757 101.799 17.2745 100.989 17.3815C100.439 17.4426 100.362 17.4273 100.454 17.198C100.637 16.7242 101.096 16.3726 101.096 16.7089ZM108.953 16.8617C109.014 16.9382 108.907 16.9687 108.739 16.9229C108.387 16.8312 108.342 16.7242 108.647 16.7242C108.77 16.7242 108.907 16.7853 108.953 16.8617ZM22.4784 17.1216C22.4325 17.1675 22.2949 17.1827 22.1879 17.1369C22.0656 17.091 22.1115 17.0452 22.2796 17.0452C22.4478 17.0299 22.5395 17.0757 22.4784 17.1216ZM87.9038 17.6719C87.9038 17.9471 87.8732 18.0846 87.8426 17.9776C87.7968 17.8859 87.6286 17.7942 87.4605 17.7942C87.277 17.7942 87.1853 17.7483 87.2312 17.6872C87.2923 17.6413 87.2617 17.5038 87.17 17.3815C87.0324 17.2286 87.0936 17.1827 87.4452 17.1827C87.8579 17.1827 87.9038 17.2286 87.9038 17.6719ZM84.2045 18.1916C84.5102 18.4209 84.5102 18.4362 84.1433 18.3751C83.9293 18.3445 83.7459 18.2375 83.7 18.1305C83.6236 17.8859 83.8376 17.9012 84.2045 18.1916ZM19.2377 19.17C19.1918 19.2464 19.0542 19.3228 18.9625 19.3228C18.8555 19.3228 18.8708 19.2617 19.0084 19.17C19.2988 18.9865 19.36 18.9865 19.2377 19.17ZM95.8985 19.3381C95.8985 19.4145 95.7915 19.4757 95.6692 19.4757C95.5316 19.4757 95.4858 19.384 95.5316 19.2464C95.6234 19.0171 95.8985 19.0782 95.8985 19.3381ZM97.8093 20.5457C97.7634 20.6222 97.6564 20.6986 97.5647 20.6986C97.4883 20.6986 97.4271 20.6222 97.4271 20.5457C97.4271 20.454 97.5341 20.3929 97.6717 20.3929C97.794 20.3929 97.8552 20.454 97.8093 20.5457ZM58.1872 22.3648C58.4471 22.5941 59.2267 22.5024 60.205 22.1661C60.3731 22.1049 60.1744 22.2425 59.7464 22.4718C59.3337 22.7011 58.6458 22.9457 58.2178 23.0068C57.805 23.0833 57.377 23.2361 57.3006 23.3584C57.1019 23.6183 54.8089 23.8323 54.4726 23.603C54.2739 23.4654 54.2739 23.4501 54.4726 23.4348C54.5949 23.4196 54.8242 23.4348 54.9771 23.4501C55.1299 23.4654 55.4357 23.3584 55.6649 23.2056C55.8942 23.0527 56.3223 22.8998 56.6127 22.8387C57.0866 22.7622 57.1477 22.7011 57.1936 22.2731C57.2394 21.8145 57.27 21.7839 57.5757 21.9674C57.7592 22.0744 58.0343 22.2425 58.1872 22.3648ZM102.579 22.9304C102.533 22.9763 102.395 22.9915 102.288 22.9457C102.166 22.8998 102.212 22.854 102.38 22.854C102.548 22.8387 102.64 22.8845 102.579 22.9304ZM23.7471 23.5418C23.7471 23.5724 23.6401 23.603 23.5178 23.603C23.3955 23.603 23.2885 23.5418 23.2885 23.4501C23.2885 23.3737 23.3955 23.3431 23.5178 23.389C23.6401 23.4501 23.7471 23.5113 23.7471 23.5418ZM22.4784 23.6947C22.4325 23.7406 22.2949 23.7559 22.1879 23.71C22.0656 23.6641 22.1115 23.6183 22.2796 23.6183C22.4478 23.603 22.5395 23.6489 22.4784 23.6947ZM21.8363 23.9087C21.6988 24.1227 21.1485 24.3979 21.1485 24.2603C21.1485 24.1533 21.5153 23.924 21.8822 23.7711C21.9128 23.7711 21.8822 23.817 21.8363 23.9087ZM16.9142 25.3915C16.8071 25.4221 16.5931 25.4221 16.4556 25.3915C16.3027 25.3456 16.3944 25.3151 16.639 25.3151C16.8989 25.3151 17.0059 25.3456 16.9142 25.3915ZM17.7855 25.3456C17.7855 25.3762 17.6479 25.4374 17.4797 25.4832C17.3116 25.5291 17.2046 25.4985 17.2657 25.4221C17.3422 25.2845 17.7855 25.2233 17.7855 25.3456ZM33.3469 26.5838C33.3011 26.6297 33.2094 26.5533 33.1635 26.4004C33.0718 26.1864 33.0871 26.1711 33.2399 26.3087C33.3469 26.4157 33.3928 26.538 33.3469 26.5838ZM33.6068 26.966C33.6527 27.0424 33.6374 27.1189 33.5457 27.1189C33.4692 27.1189 33.3469 27.0424 33.3011 26.966C33.2552 26.8743 33.2705 26.8131 33.3622 26.8131C33.4387 26.8131 33.5609 26.8743 33.6068 26.966ZM32.8425 27.2717C32.7813 27.3634 32.8119 27.5316 32.9036 27.6386C33.0259 27.7762 33.0106 27.8373 32.8425 27.8373C32.7202 27.8373 32.6591 27.7762 32.7049 27.715C32.7355 27.6539 32.6896 27.5469 32.5979 27.4857C32.4756 27.4246 32.4909 27.3481 32.6285 27.2564C32.9036 27.0883 32.9495 27.0883 32.8425 27.2717ZM13.1996 27.4246C13.1996 27.501 13.169 27.5774 13.1384 27.5774C13.0926 27.5774 13.0161 27.501 12.9703 27.4246C12.9244 27.3329 12.955 27.2717 13.0314 27.2717C13.1231 27.2717 13.1996 27.3329 13.1996 27.4246ZM34.1418 28.1125C33.9278 28.3723 33.4387 28.4182 33.3164 28.2042C33.2552 28.1277 33.3469 28.0972 33.5151 28.143C33.6679 28.1889 33.8514 28.143 33.8972 28.0513C33.9584 27.9596 34.0807 27.8832 34.1724 27.8832C34.2794 27.8832 34.2641 27.9749 34.1418 28.1125ZM33.9278 28.6781C33.989 28.7698 33.9737 28.8003 33.8667 28.7392C33.775 28.6933 33.6374 28.7545 33.5609 28.8921C33.4692 29.0602 33.3928 29.0908 33.3164 28.9685C33.2552 28.8768 33.2858 28.8003 33.3775 28.8003C33.4692 28.8003 33.4998 28.7239 33.4539 28.6475C33.4081 28.5558 33.4692 28.4946 33.5915 28.4946C33.7138 28.4946 33.8667 28.571 33.9278 28.6781ZM32.9189 29.1672C32.9189 29.1978 32.7966 29.3201 32.6591 29.4271C32.4145 29.6258 32.3992 29.6105 32.5979 29.3659C32.7966 29.1214 32.9189 29.0449 32.9189 29.1672ZM33.5304 29.794C33.5304 29.9162 33.4998 30.0232 33.4692 30.0232C33.4387 30.0232 33.3775 29.9162 33.3164 29.794C33.2705 29.6717 33.3011 29.5647 33.3775 29.5647C33.4692 29.5647 33.5304 29.6717 33.5304 29.794ZM34.5546 29.6564C34.5087 29.7022 34.3711 29.7175 34.2641 29.6717C34.1418 29.6258 34.1877 29.5799 34.3558 29.5799C34.524 29.5647 34.6157 29.6105 34.5546 29.6564ZM32.7355 30.8334C32.6438 31.0169 32.552 31.185 32.5368 31.2003C32.5215 31.2309 32.5062 31.0474 32.5062 30.8028C32.5062 30.4971 32.5673 30.3748 32.7049 30.436C32.8731 30.4971 32.8731 30.5888 32.7355 30.8334ZM64.8062 32.6372C64.9284 32.8512 64.5616 35.0677 64.3934 35.0677C64.317 35.0677 64.2559 35.0219 64.2559 34.9454C64.2559 34.8843 64.1947 34.7467 64.1183 34.6244C64.0113 34.4563 63.9196 34.441 63.7514 34.5786C63.5985 34.7161 63.5374 34.7161 63.5374 34.5633C63.5374 34.4716 63.4915 34.227 63.4304 34.0283C63.3387 33.7684 63.3845 33.6614 63.675 33.5544L64.0266 33.4015H63.6903C63.2317 33.3862 63.247 33.2945 63.7667 32.8512C64.21 32.4538 64.638 32.3621 64.8062 32.6372ZM103.083 32.5302C103.083 32.5608 102.854 32.6678 102.594 32.7595C102.135 32.9124 102.12 32.8971 102.38 32.6984C102.655 32.4843 103.083 32.3926 103.083 32.5302ZM33.0718 33.0805C33.0718 33.1569 33.0412 33.2334 33.0106 33.2334C32.9648 33.2334 32.8883 33.1569 32.8425 33.0805C32.7966 32.9888 32.8272 32.9277 32.9036 32.9277C32.9954 32.9277 33.0718 32.9888 33.0718 33.0805ZM64.4087 35.7556C64.4087 35.7862 64.21 36.0308 63.9501 36.2906C63.6597 36.5811 63.4915 36.6728 63.4915 36.5352C63.4915 36.4129 63.675 36.1683 63.889 36.0002C64.3017 35.6792 64.4087 35.618 64.4087 35.7556ZM34.6921 37.6053C34.6921 37.7734 34.8603 37.9263 35.1813 38.0333C35.5787 38.1709 35.6399 38.2473 35.487 38.4001C35.3494 38.5377 35.3494 38.5836 35.487 38.5836C35.594 38.5836 35.6705 38.7364 35.6705 38.9199C35.6705 39.1797 35.6246 39.2103 35.5329 39.0575C35.4564 38.9352 35.3189 38.9046 35.2119 38.9657C35.0896 39.0422 35.0437 39.0116 35.0896 38.874C35.1354 38.7517 34.9826 38.4766 34.7686 38.2626C34.3405 37.8498 34.203 37.3607 34.524 37.3607C34.631 37.3607 34.7074 37.4677 34.6921 37.6053ZM72.5563 38.981C72.6939 39.0269 72.7398 39.195 72.7092 39.4243C72.6175 39.8371 73.0913 40.1734 73.5346 40.0052C73.7639 39.9135 73.7792 39.9441 73.6264 40.1428C73.5194 40.2651 73.4735 40.4179 73.5194 40.4638C73.5805 40.5097 73.5652 40.6778 73.5041 40.8307C73.3512 41.1823 73.3206 41.274 73.2901 41.5644C73.2901 41.6867 73.1983 41.7937 73.1066 41.7937C73.0149 41.7937 72.969 41.6867 73.0302 41.5644C73.0913 41.381 72.9843 41.3657 72.3882 41.4421C71.9907 41.488 71.5474 41.595 71.4098 41.6714C71.0735 41.8396 70.4162 41.6714 70.3092 41.3963C70.2634 41.274 70.1105 41.1823 69.9576 41.1823C69.7742 41.1823 69.8506 41.0753 70.2022 40.8612C70.7678 40.5249 70.7372 40.3262 70.1411 40.4791C69.8965 40.5402 69.7895 40.6472 69.8506 40.7542C69.9118 40.8612 69.8965 40.8765 69.7895 40.8154C69.6978 40.7542 69.3921 40.8307 69.1169 40.9683C68.8417 41.1211 68.4137 41.2893 68.1539 41.3504C67.9093 41.4116 67.5271 41.5186 67.3131 41.5797C66.931 41.6714 66.931 41.6714 67.2367 41.4268C67.5271 41.167 67.5118 41.167 66.9004 41.2281C66.5335 41.274 66.2431 41.2893 66.2431 41.2587C66.2431 41.1211 67.9398 40.2804 68.5819 40.1122C68.9793 40.0052 69.3462 39.8523 69.3921 39.7912C69.4379 39.7148 69.5449 39.6536 69.6519 39.6536C69.7436 39.6536 69.6825 39.7606 69.5143 39.8829C69.3615 40.0052 69.3003 40.1122 69.4073 40.1122C69.7283 40.1122 70.3704 39.8218 70.3704 39.6689C70.3704 39.5772 70.2787 39.5466 70.1564 39.5925C70.0341 39.6383 69.8965 39.5925 69.8201 39.4855C69.7589 39.3785 69.7742 39.3326 69.8506 39.3938C69.9271 39.4396 70.3704 39.3479 70.829 39.195C71.7003 38.8893 72.1742 38.8282 72.5563 38.981ZM35.1354 39.516C35.0743 39.5925 34.8144 39.6383 34.5546 39.6383C34.2335 39.6231 34.1724 39.5925 34.3711 39.5466C34.5393 39.5008 34.738 39.409 34.8144 39.3326C34.9826 39.1797 35.2424 39.3173 35.1354 39.516ZM93.8349 39.9594C93.9571 40.1581 93.7584 40.1581 93.4527 39.9594C93.254 39.8371 93.254 39.8065 93.4833 39.8065C93.6208 39.8065 93.789 39.8676 93.8349 39.9594ZM95.4399 42.0383C95.4399 42.0689 95.3023 42.0994 95.1189 42.0994C94.9508 42.0994 94.8438 42.0383 94.9049 41.9466C94.9813 41.8243 95.4399 41.9007 95.4399 42.0383ZM75.3384 42.3287C75.4301 42.3593 75.1703 42.3899 74.7728 42.3899C74.3601 42.4052 74.0391 42.344 74.0391 42.2829C74.0391 42.1759 74.9868 42.2064 75.3384 42.3287ZM72.5105 42.4969C72.5105 42.6345 71.5474 43.5364 71.3487 43.5975C70.8442 43.7351 70.6761 43.8574 70.1717 44.4535C69.5449 45.2026 69.3003 45.7376 69.3003 46.3337C69.3003 46.5936 69.071 46.9452 68.6277 47.3885C67.894 48.1375 67.4813 48.2445 67.4507 47.7095C67.4048 46.8229 68.0774 45.5541 69.3768 44.1172C70.0188 43.3988 70.1564 43.0166 69.6061 43.5058C69.4838 43.6128 69.5449 43.5058 69.7589 43.2765C69.9882 43.0166 70.2328 42.879 70.4009 42.9096C70.5385 42.9555 70.7831 42.8943 70.936 42.7873C71.3334 42.5122 72.5105 42.2982 72.5105 42.4969ZM75.1091 42.9555C75.6136 43.1695 75.6594 43.1695 75.904 42.879C76.2862 42.4052 76.7295 42.4663 76.9282 43.0319C77.2951 44.0867 76.6225 44.6828 76.0722 43.7809C75.7359 43.2001 75.4301 43.1695 75.5371 43.7198C75.5983 44.0408 75.5066 44.2242 75.1397 44.5452C74.8798 44.7593 74.62 45.1261 74.5741 45.3554C74.4824 45.6917 73.9321 46.2267 73.6722 46.2267C73.6264 46.2267 73.6111 45.9363 73.6264 45.5694C73.6569 45.0038 73.6264 44.9274 73.3512 44.9733C73.1831 45.0038 72.9385 45.1261 72.8009 45.2484C72.6786 45.3707 72.5105 45.4624 72.434 45.4624C72.3729 45.4624 72.6327 45.1567 73.0302 44.7745C73.4276 44.3924 73.7028 44.0102 73.6569 43.9338C73.6111 43.8574 73.6416 43.7656 73.7334 43.7045C73.9932 43.5364 73.9015 43.3223 73.5041 43.1389C73.2901 43.0472 73.1219 42.8638 73.1219 42.7415C73.1219 42.5733 73.2595 42.5427 73.8557 42.6345C74.2531 42.6956 74.8187 42.8332 75.1091 42.9555ZM75.476 42.7415C75.4301 42.8026 75.3384 42.8638 75.2467 42.8638C75.1703 42.8638 75.1091 42.8026 75.1091 42.7415C75.1091 42.665 75.2161 42.6039 75.3384 42.6039C75.4607 42.6039 75.5219 42.665 75.476 42.7415ZM80.4593 45.1108C80.4441 45.6153 79.5269 45.9669 78.5485 45.8446C78.1205 45.7834 77.5091 45.814 77.2034 45.8904C76.4696 46.0892 76.4696 45.8599 77.2186 45.5083C77.5855 45.3248 78.1358 45.2331 78.8237 45.2331C79.3893 45.2331 79.8479 45.1873 79.8479 45.1108C79.8479 45.0497 79.9855 45.0038 80.1536 45.0038C80.3218 45.0038 80.4593 45.0497 80.4593 45.1108ZM76.9435 46.6089C76.9435 46.7159 75.7359 47.3121 74.6505 47.7095C73.1678 48.2751 72.541 48.3974 72.2047 48.214C71.8073 48 71.8073 47.7554 72.2047 47.7554C72.3729 47.7554 72.5105 47.8471 72.5105 47.9388C72.5105 48.0917 72.541 48.0917 72.6327 47.9541C72.6939 47.8471 73.1525 47.5566 73.6569 47.3121C74.3907 46.9299 74.6811 46.8688 75.262 46.9299C75.7512 46.9911 75.8887 46.9758 75.7359 46.8688C75.5677 46.7465 75.6289 46.7006 76.0416 46.6395C76.332 46.6089 76.653 46.563 76.76 46.563C76.8518 46.5478 76.9435 46.563 76.9435 46.6089ZM73.0455 47.4496C72.9996 47.5261 72.8162 47.6025 72.648 47.6025C72.4952 47.6025 72.3576 47.5261 72.3576 47.4496C72.3576 47.3579 72.541 47.2968 72.755 47.2968C72.969 47.2968 73.1066 47.3579 73.0455 47.4496ZM77.3256 52.968C77.4938 53.2279 77.3104 53.289 77.0964 53.0291C76.9741 52.8916 76.9741 52.7999 77.0658 52.7999C77.1575 52.7999 77.2798 52.8763 77.3256 52.968ZM77.3256 55.5514C77.3715 55.6431 77.3104 55.6584 77.1881 55.6125C76.9129 55.5055 76.8671 55.3985 77.0811 55.3985C77.1728 55.3985 77.2798 55.4597 77.3256 55.5514ZM59.2878 63.1945C59.3337 63.271 59.2725 63.3474 59.1349 63.3474C58.9974 63.3474 58.9362 63.271 58.9821 63.1945C59.0279 63.1028 59.1044 63.0417 59.1349 63.0417C59.1655 63.0417 59.2419 63.1028 59.2878 63.1945ZM61.0152 88.0195C61.168 88.3711 61.1527 88.3864 60.6483 88.3711C60.205 88.3405 60.1591 88.31 60.3731 88.1571C60.6177 87.9737 60.6177 87.9584 60.3884 87.8666C60.2356 87.8208 60.1286 87.6374 60.1286 87.4845C60.1286 87.2093 60.1591 87.2093 60.4801 87.4233C60.6789 87.5456 60.9234 87.8208 61.0152 88.0195Z" fill="black"/>
<path d="M84.8159 8.80574C84.4032 8.88217 83.7764 8.9586 83.4401 8.97389C83.1038 9.00446 82.5535 9.11147 82.2325 9.21847C81.7586 9.38662 81.6822 9.44777 81.8809 9.57006C82.2478 9.76878 82.0185 10.1509 81.5141 10.1509C81.2695 10.1509 81.0707 10.0745 81.0707 9.99807C81.0707 9.79935 80.5204 9.79935 80.1383 9.99807C79.7561 10.2121 79.9243 10.5331 80.6274 10.8847C81.0096 11.0681 81.1472 11.2363 81.1319 11.4961C81.1166 11.9089 81.1472 11.9089 83.0274 11.5114C83.807 11.3586 84.0974 11.2057 84.663 10.6554C85.0452 10.3038 85.3509 9.8605 85.3509 9.69235C85.3509 9.5242 85.4579 9.38662 85.5802 9.38662C85.8248 9.38662 85.8401 9.2949 85.6872 8.92803C85.5955 8.72931 85.4426 8.71402 84.8159 8.80574ZM85.0452 9.8605C85.2439 9.99807 85.2439 10.0134 85.0146 9.95221C84.877 9.90636 84.7395 9.93693 84.6936 10.0439C84.663 10.1356 84.6019 10.1051 84.5407 9.95221C84.4337 9.66177 84.6936 9.60063 85.0452 9.8605Z" fill="black"/>
<path d="M17.0671 26.7215C16.6391 26.9049 16.2263 27.1036 16.1652 27.1648C16.104 27.2259 15.9053 27.2718 15.7219 27.2718C15.5232 27.2718 15.2939 27.3788 15.1869 27.5011C15.0799 27.6234 14.9423 27.6998 14.8811 27.6539C14.6824 27.5316 13.8111 27.8985 13.6582 28.1737C13.4442 28.5864 13.7041 28.8616 14.2085 28.724C14.4531 28.6475 14.7588 28.5864 14.8811 28.5558C15.0034 28.5253 15.2327 28.4488 15.4162 28.3571C15.5843 28.2654 15.9817 28.0972 16.3028 27.9749C16.7919 27.7762 16.9448 27.5775 16.8989 27.1189C16.8989 27.0731 17.1282 27.0578 17.4187 27.0883C17.8925 27.1495 17.9384 27.1189 17.9384 26.752C17.9384 26.538 17.9231 26.3546 17.9078 26.3699C17.8772 26.3699 17.5104 26.538 17.0671 26.7215Z" fill="black"/>
<path d="M65.7845 72.5348C65.5705 72.596 65.0813 72.7336 64.6839 72.8406C64.2864 72.9323 63.8431 73.1463 63.7056 73.2992C63.568 73.4673 63.3387 73.5896 63.2011 73.5896C62.9871 73.5896 62.9871 73.6202 63.1858 73.7425C63.3846 73.8647 63.354 73.9106 63.0788 73.987C62.6202 74.1093 62.6355 74.2928 63.0941 74.3845C63.3081 74.4303 63.6138 74.3386 63.8126 74.1858C64.0113 74.0329 64.2864 73.8953 64.424 73.8953C64.5616 73.8953 64.8215 73.7577 65.0202 73.5896C65.2648 73.3756 65.5705 73.2839 65.9985 73.2992C66.3501 73.3144 66.503 73.345 66.3654 73.3909C66.2125 73.4214 66.0902 73.5132 66.0902 73.5896C66.0902 73.7272 67.038 74.0482 67.466 74.0482C67.5883 74.0482 68.0469 74.2163 68.4596 74.4303C68.9182 74.6443 69.3615 74.7666 69.5755 74.7055C69.8507 74.6443 69.9118 74.6902 69.9118 75.0112C69.9118 75.2099 70.0188 75.4698 70.1411 75.5768C70.2634 75.6838 70.3704 75.852 70.3704 75.959C70.3704 76.066 70.4774 76.2341 70.5997 76.3411C70.7373 76.4481 70.8137 76.6316 70.7678 76.7386C70.6608 76.9984 73.8862 76.922 74.5741 76.6621L75.0174 76.4787L74.5741 76.1118C74.3143 75.9131 73.9321 75.745 73.7181 75.7297C73.4429 75.7297 73.3207 75.6532 73.3359 75.4851C73.3512 75.3169 73.1372 75.1641 72.6939 75.0418C72.0519 74.8431 71.1347 74.0788 71.1347 73.7119C71.1347 73.6202 71.0889 73.5743 71.043 73.6355C70.9818 73.6813 70.8443 73.6355 70.722 73.5132C70.4621 73.238 70.0035 73.2074 70.1564 73.4673C70.2328 73.5896 70.187 73.6049 70.0035 73.5437C69.8507 73.4826 69.6367 73.4367 69.5144 73.4367C69.3921 73.4367 69.3156 73.3603 69.3462 73.2533C69.4379 72.7947 66.717 72.2444 65.7845 72.5348ZM71.364 76.0354C71.4252 76.1271 71.257 76.1883 70.9971 76.1883C70.7373 76.1883 70.5233 76.1118 70.5233 76.0354C70.5233 75.9437 70.6914 75.8825 70.8901 75.8825C71.1041 75.8825 71.3181 75.9437 71.364 76.0354Z" fill="black"/>
<path d="M75.904 76.799C75.3995 77.0436 75.3842 77.2576 75.904 77.2576C76.1027 77.2576 76.1791 77.3799 76.1791 77.6856C76.1791 77.9149 76.2556 78.1901 76.3626 78.2971C76.653 78.5875 76.0874 78.6945 75.1549 78.5264C74.4212 78.3888 74.3142 78.4041 74.1919 78.6486C74.0696 78.8627 74.1308 78.9697 74.5282 79.1531C75.0479 79.413 75.3231 79.4741 75.2008 79.2754C75.1702 79.2142 75.5371 79.1531 76.0416 79.1684C76.8823 79.1684 77.0046 79.2142 77.2797 79.5964L77.5855 80.0244L77.9676 79.4894C78.3345 78.9391 78.5485 78.8168 78.6555 79.0919C78.6861 79.1837 78.8695 79.1531 79.1294 79.0155C79.5727 78.7862 80.5052 78.8321 80.5816 79.0919C80.6122 79.1684 80.7497 79.2448 80.8873 79.2448C81.0096 79.2448 81.0708 79.199 81.0249 79.1378C80.9637 79.0919 81.0402 78.9544 81.193 78.8474C81.4376 78.6639 81.4071 78.6028 80.8873 78.0983C80.5816 77.8079 80.1841 77.5633 80.016 77.5633C79.8326 77.5633 79.695 77.4716 79.695 77.3493C79.695 77.0436 78.4415 76.7379 77.616 76.8754C77.1116 76.9519 76.8517 76.9213 76.6683 76.7531C76.439 76.5697 76.332 76.585 75.904 76.799Z" fill="black"/>
</svg>
