<svg width="114" height="135" viewBox="0 0 114 135" fill="none" xmlns="http://www.w3.org/2000/svg">
<path d="M62.3691 0.654051C61.6838 1.05079 60.9264 1.51966 60.6739 1.69999C60.3854 1.95246 60.169 1.95246 60.0247 1.73606C59.7722 1.33932 58.4017 1.23112 58.4017 1.59179C58.4017 2.20493 59.9886 3.90008 60.5657 3.90008C61.5756 3.90008 62.3691 4.29681 62.3691 4.80175C62.3691 5.84769 63.5953 6.35263 65.7233 6.20836C67.2381 6.10016 67.7791 6.13623 67.5988 6.42476C67.4545 6.67723 66.9856 6.74937 66.5168 6.64117C66.0118 6.4969 65.5069 6.64117 65.2544 6.96577C65.002 7.29037 64.497 7.43464 64.1724 7.32644C63.4511 7.11004 62.3691 7.43464 62.3691 7.90351C62.3691 8.08385 62.7658 8.40845 63.2707 8.58878C63.7757 8.76912 64.1724 9.16585 64.1724 9.49046C64.1724 9.77899 64.3528 10.0315 64.5692 10.0315C64.7495 10.0315 64.8216 10.2118 64.7134 10.3921C64.3888 10.9331 64.8938 12.2315 65.2905 11.9791C65.5069 11.8709 65.9036 11.9791 66.1922 12.2315C66.4807 12.4479 66.8414 12.5561 66.9496 12.4119C67.0938 12.2676 67.0217 12.0512 66.8053 11.9069C66.5528 11.7266 66.4807 11.4381 66.6971 11.1495C66.9496 10.7167 67.202 10.7528 68.3201 11.2577C69.0415 11.6184 69.9431 12.1594 70.3038 12.4479C70.6645 12.7726 71.4579 13.0972 72.035 13.1332C73.4416 13.3136 78.7795 15.8743 78.7435 16.3432C78.7074 16.5235 78.9238 17.0285 79.1763 17.4252C79.4648 17.8219 79.6812 18.399 79.6812 18.7597C79.6812 19.1203 79.7894 19.4089 79.9697 19.4089C80.114 19.4089 80.2222 19.9859 80.2583 20.6712C80.2583 21.645 80.1501 21.9336 79.6451 21.9336C78.9599 21.9336 77.1565 24.2418 77.1565 25.1075C77.1565 25.6124 80.4026 25.6124 80.7993 25.0714C80.9075 24.9271 81.5567 24.7107 82.242 24.6386C83.3961 24.4943 83.6125 24.6025 84.8388 26.2255C86.1733 27.9567 86.2093 27.9928 88.1569 27.9928C89.275 27.9567 90.2488 28.0649 90.3931 28.1731C90.5013 28.3174 90.898 28.2453 91.2587 28.0649C91.7997 27.7764 91.8718 27.8125 91.7636 28.4256C91.6915 28.8223 91.5112 29.3273 91.403 29.5076C91.2948 29.724 91.3308 29.8683 91.5112 29.8683C91.944 29.8683 92.3046 29.0027 92.3046 28.0289C92.3046 27.6682 92.485 27.3436 92.6653 27.3436C92.8817 27.3436 93.026 27.0911 93.026 26.7665C93.026 26.478 93.1703 26.2977 93.3506 26.4059C93.5309 26.5141 93.6752 26.2255 93.6752 25.7567C93.6752 24.314 96.3081 22.4385 97.1376 23.3041C97.2819 23.4484 98.0032 23.7369 98.7246 23.9172C99.518 24.1336 100.203 24.6025 100.42 25.1075C100.6 25.5403 100.889 25.9009 101.033 25.9009C101.213 25.9009 101.321 26.1895 101.321 26.5862C101.321 26.9469 101.574 27.4518 101.862 27.7043C102.151 27.9567 102.295 28.2813 102.187 28.4617C102.079 28.642 102.259 28.7863 102.548 28.7863C102.872 28.7863 103.197 29.183 103.341 29.6519C103.485 30.3011 103.954 30.6257 105.217 30.9864C106.154 31.2388 107.417 31.4192 107.994 31.3831C108.607 31.3831 109.436 31.5995 109.869 31.888C110.807 32.4651 113.44 32.5733 113.764 32.0323C113.909 31.8159 113.873 31.6716 113.692 31.7077C113.548 31.7438 113.151 31.7438 112.863 31.7077C112.43 31.6716 112.43 31.5995 112.791 31.3831C113.115 31.1667 112.791 30.9142 111.781 30.5896C110.482 30.1568 109.797 29.5076 110.699 29.5076C111.528 29.5076 110.987 28.8223 110.086 28.7141C109.256 28.642 109.112 28.4617 109.184 27.7403C109.292 26.9469 109.22 26.9108 108.246 27.0911C107.272 27.3075 107.164 27.1993 106.695 25.7927C106.407 24.9632 105.577 23.7008 104.856 22.9795C104.099 22.2582 103.485 21.3204 103.485 20.9237C103.485 20.2745 103.702 20.1302 104.748 20.1302C105.722 20.1302 106.01 19.9859 106.01 19.481C106.01 18.7236 104.82 17.4973 103.99 17.3891C103.666 17.3531 103.161 17.0645 102.836 16.776C102.476 16.4874 101.79 16.1628 101.285 16.0186C100.492 15.8382 100.384 15.6579 100.528 14.9005C100.6 14.3956 100.816 13.9988 100.997 13.9988C101.177 13.9988 101.321 13.7464 101.321 13.4218C101.321 12.9168 101.213 12.9168 100.78 13.2775C100.312 13.6742 100.095 13.6021 99.518 12.989C99.1213 12.5561 98.7967 12.0512 98.7967 11.8348C98.7967 11.6184 98.6524 11.5102 98.4721 11.6545C98.2918 11.7627 97.895 11.5823 97.6065 11.2938C97.2819 11.0053 96.7409 10.7528 96.3442 10.7528C95.9474 10.7528 95.4425 10.5003 95.19 10.2118C94.9736 9.92326 93.8555 9.45439 92.7375 9.12979C91.5833 8.80518 90.0324 8.15598 89.239 7.72318C88.4455 7.2543 87.5799 6.96577 87.3635 7.0379C87.111 7.1461 86.8946 7.0379 86.8946 6.85757C86.8946 6.67723 86.2093 6.42476 85.4159 6.2805C84.5863 6.13623 82.819 5.45096 81.4846 4.72962C79.2123 3.53941 78.9599 3.46727 77.95 3.93614C77.3369 4.18861 76.7598 4.69355 76.6877 5.05422C76.5795 5.45096 76.1466 5.70342 75.5696 5.70342C75.0646 5.70342 74.6318 5.84769 74.6318 5.99196C74.6318 6.1723 74.3433 6.64117 74.0187 7.07397C73.658 7.47071 73.117 8.15598 72.8285 8.55272C72.54 8.98552 71.9629 9.31012 71.5301 9.31012C70.9169 9.31012 70.6645 8.98552 70.3038 7.57891C70.0513 6.64117 69.7628 6.10016 69.6907 6.35263C69.4382 7.00184 68.8611 6.4969 68.8611 5.59522C68.8611 4.94602 68.9333 4.87388 69.2579 5.34276C69.5825 5.77556 69.6185 5.73949 69.4021 5.16242C69.2579 4.76568 69.1136 3.82794 69.0415 3.07054C68.8611 1.41146 68.5726 0.906519 67.9594 1.15899C67.707 1.23112 66.9135 1.01472 66.1922 0.617983C64.6052 -0.211555 63.9921 -0.211555 62.3691 0.654051Z" fill="black"/>
<path d="M89.1309 32.8252C88.9506 33.0777 88.6621 33.6908 88.5178 34.1958C88.3735 34.7007 87.9407 35.6384 87.5079 36.2877C87.1112 36.9729 86.7505 38.1631 86.6784 38.9566C86.6062 39.7501 86.3898 40.6157 86.1734 40.8682C85.9931 41.1206 85.7406 42.3469 85.6324 43.6092C85.416 46.3503 84.1898 50.3177 83.252 51.3636C82.8553 51.7604 82.5667 52.2653 82.5667 52.4817C82.5667 53.2031 81.4487 54.0326 80.547 54.0326C79.9699 54.0326 79.1404 53.4916 78.2387 52.5899C77.4452 51.7964 76.5075 51.1472 76.1468 51.1472C75.7862 51.1472 75.2452 50.7505 74.9927 50.2456C74.7402 49.7406 74.3074 49.3439 74.0549 49.3439C73.7664 49.3439 73.4779 48.9472 73.3336 48.4422C73.0811 47.4684 72.468 47.2159 72.468 48.0816C72.468 48.4422 71.8188 48.0094 70.7007 46.9635L68.9334 45.2683L69.6548 44.5109C70.0515 44.0781 70.5204 43.3928 70.7007 42.924C70.8811 42.4551 71.2057 42.2026 71.4221 42.3108C71.6385 42.4551 71.7106 42.7797 71.6024 43.0322C71.4221 43.501 72.7205 44.042 73.2615 43.7174C73.55 43.5371 73.4057 41.842 73.0451 41.4813C72.9369 41.3731 72.6123 41.5174 72.2877 41.7698C71.8188 42.1666 71.7467 42.0944 71.7467 41.2649C71.7467 40.76 71.927 40.3632 72.1434 40.3993C72.3598 40.4714 72.9369 39.7861 73.4418 38.8845C74.1631 37.55 74.1992 37.2254 73.8025 36.9008C73.5139 36.7205 73.3697 36.3237 73.4418 36.0713C73.55 35.8549 73.4418 35.6384 73.2254 35.6384C73.009 35.6384 72.8287 35.7827 72.8287 35.9631C72.8287 36.1434 72.5041 36.3598 72.0713 36.468C71.5303 36.6123 71.386 36.5401 71.5303 36.1434C71.7827 35.4581 71.5303 35.4942 70.304 36.4319C69.4744 37.0451 69.1138 37.1172 68.7892 36.7926C68.5367 36.5401 67.9957 36.3598 67.5629 36.3598C67.094 36.3598 66.517 36.1434 66.2645 35.8909C66.012 35.6024 65.5792 35.4581 65.3267 35.5663C65.1103 35.6385 64.8939 35.386 64.8939 35.0253C64.8939 34.4843 64.8218 34.4482 64.5333 34.9171C64.2087 35.386 64.1005 35.386 63.7759 34.8089C63.5595 34.4843 63.2709 34.2679 63.0545 34.3761C62.8742 34.5204 62.7299 34.2679 62.7299 33.8712C62.7299 33.222 62.6217 33.1859 61.8282 33.4744C61.3233 33.6548 60.9266 33.6908 60.9266 33.5826C60.9266 33.4384 60.7462 33.5105 60.4938 33.763C59.9888 34.2679 60.7462 35.3139 61.4315 35.0614C62.1168 34.8089 62.4774 35.963 61.9364 36.6123C61.6118 37.0451 60.9987 37.1172 59.5921 36.9729C58.5101 36.8647 57.6805 36.9369 57.6805 37.1172C57.6805 37.2975 57.5002 37.4418 57.2477 37.4418C56.5985 37.4418 54.8312 39.6058 55.0116 40.1468C55.1198 40.4354 54.8673 40.796 54.4706 41.0485C54.0378 41.2649 53.7132 41.6256 53.7132 41.842C53.7132 42.0944 53.3525 42.6354 52.9197 43.1043C52.2705 43.7896 52.1984 44.0421 52.5951 44.2585C53.4246 44.7995 52.6672 45.3405 51.3328 45.1601C50.6114 45.088 49.7819 45.1962 49.5294 45.4126C49.0966 45.7733 49.0605 45.7372 49.2409 45.2323C49.3851 44.8716 49.2409 44.583 48.8802 44.4388C48.5556 44.3306 48.3031 44.006 48.3031 43.7535C48.3031 43.465 47.7982 42.8879 47.1851 42.4551C46.1391 41.7338 45.9948 41.6977 45.5981 42.2387C45.3456 42.5633 45.0932 42.7797 45.021 42.6715C44.6243 42.3108 42.5324 42.1305 42.5324 42.4912C42.5324 42.6715 42.7127 42.8518 42.8931 42.8518C43.1095 42.8518 43.2538 43.2125 43.2538 43.6453C43.2177 44.4388 43.2177 44.4749 42.7128 43.7896C42.2078 43.1404 42.1717 43.1404 42.1717 43.7174C42.1717 44.1863 41.9914 44.2945 41.4504 44.1142C40.8373 43.9338 40.7291 44.0421 40.7291 44.8716C40.7291 45.4126 40.6209 45.7733 40.5127 45.6651C40.1159 45.2683 38.4208 47.252 38.3486 48.1898C38.3126 48.7308 38.2404 49.3078 38.2404 49.4882C38.2044 49.6324 37.6273 49.6685 36.906 49.5242C36.0764 49.38 35.6797 49.416 35.824 49.6685C35.9682 49.8488 35.8961 50.1013 35.6797 50.2456C35.4272 50.3898 35.4272 50.6784 35.6797 51.1833C35.9322 51.58 35.9322 51.8686 35.7158 51.8686C35.5354 51.8686 35.319 52.1571 35.2108 52.4817C35.1387 52.8424 34.9223 52.4456 34.778 51.58C34.6338 50.7505 34.3813 50.0652 34.2731 50.0652C34.1288 50.0652 33.4075 50.6784 32.6861 51.4358C31.6402 52.4817 31.3517 53.0949 31.3517 54.0687C31.3517 55.0425 31.0271 55.6917 30.1975 56.6294C29.5483 57.3508 28.7188 58.3246 28.3581 58.8656C27.4564 60.164 25.7252 60.9935 23.7055 61.0657C22.6956 61.1017 21.7218 61.3542 21.325 61.7149C20.9644 62.0395 20.243 62.328 19.7381 62.328C19.2332 62.328 18.62 62.5805 18.3675 62.869C18.0429 63.2657 17.4659 63.3739 16.5281 63.2657C15.7347 63.1936 15.0494 63.2657 14.9051 63.4461C14.7969 63.6264 14.4723 63.7707 14.1838 63.7707C13.8952 63.7707 13.1378 64.2395 12.4886 64.8166C11.8755 65.4298 10.7574 66.1511 10.0361 66.4757C9.31474 66.8364 8.52127 67.5216 8.23273 68.0626L7.79993 69.0004L7.58353 67.9184C7.40319 67.0528 7.29499 66.9446 7.00646 67.3774C6.10478 68.7479 5.74411 69.7217 5.74411 70.6955C5.74411 71.2726 5.34738 72.3546 4.84244 73.076C3.76043 74.6629 3.76043 74.9875 4.58997 77.7286C5.41951 80.4336 5.23918 81.8042 4.30143 79.7844L3.65223 78.3778L3.29156 79.2795L2.93089 80.1811L2.53415 79.2795C2.17348 78.486 2.13742 78.5942 2.31775 79.9647C2.42595 80.8303 2.78662 82.0206 3.07516 82.5976C3.39976 83.2108 3.6883 84.5092 3.76043 85.5551C3.83256 86.565 4.0129 87.8634 4.1211 88.4765C4.26537 89.0536 4.37357 90.0274 4.3375 90.6406C4.3375 91.2176 4.26537 93.6702 4.2293 96.0145C4.15717 99.0802 3.97683 100.379 3.6883 100.451C3.43583 100.559 3.21943 100.992 3.21943 101.425C3.21943 102.507 2.24562 103.805 1.38001 103.805C0.947207 103.805 0.550471 104.166 0.334069 104.743C-0.170869 106.041 -0.134802 106.33 0.658672 106.33C1.05541 106.33 1.45214 106.618 1.56035 106.979C1.84888 107.845 3.00302 108.386 5.09491 108.638C6.71792 108.818 8.62947 108.349 8.62947 107.772C8.62947 107.484 9.78361 107.015 10.8296 106.871C11.1542 106.835 11.7312 106.474 12.128 106.077C13.0296 105.176 15.6265 104.815 19.8824 105.031L22.9841 105.212L24.5711 103.589C25.4006 102.723 26.4105 102.002 26.7351 102.002C27.0597 102.002 27.4204 101.857 27.5286 101.677C27.6368 101.497 28.1778 101.244 28.7188 101.1C29.2958 100.992 30.0172 100.631 30.3418 100.307C30.7746 99.9098 31.3156 99.8376 32.1451 99.9819C33.3353 100.198 38.3126 99.0802 39.1061 98.395C39.3225 98.2146 40.9815 97.9622 42.821 97.8179C45.9588 97.5654 46.2112 97.6015 47.0408 98.395C47.5097 98.8278 48.1228 99.1163 48.3753 99.0442C48.6277 98.936 49.4573 99.2606 50.1786 99.7294C50.936 100.162 51.7295 100.559 51.982 100.559C52.3066 100.559 52.3066 100.667 51.982 100.992C51.3688 101.605 51.441 102.723 52.0541 102.723C52.8836 102.723 53.2804 106.005 52.523 106.474C52.018 106.799 52.0902 106.979 53.1 107.881C54.2542 108.89 54.2542 108.89 54.3624 108.097C54.5066 107.195 56.8149 104.887 57.5723 104.887C57.8609 104.887 58.8347 104.166 59.7364 103.264C60.638 102.362 61.4676 101.713 61.6118 101.857C61.72 102.002 61.6118 102.182 61.3954 102.254C61.143 102.362 60.9266 102.723 60.9266 103.084C60.9266 103.444 60.4938 103.985 59.9888 104.346C59.4839 104.671 58.8347 105.5 58.5462 106.185C58.2576 106.871 57.6445 107.592 57.2117 107.736C56.7428 107.917 56.1657 108.349 55.8772 108.71C55.3723 109.287 55.4083 109.323 56.2379 109.107C56.7428 108.963 57.4281 108.854 57.7887 108.854C58.1494 108.854 58.7626 108.277 59.1593 107.592C59.5921 106.907 60.061 106.33 60.2413 106.33C60.9626 106.33 60.4938 108.133 59.4839 109.143C58.2937 110.333 58.4019 110.73 59.8446 110.441C60.6741 110.261 60.8905 110.405 61.2872 111.415C61.72 112.461 61.72 112.714 61.0708 113.868C60.4577 114.986 60.3856 115.346 60.7462 116.392C60.9987 117.078 61.5397 117.763 61.9725 117.907C62.3692 118.088 62.7299 118.34 62.7299 118.52C62.7299 118.701 63.3791 118.845 64.2087 118.845C65.0382 118.845 65.7956 119.025 65.9399 119.206C66.0481 119.422 66.517 119.747 66.9498 119.999C67.635 120.36 68.0318 120.288 69.4744 119.53C70.4122 119.025 71.2778 118.737 71.386 118.881C71.4942 119.025 72.1795 119.458 72.9369 119.819C73.6582 120.215 74.2713 120.756 74.2713 121.045C74.2713 121.478 74.4156 121.478 75.0288 120.901C77.1206 119.025 80.9437 117.15 82.8192 117.15C85.1275 117.15 87.2194 115.996 87.2555 114.733C87.2555 114.481 87.6522 113.868 88.1571 113.327C88.6621 112.786 89.0588 112.173 89.0588 111.92C89.0588 111.704 89.7801 110.838 90.6818 110.009C91.5835 109.179 93.0983 107.556 94 106.402C96.2001 103.661 97.9673 101.966 99.6264 101.1C100.348 100.703 100.961 100.198 100.961 99.9819C100.961 99.7655 101.394 99.1163 101.971 98.5032C103.594 96.7359 104.207 95.8703 104.207 95.4375C104.207 95.185 104.568 94.4276 105.036 93.7423C107.092 90.6045 108.246 88.4765 108.391 87.4306C108.499 86.8175 108.823 85.6994 109.112 84.9059C109.689 83.4272 109.509 82.5616 108.932 84.0042C108.751 84.4731 108.571 84.6895 108.571 84.5092C108.535 84.1124 109.184 81.5517 109.509 80.7221C109.617 80.4336 109.689 80.0369 109.653 79.8926C109.617 79.7123 109.942 79.0631 110.338 78.3778C110.735 77.7286 111.06 76.899 111.024 76.5384C111.024 76.0334 110.951 75.9974 110.807 76.3941C110.266 77.8729 108.896 78.1253 108.896 76.7187C108.896 76.358 108.751 76.0334 108.571 76.0334C108.391 76.0334 108.174 75.5285 108.066 74.9514C107.922 74.3383 107.597 73.8694 107.309 73.8694C107.02 73.8694 106.732 73.5088 106.659 73.0399C106.587 72.6071 106.335 72.2825 106.082 72.3546C105.686 72.4267 105.65 71.9939 105.866 70.407C106.082 68.4594 106.082 68.3512 105.361 68.5315C104.892 68.6758 104.532 68.5315 104.423 68.2069C104.243 67.738 104.099 67.738 103.63 68.1348C103.161 68.5315 103.089 68.3872 103.161 67.1249C103.233 66.2232 103.017 65.2855 102.656 64.7084C101.899 63.5903 101.899 63.41 102.584 63.41C102.945 63.41 103.089 63.1215 102.981 62.5805C102.909 62.1477 102.656 61.8231 102.404 61.8952C101.79 62.0395 99.5543 60.4886 99.3018 59.7312C99.1936 59.3705 98.9051 59.1902 98.5805 59.3344C98.328 59.4426 98.0755 59.3344 98.0755 59.082C98.0755 58.8656 97.9313 58.7574 97.7509 58.8656C97.2099 59.2262 96.5247 58.036 96.705 57.0983C96.8132 56.5934 96.7411 56.0884 96.5607 55.9802C96.4165 55.872 96.3804 55.6195 96.4886 55.4031C96.9214 54.7179 96.6329 51.7604 96.0919 51.1472C95.5508 50.5702 95.4787 46.711 96.0197 45.8815C96.164 45.629 95.8755 45.1962 95.2984 44.8355C94.4328 44.2584 94.3967 44.1502 94.9377 43.7535C95.3705 43.4289 95.4426 43.2486 95.118 42.924C94.8656 42.6715 94.4328 42.4912 94.1442 42.5272C93.7475 42.5272 93.7836 42.6354 94.2885 42.8518C95.0098 43.1764 95.0098 43.1764 94.2885 43.2125C93.8918 43.2846 93.459 43.2846 93.3147 43.2486C93.1344 43.2486 93.0262 43.3568 93.0262 43.5732C93.0262 43.7535 92.7737 43.9338 92.4491 43.9338C92.0163 43.9338 91.9442 43.5732 92.0163 42.1305C92.0884 40.796 92.2688 40.3632 92.5934 40.5075C92.954 40.6517 93.0622 40.3271 93.0262 39.3173C92.9901 38.5959 92.9901 37.9107 93.0262 37.8025C93.2786 37.0451 93.2786 36.3598 92.9901 36.3598C92.6294 36.3598 92.5212 37.0811 92.6294 38.8484C92.7016 39.5697 92.5934 39.9665 92.377 39.8222C92.1606 39.714 92.0524 39.3173 92.1245 38.9566C92.1606 38.632 92.0524 38.1631 91.872 37.9467C91.5114 37.4418 91.6196 36.6844 92.1245 36.2516C92.3409 36.0713 92.2327 35.9991 91.872 36.1434C91.2589 36.3237 90.3211 35.2417 90.7179 34.8089C90.8261 34.7007 90.8261 34.1236 90.6818 33.5105C90.4293 32.3564 89.7801 32.0678 89.1309 32.8252ZM3.94077 81.2632C3.94077 81.5517 3.86863 81.8042 3.7965 81.8042C3.72436 81.8042 3.5801 81.5517 3.43583 81.2632C3.32763 80.9746 3.39976 80.7221 3.5801 80.7221C3.7965 80.7221 3.94077 80.9746 3.94077 81.2632ZM72.468 118.051C72.2155 118.376 71.927 118.52 71.8549 118.448C71.6024 118.196 72.1073 117.51 72.5401 117.51C72.7565 117.51 72.7565 117.727 72.468 118.051Z" fill="black"/>
<path d="M67.2743 126.095C66.7693 126.852 66.2644 128.151 66.1922 128.98C66.084 129.774 65.8316 130.783 65.6152 131.18C65.3988 131.613 65.2545 132.587 65.3266 133.344C65.3988 134.607 65.507 134.787 66.4447 134.967C67.5628 135.184 69.9432 134.282 69.9432 133.669C69.9432 133.416 70.1235 133.416 70.4121 133.669C70.7728 133.957 71.1334 133.813 71.8548 133.02C72.3958 132.479 72.8286 131.757 72.8286 131.433C72.8286 131.108 73.1171 130.856 73.5138 130.856C73.9466 130.856 74.3434 130.531 74.4876 130.026C74.6319 129.593 75.1008 128.655 75.5697 127.934C76.6877 126.167 76.2189 125.77 73.8024 126.455C70.6285 127.321 70.5203 127.321 69.7629 126.636C69.3661 126.239 68.8973 125.878 68.6809 125.77C68.5005 125.698 68.3563 125.409 68.4284 125.157C68.6087 124.4 68.2841 124.688 67.2743 126.095Z" fill="black"/>
</svg>
