<svg width="81" height="133" viewBox="0 0 81 133" fill="none" xmlns="http://www.w3.org/2000/svg">
<path d="M17.0863 0.11261C16.7018 0.248306 16.4531 0.497101 16.4531 0.745895C16.4531 0.972061 16.3174 1.153 16.1364 1.153C15.9781 1.153 15.571 1.35655 15.2543 1.60535C14.9151 1.87675 14.3496 2.05769 13.8747 2.05769C13.3545 2.05769 12.9926 2.17078 12.9248 2.39696C12.8343 2.62312 12.6081 2.69098 12.2915 2.60051C11.4408 2.39304 10.3238 3.93646 10.302 5.17076C10.2981 5.3878 10.3147 5.67647 10.0976 5.67647C9.80356 5.67647 9.21551 6.24191 9.21551 6.51331C9.21551 6.6264 8.92148 6.8978 8.53699 7.10136C8.06202 7.39539 7.92632 7.62156 8.01679 7.89297C8.10726 8.09653 7.72276 7.8025 7.15733 7.21445C6.29787 6.30975 4.87298 5.45029 4.21708 5.45029C4.10399 5.45029 4.01352 5.74432 4.01352 6.08358C4.01352 6.53593 4.17184 6.82996 4.57895 7.03351C4.87298 7.19183 5.18962 7.53109 5.28009 7.75726C5.34794 8.00606 5.50627 8.09653 5.66459 8.00606C5.84553 7.91559 5.82291 7.98344 5.64197 8.20961C5.30271 8.63934 5.48365 9.58927 5.98123 10.019C6.16217 10.1773 6.43358 10.5618 6.56928 10.8785C6.88592 11.6248 6.99901 15.5602 6.7276 15.7412C6.56928 15.8316 6.5919 16.0352 6.75022 16.3292C6.99901 16.8268 6.63713 18.3422 6.25264 18.3422C6.13955 18.3422 6.04908 18.4779 6.04908 18.6362C6.04908 18.7945 5.6872 19.0659 5.25747 19.2469C4.69204 19.473 4.46587 19.6992 4.46587 20.0611C4.46587 20.3325 4.30755 20.6039 4.12661 20.6944C3.87782 20.7849 3.80997 20.9884 3.90043 21.3503C4.03614 21.8252 3.92305 21.9383 3.01836 22.2776C2.0232 22.6621 1.97796 22.7299 1.97796 23.5442C1.97796 24.087 1.86487 24.4489 1.6387 24.5393C1.45776 24.6072 1.29944 24.9238 1.29944 25.2178C1.29944 25.5571 1.1185 25.8964 0.847094 26.0321C0.598304 26.1678 0.439982 26.3713 0.507834 26.507C0.80186 26.9594 0.824477 28.52 0.553069 28.52C0.394748 28.52 0.620921 28.814 1.02803 29.1759C1.41253 29.5378 1.75179 29.9449 1.75179 30.0806C1.75179 30.2163 1.86487 30.3294 1.97796 30.3294C2.11367 30.3294 2.20413 30.2163 2.20413 30.058C2.20413 29.9222 2.24937 29.8544 2.31722 29.9222C2.49816 30.1032 2.18152 30.7817 1.91011 30.7817C1.77441 30.7817 1.27682 31.2114 0.779242 31.7316C-0.0123644 32.6137 -0.0802164 32.7947 0.0554876 33.6089C0.12334 34.1065 0.326896 34.6719 0.507834 34.8755C0.892329 35.2826 0.960181 35.7575 0.620921 35.7575C0.0328703 35.7575 0.507834 36.4587 1.38991 36.911C2.13628 37.2729 2.54339 37.7026 3.01836 38.5621C3.35762 39.1954 3.8552 40.0096 4.12661 40.3941C4.39802 40.756 4.94083 41.8416 5.37056 42.7689C5.77767 43.6962 6.29787 44.7366 6.54666 45.0759C6.77284 45.3925 6.95377 45.8222 6.95377 45.9806C6.95377 46.1615 7.15733 46.5008 7.40612 46.7269C7.65491 46.9531 7.85847 47.315 7.85847 47.5412C7.85847 47.7673 7.94894 47.9935 8.06202 48.0614C8.53699 48.3554 9.91665 50.7302 9.80356 51.0468C9.6 51.5897 10.075 52.4717 11.1832 53.58C12.2462 54.6656 15.3222 56.6107 16.634 57.0404C17.0185 57.1761 17.3577 57.3571 17.3577 57.4475C17.3577 57.538 17.7196 57.8094 18.1494 58.0582C18.5791 58.2844 18.941 58.5558 18.941 58.6689C18.941 58.8951 19.529 59.5057 19.7326 59.5057C20.1397 59.5057 20.8861 60.5461 21.1348 61.496C21.7907 63.9387 22.2883 69.2312 21.836 69.2312C21.7455 69.2312 21.655 69.48 21.655 69.7966C21.655 70.1133 21.7229 70.362 21.836 70.362C22.1526 70.362 22.424 79.6125 22.1074 80.4041C21.9717 80.766 22.0169 81.1279 22.2657 81.5802C22.4919 82.0552 22.5597 82.5754 22.4466 83.3896C22.3336 84.2717 22.424 84.7693 22.7859 85.6061C23.0347 86.1942 23.2383 86.8727 23.2383 87.1215C23.2383 87.3477 23.3513 87.5512 23.4644 87.5512C23.6001 87.5512 23.7132 87.9809 23.6906 88.5011C23.6906 89.044 23.6906 89.6772 23.7132 89.926C23.7358 90.401 23.5549 93.0246 23.3513 94.9019C23.3061 95.5125 23.2383 96.2815 23.2383 96.5755C23.2383 96.96 23.1478 97.0731 22.8764 96.96C22.5824 96.8469 22.5371 96.9374 22.6728 97.435C22.7407 97.7969 22.9668 98.2266 23.1478 98.4302C23.3287 98.6111 23.4644 98.9277 23.4644 99.0861C23.4644 99.2444 23.7358 99.8324 24.0525 100.398C24.4596 101.099 24.5953 101.574 24.5048 102.026C24.3013 103.067 24.6179 104.899 25.0929 105.419C25.3191 105.668 25.4095 105.871 25.2512 105.871C25.0929 105.871 25.0476 106.097 25.1381 106.55C25.206 106.912 25.3417 107.568 25.4095 107.952C25.6583 109.286 26.3821 109.694 26.857 108.789C27.0606 108.45 27.038 108.246 26.8344 107.997C26.6987 107.816 26.6535 107.681 26.7439 107.681C26.8344 107.681 26.7892 107.522 26.6309 107.341C26.4725 107.16 26.4273 107.002 26.5404 107.002C26.6309 107.002 26.6082 106.889 26.4499 106.731C26.0654 106.346 26.1107 106.03 26.5404 106.188C26.8118 106.301 26.8796 106.233 26.7666 105.984C26.6987 105.781 26.7213 105.69 26.857 105.758C26.9927 105.826 27.0832 106.052 27.0832 106.233C27.0832 106.414 27.1963 106.55 27.332 106.55C27.4451 106.55 27.5129 106.64 27.4451 106.731C27.3772 106.844 27.4225 107.274 27.5355 107.703C27.6486 108.133 27.7843 108.97 27.8748 109.581C27.9427 110.214 28.1236 110.779 28.2593 110.87C28.4629 111.005 28.4176 111.096 28.101 111.209C28.0876 111.214 28.0742 111.219 28.0608 111.224C27.6952 111.359 27.3936 111.279 27.4451 110.892C27.5129 110.282 27.2415 109.942 26.6761 109.942C26.4952 109.942 26.4499 110.055 26.563 110.214C26.857 110.711 26.8344 111.073 26.4952 111.073C26.3368 111.073 26.088 111.277 25.9523 111.503C25.6809 112.046 25.6583 112.453 25.9297 112.001C26.2237 111.526 27.0832 112.091 27.0832 112.77C27.0832 113.086 26.9701 113.335 26.8344 113.335C26.6761 113.335 26.6309 113.584 26.6987 114.013C26.7892 114.443 26.7213 114.782 26.5178 115.009C26.3368 115.19 26.2464 115.506 26.3142 115.687C26.4725 116.117 27.0154 116.162 27.1284 115.8C27.1963 115.597 27.3546 115.597 27.7165 115.8C27.9879 115.959 28.3272 116.004 28.4402 115.936C28.5759 115.868 28.5986 115.959 28.5307 116.14C28.4629 116.343 28.4855 116.501 28.6212 116.501C29.0283 116.501 28.5533 117.723 28.0331 117.994C27.7617 118.13 27.6034 118.311 27.7165 118.401C27.807 118.492 27.8748 118.65 27.8748 118.718C27.92 119.17 28.2819 119.894 28.4629 119.894C28.5759 119.894 28.6438 119.962 28.6212 120.052C28.5759 120.369 29.0509 121.364 29.4128 121.681C29.6163 121.839 29.8425 122.269 29.9104 122.631C29.9551 122.81 30.0165 122.978 30.0808 123.102C30.1703 123.274 30.356 123.325 30.549 123.349C30.6877 123.366 30.8478 123.392 30.9227 123.51C31.0276 123.675 31.132 123.975 31.1769 124.304C31.2448 124.802 31.3353 125.096 31.3579 124.983C31.3805 124.847 31.6067 125.096 31.8781 125.503C32.24 126.091 32.4661 126.227 32.8506 126.136C33.1673 126.046 33.5291 126.182 33.891 126.521C34.0316 126.651 34.1773 126.765 34.301 126.844C34.4792 126.958 34.7731 126.943 34.7731 127.154C34.7731 127.403 34.4791 127.358 33.5291 127.018C33.2351 126.905 33.3256 127.086 33.8458 127.561C34.3886 128.081 34.66 128.217 34.7731 128.014C35.0219 127.652 35.4742 127.968 35.2933 128.398C35.2254 128.579 35.2481 128.715 35.3611 128.692C35.7456 128.602 36.3563 128.986 36.3563 129.303C36.3563 129.506 36.6051 129.619 37.0348 129.619C37.555 129.619 37.6681 129.529 37.555 129.258C37.4872 129.054 37.261 128.941 37.0122 129.009C36.7634 129.077 36.5825 129.031 36.5825 128.918C36.5825 128.489 37.4872 128.737 37.736 129.212C37.8943 129.506 37.9848 129.778 37.9621 129.846C37.9395 129.913 38.0752 130.049 38.3014 130.185C38.5276 130.298 38.8442 130.547 39.0252 130.705C39.4096 131.067 39.7489 131.067 39.7489 130.682C39.7489 130.502 39.8168 130.524 39.9751 130.75C40.1638 131.052 40.5374 131.144 40.8715 131.267C40.9705 131.304 41.0741 131.344 41.1738 131.384C41.5357 131.542 41.8976 131.61 42.0106 131.542C42.1237 131.474 42.2594 131.519 42.3499 131.655C42.4404 131.791 42.5987 131.836 42.7118 131.768C42.8249 131.678 42.9153 131.723 42.9153 131.859C42.9153 131.994 43.3677 132.085 43.9331 132.062C44.4986 132.062 45.1092 132.175 45.2902 132.334C45.4937 132.492 45.7199 132.56 45.8104 132.469C45.9008 132.379 45.7651 132.153 45.5389 131.994C45.1771 131.7 45.2675 131.678 46.421 131.768C47.484 131.836 47.6876 131.813 47.5745 131.542C47.5067 131.338 47.5971 131.203 47.8007 131.203C47.9816 131.203 48.1852 131.044 48.253 130.863C48.3435 130.682 48.5018 130.524 48.6149 130.524C48.7506 130.524 48.728 130.66 48.5697 130.863C48.3435 131.135 48.3435 131.203 48.6601 131.203C48.8637 131.203 49.022 131.022 49.022 130.75C49.022 130.388 48.8637 130.298 48.2304 130.298C47.0543 130.298 44.6116 129.009 43.2772 127.697C42.6213 127.041 42.1463 126.408 42.1916 126.272C42.2368 126.136 41.988 125.865 41.6714 125.639C40.925 125.141 39.7489 123.468 39.7489 122.857C39.7489 122.54 39.9298 122.337 40.3143 122.246C40.9929 122.088 41.1964 121.522 40.8798 120.686C40.6084 119.984 40.7215 119.781 41.9428 118.695C42.3725 118.311 42.6213 117.926 42.5308 117.768C42.4404 117.632 42.3273 117.316 42.3047 117.089C42.1916 116.388 41.7845 116.049 41.0833 116.049C40.3596 116.049 38.9347 115.28 38.6407 114.715C38.1205 113.787 39.0025 112.43 40.1334 112.43C40.6988 112.43 41.0155 112.091 40.631 111.842C40.45 111.729 40.4727 111.639 40.6762 111.526C40.9024 111.367 40.8798 111.141 40.5858 110.395L40.5475 110.292C40.3516 109.765 40.4915 109.172 40.9024 108.789C41.2869 108.427 41.7392 108.133 41.9202 108.133C42.2821 108.133 42.3273 107.613 42.0106 107.002C41.8071 106.64 41.6035 106.572 40.7893 106.685C40.1989 106.766 39.6257 106.449 39.3798 105.906L39.2513 105.622C39.2193 105.554 39.1888 105.486 39.1601 105.42C38.8561 104.717 39.2888 104.315 39.9977 104.605C41.0607 105.034 41.7845 105.057 42.5761 104.695C43.1641 104.446 43.3451 103.768 42.8927 103.474C42.7344 103.383 42.7118 103.021 42.8022 102.547C42.9153 101.958 42.8475 101.642 42.5535 101.325C42.169 100.895 42.169 100.873 42.5761 101.031C42.8701 101.144 42.938 101.122 42.8249 100.941C42.7118 100.737 42.9606 100.669 43.7069 100.669C46.127 100.669 49.2482 99.5384 49.2482 98.6789C49.2482 98.4528 49.3387 98.1814 49.4517 98.0683C50.2434 97.1862 50.1303 95.2411 49.2708 95.2411C48.8185 95.2411 48.5697 94.834 48.5697 94.0198C48.5697 93.4317 48.0269 92.8889 46.9412 92.3461C46.5341 92.1199 46.1496 91.758 46.1044 91.5093C46.0365 91.0795 46.0365 91.0795 46.4663 91.4414C46.715 91.6676 47.2352 91.8485 47.6197 91.8485C48.0269 91.8485 48.3435 91.939 48.3435 92.0521C48.3435 92.3461 49.4065 92.5949 50.9445 92.6401C52.8217 92.7306 53.6586 92.233 53.9074 90.9664C53.9978 90.5819 54.1109 90.2653 54.2014 90.2653C54.4728 90.2653 55.0608 89.044 55.2192 88.2071C55.3096 87.6869 55.6489 87.1667 56.1465 86.7144C56.7119 86.2168 56.8928 85.9002 56.7798 85.6061C56.6441 85.2669 56.6214 85.2669 56.4631 85.7192C56.425 85.8145 56.3678 85.9079 56.2993 85.9939C55.8879 86.5107 55.5148 86.0371 55.9203 85.5157C56.2369 85.0859 56.4857 84.5205 56.4857 84.2717C56.4857 83.9777 56.6214 83.7741 56.8476 83.7741C57.0964 83.7741 57.1643 83.9324 57.0964 84.2943C57.0512 84.5883 57.1416 84.8598 57.3 84.9276C57.5035 84.9955 57.6845 84.7241 57.8654 84.0908C58.4534 81.9647 58.5891 81.6481 59.2224 80.9696C60.1045 80.0423 60.3985 78.5495 59.9914 77.3508C59.6974 76.5366 59.6069 73.9808 59.8557 74.0487C60.0367 74.0939 61.9139 72.1714 61.9139 71.9453C61.9139 71.8322 62.2305 71.6965 62.5924 71.606C62.9769 71.5155 63.2709 71.3572 63.2709 71.2215C63.2709 71.0858 63.565 71.0406 64.0625 71.131C64.5601 71.2215 64.8541 71.1989 64.8541 71.0406C64.8541 70.9275 64.7411 70.8144 64.6054 70.8144C64.4923 70.8144 64.4244 70.7239 64.4923 70.6108C64.7411 70.2263 67.5682 69.4347 68.767 69.4347C69.9204 69.4121 70.0109 69.3669 70.124 68.8014C70.2145 68.4622 70.5537 68.0551 70.9835 67.8063C71.5489 67.4896 71.662 67.3087 71.5489 66.9016C71.4358 66.4492 71.8429 65.3862 73.1321 62.8757C73.3357 62.4912 73.3809 61.9032 73.313 61.1568C73.2 60.2747 73.2452 59.9581 73.5844 59.6414C73.9689 59.2569 74.2403 57.4023 74.1725 55.5477C74.1725 55.1632 74.1273 53.8514 74.082 52.6074C73.9916 50.4588 74.1499 49.7803 74.7153 49.7803C74.9641 49.7803 75.4617 49.0791 75.9593 47.9709C76.7509 46.1841 76.9318 45.8901 77.4746 45.3925C78.1758 44.7366 79.9625 42.2487 80.2339 41.5476C80.7541 40.1905 80.7315 38.5621 80.1661 36.5717C79.8494 35.4861 79.5328 34.5362 79.465 34.4683C79.3745 34.3779 78.7186 34.2422 77.9948 34.1517C76.5473 33.9934 76.5247 33.9708 74.6927 32.2066C74.0142 31.5733 72.9059 30.7139 72.2048 30.3294C71.0739 29.6735 70.8704 29.6282 69.9657 29.8318C69.2419 29.9901 68.8348 29.9449 68.3825 29.7187C68.3681 29.711 68.3536 29.7035 68.3392 29.6963C67.8474 29.449 67.2292 29.6475 66.7766 29.3342C66.0981 28.8819 64.7637 28.6331 64.9672 28.9949C65.0803 29.1759 64.9672 29.1985 64.6054 29.0854C63.9495 28.8592 63.5423 28.4747 63.6554 28.1581C63.7007 27.9998 63.5876 27.7284 63.384 27.5474C63.2031 27.3439 63.0448 27.0951 63.0448 26.9594C63.0448 26.8237 62.9543 26.7106 62.8186 26.7106C62.7055 26.7106 62.5924 26.8011 62.5924 26.9368C62.5924 27.1856 60.9866 26.507 60.7378 26.1452C60.6473 26.0095 60.5569 26.0095 60.5569 26.1225C60.5569 26.2356 60.4212 26.1904 60.2402 26.0547C59.9236 25.8059 59.3581 25.625 58.363 25.4666C57.7523 25.3762 56.9607 25.919 56.6893 26.6427C56.3274 27.5927 56.2596 27.1177 56.5988 26.1452C57.0512 24.8334 57.0286 24.7429 56.1012 24.6072C55.581 24.5167 55.1287 24.2679 54.9478 23.9965C54.7894 23.7477 54.5406 23.5442 54.3597 23.5442C54.0431 23.5442 54.0431 23.2275 54.3597 21.9157C54.4502 21.4634 54.3597 21.1241 53.9752 20.6265C53.6812 20.2646 53.3193 19.948 53.2062 19.948C52.9348 19.9254 52.4146 18.1839 52.4146 17.2565C52.4146 16.7363 51.5325 15.1984 51.5099 15.6733C51.5099 15.7638 50.9445 15.2888 50.2207 14.6103C49.5196 13.9318 48.8411 13.3664 48.6828 13.3664C48.5244 13.3664 48.0947 13.208 47.6876 13.0045C46.8734 12.5974 44.2498 12.3712 44.0462 12.6878C43.7974 13.095 42.1237 12.439 41.1512 11.5344C40.6084 11.0594 40.0656 10.6523 39.9525 10.6523C39.8394 10.6523 39.7489 10.4261 39.7489 10.1321C39.7263 9.86068 39.5454 9.40833 39.3192 9.13692C38.6859 8.36794 36.8313 7.30492 36.3789 7.41801C35.8813 7.55371 35.5421 7.12398 35.8361 6.73949C36.1754 6.28714 36.0397 5.81217 35.5195 5.56339C35.2254 5.45029 34.9993 5.26936 34.9993 5.17889C34.9993 5.0658 34.8183 4.99795 34.5922 4.99795C34.366 4.99795 34.0493 4.86224 33.9136 4.72654C33.6875 4.50037 33.5744 4.50037 33.4161 4.77177C33.2804 4.97533 33.1899 4.99795 33.1899 4.83963C33.1899 4.70393 33.122 4.43251 33.0542 4.22896C32.9637 4.00279 33.0316 3.86708 33.2351 3.86708C33.4161 3.86708 33.7553 3.70876 34.0041 3.52782C34.3886 3.18857 34.2529 3.18857 32.2852 3.27904C31.1091 3.34688 30.0687 3.41473 29.9782 3.41473C29.8651 3.41473 29.7973 3.55045 29.7973 3.70876C29.7973 3.88969 29.5485 4.13849 29.2545 4.29681C28.5759 4.65869 27.0832 4.25157 27.0832 3.70876C27.0832 3.41473 26.8118 3.39212 25.1607 3.52782L23.8243 3.63788C23.5087 3.66386 23.2383 3.41475 23.2383 3.0981C23.2383 2.44218 22.1526 1.60535 21.2705 1.60535C20.8861 1.60535 20.7503 1.46965 20.7503 1.08514C20.7503 0.429245 20.592 0.248306 20.1623 0.406631C19.9814 0.474487 19.8457 0.836365 19.8457 1.28871C19.8457 1.922 19.7552 2.08031 19.235 2.19341C18.8731 2.28387 18.3077 2.55528 17.9458 2.80406C17.3804 3.21118 17.2899 3.21118 17.4256 2.89453C17.4935 2.69098 17.4708 2.51004 17.3577 2.51004C17.222 2.51004 17.1316 2.30649 17.1316 2.05769C17.1316 1.78629 17.2899 1.60535 17.4935 1.60535C17.9006 1.60535 18.466 0.994675 18.4886 0.542328C18.4886 0.0899811 17.7422 -0.158798 17.0863 0.11261ZM18.0363 5.45029C18.0363 5.99311 17.6744 6.58116 17.3577 6.58116C17.2673 6.58116 17.0637 6.19667 16.9054 5.69909C16.6566 4.9301 16.6792 4.77177 17.0411 4.34204L17.0593 4.32077C17.2485 4.10014 17.5993 4.13431 17.7422 4.38728C17.9006 4.65869 18.0137 5.13365 18.0363 5.45029ZM22.2657 55.0501C22.5824 55.412 22.6954 55.6834 22.5597 55.887C22.4014 56.1584 22.3336 56.1357 22.1979 55.8191C22.13 55.6155 21.9264 55.4346 21.7681 55.4346C21.6098 55.4346 21.4289 55.231 21.361 54.9823C21.2027 54.3716 21.655 54.4168 22.2657 55.0501ZM65.985 69.6835C65.985 69.7966 65.9398 69.9097 65.8945 69.9097C65.8267 69.9097 65.7136 69.7966 65.6458 69.6835C65.5779 69.5478 65.6231 69.4574 65.7362 69.4574C65.8719 69.4574 65.985 69.5478 65.985 69.6835ZM57.5488 84.43C57.4809 84.611 57.413 84.5431 57.413 84.2943C57.3888 84.028 57.645 84.1303 57.5651 84.3856C57.5604 84.4007 57.555 84.4156 57.5488 84.43ZM41.219 107.907C41.2869 108.02 41.1512 108.133 40.9024 108.133C40.631 108.133 40.4274 108.02 40.4274 107.907C40.4274 107.771 40.5631 107.681 40.7441 107.681C40.925 107.681 41.1512 107.771 41.219 107.907ZM28.9831 111.639C28.8926 111.82 28.7569 111.91 28.6438 111.842C28.395 111.707 28.5986 111.299 28.8926 111.299C29.0057 111.299 29.0509 111.458 28.9831 111.639ZM28.5533 112.453C28.7795 113.131 28.5533 113.199 28.2593 112.543C28.1236 112.227 28.101 111.978 28.2141 111.978C28.3272 111.978 28.4855 112.181 28.5533 112.453ZM29.5711 113.199C29.5711 113.245 29.4128 113.335 29.2318 113.425C29.0509 113.493 28.8926 113.448 28.8926 113.335C28.8926 113.199 29.0509 113.109 29.2318 113.109C29.4128 113.109 29.5711 113.154 29.5711 113.199ZM39.7489 127.584C39.7489 128.127 40.1334 128.353 40.9929 128.308C41.6488 128.262 41.6488 128.285 41.1512 128.556C41.088 128.593 41.031 128.634 40.9818 128.676C40.7436 128.88 40.7742 129.06 40.5631 128.828C40.5496 128.813 40.5364 128.799 40.5235 128.786C40.2176 128.467 39.8199 128.766 39.6132 128.376C39.2513 127.652 39.1835 126.815 39.5227 127.018C39.6584 127.086 39.7489 127.358 39.7489 127.584ZM38.2788 127.561C38.2109 127.697 37.9621 127.81 37.7586 127.81C37.4646 127.81 37.4646 127.765 37.8491 127.493C38.324 127.154 38.5276 127.177 38.2788 127.561Z" fill="black"/>
<path d="M53.6586 124.168C53.4098 124.281 53.0479 124.304 52.867 124.236C52.5955 124.146 52.5729 124.191 52.8217 124.44C53.2062 124.847 53.161 125.344 52.7539 125.186C52.1206 124.937 52.4146 125.525 53.0705 125.887C53.7264 126.227 53.749 126.204 54.4728 125.367C54.8573 124.892 55.1061 124.734 55.0156 124.983C54.6085 126.068 54.6085 126.227 55.0382 126.227C55.287 126.227 55.9655 125.933 56.5536 125.571C57.5261 125.005 57.594 124.915 57.2547 124.621C57.0512 124.44 56.3953 124.281 55.8298 124.259C55.2644 124.259 54.6311 124.168 54.4502 124.123C54.2692 124.055 53.9074 124.078 53.6586 124.168Z" fill="black"/>
</svg>
