<svg width="54" height="51" viewBox="0 0 54 51" fill="none" xmlns="http://www.w3.org/2000/svg">
<path d="M23.625 23.9998C25.192 23.9996 26.7433 24.3111 28.1887 24.9164C29.6341 25.5216 30.9447 26.4083 32.044 27.5249C33.1434 28.6416 34.0096 29.9658 34.5922 31.4204C35.1748 32.8751 35.4621 34.4311 35.4375 35.9979C35.4335 36.2573 35.4894 36.5141 35.6009 36.7484C35.7123 36.9827 35.8762 37.1882 36.08 37.3488C36.2837 37.5094 36.5217 37.6209 36.7756 37.6746C37.0294 37.7283 37.2922 37.7228 37.5435 37.6584C38.2918 37.4667 39.0741 37.4484 39.8306 37.605C40.5871 37.7616 41.2978 38.0889 41.9085 38.5619C42.5193 39.0349 43.0139 39.6412 43.3547 40.3345C43.6955 41.0278 43.8735 41.7897 43.875 42.5623C43.875 43.9049 43.3416 45.1926 42.3922 46.142C41.4428 47.0914 40.1552 47.6248 38.8125 47.6248H10.125C9.22759 47.6197 8.3402 47.4357 7.51474 47.0836C6.68928 46.7315 5.94232 46.2183 5.31755 45.5741C4.69278 44.9299 4.20274 44.1676 3.87611 43.3317C3.54947 42.4958 3.39279 41.6032 3.41523 40.7061C3.43767 39.8089 3.63878 38.9253 4.00679 38.1068C4.37481 37.2883 4.90235 36.5514 5.55854 35.9392C6.21474 35.3271 6.98642 34.8519 7.82845 34.5415C8.67049 34.2311 9.56596 34.0917 10.4625 34.1315C10.8514 34.1515 11.2352 34.0364 11.5489 33.8058C11.8626 33.5751 12.0869 33.243 12.1837 32.8659C12.8384 30.3289 14.3174 28.0814 16.3884 26.4766C18.4594 24.8717 21.005 24.0005 23.625 23.9998ZM38.7214 34.1248C38.3417 30.703 36.8106 27.5117 34.3793 25.0742C31.948 22.6367 28.7606 21.0976 25.3398 20.7093C21.919 20.3209 18.4677 21.1063 15.5518 22.9367C12.636 24.7671 10.4285 27.5339 9.29137 30.7835C6.68567 30.9968 4.26347 32.2097 2.5318 34.1684C0.800126 36.1271 -0.10677 38.6797 0.000945259 41.2919C0.10866 43.9041 1.22264 46.3734 3.10969 48.1829C4.99674 49.9923 7.51058 51.0017 10.125 50.9998H38.8125C41.0503 50.9998 43.1964 50.1108 44.7787 48.5285C46.361 46.9461 47.25 44.8 47.25 42.5623C47.25 40.3245 46.361 38.1784 44.7787 36.596C43.1964 35.0137 41.0503 34.1248 38.8125 34.1248H38.7214Z" fill="white"/>
<path d="M35.4375 2.0625C35.4375 1.61495 35.2597 1.18572 34.9432 0.869257C34.6268 0.55279 34.1976 0.375 33.75 0.375C33.3025 0.375 32.8732 0.55279 32.5568 0.869257C32.2403 1.18572 32.0625 1.61495 32.0625 2.0625V5.4375C32.0625 5.88505 32.2403 6.31427 32.5568 6.63074C32.8732 6.94721 33.3025 7.125 33.75 7.125C34.1976 7.125 34.6268 6.94721 34.9432 6.63074C35.2597 6.31427 35.4375 5.88505 35.4375 5.4375V2.0625ZM48.0701 8.691C48.2313 8.53533 48.3599 8.34913 48.4483 8.14325C48.5367 7.93736 48.5833 7.71593 48.5852 7.49186C48.5872 7.2678 48.5445 7.04559 48.4596 6.8382C48.3748 6.63082 48.2495 6.4424 48.091 6.28396C47.9326 6.12551 47.7442 6.00021 47.5368 5.91536C47.3294 5.83051 47.1072 5.78782 46.8831 5.78977C46.6591 5.79171 46.4376 5.83826 46.2318 5.9267C46.0259 6.01514 45.8397 6.1437 45.684 6.30487L43.2945 8.691C42.9776 9.00787 42.7996 9.43763 42.7996 9.88575C42.7996 10.3339 42.9776 10.7636 43.2945 11.0805C43.6114 11.3974 44.0411 11.5754 44.4893 11.5754C44.9374 11.5754 45.3671 11.3974 45.684 11.0805L48.0701 8.691ZM21.816 6.30487C21.4977 5.99748 21.0715 5.82739 20.629 5.83124C20.1866 5.83508 19.7633 6.01255 19.4504 6.32543C19.1376 6.63831 18.9601 7.06155 18.9562 7.50401C18.9524 7.94647 19.1225 8.37273 19.4299 8.691L21.816 11.0805C21.9729 11.2374 22.1592 11.3619 22.3642 11.4468C22.5692 11.5317 22.7889 11.5754 23.0108 11.5754C23.2326 11.5754 23.4524 11.5317 23.6573 11.4468C23.8623 11.3619 24.0486 11.2374 24.2055 11.0805C24.3624 10.9236 24.4869 10.7373 24.5718 10.5323C24.6567 10.3273 24.7004 10.1076 24.7004 9.88575C24.7004 9.66387 24.6567 9.44415 24.5718 9.23916C24.4869 9.03416 24.3624 8.8479 24.2055 8.691L21.816 6.30487ZM27.6683 17.6921C28.0877 16.8229 28.6887 16.0537 29.4307 15.4364C30.1728 14.8192 31.0385 14.3682 31.9696 14.114C32.9007 13.8598 33.8755 13.8082 34.8282 13.9627C35.781 14.1173 36.6895 14.4743 37.4925 15.0098C38.2955 15.5453 38.9743 16.2468 39.4832 17.067C39.992 17.8871 40.3191 18.8069 40.4423 19.7642C40.5655 20.7214 40.4819 21.694 40.1973 22.6163C39.9126 23.5385 39.4335 24.389 38.7923 25.1104C39.4639 26.0588 40.0478 27.0746 40.5338 28.1411C41.6775 27.1077 42.5702 25.8268 43.1438 24.396C43.7174 22.9652 43.9567 21.4223 43.8435 19.885C43.7303 18.3476 43.2676 16.8565 42.4906 15.5251C41.7137 14.1937 40.643 13.0574 39.3602 12.2026C38.0774 11.3479 36.6164 10.7973 35.0885 10.5929C33.5606 10.3885 32.0062 10.5356 30.5439 11.0231C29.0815 11.5106 27.7497 12.3256 26.6501 13.4058C25.5505 14.4861 24.7121 15.8032 24.1988 17.2568C25.3868 17.2939 26.5478 17.4424 27.6683 17.6921ZM42.8018 31.4419C44.8268 32.1675 46.5986 33.4331 47.9385 35.0599C48.1222 34.9111 48.2727 34.7253 48.38 34.5147C48.4874 34.304 48.5493 34.0732 48.5617 33.837C48.5741 33.6009 48.5367 33.3649 48.4521 33.1441C48.3674 32.9234 48.2373 32.7229 48.0701 32.5556L45.684 30.1695C45.4434 29.9275 45.1352 29.7641 44.7998 29.7009C44.4645 29.6377 44.1179 29.6776 43.8057 29.8154C43.4936 29.9532 43.2305 30.1824 43.0513 30.4728C42.872 30.7632 42.785 31.1011 42.8018 31.4419ZM48.9375 18.9375C48.49 18.9375 48.0607 19.1153 47.7443 19.4318C47.4278 19.7482 47.25 20.1774 47.25 20.625C47.25 21.0726 47.4278 21.5018 47.7443 21.8182C48.0607 22.1347 48.49 22.3125 48.9375 22.3125H52.3125C52.7601 22.3125 53.1893 22.1347 53.5057 21.8182C53.8222 21.5018 54 21.0726 54 20.625C54 20.1774 53.8222 19.7482 53.5057 19.4318C53.1893 19.1153 52.7601 18.9375 52.3125 18.9375H48.9375Z" fill="white"/>
</svg>
