<svg width="55" height="55" viewBox="0 0 55 55" fill="none" xmlns="http://www.w3.org/2000/svg">
<rect width="55" height="55" rx="10" fill="#D9D9D9"/>
<path fill-rule="evenodd" clip-rule="evenodd" d="M36.2296 17.9101C30.4279 17.2616 24.5721 17.2616 18.7704 17.9101C18.6815 17.9203 18.5969 17.9541 18.5255 18.0082C18.4541 18.0622 18.3986 18.1344 18.3646 18.2172C18.3306 18.3001 18.3195 18.3905 18.3324 18.4791C18.3453 18.5677 18.3817 18.6512 18.4379 18.7209L23.5669 25.0617C25.404 27.3329 26.4063 30.1657 26.4063 33.0869V37.3001L28.5938 38.9042V33.0855C28.594 30.1648 29.5963 27.3326 31.4331 25.0617L36.5621 18.7209C36.6183 18.6512 36.6547 18.5677 36.6676 18.4791C36.6805 18.3905 36.6694 18.3001 36.6354 18.2172C36.6015 18.1344 36.5459 18.0622 36.4745 18.0082C36.4031 17.9541 36.3185 17.9203 36.2296 17.9101ZM18.5283 15.7357C24.4914 15.0692 30.5101 15.0692 36.4731 15.7357C38.5819 15.9719 39.5983 18.4453 38.264 20.0961L33.1335 26.4369C31.6113 28.319 30.781 30.6664 30.7813 33.0869V41.0626C30.7814 41.2648 30.7255 41.4632 30.6196 41.6356C30.5138 41.8079 30.3623 41.9476 30.1819 42.039C30.0014 42.1304 29.7992 42.17 29.5976 42.1534C29.396 42.1368 29.203 42.0646 29.04 41.9449L24.665 38.7365C24.5266 38.6348 24.414 38.502 24.3365 38.3487C24.259 38.1954 24.2186 38.026 24.2188 37.8542V33.0855C24.2188 30.6647 23.3875 28.3182 21.8665 26.4355L16.7375 20.0976C15.4017 18.4467 16.4167 15.9719 18.5283 15.7357Z" fill="#222831"/>
</svg>
