<svg width="220" height="220" viewBox="0 0 220 220" fill="none" xmlns="http://www.w3.org/2000/svg">
<g clip-path="url(#clip0_132_103)">
<path d="M24.4444 30.5557C17.9614 30.5557 11.7438 33.1311 7.15961 37.7153C2.57539 42.2995 0 48.517 0 55.0001L0 165C0 171.483 2.57539 177.701 7.15961 182.285C11.7438 186.869 17.9614 189.445 24.4444 189.445H67.2222V30.5557H24.4444Z" fill="#006847"/>
<path d="M195.556 30.5557H152.778V189.445H195.556C202.039 189.445 208.256 186.869 212.84 182.285C217.425 177.701 220 171.483 220 165V55.0001C220 48.517 217.425 42.2995 212.84 37.7153C208.256 33.1311 202.039 30.5557 195.556 30.5557Z" fill="#CE1126"/>
<path d="M67.2222 30.5557H152.778V189.445H67.2222V30.5557Z" fill="#EEEEEE"/>
<path d="M140.556 110C140.556 118.104 137.336 125.876 131.606 131.606C125.876 137.336 118.104 140.556 110 140.556C101.896 140.556 94.1242 137.336 88.394 131.606C82.6637 125.876 79.4445 118.104 79.4445 110H73.3333C73.3333 119.725 77.1964 129.051 84.0728 135.927C90.9491 142.804 100.275 146.667 110 146.667C119.725 146.667 129.051 142.804 135.927 135.927C142.804 129.051 146.667 119.725 146.667 110H140.556Z" fill="#A6D388"/>
<path d="M82.7628 123.866C82.5816 123.507 82.3311 123.188 82.0258 122.927C81.7205 122.665 81.3664 122.467 80.9841 122.343C80.6017 122.219 80.1985 122.172 79.7979 122.205C79.3973 122.238 79.0071 122.35 78.65 122.534C78.2918 122.716 77.973 122.967 77.7119 123.272C77.4507 123.577 77.2523 123.931 77.128 124.313C77.0037 124.695 76.9559 125.098 76.9874 125.498C77.0189 125.899 77.1291 126.289 77.3117 126.647C77.8617 127.728 78.4667 128.786 79.1205 129.8L79.145 129.843L79.1939 129.916L79.2122 129.959L79.2183 129.971L79.2428 130.002L79.2611 130.038V130.051L79.2794 130.081L79.2856 130.093L79.3039 130.124L79.31 130.136L79.3283 130.161L79.3406 130.179L79.3528 130.197L79.3589 130.216L79.3772 130.246L79.3833 130.252L79.3955 130.271L79.4139 130.307L79.42 130.32L79.4383 130.35L79.4444 130.362L79.4872 130.423V130.43L79.5178 130.472C79.8356 130.943 80.1594 131.401 80.5017 131.86C80.7403 132.18 81.04 132.451 81.3834 132.656C81.7269 132.861 82.1074 132.996 82.5032 133.053C82.8989 133.11 83.3021 133.089 83.6896 132.99C84.0771 132.891 84.4412 132.717 84.7611 132.477C85.0833 132.238 85.3552 131.938 85.5613 131.594C85.7674 131.25 85.9036 130.868 85.962 130.472C86.0205 130.075 86.0001 129.67 85.9021 129.281C85.804 128.893 85.6302 128.527 85.3905 128.205C84.4149 126.822 83.5368 125.372 82.7628 123.866ZM79.7255 114.198C79.4978 112.512 79.4038 110.81 79.4444 109.108C79.4675 108.298 79.1682 107.513 78.6125 106.924C78.0568 106.335 77.29 105.991 76.4806 105.967L76.2606 105.973C75.4893 106.007 74.7594 106.331 74.2175 106.881C73.6756 107.431 73.3619 108.165 73.3394 108.937C73.3252 109.57 73.3231 110.204 73.3333 110.837V111.387L73.3394 111.418V111.589L73.3456 111.607L73.3394 111.62V111.638L73.3456 111.65V111.827L73.3517 111.846V111.913L73.3578 112.029L73.3639 112.084V112.151C73.4189 113.129 73.5167 114.101 73.645 115.066C73.7587 115.865 74.1836 116.586 74.827 117.073C75.4704 117.559 76.2801 117.772 77.0794 117.663C77.4812 117.611 77.8686 117.479 78.2193 117.276C78.57 117.073 78.8772 116.803 79.1231 116.481C79.369 116.159 79.5488 115.792 79.6522 115.4C79.7556 115.008 79.7805 114.6 79.7255 114.198ZM112.078 140.476L112.041 140.482L111.283 140.531C109.836 140.59 108.386 140.547 106.944 140.403C106.138 140.322 105.333 140.564 104.705 141.077C104.078 141.59 103.68 142.331 103.599 143.138C103.518 143.944 103.76 144.749 104.273 145.377C104.786 146.004 105.527 146.402 106.333 146.483L107.097 146.551L107.122 146.557L107.134 146.551L107.152 146.557H107.164L107.201 146.563H107.238L107.256 146.569L107.299 146.563L107.317 146.569H107.348L107.384 146.575L107.415 146.581H107.494L107.531 146.587H107.611C108.539 146.648 109.474 146.679 110.416 146.661H110.654L110.697 146.655L110.733 146.661H110.825L110.856 146.655H110.972L111.008 146.648L111.045 146.655L111.051 146.648L111.088 146.655H111.094L111.124 146.648H111.173L111.21 146.642H111.247L111.253 146.648L111.289 146.642H111.332L111.363 146.636H111.485L111.516 146.63H111.54L111.564 146.624L111.589 146.63H111.619L111.644 146.624H111.674C111.931 146.618 112.194 146.593 112.451 146.581C113.242 146.517 113.976 146.144 114.494 145.542C115.013 144.941 115.273 144.159 115.219 143.367C115.203 142.971 115.109 142.581 114.943 142.221C114.776 141.861 114.54 141.538 114.249 141.269C113.957 141.001 113.615 140.792 113.242 140.656C112.87 140.52 112.474 140.459 112.078 140.476ZM97.1728 137.738C95.6316 137.024 94.1518 136.184 92.7483 135.227C92.2055 134.853 91.5553 134.666 90.8967 134.695C90.2567 134.722 89.6414 134.95 89.1378 135.345C88.6341 135.741 88.2676 136.285 88.0899 136.9C87.9123 137.516 87.9325 138.171 88.1477 138.775C88.363 139.378 88.7624 139.898 89.2894 140.262L89.2956 140.268L89.3322 140.287L89.3689 140.323L89.4056 140.348L89.4422 140.378C91.0678 141.485 92.7911 142.456 94.5878 143.287C94.9511 143.457 95.3444 143.553 95.7451 143.57C96.1457 143.587 96.5458 143.525 96.9223 143.387C97.2988 143.249 97.6443 143.038 97.939 142.766C98.2337 142.494 98.4717 142.167 98.6394 141.802C98.8116 141.439 98.9102 141.046 98.9295 140.645C98.9489 140.244 98.8887 139.843 98.7523 139.465C98.616 139.087 98.4062 138.74 98.1351 138.444C97.864 138.148 97.537 137.908 97.1728 137.738ZM127.912 135.306C127.372 135.332 126.849 135.501 126.396 135.795C124.967 136.703 123.467 137.494 121.911 138.16C121.238 138.427 120.683 138.925 120.344 139.564C120.006 140.203 119.906 140.942 120.062 141.648C120.219 142.354 120.622 142.981 121.199 143.417C121.777 143.853 122.49 144.069 123.212 144.027C123.575 144.009 123.933 143.931 124.269 143.795L125.088 143.428H125.101L125.137 143.403L125.149 143.397L125.174 143.385H125.198L125.223 143.373L125.235 143.361L125.272 143.355L125.284 143.342L125.302 143.33L125.333 143.318L125.351 143.312L125.382 143.3L125.394 143.293L125.424 143.281L125.437 143.275C125.455 143.263 125.455 143.257 125.467 143.257L125.479 143.251L125.516 143.232H125.528L125.565 143.214L125.602 143.196L125.614 143.19L125.644 143.171L125.657 143.165L125.693 143.147L125.699 143.141L125.742 143.135L125.785 143.11L125.797 143.104L125.822 143.086H125.834L125.871 143.061L125.919 143.049L125.956 143.025L126.005 143L126.011 142.994L126.097 142.957L126.139 142.939L126.225 142.89L126.274 142.872L126.311 142.853L126.402 142.805L126.439 142.786L126.579 142.713L126.622 142.701L126.708 142.652L126.751 142.627H126.757C126.763 142.621 126.775 142.615 126.799 142.615C126.812 142.597 126.824 142.591 126.836 142.585L126.885 142.56L126.922 142.542V142.536L127.007 142.499L127.056 142.475L127.062 142.468L127.093 142.45L127.142 142.426L127.178 142.407H127.191L127.227 142.383L127.27 142.358L127.276 142.352L127.313 142.334L127.349 142.316L127.362 142.31L127.386 142.291L127.404 142.285L127.435 142.267L127.447 142.261L127.478 142.242L127.49 142.236L127.527 142.224C127.521 142.218 127.527 142.218 127.533 142.218L127.569 142.2L127.582 142.193L127.606 142.175L127.618 142.169L127.655 142.151L127.667 142.145C127.667 142.132 127.679 142.132 127.692 142.126L127.71 142.12L127.734 142.108L127.753 142.096L127.777 142.083L127.796 142.071L127.814 142.059L127.832 142.041L127.863 142.035L127.887 142.028L127.899 142.016L127.924 142.004L127.948 141.986L127.961 141.98L127.985 141.967L128.009 141.949L128.028 141.937C128.04 141.943 128.046 141.937 128.058 141.931L128.071 141.918L128.095 141.906L128.113 141.894L128.132 141.882L128.156 141.87L128.181 141.851L128.193 141.845C128.205 141.839 128.229 141.839 128.242 141.827C128.229 141.821 128.229 141.827 128.242 141.827L128.266 141.808L128.309 141.778L128.321 141.772L128.364 141.753L128.437 141.711L128.486 141.68C128.524 141.653 128.565 141.63 128.608 141.613C128.993 141.381 129.397 141.142 129.776 140.898C130.457 140.461 130.938 139.772 131.112 138.982C131.286 138.191 131.14 137.364 130.704 136.681C130.383 136.245 129.961 135.893 129.475 135.654C128.989 135.414 128.453 135.295 127.912 135.306ZM143.623 107.085L143.477 107.091C142.691 107.124 141.948 107.459 141.403 108.026C140.858 108.593 140.552 109.348 140.549 110.135C140.549 111.827 140.397 113.538 140.109 115.201C139.973 116.001 140.16 116.822 140.63 117.484C141.099 118.145 141.812 118.594 142.612 118.73C143.412 118.866 144.233 118.679 144.895 118.21C145.557 117.74 146.005 117.027 146.141 116.227V116.197L146.147 116.185L146.153 116.172L146.147 116.16L146.153 116.148V116.136L146.159 116.123V116.105L146.166 116.093V116.038C146.178 116.032 146.178 116.02 146.178 116.013V115.977C146.309 115.184 146.415 114.387 146.496 113.587L146.489 113.581L146.496 113.563L146.502 113.532V113.465L146.514 113.447L146.508 113.422V113.41L146.514 113.392V113.367L146.526 113.361L146.514 113.343V113.318C146.526 113.312 146.526 113.306 146.526 113.3V113.184L146.538 113.166C146.621 112.159 146.664 111.144 146.667 110.135C146.665 109.327 146.344 108.554 145.774 107.982C145.204 107.411 144.431 107.088 143.623 107.085ZM140.916 123.561C140.565 123.366 140.178 123.243 139.779 123.198C139.38 123.153 138.976 123.187 138.59 123.298C138.204 123.409 137.844 123.595 137.53 123.846C137.216 124.097 136.955 124.407 136.761 124.758C135.94 126.247 134.994 127.661 133.931 128.987C133.432 129.622 133.205 130.429 133.299 131.231C133.393 132.033 133.801 132.766 134.433 133.268C135.065 133.77 135.871 134.002 136.673 133.912C137.476 133.822 138.21 133.418 138.716 132.788C139.425 131.896 140.103 130.961 140.733 130.008C140.745 129.965 140.776 129.922 140.8 129.886L140.806 129.88L140.831 129.843L140.855 129.794C140.867 129.782 140.879 129.77 140.879 129.757L140.886 129.763L140.91 129.727V129.721C140.922 129.709 140.928 129.694 140.928 129.678L140.941 129.672L140.965 129.635C140.977 129.629 140.977 129.611 140.983 129.598L140.989 129.592L141.014 129.556L141.02 129.543L141.032 129.513L141.051 129.501L141.063 129.47H141.075L141.087 129.433L141.093 129.421L141.118 129.397L141.124 129.385C141.13 129.372 141.13 129.36 141.142 129.354L141.148 129.336L141.173 129.317C141.173 129.311 141.173 129.305 141.185 129.299V129.275L141.203 129.262L141.222 129.232L141.228 129.22L141.246 129.183L141.258 129.171L141.271 129.146L141.283 129.128C141.283 129.122 141.283 129.116 141.295 129.11C141.295 129.103 141.295 129.097 141.307 129.091L141.326 129.061L141.332 129.042L141.344 129.024L141.356 129.006C141.368 129 141.368 128.993 141.368 128.987C141.381 128.981 141.381 128.975 141.381 128.963L141.393 128.945L141.411 128.92L141.429 128.896V128.877L141.442 128.859L141.46 128.835L141.478 128.816V128.798L141.503 128.767V128.749C141.515 128.743 141.521 128.737 141.521 128.725L141.533 128.712L141.546 128.694L141.564 128.663L141.576 128.645V128.633L141.601 128.602C141.601 128.596 141.601 128.59 141.613 128.584L141.619 128.566L141.637 128.541L141.649 128.517L141.662 128.498C141.668 128.492 141.662 128.48 141.674 128.474C141.674 128.468 141.674 128.462 141.686 128.462L141.698 128.431L141.711 128.419L141.723 128.382L141.735 128.376L141.747 128.352L141.759 128.34L141.772 128.309L141.784 128.297L141.796 128.26C141.808 128.254 141.796 128.248 141.796 128.248L141.821 128.217L141.827 128.205L141.851 128.175V128.168L141.869 128.132L141.882 128.12L141.894 128.083L141.924 128.046L141.943 128.01V128.003L141.967 127.961L141.979 127.955L142.132 127.667C142.512 126.961 142.597 126.133 142.369 125.364C142.141 124.595 141.619 123.947 140.916 123.561Z" fill="#5C913B"/>
<path d="M110 134.444C120.125 134.444 128.333 131.708 128.333 128.333C128.333 124.958 120.125 122.222 110 122.222C99.8748 122.222 91.6667 124.958 91.6667 128.333C91.6667 131.708 99.8748 134.444 110 134.444Z" fill="#55ACEE"/>
<path d="M113.056 134.444C118.118 134.444 122.222 131.708 122.222 128.333C122.222 124.958 118.118 122.222 113.056 122.222C107.993 122.222 103.889 124.958 103.889 128.333C103.889 131.708 107.993 134.444 113.056 134.444Z" fill="#FFCC4D"/>
<path d="M116.826 130.008C116.298 130.004 115.78 129.863 115.322 129.6C114.863 129.337 114.481 128.961 114.211 128.507C113.94 128.053 113.792 127.537 113.779 127.009C113.766 126.481 113.889 125.958 114.137 125.492C115.115 123.695 116.142 122.064 117.205 120.634C116.33 120.671 115.453 120.689 114.577 120.689C112.891 120.689 111.351 119.314 111.351 117.627C111.351 115.94 112.542 114.571 114.235 114.571L114.736 114.577C116.545 114.577 118.403 114.467 120.065 114.315C120.528 114.268 120.996 114.33 121.43 114.495C121.865 114.661 122.256 114.925 122.571 115.268C122.656 115.201 122.742 115.134 122.833 115.079C123.444 114.675 124.013 114.351 124.544 114.095C124.922 113.803 125.364 113.606 125.834 113.52L126.054 113.477C127.203 113.105 128.009 113.056 128.333 113.056C128.812 113.054 129.284 113.165 129.712 113.38C130.139 113.595 130.51 113.908 130.794 114.293C131.078 114.678 131.267 115.125 131.346 115.597C131.425 116.069 131.392 116.553 131.248 117.01C130.747 118.635 129.629 119.002 127.667 119.393C127.155 119.598 126.667 119.861 126.213 120.175C125.66 120.535 125.007 120.708 124.348 120.671C123.69 120.634 123.061 120.387 122.552 119.967C122.969 120.505 123.194 121.166 123.192 121.846C123.189 122.525 122.96 123.185 122.54 123.72C121.501 125.046 120.481 126.622 119.509 128.413C119.247 128.896 118.86 129.3 118.388 129.581C117.915 129.861 117.376 130.009 116.826 130.008ZM108.148 120.297C108.014 120.298 107.879 120.29 107.745 120.273C105.562 119.99 103.405 119.538 101.292 118.922C100.907 118.808 100.548 118.619 100.236 118.366C99.9244 118.114 99.6655 117.802 99.4742 117.449C99.283 117.096 99.1631 116.708 99.1216 116.309C99.0801 115.91 99.1177 115.506 99.2322 115.121L99.2689 114.999L99.1956 115.14C98.9995 115.49 98.7363 115.799 98.421 116.047C98.1057 116.296 97.7445 116.48 97.3579 116.589C96.9714 116.698 96.5672 116.73 96.1685 116.682C95.7697 116.635 95.3841 116.509 95.0339 116.313C93.0035 115.188 91.1383 113.787 89.4911 112.151C88.9345 111.575 88.6265 110.803 88.6335 110.002C88.6405 109.201 88.9618 108.434 89.5283 107.868C90.0949 107.301 90.8612 106.98 91.6624 106.973C92.4635 106.966 93.2354 107.274 93.8117 107.831C95.0156 109.035 96.4272 110.092 98.0161 110.978C98.6388 111.327 99.1196 111.883 99.3752 112.549C99.6309 113.216 99.6451 113.95 99.4156 114.626C99.7365 113.983 100.274 113.474 100.933 113.187C101.593 112.901 102.332 112.857 103.021 113.062C104.708 113.563 106.559 113.948 108.521 114.211C109.291 114.309 109.994 114.696 110.489 115.293C110.984 115.891 111.233 116.654 111.185 117.429C111.138 118.203 110.798 118.93 110.234 119.463C109.67 119.996 108.924 120.294 108.148 120.297ZM93.1639 106.004C90.5606 106.004 87.1933 104.995 85.1522 102.587C82.0233 98.8963 80.1839 94.1602 80.465 90.5302C80.5383 89.5585 79.5911 88.7763 78.6622 88.5319C78.1306 88.3913 77.1956 88.3057 76.7556 89.253C76.5854 89.6209 76.276 89.9061 75.8955 90.0459C75.515 90.1858 75.0946 90.1687 74.7267 89.9985C74.3588 89.8283 74.0735 89.519 73.9337 89.1385C73.7939 88.758 73.8109 88.3375 73.9811 87.9696C74.9345 85.898 77.0733 84.9752 79.4322 85.5741C81.62 86.1424 83.7161 88.1102 83.5083 90.7685C83.2883 93.5918 84.8895 97.5457 87.4806 100.607C88.8433 102.221 91.2145 102.875 92.8278 102.936C94.1417 103.003 94.8078 102.704 94.9483 102.575C94.6061 101.762 90.0778 99.3791 88.1467 98.3646C86.5028 97.503 86.0139 96.3174 85.8917 95.4802C85.4822 92.6996 88.3361 89.8824 91.0983 87.1691C92.07 86.2096 92.9928 85.3052 93.4939 84.6391C94.0622 83.8874 93.9706 83.3863 93.8606 83.0746C93.4389 81.9318 91.6117 80.8013 89.4117 80.3124C87.3767 79.8602 86.0017 78.8763 85.3295 77.3852C84.4433 75.4235 84.9139 72.8569 86.7594 69.5324C86.857 69.3571 86.988 69.2026 87.1452 69.0779C87.3024 68.9532 87.4826 68.8607 87.6756 68.8057C87.8685 68.7507 88.0704 68.7341 88.2697 68.7571C88.469 68.7801 88.6619 68.8421 88.8372 68.9396C89.0126 69.0371 89.167 69.1682 89.2917 69.3254C89.4164 69.4826 89.5089 69.6628 89.5639 69.8558C89.619 70.0487 89.6355 70.2506 89.6125 70.4499C89.5895 70.6492 89.5275 70.8421 89.43 71.0174C87.6883 74.1463 87.8595 75.5641 88.1161 76.1324C88.3728 76.6946 89.0267 77.0918 90.0717 77.3241C92.6567 77.8985 95.7672 79.4324 96.7206 82.0113C97.2645 83.4841 96.9895 85.073 95.9383 86.4724C95.3028 87.3218 94.3006 88.3057 93.2433 89.3507C91.6667 90.903 88.7272 93.7935 88.9167 95.0402C88.9533 95.2969 89.2895 95.523 89.5706 95.6635C94.16 98.0713 97.2095 99.813 97.8328 101.946C97.9418 102.31 97.9752 102.692 97.9311 103.069C97.887 103.446 97.7662 103.811 97.5761 104.14C96.9833 105.172 95.7489 105.808 94.0011 105.967C93.7383 105.991 93.4511 106.004 93.1639 106.004Z" fill="#5C913B"/>
<path d="M119.167 116.111C120.854 116.111 122.222 113.375 122.222 110C122.222 106.625 120.854 103.889 119.167 103.889C117.479 103.889 116.111 106.625 116.111 110C116.111 113.375 117.479 116.111 119.167 116.111Z" fill="#FFCC4D"/>
<path d="M105.673 105.038C105.673 106.798 103.565 108.221 100.962 108.221C98.3644 108.221 96.25 106.798 96.25 105.038C96.25 103.278 98.3583 101.854 100.962 101.854C103.559 101.854 105.673 103.278 105.673 105.038ZM98.4194 76.7615C98.725 78.057 97.0322 79.5726 94.6367 80.1409C92.2411 80.7092 90.0533 80.1165 89.7417 78.8209C89.4361 77.5192 91.1289 76.0037 93.5183 75.4354C95.92 74.8731 98.1139 75.4598 98.4194 76.7615Z" fill="#FFCC4D"/>
<path d="M137.702 109.725C138.252 110.153 139.187 105.27 139.046 103.748C139.046 103.645 138.869 100.412 139.553 98.1018C139.975 97.3196 139.999 91.4835 139.352 89.9496C139.865 89.9068 140.482 89.7418 140.556 89.1185C138.184 89.9924 137.628 84.1257 135.349 80.7524C133.137 77.3729 130.393 75.4052 127.527 73.3518C127.765 72.752 128.1 72.1948 128.517 71.7018C125.003 73.4618 119.527 67.0879 111.436 67.5646C109.621 67.7418 108.759 67.8518 108.295 68.9641C106.786 69.0863 105.252 69.4285 105.252 71.4146C105.252 71.8913 105.686 72.7591 106.651 72.7652C107.971 73.1502 109.047 72.8507 109.945 74.6963L110.183 76.6029C110.183 76.6029 109.004 75.0935 108.356 74.8552L108.753 74.0424C108.142 73.6879 107.061 73.9752 107.061 73.9752C107.061 73.9752 104.708 72.8752 102.819 73.1685L102.453 71.6407C102.123 72.5818 101.383 72.5329 101.279 73.4191C101.072 72.7835 100.797 71.9952 100.601 71.3596C99.935 72.2641 100.131 73.2418 99.8922 74.1829C99.6355 74.4029 99.11 74.4091 98.9755 73.8041C98.9083 73.0585 98.8167 72.9913 98.8167 72.1052C98.34 72.9424 97.7655 73.3518 97.5761 74.7879L97.0689 73.1991C97.0872 75.0752 95.4739 76.1935 93.9461 77.5196C93.5122 78.3141 94.0133 78.3202 94.05 78.7296L94.8567 79.1329L96.305 79.0291C96.5433 79.3285 96.3478 79.3529 96.9772 79.5424C98.6639 80.0129 100.766 77.9902 102.416 81.1741C101.658 81.8096 100.894 83.2946 101.139 83.5757C101.444 83.5757 100.528 84.0035 101.762 83.6124C100.479 84.8591 99.6111 86.5029 99.6111 86.6007C99.4644 86.9552 100.124 86.5518 99.99 87.1935L100.296 87.1568C97.3683 90.3224 100.198 93.7263 99.8861 95.5535C100.375 96.3418 100.436 95.5352 101.047 95.4557C101.561 97.7046 103.039 99.0674 103.944 100.846L102.037 100.864C102.08 101.707 102.844 102.508 103.449 103.247L102.172 103.651C101.35 104.06 100.619 104.629 100.021 105.325C99.5989 106.352 102.056 106.596 103.241 106.78L103.198 108.02C105.05 108.197 107.189 107.647 107.189 107.543L107.653 107.183L108.698 107.757C109.047 107.757 109.591 106.364 109.34 105.295C110.012 106.095 110.648 107.385 111.32 108.191L111.949 108.106C112.524 109.016 113.312 109.921 113.887 110.831L114.528 111.076C114.901 110.947 115.219 110.905 115.421 110.171L115.714 110.685L116.728 109.988L117.437 109.847L117.969 110.715C118.281 110.599 118.586 109.921 118.604 109.2C118.922 109.829 119.008 109.78 119.24 109.945L119.711 108.955L122.247 111.326L124.166 111.436C124.85 111.901 126.726 112.194 127.044 111.442C128.584 112.102 130.399 111.357 130.307 110.623C131.725 111.186 133.907 110.807 133.907 110.715C134.169 110.685 134.842 110.025 134.206 109.53C129.519 106.266 122.571 100.864 119.888 99.5624C119.888 98.5968 119.161 95.1196 118.378 94.1663L119.014 93.1029C120.841 94.8079 121.501 94.6429 122.473 94.9118C123.512 95.7368 123.872 96.9896 124.911 98.1324L125.84 98.3035C125.083 96.3152 123.931 94.5005 122.454 92.9685C123.457 93.4696 125.119 94.8079 126.231 95.7796C126.964 97.0079 127.178 97.9857 127.851 99.5257C128.339 99.8374 128.841 100.98 128.773 100.033C128.657 98.2546 127.404 95.4374 127.404 95.2357C129.397 96.8124 129.372 99.2691 129.977 100.766C130.484 101.524 130.741 102.538 130.961 102.3L130.374 97.6802L130.032 95.9874C131.505 96.8368 132.031 100.076 132.721 103.962C132.721 104.58 132.972 105.258 132.935 105.655C133.253 106.046 133.613 107.128 133.607 106.486C133.607 106.486 133.607 100.167 133.173 98.719C133.063 97.9429 133.357 96.6841 133.357 96.6841C133.894 99.3057 134.469 102.147 135.013 104.763V106.688L135.819 107.501C135.972 105.912 136.156 104.335 136.314 102.758L135.709 97.1057V95.4924C135.697 94.9241 136.229 95.0279 136.565 95.6757C136.644 97.0629 136.644 98.1446 136.699 99.5257C136.938 101.102 137.103 102.257 137.219 104.268C137.286 105.893 137.359 109.792 137.702 109.725Z" fill="#C1694F"/>
</g>
<defs>
<clipPath id="clip0_132_103">
<rect width="220" height="220" fill="white"/>
</clipPath>
</defs>
</svg>
