<svg width="115" height="116" viewBox="0 0 115 116" fill="none" xmlns="http://www.w3.org/2000/svg">
<path d="M70.0781 32.625C67.0031 32.6231 63.9418 33.0392 60.977 33.862C59.8066 31.9358 58.3848 30.177 56.7498 28.6329L61.0219 22.484C61.2926 22.094 61.4846 21.6539 61.5868 21.189C61.689 20.7242 61.6994 20.2435 61.6174 19.7746C61.5354 19.3056 61.3627 18.8576 61.1091 18.456C60.8554 18.0544 60.5259 17.7071 60.1392 17.4339C59.7525 17.1608 59.3162 16.9672 58.8554 16.8641C58.3945 16.761 57.918 16.7506 57.4531 16.8332C56.9882 16.9159 56.544 17.0901 56.1458 17.346C55.7477 17.6018 55.4034 17.9343 55.1326 18.3243L50.8605 24.4687C47.3475 22.6795 43.4667 21.7482 39.5313 21.75H38.7496L37.4514 14.3686C37.3832 13.8876 37.2199 13.4253 36.9712 13.0093C36.7225 12.5932 36.3933 12.2319 36.0034 11.9467C35.6135 11.6615 35.1707 11.4582 34.7013 11.3491C34.232 11.2399 33.7457 11.227 33.2713 11.3111C32.7969 11.3953 32.3441 11.5748 31.9399 11.8389C31.5356 12.1031 31.1881 12.4465 30.9181 12.8488C30.648 13.2511 30.4609 13.7041 30.3678 14.1808C30.2747 14.6574 30.2775 15.1482 30.3762 15.6237L31.6699 23.0278C27.6842 24.3575 24.091 26.6705 21.2166 29.7567L15.0982 25.4384C14.7119 25.1586 14.2742 24.9589 13.8108 24.8509C13.3473 24.743 12.8672 24.7289 12.3983 24.8095C11.9294 24.8902 11.481 25.0639 11.0792 25.3207C10.6773 25.5774 10.33 25.9121 10.0574 26.3052C9.78474 26.6984 9.59219 27.1423 9.4909 27.6111C9.38961 28.0799 9.38159 28.5643 9.46732 29.0363C9.55304 29.5082 9.73079 29.9583 9.99027 30.3604C10.2497 30.7626 10.5858 31.1087 10.9789 31.3789L17.0703 35.6926C15.2902 39.2355 14.3666 43.153 14.375 47.125V47.9043L7.05723 49.2093C6.17149 49.3658 5.3761 49.8516 4.82808 50.5708C4.28007 51.2899 4.01924 52.1902 4.09709 53.0938C4.17494 53.9974 4.58581 54.8388 5.2486 55.4518C5.91139 56.0648 6.77792 56.4049 7.67715 56.405C7.88644 56.4047 8.09532 56.3865 8.30156 56.3506L15.6328 55.0456C16.277 57.0238 17.1611 58.9141 18.2652 60.6734C14.8278 63.894 12.4314 68.0841 11.3881 72.698C10.3449 77.3119 10.7032 82.1357 12.4163 86.5413C14.1294 90.9468 17.1179 94.73 20.9928 97.3981C24.8676 100.066 29.4491 101.495 34.1406 101.5H70.0781C79.1328 101.5 87.8166 97.8717 94.2192 91.4135C100.622 84.9552 104.219 76.1959 104.219 67.0625C104.219 57.9291 100.622 49.1698 94.2192 42.7115C87.8166 36.2532 79.1328 32.625 70.0781 32.625ZM21.5625 47.125C21.5646 43.2863 22.7749 39.5475 25.019 36.4473C27.263 33.3471 30.4249 31.0455 34.049 29.8744C37.6731 28.7032 41.5722 28.7229 45.1845 29.9306C48.7968 31.1383 51.9357 33.4716 54.1488 36.5943C46.818 40.4858 41.1334 46.9249 38.1477 54.7193C33.4234 53.8968 28.5627 54.5563 24.2219 56.6089C22.484 53.756 21.5635 50.4734 21.5625 47.125ZM70.0781 94.25H34.1406C31.9288 94.2459 29.7413 93.7841 27.7134 92.8933C25.6855 92.0025 23.8603 90.7016 22.3507 89.0709C20.8411 87.4403 19.6792 85.5146 18.9367 83.4129C18.1943 81.3113 17.8872 79.0784 18.0343 76.8522C18.1815 74.6261 18.7798 72.4541 19.7923 70.4705C20.8047 68.4869 22.2098 66.7338 23.9207 65.3198C25.6316 63.9057 27.6118 62.8607 29.739 62.2494C31.8662 61.638 34.0951 61.4733 36.2879 61.7654C36.1217 62.8393 36.0049 63.9359 35.942 65.0415C35.9149 65.5176 35.9809 65.9943 36.1365 66.4446C36.292 66.8949 36.5339 67.3099 36.8485 67.6658C37.163 68.0218 37.5439 68.3118 37.9696 68.5193C38.3952 68.7267 38.8572 68.8476 39.3291 68.875C39.801 68.9023 40.2737 68.8357 40.7201 68.6788C41.1665 68.5219 41.5779 68.2779 41.9308 67.9606C42.2837 67.6433 42.5712 67.2591 42.7769 66.8298C42.9825 66.4004 43.1024 65.9344 43.1295 65.4584C43.2303 63.6503 43.5133 61.8573 43.974 60.107C43.974 60.0345 44.0145 59.962 44.0279 59.8895C45.3488 54.9932 48.0005 50.567 51.6835 47.1105C55.3665 43.6541 59.9342 41.3052 64.8708 40.329C69.8074 39.3527 74.9163 39.7882 79.6205 41.586C84.3247 43.3839 88.437 46.4725 91.4929 50.5033C94.5488 54.534 96.4266 59.3463 96.9143 64.3967C97.4021 69.4471 96.4802 74.5345 94.253 79.0844C92.0258 83.6342 88.5818 87.4654 84.31 90.1452C80.0382 92.8251 75.1087 94.2468 70.0781 94.25Z" fill="white"/>
</svg>
