<svg width="54" height="54" viewBox="0 0 54 54" fill="none" xmlns="http://www.w3.org/2000/svg">
<g clip-path="url(#clip0_132_486)">
<path d="M14.0332 40.5845C14.2436 40.6546 14.4381 40.7655 14.6056 40.9109C14.773 41.0563 14.9102 41.2332 15.0093 41.4316C15.1083 41.63 15.1673 41.846 15.1828 42.0672C15.1983 42.2885 15.1701 42.5106 15.0997 42.7209L13.4122 47.7834C13.2586 48.1919 12.9526 48.525 12.5586 48.7127C12.1646 48.9005 11.7132 48.9283 11.2991 48.7903C10.885 48.6522 10.5405 48.3591 10.338 47.9725C10.1354 47.5859 10.0905 47.1359 10.2127 46.7169L11.9002 41.6544C12.0412 41.2297 12.3452 40.8783 12.7452 40.6777C13.1452 40.4771 13.6085 40.4435 14.0332 40.5845ZM24.1582 40.5845C24.3686 40.6546 24.5631 40.7655 24.7306 40.9109C24.898 41.0563 25.0352 41.2332 25.1343 41.4316C25.2333 41.63 25.2923 41.846 25.3078 42.0672C25.3233 42.2885 25.2951 42.5106 25.2247 42.7209L21.8497 52.8459C21.6961 53.2544 21.3901 53.5875 20.9961 53.7752C20.6021 53.963 20.1507 53.9908 19.7366 53.8528C19.3225 53.7147 18.978 53.4216 18.7755 53.035C18.5729 52.6484 18.528 52.1984 18.6502 51.7794L22.0252 41.6544C22.1662 41.2297 22.4702 40.8783 22.8702 40.6777C23.2702 40.4771 23.7335 40.4435 24.1582 40.5845ZM34.2832 40.5845C34.4936 40.6546 34.6881 40.7655 34.8556 40.9109C35.023 41.0563 35.1602 41.2332 35.2593 41.4316C35.3583 41.63 35.4173 41.846 35.4328 42.0672C35.4483 42.2885 35.4201 42.5106 35.3497 42.7209L33.6622 47.7834C33.5086 48.1919 33.2026 48.525 32.8086 48.7127C32.4146 48.9005 31.9632 48.9283 31.5491 48.7903C31.135 48.6522 30.7905 48.3591 30.588 47.9725C30.3854 47.5859 30.3405 47.1359 30.4627 46.7169L32.1502 41.6544C32.2912 41.2297 32.5952 40.8783 32.9952 40.6777C33.3952 40.4771 33.8585 40.4435 34.2832 40.5845ZM44.4082 40.5845C44.6186 40.6546 44.8131 40.7655 44.9806 40.9109C45.148 41.0563 45.2852 41.2332 45.3843 41.4316C45.4833 41.63 45.5423 41.846 45.5578 42.0672C45.5733 42.2885 45.5451 42.5106 45.4747 42.7209L42.0997 52.8459C42.0362 53.0638 41.9293 53.2666 41.7855 53.4423C41.6417 53.6179 41.464 53.7628 41.2629 53.8681C41.0618 53.9735 40.8416 54.0372 40.6153 54.0554C40.3891 54.0736 40.1614 54.046 39.9461 53.9743C39.7308 53.9025 39.5321 53.788 39.362 53.6376C39.192 53.4873 39.054 53.3042 38.9563 53.0993C38.8587 52.8943 38.8034 52.6718 38.7938 52.445C38.7841 52.2182 38.8203 51.9918 38.9002 51.7794L42.2752 41.6544C42.4162 41.2297 42.7202 40.8783 43.1202 40.6777C43.5202 40.4771 43.9835 40.4435 44.4082 40.5845ZM45.2419 16.9662C44.541 13.4332 42.7282 10.2169 40.0687 7.78785C37.4091 5.35875 34.0422 3.84418 30.4602 3.46558C26.8782 3.08699 23.269 3.86422 20.1604 5.68364C17.0518 7.50306 14.6067 10.2692 13.1827 13.5777C11.5858 13.3938 9.96814 13.5377 8.42877 14.0006C6.8894 14.4636 5.46072 15.2359 4.2302 16.2702C2.99968 17.3046 1.99322 18.5791 1.27243 20.016C0.551645 21.4528 0.131705 23.0216 0.0383216 24.6264C-0.0550619 26.2312 0.180076 27.8381 0.729339 29.3488C1.2786 30.8596 2.13043 32.2423 3.23267 33.4124C4.33492 34.5825 5.66438 35.5152 7.13966 36.1536C8.61494 36.792 10.205 37.1226 11.8125 37.1251H43.875C46.4437 37.128 48.9176 36.1545 50.7954 34.4017C52.6732 32.6489 53.8146 30.2479 53.9884 27.6851C54.1621 25.1222 53.3553 22.5891 51.7313 20.5989C50.1073 18.6086 47.7875 17.3101 45.2419 16.9662ZM28.6875 6.75011C32.0083 6.74942 35.2129 7.97276 37.6885 10.1862C40.1641 12.3997 41.737 15.448 42.1065 18.7482C42.1524 19.1629 42.3502 19.5458 42.6618 19.8232C42.9735 20.1005 43.3768 20.2526 43.794 20.2501H43.875C45.6652 20.2501 47.3821 20.9613 48.648 22.2271C49.9138 23.493 50.625 25.2099 50.625 27.0001C50.625 28.7903 49.9138 30.5072 48.648 31.7731C47.3821 33.0389 45.6652 33.7501 43.875 33.7501H11.8125C10.618 33.7495 9.43722 33.4953 8.34831 33.0043C7.25939 32.5133 6.28715 31.7966 5.49588 30.9018C4.70462 30.007 4.11238 28.9543 3.75833 27.8135C3.40428 26.6727 3.29649 25.4697 3.4421 24.2841C3.58772 23.0985 3.9834 21.9573 4.60299 20.9361C5.22258 19.9148 6.05195 19.0368 7.03624 18.36C8.02052 17.6832 9.13729 17.2232 10.3127 17.0102C11.488 16.7973 12.6952 16.8364 13.8544 17.1249C14.2679 17.228 14.7051 17.1708 15.0783 16.9649C15.4514 16.7589 15.7328 16.4194 15.8659 16.0145C16.7578 13.3184 18.4768 10.9721 20.7786 9.30896C23.0803 7.64581 25.8477 6.75044 28.6875 6.75011Z" fill="white"/>
</g>
<defs>
<clipPath id="clip0_132_486">
<rect width="54" height="54" fill="white"/>
</clipPath>
</defs>
</svg>
