<svg width="95" height="95" viewBox="0 0 95 95" fill="none" xmlns="http://www.w3.org/2000/svg">
<path d="M47.5001 4.94824C49.1397 4.94824 50.4689 6.2774 50.4689 7.91699V11.8753C50.4689 13.5149 49.1397 14.8441 47.5001 14.8441C45.8605 14.8441 44.5314 13.5149 44.5314 11.8753V7.91699C44.5314 6.2774 45.8605 4.94824 47.5001 4.94824Z" fill="white"/>
<path fill-rule="evenodd" clip-rule="evenodd" d="M24.7397 47.5003C24.7397 34.9301 34.9299 24.7399 47.5001 24.7399C60.0703 24.7399 70.2605 34.9301 70.2605 47.5003C70.2605 60.0706 60.0703 70.2607 47.5001 70.2607C34.9299 70.2607 24.7397 60.0706 24.7397 47.5003ZM47.5001 30.6774C38.2091 30.6774 30.6772 38.2093 30.6772 47.5003C30.6772 56.7914 38.2091 64.3232 47.5001 64.3232C56.7911 64.3232 64.323 56.7914 64.323 47.5003C64.323 38.2093 56.7911 30.6774 47.5001 30.6774Z" fill="white"/>
<path d="M21.6097 17.4115C20.4504 16.2522 18.5707 16.2522 17.4113 17.4115C16.2519 18.5709 16.2519 20.4506 17.4113 21.61L20.2103 24.409C21.3696 25.5683 23.2493 25.5683 24.4087 24.409C25.5681 23.2496 25.5681 21.3699 24.4087 20.2105L21.6097 17.4115Z" fill="white"/>
<path d="M90.0522 47.5003C90.0522 49.1399 88.723 50.4691 87.0834 50.4691H83.1251C81.4855 50.4691 80.1564 49.1399 80.1564 47.5003C80.1564 45.8607 81.4855 44.5316 83.1251 44.5316H87.0834C88.723 44.5316 90.0522 45.8607 90.0522 47.5003Z" fill="white"/>
<path d="M77.5889 21.61C78.7483 20.4506 78.7483 18.5709 77.5889 17.4115C76.4295 16.2521 74.5498 16.2521 73.3904 17.4115L70.5915 20.2105C69.4321 21.3698 69.4321 23.2496 70.5915 24.4089C71.7508 25.5683 73.6306 25.5683 74.7899 24.4089L77.5889 21.61Z" fill="white"/>
<path d="M47.5001 80.1566C49.1397 80.1566 50.4689 81.4857 50.4689 83.1253V87.0837C50.4689 88.7233 49.1397 90.0524 47.5001 90.0524C45.8605 90.0524 44.5314 88.7233 44.5314 87.0837V83.1253C44.5314 81.4857 45.8605 80.1566 47.5001 80.1566Z" fill="white"/>
<path d="M74.7902 70.5917C73.6308 69.4324 71.7511 69.4324 70.5917 70.5917C69.4324 71.7511 69.4324 73.6308 70.5917 74.7902L73.3907 77.5892C74.5501 78.7485 76.4298 78.7485 77.5891 77.5892C78.7485 76.4298 78.7485 74.5501 77.5891 73.3907L74.7902 70.5917Z" fill="white"/>
<path d="M14.8439 47.5003C14.8439 49.1399 13.5147 50.4691 11.8751 50.4691H7.91678C6.27718 50.4691 4.94803 49.1399 4.94803 47.5003C4.94803 45.8607 6.27718 44.5316 7.91678 44.5316H11.8751C13.5147 44.5316 14.8439 45.8607 14.8439 47.5003Z" fill="white"/>
<path d="M24.4084 74.7902C25.5678 73.6308 25.5678 71.7511 24.4084 70.5917C23.2491 69.4323 21.3694 69.4323 20.21 70.5917L17.411 73.3907C16.2517 74.55 16.2517 76.4297 17.411 77.5891C18.5704 78.7485 20.4501 78.7485 21.6095 77.5891L24.4084 74.7902Z" fill="white"/>
</svg>
