<svg width="51" height="51" viewBox="0 0 51 51" fill="none" xmlns="http://www.w3.org/2000/svg">
<path d="M25.5 0.864746C26.4492 0.864746 27.2188 1.63426 27.2188 2.5835V4.87516C27.2188 5.8244 26.4492 6.59391 25.5 6.59391C24.5508 6.59391 23.7813 5.8244 23.7813 4.87516V2.5835C23.7813 1.63426 24.5508 0.864746 25.5 0.864746Z" fill="black"/>
<path fill-rule="evenodd" clip-rule="evenodd" d="M12.3229 25.5002C12.3229 18.2227 18.2225 12.3231 25.5 12.3231C32.7775 12.3231 38.6771 18.2227 38.6771 25.5002C38.6771 32.7777 32.7775 38.6772 25.5 38.6772C18.2225 38.6772 12.3229 32.7777 12.3229 25.5002ZM25.5 15.7606C20.121 15.7606 15.7604 20.1211 15.7604 25.5002C15.7604 30.8792 20.121 35.2397 25.5 35.2397C30.879 35.2397 35.2396 30.8792 35.2396 25.5002C35.2396 20.1211 30.879 15.7606 25.5 15.7606Z" fill="black"/>
<path d="M10.5109 8.08034C9.83964 7.40913 8.75139 7.40913 8.08017 8.08034C7.40896 8.75156 7.40896 9.83981 8.08017 10.511L9.70062 12.1315C10.3718 12.8027 11.4601 12.8027 12.1313 12.1315C12.8025 11.4603 12.8025 10.372 12.1313 9.7008L10.5109 8.08034Z" fill="black"/>
<path d="M50.1354 25.5002C50.1354 26.4494 49.3659 27.2189 48.4167 27.2189H46.125C45.1758 27.2189 44.4063 26.4494 44.4063 25.5002C44.4063 24.5509 45.1758 23.7814 46.125 23.7814H48.4167C49.3659 23.7814 50.1354 24.5509 50.1354 25.5002Z" fill="black"/>
<path d="M42.9198 10.511C43.591 9.83979 43.591 8.75154 42.9198 8.08032C42.2486 7.40911 41.1604 7.40911 40.4891 8.08032L38.8687 9.70078C38.1975 10.372 38.1975 11.4602 38.8687 12.1315C39.5399 12.8027 40.6282 12.8027 41.2994 12.1315L42.9198 10.511Z" fill="black"/>
<path d="M25.5 44.4064C26.4492 44.4064 27.2188 45.1759 27.2188 46.1252V48.4168C27.2188 49.3661 26.4492 50.1356 25.5 50.1356C24.5508 50.1356 23.7813 49.3661 23.7813 48.4168V46.1252C23.7813 45.1759 24.5508 44.4064 25.5 44.4064Z" fill="black"/>
<path d="M41.2995 38.8689C40.6283 38.1977 39.5401 38.1977 38.8688 38.8689C38.1976 39.5401 38.1976 40.6283 38.8688 41.2996L40.4893 42.92C41.1605 43.5912 42.2488 43.5912 42.92 42.92C43.5912 42.2488 43.5912 41.1605 42.92 40.4893L41.2995 38.8689Z" fill="black"/>
<path d="M6.59376 25.5002C6.59376 26.4494 5.82425 27.2189 4.87501 27.2189H2.58334C1.6341 27.2189 0.864594 26.4494 0.864594 25.5002C0.864594 24.5509 1.6341 23.7814 2.58334 23.7814H4.87501C5.82425 23.7814 6.59376 24.5509 6.59376 25.5002Z" fill="black"/>
<path d="M12.1312 41.2995C12.8024 40.6283 12.8024 39.5401 12.1312 38.8689C11.4599 38.1976 10.3717 38.1976 9.70047 38.8689L8.08002 40.4893C7.40881 41.1605 7.4088 42.2488 8.08002 42.92C8.75123 43.5912 9.83949 43.5912 10.5107 42.92L12.1312 41.2995Z" fill="black"/>
</svg>
