<svg width="72" height="72" viewBox="0 0 72 72" fill="none" xmlns="http://www.w3.org/2000/svg">
<rect width="72" height="72" rx="20" fill="url(#paint0_linear_132_266)"/>
<circle cx="48.5156" cy="30.0938" r="12.9375" fill="url(#paint1_linear_132_266)"/>
<g filter="url(#filter0_bi_132_266)">
<path d="M45.1406 54.5451C51.176 54.2126 55.9688 49.1534 55.9688 42.9609C55.9688 36.5536 50.8375 31.3594 44.5078 31.3594C43.7223 31.3594 42.9553 31.4394 42.2143 31.5917C40.5067 26.5492 35.7567 22.9219 30.1641 22.9219C23.2214 22.9219 17.5771 28.5119 17.44 35.46C13.527 36.7024 10.6875 40.4093 10.6875 44.7891C10.6875 50.1153 14.8867 54.4464 20.1094 54.5602V54.5625H45.1406V54.5451Z" fill="url(#paint2_linear_132_266)"/>
</g>
<defs>
<filter id="filter0_bi_132_266" x="-19.3125" y="-7.07812" width="105.281" height="91.6406" filterUnits="userSpaceOnUse" color-interpolation-filters="sRGB">
<feFlood flood-opacity="0" result="BackgroundImageFix"/>
<feGaussianBlur in="BackgroundImageFix" stdDeviation="15"/>
<feComposite in2="SourceAlpha" operator="in" result="effect1_backgroundBlur_132_266"/>
<feBlend mode="normal" in="SourceGraphic" in2="effect1_backgroundBlur_132_266" result="shape"/>
<feColorMatrix in="SourceAlpha" type="matrix" values="0 0 0 0 0 0 0 0 0 0 0 0 0 0 0 0 0 0 127 0" result="hardAlpha"/>
<feOffset dx="3" dy="2"/>
<feGaussianBlur stdDeviation="5"/>
<feComposite in2="hardAlpha" operator="arithmetic" k2="-1" k3="1"/>
<feColorMatrix type="matrix" values="0 0 0 0 1 0 0 0 0 1 0 0 0 0 1 0 0 0 0.4 0"/>
<feBlend mode="normal" in2="shape" result="effect2_innerShadow_132_266"/>
</filter>
<linearGradient id="paint0_linear_132_266" x1="36" y1="0" x2="36" y2="72" gradientUnits="userSpaceOnUse">
<stop stop-color="#2654AA"/>
<stop offset="1" stop-color="#49A2F7"/>
</linearGradient>
<linearGradient id="paint1_linear_132_266" x1="48.5156" y1="17.1562" x2="48.5156" y2="43.0312" gradientUnits="userSpaceOnUse">
<stop stop-color="#FFC600"/>
<stop offset="1" stop-color="#FEE400"/>
</linearGradient>
<linearGradient id="paint2_linear_132_266" x1="33.3281" y1="22.9219" x2="33.3281" y2="54.5625" gradientUnits="userSpaceOnUse">
<stop stop-color="white"/>
<stop offset="1" stop-color="white" stop-opacity="0.5"/>
</linearGradient>
</defs>
</svg>
